<svg xmlns="http://www.w3.org/2000/svg" xmlns:xlink="http://www.w3.org/1999/xlink" width="257.799" height="257.804" viewBox="0 0 193.349 193.353" xmlns:v="https://vecta.io/nano"><style><![CDATA[.B{fill:none}.C{fill:#211e1e}.D{stroke-miterlimit:10}.E{stroke:#211e1e}.F{stroke-width:.265}]]></style><defs><clipPath id="A"><path d="M0 .051h222.074v221.891H0zm0 0"/></clipPath><clipPath id="B"><path d="M0 .051h222.074v221.891H0zm0 0"/></clipPath><path id="C" d="M16.578 112.211c0 52.203 42.316 94.52 94.52 94.52s94.52-42.316 94.52-94.52-42.316-94.523-94.52-94.523-94.52 42.32-94.52 94.523zm0 0"/><path id="D" d="M80.7 104.081c2.85 0 4.35 2.1 4.35 4.5 0 3.15-2.175 4.95-5.25 4.95h-3.15v-9.45zm-.975 7.875c1.95 0 3.375-1.2 3.375-3.225 0-1.65-.825-3.15-2.775-3.15h-1.95v6.375h1.35z"/></defs><path d="M2.155 96.678c0 52.203 42.316 94.52 94.52 94.52s94.52-42.316 94.52-94.52-42.316-94.523-94.52-94.523-94.52 42.32-94.52 94.523" class="C"/><g transform="matrix(2.563017 1.21085 -1.21085 2.563017 111.137232 -545.438128)"><path d="M77.654 177.492l18.714 47.14 2.6-.06-4.284-50.342-2.912-.039 5.074 46.754-16.469-44.49zm17.03-3.262l4.295 50.341 2.783-.064 10.736-43.453-2.721-1.762-9.159 41.653-2.743-46.293z" fill="#c8102e" stroke="#c8102e" class="F"/><g fill="#012169"><path d="M83.158 175.586l5.707-1.159 7.027 42.478z"/><path d="M102.113 175.621l4.894 2.033-6.075 39.252 1.181-41.285" stroke="#012169" class="F"/></g></g><path d="M85.723 147.07L94.918 2.527s24.25-.961 48.492 12.367c25.473 14.008 37.399 39.834 37.399 39.834l-80.324 98.632" fill="#646464" fill-opacity=".389"/><g clip-path="url(#A)" transform="translate(-14.423 -15.532)" class="B D E"><use xlink:href="#C" stroke-width="3.204"/></g><g fill="#f04f19"><path d="M18.819 146.491s7.336-1.312 10.258-3.078c3.746-2.262 14.879-13.336 21.031-12.824l8.207 13.336 20.336 20.336 8.262 3.383 17.277 4.992c4.172 1.473 18.652 13.004 18.652 13.004 4.906 3.191-3.52 3.676-4.418 3.684l-6.023 1.213-9.02.838-12.219.684c-25.698-6.966-20.77-5.219-22.641-7.066-2.801-1.371-7.879-1.461-10.305-3.312-2.184-1.664-7.105-2.469-8.836-4.785-2.145-2.871-8.254-4.41-8.832-5.52-.332-.633-11.129-8.977-11.41-9.57-2.405-3.441-10.32-15.312-10.32-15.312"/><path d="M156.128 168.428c-3.84-1.684-13.574-3.059-17.828-4.871-1.371-.586-5.152-1.965-5.152-1.965s-4.086 3.473-6.184 3.664-5.621-1.32-9.535-.953c-5.137.48-14.465 4.652-14.465 4.652s4.172 1.469 9.816 6.871c2.871 2.746 6.383 5.398 10.309 10.059 1.34 1.594 16.133-5.582 16.133-5.582l16.906-11.875"/></g><use xlink:href="#C" x="-14.423" y="-15.533" stroke-width="2.155" class="B D E"/><g fill="#fff"><path d="M144.425 31.417l.102-.051-.109.047.156-.172-.172.16.043-.117-.047.109-.012-.355-.008.355-.055-.105.047.113-.172-.16.16.172-.117-.043.109.047-.352.012.352.012-.109.051.117-.047-.16.172.172-.16-.039.117.047-.109.008.352.012-.352.051.109-.043-.117.168.16-.16-.172.117.043-.105-.047.352-.012-.352-.012m-40.099 32.054l.758-.348-.828.297 1.141-1.227-1.207 1.133.313-.805-.375.766-.078-2.531-.062 2.512-.348-.758.297.828-1.227-1.141 1.137 1.211-.805-.309.766.371-2.535.074 2.516.066-.762.344.832-.297-1.145 1.23 1.211-1.137-.312.805.375-.766.074 2.531.066-2.512.344.758-.293-.828 1.227 1.141-1.137-1.211.805.316-.766-.375 2.531-.078-2.512-.062M65.745 27.19l.105.227-.09-.238.355.336-.332-.359.242.086-.227-.102.738-.02-.738-.023.223-.109-.238.094.332-.355-.359.332.09-.242-.102.223-.02-.734-.027.738-.105-.223.094.238-.355-.336.332.359-.242-.082.223.098-.734.02.738.023-.223.109.238-.09-.336.352.359-.332-.086.238.098-.219.023.734.023-.742m116.927 81.39l.141.301-.121-.316.477.445-.445-.477.324.113-.301-.137.988-.027-.992-.027.301-.148-.316.125.445-.477-.484.445.117-.324-.133.301-.027-.992-.035.996-.141-.301.121.32-.477-.449.449.484-.328-.117.301.137-.988.023.996.031-.305.148.32-.121-.449.469.484-.445-.117.324.133-.297.031.988.031-.996m-41.317 31.036l.145.305-.121-.32.473.449-.445-.48.324.113-.301-.133.992-.031-.996-.027.301-.148-.316.125.445-.477-.48.445.117-.324-.137.301-.027-.988-.031.992-.145-.301.121.32-.473-.449.445.484-.324-.113.301.133-.992.023.996.035-.301.145.316-.121-.445.473.48-.449-.117.328.137-.301.027.988.031-.996m-56.386-31.794l.145.301-.121-.316.477.449-.449-.48.328.113-.301-.137.988-.027-.992-.027.301-.148-.32.125.449-.477-.484.445.117-.324-.137.301-.023-.992-.035.996-.145-.301.125.32-.477-.449.449.484-.328-.117.301.137-.988.023.996.031-.305.148.32-.121-.449.469.484-.445-.117.324.133-.297.031.988.027-.996m38.972-6.984l-.059-.227.043.246-.293-.375.266.391-.211-.121.199.133-.711-.086.695.129-.223.063.238-.047-.367.293.383-.266-.117.211.137-.195-.09.703.129-.695.063.227-.047-.242.293.371-.266-.387.207.121-.195-.133.707.082-.695-.121.227-.066-.242.047.371-.289-.387.262.121-.211-.137.195.086-.707-.125.695m41.762 42.971l-.285-.59.238.617-.93-.871.875.941-.633-.23.582.27-1.93.051 1.941.059-.586.285.621-.238-.875.934.945-.883-.23.637.266-.582.051 1.93.059-1.945.285.59-.238-.621.934.875-.879-.941.637.223-.586-.262 1.93-.055-1.941-.055.586-.285-.617.242.871-.934-.945.875.227-.637-.262.582-.051-1.93-.059 1.949M19.331 60.987l-.102-.207.082.219-.332-.309.316.332-.227-.078.203.09-.684.023.695.02-.215.102.223-.086-.312.328.336-.309-.082.223.098-.207.016.688.02-.691.102.207-.082-.219.332.313-.312-.336.227.082-.207-.094.684-.02-.691-.023.211-.102-.219.09.309-.332-.336.313.078-.227-.094.207-.016-.687-.02.691m102.373-45.692l.29 1.059-.2-1.089 1.259 1.748-1.139-1.848.969.569-.869-.619 3.206.539-3.206-.729 1.069-.28-1.089.2 1.738-1.269-1.848 1.149.579-.969-.619.869.539-3.206-.729 3.196-.29-1.059.2 1.109-1.259-1.758 1.159 1.848-.999-.579.889.619-3.216-.529 3.206.719-1.059.28 1.099-.19-1.738 1.249 1.828-1.149-.569.979.619-.869-.529 3.216.709-3.206M94.968 9.448l.039.148-.027-.152.176.242-.16-.254.137.074-.125-.082.449.074-.441-.102.145-.039-.152.031.242-.176-.258.156.082-.137-.086.125.07-.445-.098.441-.039-.148.027.156-.18-.242.168.25-.141-.078.125.09-.445-.074.441.098-.148.039.152-.027-.242.18.258-.164-.082.137.086-.121-.07.449.098-.449M44.053 24.26l.039.148-.027-.156.172.242-.156-.254.137.078-.125-.086.449.078-.445-.102.145-.043-.148.031.242-.172-.258.156.082-.137-.086.121.07-.441-.098.441-.039-.148.027.152-.18-.242.164.254-.137-.078.121.086-.441-.074.438.102-.145.035.152-.023-.242.176.254-.16-.078.133.086-.117-.07.445.098-.445m-28.208 95.258l-.051-.477.012.504-.461-.848.398.871-.383-.32.352.344-1.395-.418 1.359.492-.48.051.508-.012-.848.461.867-.395-.316.379.344-.348-.418 1.395.492-1.359.047.477-.008-.508.461.848-.398-.867.383.316-.352-.34 1.395.418-1.359-.492.48-.051-.508.012.848-.465-.867.398.316-.379-.344.348.418-1.395-.492 1.359m15.579 12.322l-.09-.832.02.879-.801-1.473.691 1.512-.664-.551.609.594-2.426-.727 2.359.859-.828.086.883-.019-1.477.801 1.512-.687-.551.664.594-.613-.727 2.426.859-2.359.082.824-.02-.879.805 1.477-.695-1.512.664.555-.605-.598 2.426.727-2.363-.855.832-.086-.883.016 1.477-.801-1.512.691.555-.664-.598.609.727-2.426-.855 2.363m74.941-27.314l-.285-.586.238.613-.934-.871.879.941-.633-.227.582.266-1.93.055 1.941.059-.586.285.617-.242-.871.934.941-.879-.227.633.266-.582.051 1.93.059-1.945.285.59-.238-.621.93.879-.879-.945.637.223-.582-.258 1.93-.055-1.945-.059.586-.285-.613.242.871-.934-.945.875.227-.633-.262.582-.055-1.934-.055 1.949m69.312-27.941l-.102-.207.082.223-.332-.312.313.336-.223-.078.203.09-.684.02.691.02-.211.102.219-.086-.309.332.336-.309-.082.223.098-.207.016.688.019-.691.102.207-.082-.219.332.313-.312-.34.223.082-.203-.094.684-.02-.691-.02.211-.102-.219.09.309-.336-.336.313.078-.227-.094.207-.016-.684-.019.688m-9.696 39.31l.113.414-.078-.43.492.684-.449-.719.383.223-.34-.242 1.254.207-1.254-.281.418-.113-.426.082.68-.496-.723.449.227-.383-.242.344.211-1.254-.285 1.25-.113-.418.078.434-.492-.687.449.727-.387-.23.348.246-1.258-.207 1.254.281-.414.105.43-.07-.68.484.715-.445-.223.383.242-.344-.211 1.262.281-1.254m-34.359 7.752l.031.105-.019-.113.129.184-.121-.191.105.059-.094-.066.332.059-.328-.074.105-.031-.109.023.18-.129-.191.113.059-.102-.062.094.055-.332-.074.328-.027-.109.016.117-.129-.18.121.184-.102-.055.09.063-.328-.055.324.074-.105.027.113-.019-.184.133.191-.121-.059.102.063-.086-.051.328.07-.328m-37.532-9.568l.039.148-.027-.156.172.242-.16-.254.141.078-.125-.086.449.074-.445-.098.145-.043-.148.031.242-.172-.258.156.078-.137-.082.121.07-.445-.098.445-.039-.148.027.152-.18-.242.164.254-.137-.078.121.086-.441-.074.438.102-.145.035.152-.023-.242.176.254-.16-.078.133.086-.117-.074.445.102-.445"/><path d="M104.905 27.288l.039.145-.027-.152.176.242-.164-.254.141.078-.125-.086.449.074-.445-.102.148-.039-.152.031.242-.176-.258.156.082-.137-.086.125.07-.445-.098.441-.039-.148.027.156-.18-.242.164.25-.137-.078.121.09-.441-.074.438.102-.145.035.152-.027-.242.18.254-.164-.078.137.086-.117-.074.445.102-.445M127.6 146.155l-.066-.68.016.723-.66-1.211.566 1.242-.543-.457.5.492-1.992-.602 1.938.707-.68.07.723-.016-1.211.664 1.238-.57-.453.547.492-.5-.602 1.992.707-1.941.07.68-.012-.723.66 1.211-.574-1.242.547.457-.5-.492 1.996.602-1.945-.707.684-.07-.723.016 1.211-.664-1.242.57.453-.547-.488.504.602-1.996-.711 1.941m8.873-104.618l.711-.504-.779.459.894-1.444-.986 1.375.137-.871-.207.848-.573-2.522.413 2.522-.481-.688.458.756-1.467-.871 1.375.963-.871-.138.871.206-2.545.596 2.545-.436-.711.504.802-.481-.917 1.467.986-1.375-.16.871.229-.848.573 2.545-.413-2.568.481.711-.458-.779 1.467.917-1.398-1.009.894.16-.871-.229 2.545-.573-2.545.436m-26.564 81.673l.027.109-.016-.113.129.18-.121-.187.102.055-.094-.062.336.059-.328-.078.105-.027-.113.019.184-.129-.195.117.063-.102-.062.094.051-.332-.07.328-.031-.109.019.113-.133-.18.125.188-.105-.059.094.066-.332-.055.328.074-.109.027.113-.019-.18.133.191-.121-.059.102.063-.09-.055.332.074-.332m49.233 25.28l.031.109-.023-.113.129.18-.117-.191.102.059-.09-.062.332.059-.328-.078.105-.027-.109.019.18-.129-.191.117.059-.102-.062.094.055-.332-.074.328-.031-.109.019.113-.129-.18.121.188-.105-.059.094.066-.332-.059.328.078-.105.027.109-.019-.18.133.191-.121-.059.102.063-.09-.055.332.074-.332m-42.767-82.134l.039.148-.027-.156.176.246-.16-.258.137.078-.125-.086.449.078-.441-.102.145-.039-.152.027.242-.176-.258.16.082-.137-.086.125.074-.449-.098.445-.043-.148.027.152-.18-.242.168.254-.141-.078.125.086-.445-.074.438.102-.145.035.152-.023-.242.176.258-.16-.082.133.086-.117-.07.445.098-.445m-13.572 62.641l.027.109-.019-.117.129.184-.117-.191.102.059-.094-.062.336.055-.332-.078.109-.027-.113.023.18-.129-.191.117.063-.105-.066.094.055-.332-.07.332-.031-.113.019.117-.133-.184.121.191-.102-.062.09.07-.328-.059.324.074-.105.027.113-.019-.18.133.188-.121-.059.102.066-.086-.055.332.074-.332m-19.52-77.885l-.148-.301.125.316-.477-.445.449.484-.324-.117.297.133-.984.027.992.031-.301.145.316-.121-.445.477.484-.449-.117.32.133-.297.027.992.027-.996.148.301-.125-.316.477.449-.449-.484.324.113-.297-.133.988-.027-.992-.031.297-.148-.316.125.449-.473-.484.449.117-.328-.137.297-.023-.984-.031.992"/><path d="M88.014 30.885l.297-.148-.316.121.449-.477-.484.449.113-.324-.133.301-.027-.984-.031.992-.145-.301.121.313-.473-.445.449.484-.328-.117.297.137-.984.027.992.027-.301.148.32-.125-.449.477.484-.449-.117.324.133-.297.031.984.027-.992.145.301-.121-.316.477.449-.449-.484.324.117-.297-.137.988-.027-.992-.027"/><path d="M87.948 30.901l.105-.051-.109.047.156-.172-.172.16.043-.117-.047.105-.012-.352-.012.355-.051-.109.043.117-.168-.16.156.172-.113-.043.105.047-.352.012.355.008-.109.055.113-.047-.156.172.168-.16-.039.117.047-.109.012.352.012-.352.051.109-.043-.117.168.16-.16-.172.113.043-.105-.051.355-.008-.355-.012M23.94 118.944l.105-.051-.109.047.156-.172-.172.16.043-.117-.047.109-.012-.355-.012.355-.051-.105.047.113-.172-.16.156.172-.113-.039.105.043-.352.012.355.008-.109.051.113-.043-.156.172.172-.16-.043.117.047-.105.012.348.012-.352.051.109-.043-.117.168.16-.16-.172.117.039-.105-.047.352-.008-.355-.012m31.973-11.473l-.062-.227.043.246-.293-.375.266.387-.207-.117.195.133-.707-.086.695.129-.223.063.238-.047-.367.293.383-.266-.117.211.133-.195-.086.703.125-.695.063.227-.043-.242.293.371-.27-.387.211.121-.195-.137.707.09-.695-.125.223-.066-.238.047.371-.289-.387.262.121-.211-.137.195.086-.707-.125.695M12.132 82.647l-.285-.586.238.617-.93-.871.875.938-.637-.227.582.27-1.926.051 1.941.059-.586.285.617-.242-.875.934.945-.879-.227.637.266-.586.051 1.934.059-1.949.285.59-.238-.617.93.875-.879-.945.637.227-.586-.262 1.934-.051-1.945-.059.586-.285-.617.238.871-.93-.941.875.227-.637-.262.582-.055-1.93-.055 1.945"/><path d="M45.225 56.979c-2.051-1.496-4.609-3.348-8.191-3.348-2.875 0-4.848 1.535-4.848 3.27 0 1.656 1.301 2.563 5.516 3.504 4.215.906 9.137 2.406 9.137 7.563 0 5.277-4.844 8.902-10.867 8.902-4.492 0-7.641-1.969-9.141-2.918v-5.668c2.012 1.613 5.277 4.094 9.18 4.094 2.992 0 5.352-1.891 5.352-4.016 0-2.168-1.965-3.148-5.906-3.98-2.875-.668-5.039-1.375-6.773-2.949-.945-.988-1.852-2.441-1.852-4.57 0-4.684 4.293-7.719 10.082-7.719 2.953 0 5.789.828 8.313 2.324v5.512m5.237 19.456h5.117V49.577h-5.117zM87.6 49.577v26.859h-5.121V57.534h-.074l-8.234 14.059-8.27-14.059h-.078v18.902h-5.121V49.577h5.711l7.758 13.152 7.797-13.152H87.6m8.985 13.391c0 4.922 2.914 9.57 7.676 9.57 4.531 0 7.797-4.293 7.797-9.531 0-5.633-3.543-9.531-7.598-9.531-5.082 0-7.875 4.688-7.875 9.492zm20.832.039c0 8.074-6.066 13.863-13.234 13.863-7.402 0-12.957-5.949-12.957-13.785 0-8.23 6.027-13.941 12.84-13.941 8.352 0 13.352 6.617 13.352 13.863m8.745-13.43l11.613 18.313h.082V49.577h5.117v26.859h-5.117l-11.617-18.512h-.078v18.512h-5.121V49.577h5.121m38.91 7.402c-2.051-1.496-4.609-3.348-8.191-3.348-2.875 0-4.844 1.535-4.844 3.27 0 1.656 1.297 2.563 5.512 3.504 4.215.906 9.137 2.406 9.137 7.563 0 5.277-4.844 8.902-10.867 8.902-4.492 0-7.641-1.969-9.137-2.918v-5.668c2.008 1.613 5.273 4.094 9.172 4.094 2.996 0 5.359-1.891 5.359-4.016 0-2.168-1.969-3.148-5.91-3.98-2.875-.668-5.039-1.375-6.773-2.949-.941-.988-1.848-2.441-1.848-4.57 0-4.684 4.289-7.719 10.082-7.719 2.953 0 5.789.828 8.309 2.324v5.512M30.749 90.257c0 2.172 1.285 4.223 3.387 4.223 1.996 0 3.438-1.895 3.438-4.203 0-2.484-1.562-4.203-3.352-4.203-2.238 0-3.473 2.066-3.473 4.184zm9.188.019c0 3.559-2.676 6.113-5.836 6.113-3.266 0-5.711-2.621-5.711-6.078 0-3.629 2.656-6.148 5.66-6.148 3.68 0 5.887 2.918 5.887 6.113"/><path d="M45.675 90.917v3.301h2.188c.781 0 2.695-.141 2.695-1.719 0-1.078-.992-1.582-2.102-1.582zm0-4.617v2.762h1.965c1.23 0 2.203-.434 2.203-1.496 0-1.074-1.039-1.266-1.633-1.266zm3.355-1.98c1.906 0 3.125 1.18 3.125 2.746 0 .832-.348 1.598-.957 2.117-.398.363-.746.484-1.215.625v.035c.555.035 1.18.086 1.84.555.715.484 1.094 1.32 1.094 2.242 0 2.203-2.051 3.559-4.773 3.559h-4.723v-11.88h5.609m14.836 3.301c-.902-.66-2.031-1.477-3.613-1.477-1.266 0-2.137.676-2.137 1.441 0 .73.574 1.129 2.434 1.543 1.855.402 4.027 1.063 4.027 3.336 0 2.328-2.137 3.926-4.793 3.926-1.98 0-3.367-.867-4.027-1.285v-2.5c.883.711 2.328 1.805 4.043 1.805 1.32 0 2.363-.832 2.363-1.77 0-.957-.867-1.391-2.605-1.758-1.266-.293-2.223-.605-2.984-1.301-.418-.434-.816-1.078-.816-2.016 0-2.066 1.891-3.402 4.445-3.402 1.301 0 2.555.363 3.664 1.023v2.434m12.214-3.265v1.98h-5.746v2.777h5.469v1.84h-5.469v3.266h5.746v1.98h-8.004V84.354h8.004m6.101 1.981v3.004h1.824c1.668 0 2.465-.766 2.465-1.633 0-.711-.57-1.371-1.699-1.371zm2.918-1.98c2.328 0 3.648 1.18 3.648 2.918 0 1.875-1.305 2.813-3.25 3.195v.035c.871.262 1.738.539 2.398 2.328l1.25 3.367h-2.465l-.832-2.621c-.488-1.547-1.148-2.363-2.797-2.363h-.871v4.984h-2.254V84.354H85.1m17.075 0l-4.359 11.844h-2.219l-4.273-11.844h2.484l2.898 8.996h.035l2.898-8.996h2.535m6.403 2.848h-.031l-1.285 3.961h2.602zm1.098-2.848l4.32 11.844h-2.535l-1.023-3.176h-3.77l-1.059 3.176h-2.484l4.344-11.844h2.207m15.164 0v1.98h-3.422v9.863h-2.258v-9.863h-3.336v-1.98h9.016m4.507 5.903c0 2.172 1.285 4.223 3.387 4.223 1.996 0 3.438-1.895 3.438-4.203 0-2.484-1.562-4.203-3.352-4.203-2.238 0-3.473 2.066-3.473 4.184zm9.188.019c0 3.559-2.676 6.113-5.836 6.113-3.266 0-5.715-2.621-5.715-6.078 0-3.629 2.66-6.148 5.664-6.148 3.68 0 5.887 2.918 5.887 6.113m5.738-3.941v3.004h1.824c1.668 0 2.465-.766 2.465-1.633 0-.711-.57-1.371-1.699-1.371zm2.918-1.98c2.328 0 3.648 1.18 3.648 2.918 0 1.875-1.301 2.813-3.246 3.195v.035c.867.262 1.734.539 2.395 2.328l1.25 3.367h-2.465l-.836-2.621c-.484-1.547-1.145-2.363-2.793-2.363h-.871v4.984h-2.258V84.354h5.176m8.813 0l2.469 4.375 2.465-4.375h2.813l-4.152 6.441v5.402h-2.254v-5.402l-4.102-6.441h2.762m-75.185 79.164l8.559-1.07s-.461-1.566-2.793-1.504c-1.348.035-3.066.246-3.066.246l-2.699 2.328"/></g><g class="C"><path d="M86.956 172.968l2.695-.676-2.484.184-6.961.734"/><path d="M94.624 176.159l8.254-17.523-23.535-10.227-8.254 17.52 23.535 10.23"/></g><g stroke="#fff" stroke-width="2.437" class="B D"><path d="M94.624 176.159l8.254-17.523-23.535-10.227-8.254 17.52zm0 0"/><path d="M99.893 153.1l-14.625-6.5" stroke-linecap="round"/></g><g class="C"><path d="M81.37 183.518s-.051.043 4.941-.004l4.723.098-1.285-2.676h-7.457l-.922 2.582"/><path d="M80.725 181.311H91.37v-9.219l-10.645-4.586v13.805"/></g><g fill="#fff"><path d="M81.37 180.757v-17.219c0-1.645 1.984-3.578 4.512-3.578s4.629 1.934 4.629 3.578v17.219c-.133-.098-9.004.223-9.141 0"/><path d="M80.085 171.647l7.082.094 1.383 7.973-6.012.125-2.453-8.191"/></g><path d="M80.085 171.647l7.082.094 1.383 7.973-6.012.125zm0 0" stroke-width=".515" class="B D E"/><path d="M88.639 179.655l-1.379-7.914 2.117-.184-.277 7.082-.461 1.016" class="C"/><path d="M79.796 172.018v-8.465c0-1.871 1.273-3.594 3.723-3.594 1.535 0 3.68 1.723 3.68 3.594v8.465c-.133-.113-7.27.25-7.402 0" fill="#fff"/><path d="M79.796 172.018v-8.465c0-1.871 1.273-3.594 3.723-3.594 1.535 0 3.68 1.723 3.68 3.594v8.465c-.133-.113-7.27.25-7.402 0zm0 0" stroke-width=".675" stroke-miterlimit="2" class="B E"/><path d="M76.585 186.28h19.512v-2.207H76.585zm0 0" class="C"/><path d="M41.718 36.764l.145.301-.125-.32.477.449-.445-.48.324.113-.301-.133.988-.027-.992-.031.301-.145-.316.121.445-.477-.484.449.121-.328-.137.301-.027-.988-.031.996-.145-.301.121.32-.477-.453.449.484-.324-.113.297.133-.988.027.996.031-.301.145.316-.121-.449.473.484-.449-.117.328.137-.297.027.984.031-.992" fill="#fff"/><g clip-path="url(#B)" transform="translate(-14.423 -15.532)" class="B D"><use xlink:href="#C" stroke="#f04f19" stroke-width="4.31"/></g><g fill="#fff"><path d="M34.8 104.081v5.775c0 1.425.6 2.325 1.95 2.325s2.025-.9 2.025-2.175v-5.925h1.8v6c0 2.25-1.275 3.6-3.75 3.6s-3.75-1.275-3.75-3.525v-6.075zm10.275 0l4.125 6.45h0v-6.45H51v9.45h-1.8l-4.125-6.525h0v6.525h-1.8v-9.45zm10.8 0v9.45h-1.8v-9.45zm9.375 0v1.575h-2.7v7.875h-1.8v-7.875h-2.7v-1.575zm8.625 0v1.575H69.3v2.25h4.35v1.5H69.3v2.625h4.575v1.575h-6.45v-9.45h6.45z"/><use xlink:href="#D"/><path d="M94.95 104.081v4.05l3.525-4.05h2.175l-3.15 3.45 3.375 6h-2.1l-2.475-4.65-1.35 1.5v3.15h-1.8v-9.45zm9.75 0v9.45h-1.8v-9.45zm4.875 0l4.125 6.45h0v-6.45h1.8v9.45h-1.8l-4.125-6.525h0v6.525h-1.8v-9.45zm16.35.75v1.95c-.9-.75-2.025-1.2-3.075-1.2-1.725 0-3 1.425-3 3.375 0 1.8 1.2 3.15 2.55 3.15 1.125 0 1.95-.825 1.95-2.025h-2.4v-1.575h4.2v5.1h-1.575l-.15-1.2c-.675.9-1.575 1.35-2.475 1.35-2.025 0-3.975-2.025-3.975-4.725 0-3.075 2.1-5.1 4.8-5.1 1.125 0 2.1.3 3.15.9z"/><use xlink:href="#D" x="52.05"/><path d="M148.275 108.806c0 2.775-2.025 4.875-4.65 4.875s-4.575-2.1-4.575-4.95c0-2.7 2.025-4.875 4.575-4.875 2.85.075 4.65 2.325 4.65 4.95zm-4.575 3.375c1.575 0 2.775-1.5 2.775-3.375s-1.2-3.375-2.7-3.375c-1.575 0-2.775 1.425-2.775 3.375 0 1.875 1.125 3.375 2.7 3.375zm9.15-8.1l2.7 4.65 2.775-4.65h1.95v9.45h-1.8v-6.675h0l-2.925 4.95-2.925-4.95h0v6.675h-1.8v-9.45z"/></g></svg>