<?xml version="1.0" encoding="UTF-8" standalone="no"?>
<svg
   width="223pt"
   height="222pt"
   viewBox="0 0 223 222"
   version="1.2"
   id="svg339"
   sodipodi:docname="SO_Logo_UK_full.svg"
   inkscape:version="1.3 (0e150ed, 2023-07-21)"
   xmlns:inkscape="http://www.inkscape.org/namespaces/inkscape"
   xmlns:sodipodi="http://sodipodi.sourceforge.net/DTD/sodipodi-0.dtd"
   xmlns="http://www.w3.org/2000/svg"
   xmlns:svg="http://www.w3.org/2000/svg"
   xmlns:rdf="http://www.w3.org/1999/02/22-rdf-syntax-ns#"
   xmlns:cc="http://creativecommons.org/ns#"
   xmlns:dc="http://purl.org/dc/elements/1.1/">
  <metadata
     id="metadata343">
    <rdf:RDF>
      <cc:Work
         rdf:about="">
        <dc:format>image/svg+xml</dc:format>
        <dc:type
           rdf:resource="http://purl.org/dc/dcmitype/StillImage" />
        <dc:title />
      </cc:Work>
    </rdf:RDF>
  </metadata>
  <sodipodi:namedview
     pagecolor="#ffffff"
     bordercolor="#666666"
     borderopacity="1"
     objecttolerance="10"
     gridtolerance="10"
     guidetolerance="10"
     inkscape:pageopacity="0"
     inkscape:pageshadow="2"
     inkscape:window-width="1280"
     inkscape:window-height="1387"
     id="namedview341"
     showgrid="false"
     inkscape:zoom="1.2091717"
     inkscape:cx="88.076822"
     inkscape:cy="150.51626"
     inkscape:window-x="0"
     inkscape:window-y="25"
     inkscape:window-maximized="0"
     inkscape:current-layer="svg339"
     inkscape:snap-bbox="true"
     inkscape:snap-intersection-paths="false"
     inkscape:snap-midpoints="false"
     inkscape:showpageshadow="2"
     inkscape:pagecheckerboard="0"
     inkscape:deskcolor="#d1d1d1"
     inkscape:document-units="pt" />
  <defs
     id="defs14">
    <clipPath
       id="clip1">
      <path
         d="M 100 215 L 107 215 L 107 221.941406 L 100 221.941406 Z M 100 215 "
         id="path2" />
    </clipPath>
    <clipPath
       id="clip2">
      <path
         d="M 108 213 L 114 213 L 114 221.941406 L 108 221.941406 Z M 108 213 "
         id="path5" />
    </clipPath>
    <clipPath
       id="clip3">
      <path
         d="M 0 0.0507813 L 222.074219 0.0507813 L 222.074219 221.941406 L 0 221.941406 Z M 0 0.0507813 "
         id="path8" />
    </clipPath>
    <clipPath
       id="clip4">
      <path
         d="M 0 0.0507813 L 222.074219 0.0507813 L 222.074219 221.941406 L 0 221.941406 Z M 0 0.0507813 "
         id="path11" />
    </clipPath>
  </defs>
  <path
     inkscape:connector-curvature="0"
     id="path190"
     d="m 16.578125,112.21094 c 0,52.20312 42.316406,94.51953 94.519535,94.51953 52.20312,0 94.51953,-42.31641 94.51953,-94.51953 0,-52.203127 -42.31641,-94.52344 -94.51953,-94.52344 -52.203129,0 -94.519535,42.320313 -94.519535,94.52344"
     style="fill:#211e1e;fill-opacity:1;fill-rule:nonzero;stroke:none" />
  <g
     transform="matrix(2.6474123,1.013126,-1.013126,2.6474123,84.783897,-530.58183)"
     id="g7289">
    <g
       id="g7322"
       transform="rotate(4.346408,71.566753,175.68209)">
      <path
         style="fill:#c8102e;fill-opacity:1;stroke:#c8102e;stroke-width:0.99999994px;stroke-linecap:butt;stroke-linejoin:miter;stroke-opacity:1"
         d="M 146.22852 25.382812 L 134.07617 216.68945 L 143.05664 220.68164 L 209.69141 41.730469 L 199.80273 36.894531 L 141.66016 204.86328 L 157.20703 26.234375 L 146.22852 25.382812 z M 209.69141 41.730469 L 143.0957 220.69727 L 152.71094 224.9707 L 259.55273 93.808594 L 253.09961 83.396484 L 154.55273 210.95312 L 219.91602 48.326172 L 209.69141 41.730469 z "
         transform="matrix(0.23922978,-0.11301969,0.11301969,0.23922978,39.802654,187.94667)"
         id="path7341" />
      <g
         id="g7283">
        <path
           inkscape:connector-curvature="0"
           id="path7239"
           d="m 83.15848,175.586 5.707224,-1.1585 7.027447,42.47834 z"
           style="fill:#012169;fill-opacity:1;stroke:none;stroke-width:0.26458332px;stroke-linecap:butt;stroke-linejoin:miter;stroke-opacity:1" />
        <path
           inkscape:connector-curvature="0"
           id="path7267"
           d="m 102.11323,175.62069 4.89398,2.03301 -6.07538,39.25214 1.1814,-41.28515"
           style="fill:#012169;fill-opacity:1;stroke:#012169;stroke-width:0.26458332px;stroke-linecap:butt;stroke-linejoin:miter;stroke-opacity:1" />
      </g>
    </g>
  </g>
  <path
     inkscape:connector-curvature="0"
     id="path200-4"
     d="m 100.14565,162.6023 9.19532,-144.54298 c 0,0 24.25,-0.960937 48.49219,12.367193 25.47265,14.00781 37.39867,39.833931 37.39867,39.833931 l -80.32362,98.631636"
     style="fill:#646464;fill-opacity:0.3888889;fill-rule:nonzero;stroke:none;stroke-width:1;stroke-opacity:0.55686275"
     sodipodi:nodetypes="ccccc" />
  <g
     style="clip-rule:nonzero"
     id="g194"
     clip-path="url(#clip3)">
    <path
       inkscape:connector-curvature="0"
       id="path192"
       transform="matrix(0.1,0,0,-0.1,0,222)"
       d="m 165.78125,1097.8906 c 0,-522.03123 423.16406,-945.19529 945.19535,-945.19529 522.0312,0 945.1953,423.16406 945.1953,945.19529 0,522.0313 -423.1641,945.2344 -945.1953,945.2344 -522.03129,0 -945.19535,-423.2031 -945.19535,-945.2344 z m 0,0"
       style="fill:none;stroke:#211e1e;stroke-width:32.04000092;stroke-linecap:butt;stroke-linejoin:miter;stroke-miterlimit:10;stroke-opacity:1" />
  </g>
  <path
     inkscape:connector-curvature="0"
     id="path196"
     d="m 33.242188,162.02344 c 0,0 7.335937,-1.3125 10.257812,-3.07813 3.746094,-2.26172 14.878906,-13.33594 21.03125,-12.82422 l 8.207031,13.33594 20.335938,20.33594 8.261721,3.38281 c 0,0 14.26172,3.92578 17.27734,4.99219 4.17188,1.47265 18.65234,13.0039 18.65234,13.0039 4.90625,3.19141 -3.51953,3.67579 -4.41796,3.6836 l -6.02321,1.21266 c 0,0 -7.61742,0.75609 -9.01976,0.83812 -6.63281,0.375 -11.39453,0.77344 -12.21875,0.68359 -25.698179,-6.96634 -20.769534,-5.21875 -22.640627,-7.0664 -2.800782,-1.3711 -7.878907,-1.46094 -10.304688,-3.3125 -2.183594,-1.66407 -7.105469,-2.46875 -8.835937,-4.78516 -2.144532,-2.87109 -8.253907,-4.41016 -8.832032,-5.51953 -0.332031,-0.63281 -11.128906,-8.97656 -11.410156,-9.57031 -2.404755,-3.44106 -10.320312,-15.3125 -10.320312,-15.3125"
     style="fill:#f04f19;fill-opacity:1;fill-rule:nonzero;stroke:none"
     sodipodi:nodetypes="cccccccccccccccccc" />
  <path
     inkscape:connector-curvature="0"
     id="path198"
     d="m 170.55078,183.96094 c -3.83984,-1.6836 -13.57422,-3.0586 -17.82812,-4.8711 -1.3711,-0.58593 -5.15235,-1.96484 -5.15235,-1.96484 0,0 -4.08594,3.47266 -6.18359,3.66406 -2.09766,0.19141 -5.6211,-1.32031 -9.53516,-0.95312 -5.13672,0.48047 -14.46484,4.65234 -14.46484,4.65234 0,0 4.17187,1.46875 9.81641,6.87109 2.87109,2.7461 6.38281,5.39844 10.30859,10.0586 1.33984,1.59375 16.13281,-5.58203 16.13281,-5.58203 l 16.90625,-11.875"
     style="fill:#f04f19;fill-opacity:1;fill-rule:nonzero;stroke:none" />
  <path
     inkscape:connector-curvature="0"
     id="path202"
     d="m 16.578125,112.21094 c 0,52.20312 42.316406,94.51953 94.519535,94.51953 52.20312,0 94.51953,-42.31641 94.51953,-94.51953 0,-52.20313 -42.31641,-94.52344 -94.51953,-94.52344 -52.203129,0 -94.519535,42.32031 -94.519535,94.52344 z m 0,0"
     style="fill:none;stroke:#211e1e;stroke-width:2.15499997;stroke-linecap:butt;stroke-linejoin:miter;stroke-miterlimit:10;stroke-opacity:1" />
  <path
     inkscape:connector-curvature="0"
     id="path204"
     d="m 158.84766,46.949219 0.10156,-0.05078 -0.10938,0.04687 0.15625,-0.171875 -0.17187,0.160156 0.043,-0.117188 -0.0469,0.109375 -0.0117,-0.355468 -0.008,0.355468 -0.0547,-0.105468 0.0469,0.113281 -0.17188,-0.160156 0.16016,0.171875 -0.11719,-0.04297 0.10938,0.04687 -0.35157,0.01172 0.35157,0.01172 -0.10938,0.05078 0.11719,-0.04687 -0.16016,0.171875 0.17188,-0.160157 -0.0391,0.117188 0.0469,-0.109375 0.008,0.351562 0.0117,-0.351562 0.0508,0.109375 -0.043,-0.117188 0.16797,0.160157 -0.16015,-0.171875 0.11718,0.04297 -0.10546,-0.04687 0.35156,-0.01172 -0.35156,-0.01172"
     style="fill:#ffffff;fill-opacity:1;fill-rule:nonzero;stroke:none" />
  <path
     inkscape:connector-curvature="0"
     id="path206"
     d="m 118.75,79.003906 0.75781,-0.347656 -0.82812,0.296875 1.14062,-1.226562 -1.20703,1.132812 0.3125,-0.804687 -0.375,0.765625 -0.0781,-2.53125 -0.0625,2.511718 -0.34766,-0.757812 0.29688,0.828125 -1.22657,-1.140625 1.13672,1.210937 -0.80469,-0.308593 0.76563,0.371093 -2.53516,0.07422 2.51563,0.06641 -0.76172,0.34375 0.83203,-0.296875 -1.14453,1.230469 1.21094,-1.136719 -0.3125,0.804688 0.375,-0.765625 0.0742,2.53125 0.0664,-2.511719 0.34375,0.757813 -0.29297,-0.828125 1.22657,1.140625 -1.13672,-1.210938 0.80468,0.316406 -0.76562,-0.375 2.53125,-0.07813 -2.51172,-0.0625"
     style="fill:#ffffff;fill-opacity:1;fill-rule:nonzero;stroke:none" />
  <path
     inkscape:connector-curvature="0"
     id="path208"
     d="m 80.167969,42.722656 0.105469,0.226563 -0.08984,-0.238281 0.355469,0.335937 -0.332032,-0.359375 0.242188,0.08594 -0.226563,-0.101563 0.738282,-0.01953 -0.738282,-0.02344 0.222657,-0.109375 -0.238282,0.09375 0.332032,-0.355468 -0.359375,0.332031 0.08984,-0.242188 -0.101562,0.222657 -0.01953,-0.734375 -0.02734,0.738281 -0.105469,-0.222656 0.09375,0.238281 -0.355469,-0.335938 0.332032,0.359375 -0.242188,-0.08203 0.222656,0.09766 -0.734375,0.01953 0.738282,0.02344 -0.222657,0.109375 0.238282,-0.08984 -0.335938,0.351563 0.359375,-0.332031 -0.08594,0.238281 0.09766,-0.21875 0.02344,0.734375 0.02344,-0.742188"
     style="fill:#ffffff;fill-opacity:1;fill-rule:nonzero;stroke:none" />
  <path
     inkscape:connector-curvature="0"
     id="path210"
     d="m 197.09375,124.11328 0.14062,0.30078 -0.12109,-0.3164 0.47656,0.44531 -0.44531,-0.47656 0.32422,0.11328 -0.30078,-0.13672 0.98828,-0.0273 -0.99219,-0.0273 0.30078,-0.14844 -0.3164,0.125 0.44531,-0.47656 -0.48438,0.44531 0.11719,-0.32421 -0.13281,0.30078 -0.0273,-0.99219 -0.0352,0.99609 -0.14063,-0.30078 0.1211,0.32031 -0.47656,-0.44921 0.44921,0.48437 -0.32812,-0.11719 0.30078,0.13672 -0.98828,0.0234 0.99609,0.0312 -0.30468,0.14844 0.32031,-0.1211 -0.44922,0.46875 0.48437,-0.44531 -0.11718,0.32422 0.13281,-0.29688 0.0312,0.98829 0.0312,-0.9961"
     style="fill:#ffffff;fill-opacity:1;fill-rule:nonzero;stroke:none" />
  <path
     inkscape:connector-curvature="0"
     id="path212"
     d="m 155.77734,155.14844 0.14453,0.30468 -0.12109,-0.32031 0.47266,0.44922 -0.44532,-0.48047 0.32422,0.11328 -0.30078,-0.13281 0.99219,-0.0312 -0.99609,-0.0273 0.30078,-0.14844 -0.31641,0.125 0.44531,-0.47656 -0.48047,0.44531 0.11719,-0.32422 -0.13672,0.30078 -0.0273,-0.98828 -0.0312,0.99219 -0.14453,-0.30078 0.12109,0.32031 -0.47265,-0.44922 0.44531,0.48438 -0.32422,-0.11329 0.30078,0.13282 -0.99219,0.0234 0.9961,0.0352 -0.30078,0.14453 0.3164,-0.12109 -0.44531,0.47265 0.48047,-0.44921 -0.11719,0.32812 0.13672,-0.30078 0.0273,0.98828 0.0312,-0.99609"
     style="fill:#ffffff;fill-opacity:1;fill-rule:nonzero;stroke:none" />
  <path
     inkscape:connector-curvature="0"
     id="path214"
     d="m 99.390625,123.35547 0.144531,0.30078 -0.121093,-0.31641 0.476562,0.44922 -0.449219,-0.48047 0.328125,0.11329 -0.300781,-0.13672 0.98828,-0.0273 -0.992186,-0.0273 0.300781,-0.14844 -0.320312,0.125 0.449218,-0.47656 -0.484375,0.44531 0.117188,-0.32422 -0.136719,0.30078 -0.02344,-0.99218 -0.03516,0.99609 -0.144531,-0.30078 0.125,0.32031 -0.476562,-0.44922 0.449218,0.48438 -0.328125,-0.11719 0.300782,0.13672 -0.988282,0.0234 0.996094,0.0312 -0.304687,0.14843 0.320312,-0.12109 -0.449219,0.46875 0.484375,-0.44531 -0.117187,0.32422 0.132812,-0.29688 0.03125,0.98828 0.02734,-0.99609"
     style="fill:#ffffff;fill-opacity:1;fill-rule:nonzero;stroke:none" />
  <path
     inkscape:connector-curvature="0"
     id="path216"
     d="m 138.36328,116.37109 -0.0586,-0.22656 0.043,0.2461 -0.29297,-0.375 0.26562,0.39062 -0.21094,-0.12109 0.19922,0.13281 -0.71093,-0.0859 0.69531,0.12891 -0.22266,0.0625 0.23828,-0.0469 -0.36718,0.29297 0.38281,-0.26562 -0.11719,0.21093 0.13672,-0.19531 -0.0898,0.70313 0.1289,-0.69532 0.0625,0.22657 -0.0469,-0.24219 0.29297,0.37109 -0.26563,-0.38672 0.20703,0.1211 -0.19531,-0.13281 0.70703,0.082 -0.69531,-0.1211 0.22656,-0.0664 -0.24219,0.0469 0.3711,-0.28906 -0.38672,0.26172 0.12109,-0.21094 -0.13672,0.19531 0.0859,-0.70703 -0.125,0.69531"
     style="fill:#ffffff;fill-opacity:1;fill-rule:nonzero;stroke:none" />
  <path
     inkscape:connector-curvature="0"
     id="path218"
     d="m 180.125,159.34375 -0.28516,-0.58984 0.23828,0.61718 -0.92968,-0.87109 0.875,0.94141 -0.63282,-0.23047 0.58204,0.26953 -1.92969,0.0508 1.9414,0.0586 -0.58593,0.28516 0.62109,-0.23828 -0.875,0.93359 0.94531,-0.88281 -0.23047,0.63672 0.26563,-0.58203 0.0508,1.92968 0.0586,-1.94531 0.28516,0.58985 -0.23828,-0.6211 0.93359,0.875 -0.8789,-0.9414 0.63672,0.22265 -0.58594,-0.26172 1.92969,-0.0547 -1.94141,-0.0547 0.58594,-0.28516 -0.61719,0.24219 0.87109,-0.93359 -0.94531,0.875 0.22656,-0.63672 -0.26172,0.58203 -0.0508,-1.92969 -0.0586,1.94922"
     style="fill:#ffffff;fill-opacity:1;fill-rule:nonzero;stroke:none" />
  <path
     inkscape:connector-curvature="0"
     id="path220"
     d="m 33.753906,76.519531 -0.101562,-0.207031 0.08203,0.21875 -0.332031,-0.308594 0.316406,0.332032 -0.226562,-0.07813 0.203125,0.08984 -0.683594,0.02344 0.695312,0.01953 -0.214843,0.101563 0.222656,-0.08594 -0.3125,0.328125 0.335937,-0.308594 -0.08203,0.222657 0.09766,-0.207032 0.01563,0.6875 0.01953,-0.691406 0.101562,0.207031 -0.08203,-0.21875 0.332031,0.3125 -0.3125,-0.335937 0.226563,0.08203 -0.207032,-0.09375 0.683594,-0.01953 -0.691406,-0.02344 0.210937,-0.101562 -0.21875,0.08984 0.308594,-0.332032 -0.335937,0.3125 0.07813,-0.226562 -0.09375,0.207031 -0.01563,-0.6875 -0.01953,0.691406"
     style="fill:#ffffff;fill-opacity:1;fill-rule:nonzero;stroke:none" />
  <path
     inkscape:connector-curvature="0"
     id="path222"
     d="m 136.12847,30.828758 0.28967,1.058811 -0.19971,-1.088778 1.25856,1.748035 -1.13871,-1.847921 0.96892,0.569359 -0.86904,-0.619302 3.20641,0.539392 -3.20641,-0.729179 1.0688,-0.279686 -1.08877,0.199788 1.73805,-1.268574 -1.84793,1.148709 0.57937,-0.96891 -0.61931,0.869021 0.5394,-3.206393 -0.72919,3.196405 -0.28967,-1.058808 0.19971,1.108751 -1.25856,-1.758023 1.15868,1.847924 -0.99886,-0.57935 0.88898,0.619305 -3.21638,-0.529406 3.20641,0.719191 -1.05883,0.279685 1.09877,-0.18979 -1.73805,1.248595 1.82796,-1.148708 -0.56937,0.9789 0.61931,-0.869023 -0.5294,3.216381 0.70919,-3.206393"
     style="fill:#ffffff;fill-opacity:1;fill-rule:nonzero;stroke:none;stroke-width:2.5571239" />
  <path
     inkscape:connector-curvature="0"
     id="path224"
     d="m 109.39063,24.980469 0.0391,0.148437 -0.0273,-0.152343 0.17579,0.242187 -0.16016,-0.253906 0.13672,0.07422 -0.125,-0.08203 0.44922,0.07422 -0.44141,-0.101562 0.14453,-0.03906 -0.15234,0.03125 0.24219,-0.175781 -0.25782,0.15625 0.082,-0.136719 -0.0859,0.125 0.0703,-0.445312 -0.0977,0.441406 -0.0391,-0.148438 0.0273,0.15625 -0.17968,-0.242187 0.16797,0.25 -0.14063,-0.07813 0.125,0.08984 -0.44531,-0.07422 0.4414,0.09766 -0.14843,0.03906 0.15234,-0.02734 -0.24219,0.179687 0.25782,-0.164062 -0.082,0.136719 0.0859,-0.121094 -0.0703,0.449219 0.0977,-0.449219"
     style="fill:#ffffff;fill-opacity:1;fill-rule:nonzero;stroke:none" />
  <path
     inkscape:connector-curvature="0"
     id="path226"
     d="m 58.476563,39.792969 0.03906,0.148437 -0.02734,-0.15625 0.171875,0.242188 -0.15625,-0.253906 0.136719,0.07813 -0.125,-0.08594 0.449219,0.07813 -0.445313,-0.101562 0.144532,-0.04297 -0.148438,0.03125 0.242188,-0.171875 -0.257813,0.15625 0.08203,-0.136719 -0.08594,0.121094 0.07031,-0.441406 -0.09766,0.441406 -0.03906,-0.148438 0.02734,0.152344 -0.179687,-0.242187 0.164062,0.253906 -0.136718,-0.07813 0.121093,0.08594 -0.441406,-0.07422 0.4375,0.101562 -0.144531,0.03516 0.152344,-0.02344 -0.242188,0.175781 0.253906,-0.160156 -0.07813,0.132812 0.08594,-0.117187 -0.07031,0.445312 0.09766,-0.445312"
     style="fill:#ffffff;fill-opacity:1;fill-rule:nonzero;stroke:none" />
  <path
     inkscape:connector-curvature="0"
     id="path228"
     d="m 30.269531,135.05078 -0.05078,-0.47656 0.01172,0.5039 -0.460938,-0.84765 0.398438,0.87109 -0.382813,-0.32031 0.351563,0.34375 -1.394531,-0.41797 1.359375,0.49219 -0.480469,0.0508 0.507812,-0.0117 -0.847656,0.46094 0.867188,-0.39453 -0.316407,0.3789 0.34375,-0.34765 -0.417968,1.39453 0.492187,-1.35938 0.04687,0.47657 -0.0078,-0.50782 0.460937,0.84766 -0.398437,-0.86719 0.382812,0.31641 -0.351562,-0.33985 1.394531,0.41797 -1.359375,-0.49218 0.480469,-0.0508 -0.507813,0.0117 0.847656,-0.46484 -0.867187,0.39844 0.316406,-0.37891 -0.34375,0.34766 0.417969,-1.39453 -0.492188,1.35937"
     style="fill:#ffffff;fill-opacity:1;fill-rule:nonzero;stroke:none" />
  <path
     inkscape:connector-curvature="0"
     id="path230"
     d="m 45.847656,147.37109 -0.08984,-0.83203 0.01953,0.87891 -0.800781,-1.47266 0.691406,1.51172 -0.664063,-0.55078 0.609375,0.59375 -2.425781,-0.72656 2.359375,0.85937 -0.828125,0.0859 0.882813,-0.0195 L 44.125,148.5 l 1.511719,-0.6875 -0.550781,0.66406 0.59375,-0.61328 -0.726563,2.42578 0.859375,-2.35937 0.08203,0.82422 -0.01953,-0.87891 0.804688,1.47656 -0.695313,-1.51172 0.664063,0.55469 -0.605469,-0.59766 2.425781,0.72657 -2.363281,-0.85547 0.832031,-0.0859 -0.882812,0.0156 1.476562,-0.80079 -1.511719,0.69141 0.554688,-0.66406 -0.597656,0.60937 0.726562,-2.42578 -0.855469,2.36328"
     style="fill:#ffffff;fill-opacity:1;fill-rule:nonzero;stroke:none" />
  <path
     inkscape:connector-curvature="0"
     id="path232"
     d="m 120.78906,120.05859 -0.28515,-0.58593 0.23828,0.61328 -0.9336,-0.8711 0.87891,0.94141 -0.63281,-0.22656 0.58203,0.26562 -1.92969,0.0547 1.94141,0.0586 -0.58594,0.28516 0.61719,-0.24219 -0.8711,0.9336 0.94141,-0.87891 -0.22656,0.63281 0.26562,-0.58203 0.0508,1.92969 0.0586,-1.94531 0.28515,0.58984 -0.23828,-0.62109 0.92969,0.8789 -0.87891,-0.94531 0.63672,0.22266 -0.58203,-0.25782 1.92969,-0.0547 -1.94531,-0.0586 0.58593,-0.28515 -0.61328,0.24218 0.8711,-0.93359 -0.94532,0.875 0.22657,-0.63281 -0.26172,0.58203 -0.0547,-1.93359 -0.0547,1.94921"
     style="fill:#ffffff;fill-opacity:1;fill-rule:nonzero;stroke:none" />
  <path
     inkscape:connector-curvature="0"
     id="path234"
     d="M 190.10156,92.117188 190,91.910156 l 0.082,0.222657 -0.33203,-0.3125 0.3125,0.335937 -0.22266,-0.07813 0.20313,0.08984 -0.6836,0.01953 0.69141,0.01953 -0.21094,0.101563 0.21875,-0.08594 -0.30859,0.332032 0.33594,-0.308594 -0.082,0.222656 0.0977,-0.207031 0.0156,0.6875 0.0195,-0.691406 0.10156,0.207031 -0.082,-0.21875 0.33203,0.3125 -0.3125,-0.339844 0.22266,0.08203 -0.20313,-0.09375 0.6836,-0.01953 -0.69141,-0.01953 0.21094,-0.101563 -0.21875,0.08984 0.30859,-0.335937 -0.33594,0.3125 0.0781,-0.226563 -0.0937,0.207031 -0.0156,-0.683593 -0.0195,0.6875"
     style="fill:#ffffff;fill-opacity:1;fill-rule:nonzero;stroke:none" />
  <path
     inkscape:connector-curvature="0"
     id="path236"
     d="m 180.40625,131.42969 0.11328,0.41406 -0.0781,-0.42969 0.49218,0.6836 -0.44922,-0.71875 0.38282,0.22265 -0.33985,-0.24219 1.25391,0.20704 -1.25391,-0.28125 0.41797,-0.11329 -0.42578,0.082 0.67969,-0.4961 -0.72266,0.44922 0.22656,-0.38281 -0.24218,0.34375 0.21093,-1.25391 -0.28515,1.25 -0.11328,-0.41797 0.0781,0.4336 -0.49219,-0.6875 0.44922,0.72656 -0.38672,-0.23047 0.34766,0.24609 -1.25781,-0.20703 1.2539,0.28125 -0.41406,0.10547 0.42969,-0.0703 -0.67969,0.48437 0.71485,-0.44531 -0.22266,0.38281 0.24219,-0.34375 -0.21094,1.26172 0.28125,-1.2539"
     style="fill:#ffffff;fill-opacity:1;fill-rule:nonzero;stroke:none" />
  <path
     inkscape:connector-curvature="0"
     id="path238"
     d="m 146.04687,139.18359 0.0312,0.10547 -0.0195,-0.11328 0.12891,0.18359 -0.12109,-0.1914 0.10546,0.0586 -0.0937,-0.0664 0.33204,0.0586 -0.32813,-0.0742 0.10547,-0.0312 -0.10938,0.0234 0.17969,-0.12891 -0.1914,0.11328 0.0586,-0.10156 -0.0625,0.0937 0.0547,-0.33203 -0.0742,0.32812 -0.0273,-0.10937 0.0156,0.11719 -0.12891,-0.17969 0.1211,0.18359 -0.10157,-0.0547 0.0898,0.0625 -0.32813,-0.0547 0.32422,0.0742 -0.10547,0.0273 0.11328,-0.0195 -0.18359,0.13281 0.19141,-0.12109 -0.0586,0.10156 0.0625,-0.0859 -0.0508,0.32813 0.0703,-0.32813"
     style="fill:#ffffff;fill-opacity:1;fill-rule:nonzero;stroke:none" />
  <path
     inkscape:connector-curvature="0"
     id="path240"
     d="m 108.51563,129.61719 0.0391,0.14843 -0.0273,-0.15625 0.17188,0.24219 -0.16016,-0.2539 0.14063,0.0781 -0.125,-0.0859 0.44922,0.0742 -0.44532,-0.0977 0.14454,-0.043 -0.14844,0.0312 0.24219,-0.17188 -0.25782,0.15625 0.0781,-0.13672 -0.082,0.1211 0.0703,-0.44532 -0.0977,0.44532 -0.0391,-0.14844 0.0273,0.15234 -0.17968,-0.24218 0.16406,0.2539 -0.13672,-0.0781 0.12109,0.0859 -0.4414,-0.0742 0.4375,0.10156 -0.14453,0.0352 0.15234,-0.0234 -0.24219,0.17578 0.25391,-0.16016 -0.0781,0.13281 0.0859,-0.11718 -0.0742,0.44531 0.10157,-0.44531"
     style="fill:#ffffff;fill-opacity:1;fill-rule:nonzero;stroke:none" />
  <path
     inkscape:connector-curvature="0"
     id="path242"
     d="m 119.32813,42.820313 0.0391,0.144531 -0.0273,-0.152344 0.17579,0.242188 -0.16407,-0.253907 0.14063,0.07813 -0.125,-0.08594 0.44922,0.07422 -0.44532,-0.101563 0.14844,-0.03906 -0.15234,0.03125 0.24219,-0.175782 -0.25782,0.15625 0.082,-0.136718 -0.0859,0.125 0.0703,-0.445313 -0.0977,0.441406 -0.0391,-0.148437 0.0273,0.15625 -0.17968,-0.242188 0.16406,0.25 -0.13672,-0.07813 0.12109,0.08984 -0.4414,-0.07422 0.4375,0.101563 -0.14453,0.03516 0.15234,-0.02734 -0.24219,0.179688 0.25391,-0.164063 -0.0781,0.136719 0.0859,-0.117187 -0.0742,0.445312 0.10157,-0.445312"
     style="fill:#ffffff;fill-opacity:1;fill-rule:nonzero;stroke:none" />
  <path
     inkscape:connector-curvature="0"
     id="path244"
     d="m 142.02344,161.6875 -0.0664,-0.67969 0.0156,0.72266 -0.66016,-1.21094 0.56641,1.24219 -0.54297,-0.45703 0.5,0.49218 -1.99219,-0.60156 1.9375,0.70703 -0.67969,0.0703 0.72266,-0.0156 -1.21094,0.66406 1.23828,-0.57031 -0.45312,0.54688 0.49218,-0.5 -0.60156,1.99218 0.70703,-1.9414 0.0703,0.67968 -0.0117,-0.72265 0.66015,1.21094 -0.57422,-1.24219 0.54688,0.45703 -0.5,-0.49219 1.99609,0.60156 -1.94531,-0.70703 0.68359,-0.0703 -0.72265,0.0156 1.21094,-0.66407 -1.24219,0.57032 0.45312,-0.54688 -0.48828,0.50391 0.60156,-1.9961 -0.71093,1.94141"
     style="fill:#ffffff;fill-opacity:1;fill-rule:nonzero;stroke:none" />
  <path
     inkscape:connector-curvature="0"
     id="path246"
     d="m 150.897,57.069466 0.71062,-0.504348 -0.77941,0.458513 0.89403,-1.444218 -0.98569,1.37545 0.13736,-0.871121 -0.20657,0.848193 -0.57337,-2.521657 0.41257,2.521657 -0.48123,-0.687722 0.45835,0.756496 -1.46715,-0.871115 1.37542,0.962812 -0.87115,-0.137561 0.87115,0.206338 -2.54457,0.596027 2.54457,-0.435567 -0.71063,0.504346 0.80236,-0.4814 -0.91698,1.467147 0.98575,-1.375452 -0.16029,0.871117 0.22946,-0.848193 0.57337,2.544585 -0.41257,-2.567509 0.48123,0.710652 -0.45835,-0.779425 1.46715,0.916966 -1.39836,-1.008662 0.89409,0.160449 -0.87115,-0.229228 2.54457,-0.573126 -2.54457,0.435567"
     style="fill:#ffffff;fill-opacity:1;fill-rule:nonzero;stroke:none;stroke-width:5.86858988" />
  <path
     inkscape:connector-curvature="0"
     id="path248"
     d="m 124.33203,138.74219 0.0273,0.10937 -0.0156,-0.11328 0.12891,0.17969 -0.1211,-0.1875 0.10157,0.0547 -0.0937,-0.0625 0.33593,0.0586 -0.32812,-0.0781 0.10547,-0.0273 -0.11328,0.0195 0.18359,-0.1289 -0.19531,0.11718 0.0625,-0.10156 -0.0625,0.0937 0.0508,-0.33203 -0.0703,0.32812 -0.0312,-0.10937 0.0195,0.11328 -0.13282,-0.17969 0.125,0.1875 -0.10546,-0.0586 0.0937,0.0664 -0.33204,-0.0547 0.32813,0.0742 -0.10938,0.0273 0.11329,-0.0195 -0.17969,0.13281 0.1914,-0.12109 -0.0586,0.10156 0.0625,-0.0898 -0.0547,0.33203 0.0742,-0.33203"
     style="fill:#ffffff;fill-opacity:1;fill-rule:nonzero;stroke:none" />
  <path
     inkscape:connector-curvature="0"
     id="path250"
     d="m 173.56641,164.02344 0.0312,0.10937 -0.0234,-0.11328 0.1289,0.17969 -0.11718,-0.19141 0.10156,0.0586 -0.0898,-0.0625 0.33203,0.0586 -0.32813,-0.0781 0.10547,-0.0273 -0.10937,0.0195 0.17968,-0.1289 -0.1914,0.11718 0.0586,-0.10156 -0.0625,0.0937 0.0547,-0.33203 -0.0742,0.32812 -0.0312,-0.10937 0.0195,0.11328 -0.12891,-0.17969 0.1211,0.1875 -0.10547,-0.0586 0.0937,0.0664 -0.33203,-0.0586 0.32812,0.0781 -0.10547,0.0273 0.10938,-0.0195 -0.17969,0.13281 0.19141,-0.12109 -0.0586,0.10156 0.0625,-0.0898 -0.0547,0.33203 0.0742,-0.33203"
     style="fill:#ffffff;fill-opacity:1;fill-rule:nonzero;stroke:none" />
  <path
     inkscape:connector-curvature="0"
     id="path252"
     d="m 130.80078,81.890625 0.0391,0.148438 -0.0273,-0.15625 0.17578,0.246093 -0.16016,-0.257812 0.13672,0.07813 -0.125,-0.08594 0.44922,0.07813 -0.4414,-0.101562 0.14453,-0.03906 -0.15235,0.02734 0.24219,-0.175781 -0.25781,0.160156 0.082,-0.136719 -0.0859,0.125 0.0742,-0.449218 -0.0977,0.445312 -0.043,-0.148437 0.0273,0.152343 -0.17969,-0.242187 0.16797,0.253906 -0.14062,-0.07813 0.125,0.08594 -0.44532,-0.07422 0.4375,0.101562 -0.14453,0.03516 0.15235,-0.02344 -0.24219,0.175781 0.25781,-0.160156 -0.082,0.132813 0.0859,-0.117188 -0.0703,0.445313 0.0977,-0.445313"
     style="fill:#ffffff;fill-opacity:1;fill-rule:nonzero;stroke:none" />
  <path
     inkscape:connector-curvature="0"
     id="path254"
     d="m 117.23047,144.53125 0.0273,0.10937 -0.0195,-0.11718 0.12891,0.18359 -0.11719,-0.19141 0.10156,0.0586 -0.0937,-0.0625 0.33594,0.0547 -0.33203,-0.0781 0.10937,-0.0273 -0.11328,0.0234 0.17969,-0.1289 -0.19141,0.11719 0.0625,-0.10547 -0.0664,0.0937 0.0547,-0.33203 -0.0703,0.33203 -0.0312,-0.11328 0.0195,0.11718 -0.13281,-0.18359 0.1211,0.19141 -0.10157,-0.0625 0.0898,0.0703 -0.32813,-0.0586 0.32422,0.0742 -0.10547,0.0273 0.11328,-0.0195 -0.17968,0.13281 0.1875,-0.1211 -0.0586,0.10157 0.0664,-0.0859 -0.0547,0.33203 0.0742,-0.33203"
     style="fill:#ffffff;fill-opacity:1;fill-rule:nonzero;stroke:none" />
  <path
     inkscape:connector-curvature="0"
     id="path256"
     d="m 97.710938,66.648438 -0.148438,-0.300782 0.125,0.316407 -0.476562,-0.445313 0.449218,0.484375 -0.324218,-0.117187 0.296875,0.132812 -0.984375,0.02734 0.992187,0.03125 -0.300781,0.144531 0.316406,-0.121094 -0.445312,0.476563 0.484375,-0.449219 -0.117188,0.320313 0.132813,-0.296875 0.02734,0.992187 0.02734,-0.996094 0.148438,0.300782 -0.125,-0.316407 0.476562,0.449219 -0.449219,-0.484375 0.324219,0.113281 -0.296875,-0.132812 0.988281,-0.02734 -0.992187,-0.03125 0.296875,-0.148437 -0.316406,0.125 0.449218,-0.472657 -0.484375,0.449219 0.117188,-0.328125 -0.136719,0.296875 -0.02344,-0.984375 -0.03125,0.992188"
     style="fill:#ffffff;fill-opacity:1;fill-rule:nonzero;stroke:none" />
  <path
     inkscape:connector-curvature="0"
     id="path258"
     d="m 102.4375,46.417969 0.29688,-0.148438 -0.31641,0.121094 0.44922,-0.476562 -0.48438,0.449218 0.11328,-0.324218 -0.13281,0.300781 -0.0273,-0.984375 -0.0312,0.992187 -0.14453,-0.300781 0.12109,0.3125 -0.47266,-0.445312 0.44922,0.484375 -0.32812,-0.117188 0.29687,0.136719 -0.98437,0.02734 0.99219,0.02734 -0.30079,0.148438 0.32032,-0.125 -0.44922,0.476562 0.48437,-0.449218 -0.11718,0.324218 0.13281,-0.296875 0.0312,0.984375 0.0273,-0.992187 0.14453,0.300781 -0.12109,-0.316406 0.47656,0.449219 -0.44922,-0.484375 0.32422,0.117187 -0.29687,-0.136719 0.98828,-0.02734 -0.99219,-0.02734"
     style="fill:#ffffff;fill-opacity:1;fill-rule:nonzero;stroke:none" />
  <path
     inkscape:connector-curvature="0"
     id="path260"
     d="m 102.37109,46.433594 0.10547,-0.05078 -0.10937,0.04687 0.15625,-0.171875 -0.17188,0.160156 0.043,-0.117188 -0.0469,0.105469 -0.0117,-0.351562 -0.0117,0.355468 -0.0508,-0.109375 0.043,0.117188 -0.16797,-0.160156 0.15625,0.171875 -0.11328,-0.04297 0.10547,0.04687 -0.35157,0.01172 0.35547,0.0078 -0.10937,0.05469 0.11328,-0.04687 -0.15625,0.171875 0.16797,-0.160157 -0.0391,0.117188 0.0469,-0.109375 0.0117,0.351562 0.0117,-0.351562 0.0508,0.109375 -0.043,-0.117188 0.16797,0.160157 -0.16016,-0.171875 0.11328,0.04297 -0.10547,-0.05078 0.35547,-0.0078 -0.35547,-0.01172"
     style="fill:#ffffff;fill-opacity:1;fill-rule:nonzero;stroke:none" />
  <path
     inkscape:connector-curvature="0"
     id="path262"
     d="m 38.363281,134.47656 0.105469,-0.0508 -0.109375,0.0469 0.15625,-0.17188 -0.171875,0.16016 0.04297,-0.11719 -0.04687,0.10937 -0.01172,-0.35546 -0.01172,0.35546 -0.05078,-0.10546 0.04687,0.11328 -0.171875,-0.16016 0.15625,0.17188 -0.113281,-0.0391 0.105469,0.043 -0.351563,0.0117 0.355469,0.008 -0.109375,0.0508 0.113281,-0.043 -0.15625,0.17187 0.171875,-0.16016 -0.04297,0.11719 0.04687,-0.10547 0.01172,0.34766 0.01172,-0.35156 0.05078,0.10937 -0.04297,-0.11719 0.167969,0.16016 -0.160156,-0.17187 0.117187,0.0391 -0.105468,-0.0469 0.351562,-0.008 -0.355469,-0.0117"
     style="fill:#ffffff;fill-opacity:1;fill-rule:nonzero;stroke:none" />
  <path
     inkscape:connector-curvature="0"
     id="path264"
     d="m 70.335938,123.00391 -0.0625,-0.22657 0.04297,0.2461 -0.292968,-0.375 0.265625,0.38672 -0.207032,-0.11719 0.195313,0.13281 -0.707031,-0.0859 0.695312,0.12891 -0.222656,0.0625 0.238281,-0.0469 -0.367187,0.29296 0.382812,-0.26562 -0.117187,0.21094 0.132812,-0.19532 -0.08594,0.70313 0.125,-0.69531 0.0625,0.22656 -0.04297,-0.24219 0.292969,0.3711 -0.269532,-0.38672 0.210938,0.12109 -0.195313,-0.13672 0.707032,0.0898 -0.695313,-0.125 0.222656,-0.0664 -0.238281,0.0469 0.371094,-0.28906 -0.386719,0.26172 0.121094,-0.21094 -0.136719,0.19532 0.08594,-0.70704 -0.125,0.69532"
     style="fill:#ffffff;fill-opacity:1;fill-rule:nonzero;stroke:none" />
  <path
     inkscape:connector-curvature="0"
     id="path266"
     d="m 26.554688,98.179688 -0.285157,-0.585938 0.238282,0.617188 -0.929688,-0.871094 0.875,0.9375 -0.636719,-0.226563 0.582032,0.269532 -1.925782,0.05078 1.941407,0.05859 -0.585938,0.285156 0.617188,-0.242188 -0.875,0.933594 0.945312,-0.878906 -0.226562,0.636719 0.265625,-0.585938 0.05078,1.93359 0.05859,-1.949215 0.285156,0.589844 -0.238281,-0.617188 0.929687,0.875 -0.878906,-0.945312 0.636719,0.226562 -0.585938,-0.261718 1.933594,-0.05078 -1.945313,-0.05859 0.585938,-0.285157 -0.617188,0.238282 0.871094,-0.929688 -0.941406,0.875 0.226562,-0.636719 -0.261718,0.582032 -0.05469,-1.929688 -0.05469,1.945313"
     style="fill:#ffffff;fill-opacity:1;fill-rule:nonzero;stroke:none" />
  <path
     inkscape:connector-curvature="0"
     id="path268"
     d="m 59.648438,72.511719 c -2.050782,-1.496094 -4.609375,-3.347656 -8.191407,-3.347656 -2.875,0 -4.847656,1.535156 -4.847656,3.269531 0,1.65625 1.300781,2.5625 5.515625,3.503906 4.214844,0.90625 9.136719,2.40625 9.136719,7.5625 0,5.277344 -4.84375,8.902344 -10.867188,8.902344 -4.492187,0 -7.640625,-1.96875 -9.140625,-2.917969 v -5.667969 c 2.011719,1.613282 5.277344,4.09375 9.179688,4.09375 2.992187,0 5.351562,-1.890625 5.351562,-4.015625 0,-2.167968 -1.964843,-3.148437 -5.90625,-3.980468 -2.875,-0.667969 -5.039062,-1.375 -6.773437,-2.949219 -0.945313,-0.988281 -1.851563,-2.441406 -1.851563,-4.570313 0,-4.683593 4.292969,-7.71875 10.082032,-7.71875 2.953125,0 5.789062,0.828125 8.3125,2.324219 v 5.511719"
     style="fill:#ffffff;fill-opacity:1;fill-rule:nonzero;stroke:none" />
  <path
     inkscape:connector-curvature="0"
     id="path270"
     d="m 64.886719,91.96875 h 5.117187 V 65.109375 h -5.117187 z m 0,0"
     style="fill:#ffffff;fill-opacity:1;fill-rule:nonzero;stroke:none" />
  <path
     inkscape:connector-curvature="0"
     id="path272"
     d="M 102.02344,65.109375 V 91.96875 H 96.902344 V 73.066406 h -0.07422 L 88.59375,87.125 80.324219,73.066406 h -0.07813 V 91.96875 H 75.125 V 65.109375 h 5.710938 l 7.757812,13.152344 7.796875,-13.152344 h 5.632815"
     style="fill:#ffffff;fill-opacity:1;fill-rule:nonzero;stroke:none" />
  <path
     inkscape:connector-curvature="0"
     id="path274"
     d="m 111.00781,78.5 c 0,4.921875 2.91407,9.570313 7.67578,9.570313 4.53125,0 7.79688,-4.292969 7.79688,-9.53125 0,-5.632813 -3.54297,-9.53125 -7.59766,-9.53125 -5.08203,0 -7.875,4.6875 -7.875,9.492187 z m 20.83203,0.03906 c 0,8.074218 -6.0664,13.863281 -13.23437,13.863281 -7.40234,0 -12.95703,-5.949219 -12.95703,-13.785156 0,-8.230469 6.02734,-13.941407 12.83984,-13.941407 8.35156,0 13.35156,6.617188 13.35156,13.863282"
     style="fill:#ffffff;fill-opacity:1;fill-rule:nonzero;stroke:none" />
  <path
     inkscape:connector-curvature="0"
     id="path276"
     d="m 140.58594,65.109375 11.61328,18.3125 h 0.082 v -18.3125 h 5.11719 V 91.96875 h -5.11719 L 140.66406,73.457031 h -0.0781 V 91.96875 h -5.1211 V 65.109375 h 5.1211"
     style="fill:#ffffff;fill-opacity:1;fill-rule:nonzero;stroke:none" />
  <path
     inkscape:connector-curvature="0"
     id="path278"
     d="m 179.49609,72.511719 c -2.05078,-1.496094 -4.60937,-3.347656 -8.1914,-3.347656 -2.875,0 -4.84375,1.535156 -4.84375,3.269531 0,1.65625 1.29687,2.5625 5.51172,3.503906 4.21484,0.90625 9.13671,2.40625 9.13671,7.5625 0,5.277344 -4.84375,8.902344 -10.86718,8.902344 -4.49219,0 -7.64063,-1.96875 -9.13672,-2.917969 v -5.667969 c 2.00781,1.613282 5.27344,4.09375 9.17187,4.09375 2.9961,0 5.35938,-1.890625 5.35938,-4.015625 0,-2.167968 -1.96875,-3.148437 -5.91016,-3.980468 -2.875,-0.667969 -5.03906,-1.375 -6.77344,-2.949219 -0.9414,-0.988281 -1.84765,-2.441406 -1.84765,-4.570313 0,-4.683593 4.28906,-7.71875 10.08203,-7.71875 2.95312,0 5.78906,0.828125 8.30859,2.324219 v 5.511719"
     style="fill:#ffffff;fill-opacity:1;fill-rule:nonzero;stroke:none" />
  <path
     inkscape:connector-curvature="0"
     id="path280"
     d="m 45.171875,105.78906 c 0,2.17188 1.285156,4.22266 3.386719,4.22266 1.996094,0 3.4375,-1.89453 3.4375,-4.20313 0,-2.48437 -1.5625,-4.20312 -3.351563,-4.20312 -2.238281,0 -3.472656,2.06641 -3.472656,4.18359 z m 9.1875,0.0195 c 0,3.5586 -2.675781,6.11329 -5.835937,6.11329 -3.265625,0 -5.710938,-2.6211 -5.710938,-6.07813 0,-3.62891 2.65625,-6.148437 5.660156,-6.148437 3.679688,0 5.886719,2.917967 5.886719,6.113277"
     style="fill:#ffffff;fill-opacity:1;fill-rule:nonzero;stroke:none" />
  <path
     inkscape:connector-curvature="0"
     id="path282"
     d="M 60.097656,106.44922 V 109.75 h 2.1875 c 0.78125,0 2.695313,-0.14062 2.695313,-1.71875 0,-1.07812 -0.992188,-1.58203 -2.101563,-1.58203 z m 0,-4.61719 v 2.76172 H 62.0625 c 1.230469,0 2.203125,-0.43359 2.203125,-1.49609 0,-1.07422 -1.039062,-1.26563 -1.632812,-1.26563 z m 3.355469,-1.980467 c 1.90625,0 3.125,1.179687 3.125,2.746097 0,0.83203 -0.347656,1.59765 -0.957031,2.11718 -0.398438,0.36329 -0.746094,0.48438 -1.214844,0.625 v 0.0352 c 0.554688,0.0352 1.179688,0.0859 1.839844,0.55469 0.714844,0.48437 1.09375,1.32031 1.09375,2.24219 0,2.20312 -2.050781,3.55859 -4.773438,3.55859 H 57.84375 V 99.851563 h 5.609375"
     style="fill:#ffffff;fill-opacity:1;fill-rule:nonzero;stroke:none" />
  <path
     inkscape:connector-curvature="0"
     id="path284"
     d="m 78.289063,103.15234 c -0.902344,-0.66015 -2.03125,-1.47656 -3.613282,-1.47656 -1.265625,0 -2.136718,0.67578 -2.136718,1.44141 0,0.73047 0.574218,1.1289 2.433593,1.54297 C 76.828125,105.0625 79,105.72266 79,107.99609 c 0,2.32813 -2.136719,3.92579 -4.792969,3.92579 -1.980468,0 -3.367187,-0.86719 -4.027343,-1.28516 v -2.5 c 0.882812,0.71094 2.328125,1.80469 4.042968,1.80469 1.320313,0 2.363282,-0.83203 2.363282,-1.76953 0,-0.95704 -0.867188,-1.39063 -2.605469,-1.75782 -1.265625,-0.29297 -2.222656,-0.60547 -2.984375,-1.30078 -0.417969,-0.43359 -0.816406,-1.07812 -0.816406,-2.01562 0,-2.06641 1.890625,-3.402347 4.445312,-3.402347 1.300781,0 2.554688,0.363277 3.664063,1.023437 v 2.43359"
     style="fill:#ffffff;fill-opacity:1;fill-rule:nonzero;stroke:none" />
  <path
     inkscape:connector-curvature="0"
     id="path286"
     d="m 90.503906,99.886719 v 1.980471 h -5.746093 v 2.77734 h 5.46875 v 1.83985 h -5.46875 V 109.75 h 5.746093 v 1.98047 H 82.5 V 99.886719 h 8.003906"
     style="fill:#ffffff;fill-opacity:1;fill-rule:nonzero;stroke:none" />
  <path
     inkscape:connector-curvature="0"
     id="path288"
     d="m 96.605469,101.86719 v 3.0039 h 1.824219 c 1.667972,0 2.464842,-0.76562 2.464842,-1.63281 0,-0.71094 -0.57031,-1.37109 -1.699217,-1.37109 z m 2.917969,-1.980471 c 2.328122,0 3.648442,1.179691 3.648442,2.917971 0,1.875 -1.30469,2.8125 -3.250005,3.19531 v 0.0352 c 0.871095,0.26172 1.738285,0.53906 2.398435,2.32812 l 1.25,3.36719 h -2.46484 l -0.83203,-2.62109 c -0.488284,-1.54688 -1.14844,-2.36329 -2.796877,-2.36329 h -0.871094 v 4.98438 H 94.351563 V 99.886719 h 5.171875"
     style="fill:#ffffff;fill-opacity:1;fill-rule:nonzero;stroke:none" />
  <path
     inkscape:connector-curvature="0"
     id="path290"
     d="m 116.59766,99.886719 -4.35938,11.843751 h -2.21875 l -4.27344,-11.843751 h 2.48438 l 2.89844,8.996091 h 0.0352 l 2.89844,-8.996091 h 2.53516"
     style="fill:#ffffff;fill-opacity:1;fill-rule:nonzero;stroke:none" />
  <path
     inkscape:connector-curvature="0"
     id="path292"
     d="m 123,102.73438 h -0.0312 l -1.28516,3.96093 h 2.60157 z m 1.09766,-2.847661 4.32031,11.843751 h -2.53516 l -1.02343,-3.17578 h -3.76954 l -1.05859,3.17578 h -2.48437 l 4.34375,-11.843751 h 2.20703"
     style="fill:#ffffff;fill-opacity:1;fill-rule:nonzero;stroke:none" />
  <path
     inkscape:connector-curvature="0"
     id="path294"
     d="m 139.26172,99.886719 v 1.980471 h -3.42188 v 9.86328 h -2.25781 v -9.86328 h -3.33594 v -1.980471 h 9.01563"
     style="fill:#ffffff;fill-opacity:1;fill-rule:nonzero;stroke:none" />
  <path
     inkscape:connector-curvature="0"
     id="path296"
     d="m 143.76953,105.78906 c 0,2.17188 1.28516,4.22266 3.38672,4.22266 1.99609,0 3.4375,-1.89453 3.4375,-4.20313 0,-2.48437 -1.5625,-4.20312 -3.35156,-4.20312 -2.23828,0 -3.47266,2.06641 -3.47266,4.18359 z m 9.1875,0.0195 c 0,3.5586 -2.67578,6.11329 -5.83594,6.11329 -3.26562,0 -5.71484,-2.6211 -5.71484,-6.07813 0,-3.62891 2.66016,-6.148437 5.66406,-6.148437 3.67969,0 5.88672,2.917967 5.88672,6.113277"
     style="fill:#ffffff;fill-opacity:1;fill-rule:nonzero;stroke:none" />
  <path
     inkscape:connector-curvature="0"
     id="path298"
     d="m 158.69531,101.86719 v 3.0039 h 1.82422 c 1.66797,0 2.46484,-0.76562 2.46484,-1.63281 0,-0.71094 -0.57031,-1.37109 -1.69921,-1.37109 z m 2.91797,-1.980471 c 2.32813,0 3.64844,1.179691 3.64844,2.917971 0,1.875 -1.30078,2.8125 -3.2461,3.19531 v 0.0352 c 0.86719,0.26172 1.73438,0.53906 2.39454,2.32812 l 1.25,3.36719 h -2.46485 l -0.83594,-2.62109 c -0.48437,-1.54688 -1.14453,-2.36329 -2.79296,-2.36329 h -0.8711 v 4.98438 H 156.4375 V 99.886719 h 5.17578"
     style="fill:#ffffff;fill-opacity:1;fill-rule:nonzero;stroke:none" />
  <path
     inkscape:connector-curvature="0"
     id="path300"
     d="m 170.42578,99.886719 2.46875,4.375001 2.46484,-4.375001 h 2.8125 l -4.15234,6.441411 v 5.40234 h -2.25391 v -5.40234 l -4.10156,-6.441411 h 2.76172"
     style="fill:#ffffff;fill-opacity:1;fill-rule:nonzero;stroke:none" />
  <path
     inkscape:connector-curvature="0"
     id="path302"
     d="m 95.242188,179.05078 8.558592,-1.07031 c 0,0 -0.46094,-1.56641 -2.79297,-1.50391 -1.347654,0.0352 -3.066404,0.2461 -3.066404,0.2461 l -2.699218,2.32812"
     style="fill:#ffffff;fill-opacity:1;fill-rule:nonzero;stroke:none" />
  <path
     inkscape:connector-curvature="0"
     id="path304"
     d="m 101.37891,188.5 2.69531,-0.67578 -2.48438,0.18359 -6.960934,0.73438"
     style="fill:#211e1e;fill-opacity:1;fill-rule:nonzero;stroke:none" />
  <path
     inkscape:connector-curvature="0"
     id="path306"
     d="m 109.04688,191.69141 8.2539,-17.52344 -23.535155,-10.22656 -8.253906,17.51953 23.535161,10.23047"
     style="fill:#211e1e;fill-opacity:1;fill-rule:nonzero;stroke:none" />
  <path
     inkscape:connector-curvature="0"
     id="path308"
     d="m 109.04688,191.69141 8.2539,-17.52344 -23.535155,-10.22656 -8.253906,17.51953 z m 0,0"
     style="fill:none;stroke:#ffffff;stroke-width:2.43700004;stroke-linecap:butt;stroke-linejoin:miter;stroke-miterlimit:10;stroke-opacity:1" />
  <path
     inkscape:connector-curvature="0"
     id="path310"
     d="m 114.31641,168.63281 -14.625004,-6.5"
     style="fill:none;stroke:#ffffff;stroke-width:2.43700004;stroke-linecap:round;stroke-linejoin:miter;stroke-miterlimit:10;stroke-opacity:1" />
  <path
     inkscape:connector-curvature="0"
     id="path312"
     d="m 95.792969,199.05078 c 0,0 -0.05078,0.043 4.941411,-0.004 5.21875,-0.0508 5.125,0.0781 4.72265,0.0977 l -1.28515,-2.67578 h -7.457036 l -0.921875,2.58203"
     style="fill:#211e1e;fill-opacity:1;fill-rule:nonzero;stroke:none" />
  <path
     inkscape:connector-curvature="0"
     id="path314"
     d="M 95.148438,196.84375 H 105.79297 V 187.625 l -10.644532,-4.58594 v 13.80469"
     style="fill:#211e1e;fill-opacity:1;fill-rule:nonzero;stroke:none" />
  <path
     inkscape:connector-curvature="0"
     id="path316"
     d="m 95.792969,196.28906 v -17.21875 c 0,-1.64453 1.984375,-3.57812 4.511721,-3.57812 2.52344,0 4.6289,1.93359 4.6289,3.57812 v 17.21875 c -0.13281,-0.0977 -9.003902,0.22266 -9.140621,0"
     style="fill:#ffffff;fill-opacity:1;fill-rule:nonzero;stroke:none" />
  <path
     inkscape:connector-curvature="0"
     id="path318"
     d="m 94.507813,187.17969 7.082027,0.0937 1.38282,7.97265 -6.011722,0.125 -2.453125,-8.1914"
     style="fill:#ffffff;fill-opacity:1;fill-rule:nonzero;stroke:none" />
  <path
     inkscape:connector-curvature="0"
     id="path320"
     d="m 94.507812,187.17969 7.082028,0.0937 1.38282,7.97265 -6.011723,0.125 z m 0,0"
     style="fill:none;stroke:#211e1e;stroke-width:0.51499999;stroke-linecap:butt;stroke-linejoin:miter;stroke-miterlimit:10;stroke-opacity:1" />
  <path
     inkscape:connector-curvature="0"
     id="path322"
     d="m 103.0625,195.1875 -1.37891,-7.91406 2.11719,-0.1836 -0.27734,7.08203 -0.46094,1.01563"
     style="fill:#211e1e;fill-opacity:1;fill-rule:nonzero;stroke:none" />
  <path
     inkscape:connector-curvature="0"
     id="path324"
     d="m 94.21875,187.55078 v -8.46484 c 0,-1.8711 1.273438,-3.59375 3.722656,-3.59375 1.535157,0 3.679684,1.72265 3.679684,3.59375 v 8.46484 c -0.13281,-0.11328 -7.269527,0.25 -7.40234,0"
     style="fill:#ffffff;fill-opacity:1;fill-rule:nonzero;stroke:none" />
  <path
     inkscape:connector-curvature="0"
     id="path326"
     d="m 94.21875,187.55078 v -8.46484 c 0,-1.8711 1.273437,-3.59375 3.722656,-3.59375 1.535156,0 3.679684,1.72265 3.679684,3.59375 v 8.46484 c -0.13281,-0.11328 -7.269528,0.25 -7.40234,0 z m 0,0"
     style="fill:none;stroke:#211e1e;stroke-width:0.67500001;stroke-linecap:butt;stroke-linejoin:miter;stroke-miterlimit:2;stroke-opacity:1" />
  <path
     inkscape:connector-curvature="0"
     id="path328"
     d="m 91.007813,201.8125 h 19.511717 v -2.20703 H 91.007813 Z m 0,0"
     style="fill:#211e1e;fill-opacity:1;fill-rule:nonzero;stroke:none" />
  <path
     inkscape:connector-curvature="0"
     id="path330"
     d="m 56.140625,52.296875 0.144531,0.300781 -0.125,-0.320312 0.476563,0.449219 -0.445313,-0.480469 0.324219,0.113281 -0.300781,-0.132812 0.988281,-0.02734 -0.992187,-0.03125 0.300781,-0.144531 -0.316406,0.121093 0.445312,-0.476562 -0.484375,0.449219 0.121094,-0.328125 -0.136719,0.300781 -0.02734,-0.988281 -0.03125,0.996093 -0.144531,-0.300781 0.121094,0.320313 -0.476563,-0.453125 0.449219,0.484375 -0.324219,-0.113282 0.296875,0.132813 -0.988281,0.02734 0.996094,0.03125 -0.300781,0.144531 0.316406,-0.121094 -0.449219,0.472656 0.484375,-0.449218 -0.117187,0.328125 0.136718,-0.296875 0.02734,0.984375 0.03125,-0.992188"
     style="fill:#ffffff;fill-opacity:1;fill-rule:nonzero;stroke:none" />
  <g
     style="clip-rule:nonzero"
     id="g334"
     clip-path="url(#clip4)">
    <path
       inkscape:connector-curvature="0"
       id="path332"
       transform="matrix(0.1,0,0,-0.1,0,222)"
       d="m 165.78125,1097.8906 c 0,-522.03123 423.16406,-945.19529 945.19535,-945.19529 522.0312,0 945.1953,423.16406 945.1953,945.19529 0,522.0313 -423.1641,945.2344 -945.1953,945.2344 -522.03129,0 -945.19535,-423.2031 -945.19535,-945.2344 z m 0,0"
       style="fill:none;stroke:#f04f19;stroke-width:43.09999847;stroke-linecap:butt;stroke-linejoin:miter;stroke-miterlimit:10;stroke-opacity:1" />
  </g>
  <g
     id="g239"
     transform="matrix(0.74999999,0,0,0.74999999,1.597659,1.788321)">
    <path
       class="st8"
       d="m 63.5,157.1 v 7.7 c 0,1.9 0.8,3.1 2.6,3.1 1.8,0 2.7,-1.2 2.7,-2.9 v -7.9 h 2.4 v 8 c 0,3 -1.7,4.8 -5,4.8 -3.3,0 -5,-1.7 -5,-4.7 v -8.1 z"
       id="path213"
       inkscape:connector-curvature="0"
       style="fill:#ffffff" />
    <path
       class="st8"
       d="m 77.2,157.1 5.5,8.6 v 0 -8.6 h 2.4 v 12.6 H 82.7 L 77.2,161 v 0 8.7 h -2.4 v -12.6 z"
       id="path215"
       inkscape:connector-curvature="0"
       style="fill:#ffffff" />
    <path
       class="st8"
       d="m 91.6,157.1 v 12.6 h -2.4 v -12.6 z"
       id="path217"
       inkscape:connector-curvature="0"
       style="fill:#ffffff" />
    <path
       class="st8"
       d="m 104.1,157.1 v 2.1 h -3.6 v 10.5 h -2.4 v -10.5 h -3.6 v -2.1 z"
       id="path219"
       inkscape:connector-curvature="0"
       style="fill:#ffffff" />
    <path
       class="st8"
       d="m 115.6,157.1 v 2.1 h -6.1 v 3 h 5.8 v 2 h -5.8 v 3.5 h 6.1 v 2.1 H 107 v -12.6 h 8.6 z"
       id="path221"
       inkscape:connector-curvature="0"
       style="fill:#ffffff" />
    <path
       class="st8"
       d="m 124.7,157.1 c 3.8,0 5.8,2.8 5.8,6 0,4.2 -2.9,6.6 -7,6.6 h -4.2 v -12.6 z m -1.3,10.5 c 2.6,0 4.5,-1.6 4.5,-4.3 0,-2.2 -1.1,-4.2 -3.7,-4.2 h -2.6 v 8.5 c 1.02229,0 1.07123,0 1.8,0 z"
       id="path223"
       inkscape:connector-curvature="0"
       style="fill:#ffffff"
       sodipodi:nodetypes="sssccscssccc" />
    <path
       class="st8"
       d="m 143.7,157.1 v 5.4 l 4.7,-5.4 h 2.9 l -4.2,4.6 4.5,8 h -2.8 l -3.3,-6.2 -1.8,2 v 4.2 h -2.4 v -12.6 z"
       id="path225"
       inkscape:connector-curvature="0"
       style="fill:#ffffff" />
    <path
       class="st8"
       d="m 156.7,157.1 v 12.6 h -2.4 v -12.6 z"
       id="path227"
       inkscape:connector-curvature="0"
       style="fill:#ffffff" />
    <path
       class="st8"
       d="m 163.2,157.1 5.5,8.6 v 0 -8.6 h 2.4 v 12.6 h -2.4 l -5.5,-8.7 v 0 8.7 h -2.4 v -12.6 z"
       id="path229"
       inkscape:connector-curvature="0"
       style="fill:#ffffff" />
    <path
       class="st8"
       d="m 185,158.1 v 2.6 c -1.2,-1 -2.7,-1.6 -4.1,-1.6 -2.3,0 -4,1.9 -4,4.5 0,2.4 1.6,4.2 3.4,4.2 1.5,0 2.6,-1.1 2.6,-2.7 h -3.2 V 163 h 5.6 v 6.8 h -2.1 l -0.2,-1.6 c -0.9,1.2 -2.1,1.8 -3.3,1.8 -2.7,0 -5.3,-2.7 -5.3,-6.3 0,-4.1 2.8,-6.8 6.4,-6.8 1.5,0 2.8,0.4 4.2,1.2 z"
       id="path231"
       inkscape:connector-curvature="0"
       style="fill:#ffffff" />
    <path
       class="st8"
       d="m 194.1,157.1 c 3.8,0 5.8,2.8 5.8,6 0,4.2 -2.9,6.6 -7,6.6 h -4.2 v -12.6 z m -1.3,10.5 c 2.6,0 4.5,-1.6 4.5,-4.3 0,-2.2 -1.1,-4.2 -3.7,-4.2 H 191 v 8.5 c 0.86289,0 0.97036,0 1.8,0 z"
       id="path233"
       inkscape:connector-curvature="0"
       style="fill:#ffffff"
       sodipodi:nodetypes="sssccscssccc" />
    <path
       class="st8"
       d="m 214.8,163.4 c 0,3.7 -2.7,6.5 -6.2,6.5 -3.5,0 -6.1,-2.8 -6.1,-6.6 0,-3.6 2.7,-6.5 6.1,-6.5 3.8,0.1 6.2,3.1 6.2,6.6 z m -6.1,4.5 c 2.1,0 3.7,-2 3.7,-4.5 0,-2.5 -1.6,-4.5 -3.6,-4.5 -2.1,0 -3.7,1.9 -3.7,4.5 0,2.5 1.5,4.5 3.6,4.5 z"
       id="path235"
       inkscape:connector-curvature="0"
       style="fill:#ffffff" />
    <path
       class="st8"
       d="m 220.9,157.1 3.6,6.2 3.7,-6.2 h 2.6 v 12.6 h -2.4 v -8.9 0 l -3.9,6.6 -3.9,-6.6 v 0 8.9 h -2.4 v -12.6 z"
       id="path237"
       inkscape:connector-curvature="0"
       style="fill:#ffffff" />
  </g>
</svg>
