<?xml version="1.0" encoding="UTF-8" standalone="no"?>
<svg
   xmlns:dc="http://purl.org/dc/elements/1.1/"
   xmlns:cc="http://creativecommons.org/ns#"
   xmlns:rdf="http://www.w3.org/1999/02/22-rdf-syntax-ns#"
   xmlns:svg="http://www.w3.org/2000/svg"
   xmlns="http://www.w3.org/2000/svg"
   xmlns:sodipodi="http://sodipodi.sourceforge.net/DTD/sodipodi-0.dtd"
   xmlns:inkscape="http://www.inkscape.org/namespaces/inkscape"
   width="223pt"
   height="222pt"
   viewBox="0 0 223 222"
   version="1.2"
   id="svg339"
   sodipodi:docname="SO_Logo_UK_full.svg"
   inkscape:version="0.92.4 (5da689c313, 2019-01-14)">
  <metadata
     id="metadata343">
    <rdf:RDF>
      <cc:Work
         rdf:about="">
        <dc:format>image/svg+xml</dc:format>
        <dc:type
           rdf:resource="http://purl.org/dc/dcmitype/StillImage" />
        <dc:title></dc:title>
      </cc:Work>
    </rdf:RDF>
  </metadata>
  <sodipodi:namedview
     pagecolor="#ffffff"
     bordercolor="#666666"
     borderopacity="1"
     objecttolerance="10"
     gridtolerance="10"
     guidetolerance="10"
     inkscape:pageopacity="0"
     inkscape:pageshadow="2"
     inkscape:window-width="1920"
     inkscape:window-height="1017"
     id="namedview341"
     showgrid="false"
     inkscape:zoom="8"
     inkscape:cx="162.73236"
     inkscape:cy="60.539147"
     inkscape:window-x="1072"
     inkscape:window-y="457"
     inkscape:window-maximized="1"
     inkscape:current-layer="svg339"
     inkscape:snap-bbox="true"
     inkscape:snap-intersection-paths="false"
     inkscape:snap-midpoints="false" />
  <defs
     id="defs14">
    <clipPath
       id="clip1">
      <path
         d="M 100 215 L 107 215 L 107 221.941406 L 100 221.941406 Z M 100 215 "
         id="path2" />
    </clipPath>
    <clipPath
       id="clip2">
      <path
         d="M 108 213 L 114 213 L 114 221.941406 L 108 221.941406 Z M 108 213 "
         id="path5" />
    </clipPath>
    <clipPath
       id="clip3">
      <path
         d="M 0 0.0507813 L 222.074219 0.0507813 L 222.074219 221.941406 L 0 221.941406 Z M 0 0.0507813 "
         id="path8" />
    </clipPath>
    <clipPath
       id="clip4">
      <path
         d="M 0 0.0507813 L 222.074219 0.0507813 L 222.074219 221.941406 L 0 221.941406 Z M 0 0.0507813 "
         id="path11" />
    </clipPath>
  </defs>
  <path
     inkscape:connector-curvature="0"
     id="path190"
     d="m 16.578125,112.21094 c 0,52.20312 42.316406,94.51953 94.519535,94.51953 52.20312,0 94.51953,-42.31641 94.51953,-94.51953 0,-52.203127 -42.31641,-94.52344 -94.51953,-94.52344 -52.203129,0 -94.519535,42.320313 -94.519535,94.52344"
     style="fill:#211e1e;fill-opacity:1;fill-rule:nonzero;stroke:none" />
  <path
     inkscape:connector-curvature="0"
     id="path16"
     d="m 23.242188,167.81641 0.894531,-0.60547 3.164062,4.6875 -0.367187,0.25 c -1.292969,0.87109 -2.023438,0.69531 -3.90625,-0.10157 -1.976563,-0.82421 -2.433594,-0.79296 -2.851563,-0.51171 -0.617187,0.41796 -0.5625,1.29296 -0.132812,1.92968 0.625,0.92578 1.683594,1.3125 2.113281,1.45703 l -1.074219,0.72657 c -0.445312,-0.23438 -1.308593,-0.69532 -1.953125,-1.65235 -0.765625,-1.13281 -0.902343,-2.57812 0.292969,-3.38281 0.835938,-0.56641 1.691406,-0.47656 4.097656,0.53516 1.183594,0.50781 1.761719,0.69531 2.242188,0.39843 l -2.519531,-3.73046"
     style="fill:#211e1e;fill-opacity:1;fill-rule:nonzero;stroke:none" />
  <path
     inkscape:connector-curvature="0"
     id="path18"
     d="m 19.605469,161.625 0.933594,-0.53906 2.835937,4.88672 -0.386719,0.22265 c -1.347656,0.78125 -2.058593,0.5586 -3.886718,-0.36719 -1.914063,-0.95703 -2.371094,-0.95703 -2.804688,-0.70312 -0.644531,0.37109 -0.648437,1.25 -0.265625,1.91406 0.5625,0.96485 1.589844,1.42188 2.007813,1.59375 l -1.121094,0.65235 c -0.429688,-0.26563 -1.257813,-0.78125 -1.835938,-1.78125 -0.683593,-1.1836 -0.722656,-2.63282 0.523438,-3.35157 0.871094,-0.50781 1.722656,-0.35937 4.050781,0.8125 1.144531,0.58594 1.707031,0.81641 2.207031,0.55078 L 19.605469,161.625"
     style="fill:#211e1e;fill-opacity:1;fill-rule:nonzero;stroke:none" />
  <path
     inkscape:connector-curvature="0"
     id="path20"
     d="m 12.335938,161.89453 c 0.3125,0.62109 1.070312,0.87109 1.695312,0.55859 0.621094,-0.3125 0.871094,-1.07421 0.558594,-1.69531 -0.316406,-0.62109 -1.074219,-0.87109 -1.695313,-0.55469 -0.621093,0.3125 -0.871093,1.07032 -0.558593,1.69141 z m -0.558594,0.28125 c -0.46875,-0.93359 -0.09766,-2.0625 0.835937,-2.53125 0.933594,-0.47266 2.0625,-0.0977 2.53125,0.83594 0.46875,0.92969 0.09766,2.05859 -0.832031,2.52734 -0.933594,0.47266 -2.0625,0.10156 -2.535156,-0.83203"
     style="fill:#211e1e;fill-opacity:1;fill-rule:nonzero;stroke:none" />
  <path
     inkscape:connector-curvature="0"
     id="path22"
     d="m 8.578125,153.96875 0.992188,-0.42969 1.507812,3.48047 2.035156,-0.88281 c -0.261718,-0.14844 -0.847656,-0.50781 -1.238281,-1.41016 -0.570312,-1.32422 -0.128906,-2.74219 1.203125,-3.32031 1.429688,-0.62109 3.070313,0.0586 3.808594,1.76172 0.449219,1.03515 0.378906,1.96875 0.339844,2.39062 L 16.0625,156.0625 c 0.105469,-0.6875 0.25,-1.55859 -0.144531,-2.47266 -0.460938,-1.07031 -1.5,-1.47265 -2.289063,-1.125 -0.773437,0.33203 -1.042968,1.2461 -0.667968,2.11719 0.06641,0.15234 0.304687,0.70313 1,1.1875 l 0.4375,1.01172 -3.875,1.67969 -1.945313,-4.49219"
     style="fill:#211e1e;fill-opacity:1;fill-rule:nonzero;stroke:none" />
  <path
     inkscape:connector-curvature="0"
     id="path24"
     d="m 5.792969,146.48437 0.984375,-0.34765 7.496094,0.80469 0.40625,1.15234 -7.46875,-0.82813 1.417968,4.01563 -1.019531,0.35937 -1.816406,-5.15625"
     style="fill:#211e1e;fill-opacity:1;fill-rule:nonzero;stroke:none" />
  <path
     inkscape:connector-curvature="0"
     id="path26"
     d="m 6.371094,144.55859 -1.378906,0.41797 -0.34375,-1.14844 1.375,-0.41796 1.585937,-0.1875 0.1875,0.61718 -1.425781,0.71875"
     style="fill:#211e1e;fill-opacity:1;fill-rule:nonzero;stroke:none" />
  <path
     inkscape:connector-curvature="0"
     id="path28"
     d="m 4.03125,133.42187 c -0.1875,0.375 -0.703125,1.4336 -0.453125,2.57032 0.195313,0.8789 0.832031,1.53515 1.5,1.39062 0.597656,-0.13281 0.824219,-0.65234 0.839844,-2.10156 0.019531,-1.29688 0.179687,-2.80469 1.710937,-3.14453 1.558594,-0.34375 2.867188,0.90234 3.21875,2.49609 0.273438,1.24219 -0.09766,2.29688 -0.285156,2.82813 l -1.371094,0.30078 c 0.257813,-0.54688 0.84375,-1.7461 0.566407,-2.9961 -0.195313,-0.8789 -0.96875,-1.60546 -1.730469,-1.4375 -0.796875,0.17579 -0.929688,1.07813 -0.945313,2.16016 -0.023437,0.79297 -0.078125,1.60156 -0.480468,2.28125 -0.207032,0.30078 -0.433594,0.64844 -1.171875,0.8125 -1.347657,0.29688 -2.511719,-0.69922 -2.875,-2.33984 -0.246094,-1.10157 -0.027344,-1.89844 0.128906,-2.52344 l 1.347656,-0.29688"
     style="fill:#211e1e;fill-opacity:1;fill-rule:nonzero;stroke:none" />
  <path
     inkscape:connector-curvature="0"
     id="path30"
     d="m 11.671875,130.54687 c -0.90625,-0.16796 -1.125,-0.21484 -1.683594,-0.14062 -0.03125,0.15625 -0.101562,0.51953 -0.644531,0.61719 -0.488281,0.0859 -0.84375,-0.14453 -0.90625,-0.48828 -0.070312,-0.39844 0.304688,-0.6875 0.730469,-0.76172 0.652344,-0.11719 1.742187,0.1289 2.421875,0.30468 l 0.08203,0.46875"
     style="fill:#211e1e;fill-opacity:1;fill-rule:nonzero;stroke:none" />
  <path
     inkscape:connector-curvature="0"
     id="path32"
     d="m 7.765625,121.71484 c -0.082031,-0.88671 -0.796875,-1.57812 -1.644531,-1.5 -0.933594,0.0898 -1.332031,0.96875 -1.273438,1.61329 0.03125,0.32421 0.203125,1.23437 1.410157,2.02734 0.976562,-0.49219 1.601562,-1.14063 1.507812,-2.14063 z m -5.398437,-1.78515 c -0.351563,0.60937 -0.636719,1.28906 -0.570313,1.99219 0.039063,0.41796 0.273438,1.23046 1.324219,1.78125 0.851562,0.46093 1.59375,0.41796 2.097656,0.39453 l 0.019531,-0.0273 c -0.433593,-0.29687 -1.328125,-0.96093 -1.457031,-2.30859 -0.140625,-1.51953 0.804688,-2.59375 2.144531,-2.72266 1.503907,-0.14062 2.75,1.0586 2.894532,2.59766 0.175781,1.88672 -1.246094,3.40625 -3.480469,3.61719 -1.996094,0.1875 -4.363281,-0.76953 -4.589844,-3.17188 -0.078125,-0.83594 0.144531,-1.53125 0.316406,-2.03125 l 1.300782,-0.12109"
     style="fill:#211e1e;fill-opacity:1;fill-rule:nonzero;stroke:none" />
  <path
     inkscape:connector-curvature="0"
     id="path34"
     d="m 0.382813,112.29688 1.046875,-0.0234 6.878906,3.08203 0.027344,1.22266 -6.84375,-3.09375 0.105468,4.2539 -1.078125,0.0273 -0.136718,-5.46875"
     style="fill:#211e1e;fill-opacity:1;fill-rule:nonzero;stroke:none" />
  <path
     inkscape:connector-curvature="0"
     id="path36"
     d="m 0.625,108.69141 c -0.023437,0.69531 0.523438,1.27734 1.21875,1.29687 0.695313,0.0234 1.277344,-0.52344 1.300781,-1.21875 0.019532,-0.69531 -0.527343,-1.27734 -1.21875,-1.29687 -0.699218,-0.0234 -1.28125,0.52343 -1.300781,1.21875 z M 0,108.67188 c 0.03125,-1.04297 0.898438,-1.85547 1.941406,-1.82422 1.042969,0.0312 1.859375,0.89843 1.828125,1.9414 -0.035156,1.04297 -0.902343,1.85547 -1.945312,1.82422 C 0.78125,110.58203 -0.03125,109.71484 0,108.67188"
     style="fill:#211e1e;fill-opacity:1;fill-rule:nonzero;stroke:none" />
  <path
     inkscape:connector-curvature="0"
     id="path38"
     d="m 2.460938,101.71484 -0.00391,0.0234 2.804688,2.75391 0.222656,-2.50781 z m -1.40625,-1.24609 4.527343,0.40234 0.125,-1.421871 1.054688,0.09375 -0.125,1.421871 2.195312,0.19532 -0.097656,1.11328 -2.199219,-0.19922 -0.335937,3.78906 -1.015625,-0.0898 -4.230469,-4.19141 0.101563,-1.11328"
     style="fill:#211e1e;fill-opacity:1;fill-rule:nonzero;stroke:none" />
  <path
     inkscape:connector-curvature="0"
     id="path40"
     d="m 2.222656,92.042969 1.03125,0.164062 6.203125,4.28125 -0.191406,1.207032 -6.167969,-4.285157 -0.667968,4.203125 -1.066407,-0.167968 0.859375,-5.402344"
     style="fill:#211e1e;fill-opacity:1;fill-rule:nonzero;stroke:none" />
  <path
     inkscape:connector-curvature="0"
     id="path42"
     d="M 3.648438,90.609375 2.238281,90.320313 2.480469,89.144531 3.890625,89.433594 5.375,90.019531 5.242188,90.652344 3.648438,90.609375"
     style="fill:#211e1e;fill-opacity:1;fill-rule:nonzero;stroke:none" />
  <path
     inkscape:connector-curvature="0"
     id="path44"
     d="m 6.25,75.335938 7.242188,4.320312 -0.335938,1.101563 -6.519531,-0.433594 -0.00391,0.02344 5.679687,3.175782 -0.347656,1.136718 -8.449219,-0.355468 0.363281,-1.195313 6.464844,0.453125 0.0078,-0.02344 -5.644532,-3.140625 0.351563,-1.144532 6.308594,0.378907 0.0078,-0.02344 -5.48044,-3.10156 L 6.25,75.335938"
     style="fill:#211e1e;fill-opacity:1;fill-rule:nonzero;stroke:none" />
  <path
     inkscape:connector-curvature="0"
     id="path46"
     d="M 15.792969,57.347656 17.929688,58.617188 18.75,57.234375 c 0.578125,-0.964844 0.457031,-1.777344 -0.242187,-2.195312 -0.660157,-0.390625 -1.320313,-0.03125 -1.675782,0.566406 z m 0.160156,-2.375 c 0.851563,-1.433593 2.132813,-1.621093 3.144531,-1.019531 1.320313,0.785156 1.496094,2.296875 0.648438,3.722656 l -0.890625,1.492188 3.054687,1.816406 -0.589843,0.988281 -7.042969,-4.1875 1.675781,-2.8125"
     style="fill:#211e1e;fill-opacity:1;fill-rule:nonzero;stroke:none" />
  <path
     inkscape:connector-curvature="0"
     id="path48"
     d="m 20.445313,50.679688 -0.01172,0.01953 2.050781,2.71875 1.257813,-1.84375 z m -0.875,-1.292969 8.492187,2.066406 -0.753906,1.113281 -2.464844,-0.691406 -1.660156,2.4375 1.542969,2.039063 -0.75,1.101562 -5.066407,-7.097656 0.660157,-0.96875"
     style="fill:#211e1e;fill-opacity:1;fill-rule:nonzero;stroke:none" />
  <path
     inkscape:connector-curvature="0"
     id="path50"
     d="m 23.816406,45.347656 1.941407,1.527344 0.527343,-0.667969 c 0.929688,-1.175781 1.328125,-2.128906 0.488282,-2.789062 -0.796875,-0.632813 -1.574219,0.175781 -1.839844,0.515625 z m 0.453125,-2.320312 c 1.0625,-1.34375 2.25,-1.398438 3.15625,-0.683594 1.046875,0.820313 0.757813,2.015625 0.445313,2.917969 l 0.01953,0.01563 c 0.273438,-0.195313 0.785156,-0.511719 1.824219,-0.183594 l 2.6875,0.855469 -0.796875,1.003906 -2.164063,-0.757812 C 28.53125,45.875 27.894531,45.90625 27.324219,46.632813 l -0.71875,0.914062 2.792969,2.203125 -0.710938,0.902344 -6.429687,-5.074219 2.011718,-2.550781"
     style="fill:#211e1e;fill-opacity:1;fill-rule:nonzero;stroke:none" />
  <path
     inkscape:connector-curvature="0"
     id="path52"
     d="m 35.121094,40.90625 c 0.02734,-0.460937 0.113281,-1.621094 -1.160156,-2.785156 -1.355469,-1.242188 -3.066407,-1.324219 -4.0625,-0.238281 -0.988282,1.078125 -0.765625,2.777343 0.605468,4.03125 1.433594,1.316406 3.128907,1.289062 4.003907,0.332031 0.08984,-0.09375 0.210937,-0.261719 0.25,-0.324219 l -2.152344,-0.457031 0.84375,-0.917969 z m 3.847656,-0.136719 c -0.105469,0.308594 -0.359375,0.726563 -0.574219,0.964844 -0.730468,0.796875 -1.554687,0.648438 -2.566406,0.421875 -0.03906,0.07813 -0.140625,0.246094 -0.253906,0.402344 -0.101563,0.164062 -0.214844,0.324219 -0.28125,0.394531 -1.332031,1.457031 -3.757813,1.601563 -5.613281,-0.101562 -1.878907,-1.71875 -1.917969,-4.195313 -0.558594,-5.679688 1.394531,-1.523437 3.875,-1.625 5.671875,0.01953 1.160156,1.0625 1.664062,2.414063 1.398437,3.964844 0.4375,0.08984 1.117188,0.238281 1.578125,-0.265625 0.210938,-0.230469 0.339844,-0.550781 0.394532,-0.859375 l 0.804687,0.738281"
     style="fill:#211e1e;fill-opacity:1;fill-rule:nonzero;stroke:none" />
  <path
     inkscape:connector-curvature="0"
     id="path54"
     d="m 33.832031,32.5 3.480469,3.722656 c 0.8125,0.867188 1.851563,1.222657 2.839844,0.296875 1,-0.933593 0.757812,-2.035156 -0.05469,-2.902343 l -3.484375,-3.722657 0.84375,-0.785156 3.578125,3.824219 c 1.675782,1.789062 0.890625,3.375 -0.167968,4.367187 -1.417969,1.328125 -2.910157,1.292969 -4.296875,-0.1875 L 32.988281,33.285156 33.832031,32.5"
     style="fill:#211e1e;fill-opacity:1;fill-rule:nonzero;stroke:none" />
  <path
     inkscape:connector-curvature="0"
     id="path56"
     d="m 43.035156,24.472656 0.6875,0.835938 -3.1875,2.605469 1.449219,1.777343 3.050781,-2.496093 0.652344,0.800781 -3.046875,2.492187 1.710938,2.089844 3.183593,-2.605469 0.6875,0.835938 -4.082031,3.335937 -5.183594,-6.335937 4.078125,-3.335938"
     style="fill:#211e1e;fill-opacity:1;fill-rule:nonzero;stroke:none" />
  <path
     inkscape:connector-curvature="0"
     id="path58"
     d="m 51.027344,20.597656 -0.01953,0.01172 0.855468,3.296875 1.867188,-1.222656 z m -0.316406,-1.527343 7.054687,5.152343 -1.121094,0.738282 L 54.632813,23.382813 52.164063,25 l 0.648437,2.472656 -1.113281,0.730469 -1.972656,-8.488281 0.984375,-0.644531"
     style="fill:#211e1e;fill-opacity:1;fill-rule:nonzero;stroke:none" />
  <path
     inkscape:connector-curvature="0"
     id="path60"
     d="m 59.800781,15.902344 c -0.410156,-0.07031 -1.574218,-0.253906 -2.589843,0.316406 -0.785157,0.4375 -1.230469,1.242188 -0.894532,1.835938 0.300782,0.535156 0.863282,0.601562 2.253907,0.191406 1.246093,-0.355469 2.734375,-0.640625 3.507812,0.726562 0.78125,1.390625 -0.03516,3.003907 -1.457031,3.804688 -1.105469,0.621094 -2.222656,0.574219 -2.785156,0.546875 l -0.691407,-1.222656 c 0.601563,0.08984 1.917969,0.300781 3.039063,-0.328125 0.78125,-0.441407 1.253906,-1.394532 0.871094,-2.074219 C 60.652344,18.988281 59.753906,19.125 58.710938,19.421875 57.945313,19.628906 57.152344,19.8125 56.386719,19.625 56.039063,19.519531 55.640625,19.398438 55.269531,18.738281 54.59375,17.535156 55.207031,16.132813 56.671875,15.308594 57.65625,14.757813 58.480469,14.734375 59.125,14.699219 l 0.675781,1.203125"
     style="fill:#211e1e;fill-opacity:1;fill-rule:nonzero;stroke:none" />
  <path
     inkscape:connector-curvature="0"
     id="path62"
     d="m 65.441406,10.992188 0.46875,0.972656 L 63.773438,13 l 3.089843,6.378906 -1.035156,0.5 L 62.738281,13.5 l -2.191406,1.0625 -0.46875,-0.972656 5.363281,-2.597656"
     style="fill:#211e1e;fill-opacity:1;fill-rule:nonzero;stroke:none" />
  <path
     inkscape:connector-curvature="0"
     id="path64"
     d="m 68.242188,10.945313 0.933593,2.289062 0.789063,-0.320312 c 1.390625,-0.5625 2.207031,-1.195313 1.804687,-2.183594 -0.382812,-0.945313 -1.457031,-0.625 -1.859375,-0.460938 z M 69.78125,9.15625 c 1.589844,-0.648437 2.652344,-0.109375 3.085938,0.960938 0.503906,1.230468 -0.335938,2.128906 -1.054688,2.757812 l 0.01172,0.02344 c 0.335937,-0.03516 0.933594,-0.05859 1.675781,0.742187 l 1.914063,2.070313 -1.1875,0.484375 -1.507813,-1.730469 c -0.632812,-0.730469 -1.199219,-1.015625 -2.058594,-0.667969 l -1.078125,0.4375 1.34375,3.304688 -1.066406,0.433593 -3.089844,-7.589843 3.011719,-1.226563"
     style="fill:#211e1e;fill-opacity:1;fill-rule:nonzero;stroke:none" />
  <path
     inkscape:connector-curvature="0"
     id="path66"
     d="m 75.75,11.265625 c 0.574219,1.78125 2.042969,2.671875 3.425781,2.222656 C 80.617188,13.027344 81.1875,11.390625 80.632813,9.679688 80.042969,7.851563 78.546875,7.035156 77.242188,7.453125 75.746094,7.9375 75.203125,9.574219 75.75,11.265625 Z m 6.0625,-1.992187 c 0.699219,2.160156 -0.164062,4.527343 -2.367187,5.242187 -2.214844,0.710938 -4.203125,-0.753906 -4.882813,-2.867187 -0.800781,-2.476563 0.519531,-4.605469 2.289063,-5.175782 2.332031,-0.75 4.3125,0.789063 4.960937,2.800782"
     style="fill:#211e1e;fill-opacity:1;fill-rule:nonzero;stroke:none" />
  <path
     inkscape:connector-curvature="0"
     id="path68"
     d="m 87.21875,8.242188 c 0.59375,0.585937 1.121094,1.140625 1.613281,1.667968 l 0.207032,0.246094 0.01563,-0.02734 C 89.011719,9.988281 88.933594,9.710938 88.898438,9.5625 88.828125,9.316406 88.710938,8.925781 88.621094,8.550781 L 87.484375,3.726563 88.5625,3.472656 l 1.875,7.96875 -1.144531,0.269532 -3.515625,-3.449219 C 85.476563,7.960938 84.921875,7.390625 84.496094,6.945313 84.402344,6.859375 83.929688,6.363281 83.867188,6.269531 l -0.02344,0.00391 c 0.04297,0.175781 0.132813,0.5 0.179688,0.660156 0.06641,0.222656 0.132812,0.464844 0.195312,0.71875 l 1.171875,4.980469 -1.121094,0.261718 -1.875,-7.96875 1.167969,-0.273437 3.65625,3.589844"
     style="fill:#211e1e;fill-opacity:1;fill-rule:nonzero;stroke:none" />
  <path
     inkscape:connector-curvature="0"
     id="path70"
     d="M 95.023438,0.0507813 93.789063,1.988281 93.050781,2.101563 93.90625,0.222656 Z M 92.246094,6.945313 c 0.28125,1.851562 1.59375,2.960937 3.03125,2.746093 1.492187,-0.226562 2.320312,-1.75 2.046875,-3.53125 C 97.035156,4.261719 95.6875,3.214844 94.335938,3.421875 92.777344,3.65625 91.980469,5.191406 92.246094,6.945313 Z m 6.3125,-0.996094 c 0.339844,2.242187 -0.894531,4.445312 -3.183594,4.792969 -2.300781,0.351562 -4.027344,-1.414063 -4.359375,-3.609375 -0.394531,-2.574219 1.25,-4.464844 3.089844,-4.742188 2.417969,-0.371094 4.132812,1.46875 4.453125,3.558594"
     style="fill:#211e1e;fill-opacity:1;fill-rule:nonzero;stroke:none" />
  <path
     inkscape:connector-curvature="0"
     id="path72"
     d="m 107.64063,1.214844 0.53515,8.167969 -1.11719,0.070312 -0.4375,-6.679687 h -0.0234 l -2.44922,5.007812 -3.07031,-4.597656 -0.0234,0.00391 0.43359,6.632813 -1.10937,0.074218 -0.53516,-8.167968 1.32813,-0.089844 2.84765,4.191406 2.23047,-4.523437 1.39063,-0.089844"
     style="fill:#211e1e;fill-opacity:1;fill-rule:nonzero;stroke:none" />
  <path
     inkscape:connector-curvature="0"
     id="path74"
     d="m 110.89844,1.230469 0.15234,8.179687 -1.15234,0.019532 L 109.75,1.25 110.89844,1.230469"
     style="fill:#211e1e;fill-opacity:1;fill-rule:nonzero;stroke:none" />
  <path
     inkscape:connector-curvature="0"
     id="path76"
     d="m 118.87109,3.421875 c -0.39062,-0.378906 -1.14453,-1.082031 -2.29296,-1.132812 -1.65625,-0.070313 -2.80469,1.492187 -2.875,3.109375 -0.0742,1.738281 1.03125,3.121093 2.44921,3.179687 1.22266,0.054688 2.17969,-0.648437 2.53907,-0.921875 l -0.0586,1.355469 c -0.46875,0.242187 -1.36328,0.710937 -2.5625,0.65625 -2.03906,-0.085938 -3.67187,-1.839844 -3.5664,-4.320313 0.10547,-2.484375 1.85156,-4.210937 4.08203,-4.117187 1.11328,0.050781 1.85156,0.511719 2.34375,0.835937 l -0.0586,1.355469"
     style="fill:#211e1e;fill-opacity:1;fill-rule:nonzero;stroke:none" />
  <path
     inkscape:connector-curvature="0"
     id="path78"
     d="m 121.15234,5.761719 c -0.21875,1.859375 0.75,3.277344 2.19532,3.449219 1.5,0.175781 2.69922,-1.074219 2.90625,-2.863282 0.22265,-1.90625 -0.80078,-3.273437 -2.15625,-3.429687 -1.5625,-0.183594 -2.73828,1.078125 -2.94532,2.84375 z m 6.34375,0.707031 c -0.26171,2.253906 -2.03125,4.050781 -4.33203,3.785156 -2.3125,-0.273437 -3.51172,-2.433593 -3.2539,-4.636718 0.30468,-2.585938 2.39062,-3.972657 4.23437,-3.757813 2.4336,0.285156 3.59766,2.511719 3.35156,4.609375"
     style="fill:#211e1e;fill-opacity:1;fill-rule:nonzero;stroke:none" />
  <path
     inkscape:connector-curvature="0"
     id="path80"
     d="m 136.37109,5.628906 -0.0234,-0.00781 -1.8086,2.890625 2.17188,0.515625 z m 0.89844,-1.28125 1.09766,8.671875 -1.3086,-0.308593 -0.23437,-2.550782 -2.875,-0.679687 -1.35156,2.171875 -1.29688,-0.308594 4.82031,-7.269531 1.14844,0.273437"
     style="fill:#211e1e;fill-opacity:1;fill-rule:nonzero;stroke:none" />
  <path
     inkscape:connector-curvature="0"
     id="path82"
     d="m 146.34766,6.929688 -0.31641,1.03125 -2.27344,-0.691407 -2.07031,6.785157 -1.10156,-0.335938 2.07031,-6.785156 -2.33203,-0.710938 0.3164,-1.035156 5.70704,1.742188"
     style="fill:#211e1e;fill-opacity:1;fill-rule:nonzero;stroke:none" />
  <path
     inkscape:connector-curvature="0"
     id="path84"
     d="m 149.73047,9.710938 -0.0195,-0.00781 -2.16016,2.632813 2.08594,0.789062 z m 1.05469,-1.152344 -0.0156,8.738281 -1.25781,-0.476562 0.0898,-2.554688 -2.75781,-1.042969 -1.62109,1.980469 -1.2461,-0.46875 5.70703,-6.59375 1.10157,0.417969"
     style="fill:#211e1e;fill-opacity:1;fill-rule:nonzero;stroke:none" />
  <path
     inkscape:connector-curvature="0"
     id="path86"
     d="m 159.51562,14.46875 c -0.21875,-0.5 -0.64843,-1.4375 -1.69531,-1.917969 -1.5039,-0.695312 -3.16015,0.3125 -3.83984,1.785157 -0.72656,1.582031 -0.23047,3.28125 1.05859,3.875 1.10938,0.511718 2.26172,0.222656 2.69922,0.105468 l -0.56641,1.234375 c -0.52734,0.04687 -1.53515,0.140625 -2.625,-0.363281 -1.85156,-0.855469 -2.69531,-3.097656 -1.65625,-5.355469 1.04297,-2.257812 3.3125,-3.191406 5.33985,-2.257812 1.01562,0.46875 1.51953,1.179687 1.85156,1.660156 l -0.56641,1.234375"
     style="fill:#211e1e;fill-opacity:1;fill-rule:nonzero;stroke:none" />
  <g
     transform="matrix(2.6474123,1.013126,-1.013126,2.6474123,84.783897,-530.58183)"
     id="g7289">
    <g
       id="g7322"
       transform="rotate(4.346408,71.566753,175.68209)">
      <path
         style="fill:#c8102e;fill-opacity:1;stroke:#c8102e;stroke-width:0.99999994px;stroke-linecap:butt;stroke-linejoin:miter;stroke-opacity:1"
         d="M 146.22852 25.382812 L 134.07617 216.68945 L 143.05664 220.68164 L 209.69141 41.730469 L 199.80273 36.894531 L 141.66016 204.86328 L 157.20703 26.234375 L 146.22852 25.382812 z M 209.69141 41.730469 L 143.0957 220.69727 L 152.71094 224.9707 L 259.55273 93.808594 L 253.09961 83.396484 L 154.55273 210.95312 L 219.91602 48.326172 L 209.69141 41.730469 z "
         transform="matrix(0.23922978,-0.11301969,0.11301969,0.23922978,39.802654,187.94667)"
         id="path7341" />
      <g
         id="g7283">
        <path
           inkscape:connector-curvature="0"
           id="path7239"
           d="m 83.15848,175.586 5.707224,-1.1585 7.027447,42.47834 z"
           style="fill:#012169;fill-opacity:1;stroke:none;stroke-width:0.26458332px;stroke-linecap:butt;stroke-linejoin:miter;stroke-opacity:1" />
        <path
           inkscape:connector-curvature="0"
           id="path7267"
           d="m 102.11323,175.62069 4.89398,2.03301 -6.07538,39.25214 1.1814,-41.28515"
           style="fill:#012169;fill-opacity:1;stroke:#012169;stroke-width:0.26458332px;stroke-linecap:butt;stroke-linejoin:miter;stroke-opacity:1" />
      </g>
    </g>
  </g>
  <path
     inkscape:connector-curvature="0"
     id="path200-4"
     d="m 100.14565,162.6023 9.19532,-144.54298 c 0,0 24.25,-0.960937 48.49219,12.367193 25.47265,14.00781 37.39867,39.833931 37.39867,39.833931 l -80.32362,98.631636"
     style="fill:#646464;fill-opacity:0.3888889;fill-rule:nonzero;stroke:none;stroke-width:1;stroke-opacity:0.55686275"
     sodipodi:nodetypes="ccccc" />
  <path
     inkscape:connector-curvature="0"
     id="path88"
     d="m 163.83203,16.214844 -0.0195,-0.01172 -2.51563,2.300781 1.95313,1.074219 z m 1.20313,-0.992188 -1.26172,8.648438 -1.17578,-0.648438 0.45703,-2.519531 -2.58594,-1.421875 -1.88281,1.726563 -1.16797,-0.640625 6.58984,-5.714844 1.02735,0.570312"
     style="fill:#211e1e;fill-opacity:1;fill-rule:nonzero;stroke:none" />
  <path
     inkscape:connector-curvature="0"
     id="path90"
     d="m 175.64453,21.867188 -4.52344,6.816406 -0.92968,-0.617188 3.70312,-5.578125 -0.0234,-0.01172 -4.98047,2.492187 0.34766,-5.511719 -0.0156,-0.01172 -3.67579,5.535156 -0.92968,-0.617188 4.52343,-6.8125 1.10938,0.734375 -0.27734,5.054688 4.51171,-2.242188 1.16016,0.769532"
     style="fill:#211e1e;fill-opacity:1;fill-rule:nonzero;stroke:none" />
  <path
     inkscape:connector-curvature="0"
     id="path92"
     d="m 178.91016,26.222656 -0.0195,-0.01563 -2.85937,1.855469 1.75,1.382813 z m 1.35156,-0.78125 -2.66797,8.324219 -1.05469,-0.832031 0.86328,-2.410156 -2.3125,-1.828125 -2.14453,1.394531 -1.04687,-0.828125 7.4414,-4.550781 0.92188,0.730468"
     style="fill:#211e1e;fill-opacity:1;fill-rule:nonzero;stroke:none" />
  <path
     inkscape:connector-curvature="0"
     id="path94"
     d="m 177.25,35.859375 c 0.8125,-0.433594 1.01172,-0.535156 1.40234,-0.941406 -0.0703,-0.140625 -0.24609,-0.46875 0.1211,-0.882813 0.32422,-0.371093 0.74609,-0.414062 1.00781,-0.183593 0.30859,0.265625 0.19141,0.726562 -0.0937,1.050781 -0.43359,0.496094 -1.44141,0.984375 -2.07813,1.273437 L 177.25,35.859375"
     style="fill:#211e1e;fill-opacity:1;fill-rule:nonzero;stroke:none" />
  <path
     inkscape:connector-curvature="0"
     id="path96"
     d="m 191.82422,38.90625 c -0.0195,-0.542969 -0.0781,-1.570312 -0.875,-2.398437 -1.14844,-1.195313 -3.05469,-0.859375 -4.22266,0.261718 -1.2539,1.207032 -1.41015,2.96875 -0.42969,3.992188 0.84766,0.882812 2.02735,1.03125 2.47266,1.082031 l -0.97266,0.9375 c -0.50781,-0.144531 -1.48046,-0.425781 -2.3125,-1.289062 -1.41406,-1.472657 -1.38281,-3.863282 0.41016,-5.585938 1.78906,-1.722656 4.24219,-1.765625 5.78906,-0.160156 0.77344,0.808594 0.98828,1.652344 1.1211,2.222656 l -0.98047,0.9375"
     style="fill:#211e1e;fill-opacity:1;fill-rule:nonzero;stroke:none" />
  <path
     inkscape:connector-curvature="0"
     id="path98"
     d="m 195.19922,39.8125 -2.61328,2.167969 2.5664,3.089844 2.61328,-2.167969 0.73829,0.886719 -6.30079,5.226562 -0.73437,-0.886719 2.89844,-2.40625 -2.56641,-3.09375 -2.89844,2.40625 -0.73437,-0.886718 6.29687,-5.222657 0.73438,0.886719"
     style="fill:#211e1e;fill-opacity:1;fill-rule:nonzero;stroke:none" />
  <path
     inkscape:connector-curvature="0"
     id="path100"
     d="m 200.47266,46.433594 -6.57032,4.894531 -0.6875,-0.925781 6.56641,-4.890625 0.69141,0.921875"
     style="fill:#211e1e;fill-opacity:1;fill-rule:nonzero;stroke:none" />
  <path
     inkscape:connector-curvature="0"
     id="path102"
     d="m 202.34766,49.0625 -5.88282,3.984375 2.28125,3.371094 -0.89453,0.605469 -2.92578,-4.324219 6.77344,-4.589844 0.64844,0.953125"
     style="fill:#211e1e;fill-opacity:1;fill-rule:nonzero;stroke:none" />
  <path
     inkscape:connector-curvature="0"
     id="path104"
     d="m 208.11719,58.265625 -0.92969,0.550781 -2.09375,-3.542968 -1.97266,1.164062 2,3.390625 -0.88672,0.523438 -2.0039,-3.386719 -2.32422,1.375 2.09375,3.542969 -0.92969,0.546875 -2.67969,-4.535157 7.04688,-4.164062 2.67969,4.535156"
     style="fill:#211e1e;fill-opacity:1;fill-rule:nonzero;stroke:none" />
  <path
     inkscape:connector-curvature="0"
     id="path106"
     d="m 217.94922,82.089844 -1.03125,0.316406 -1.21875,-3.929687 -2.1875,0.675781 1.16406,3.761719 -0.98828,0.304687 -1.16406,-3.761719 -2.57813,0.800782 1.21485,3.929687 -1.03125,0.320313 -1.5586,-5.035157 7.82422,-2.417968 1.55469,5.035156"
     style="fill:#211e1e;fill-opacity:1;fill-rule:nonzero;stroke:none" />
  <path
     inkscape:connector-curvature="0"
     id="path108"
     d="m 218.59375,84.609375 -6.89844,1.691406 0.96875,3.953125 -1.04687,0.257813 -1.2461,-5.070313 7.94922,-1.949218 0.27344,1.117187"
     style="fill:#211e1e;fill-opacity:1;fill-rule:nonzero;stroke:none" />
  <path
     inkscape:connector-curvature="0"
     id="path110"
     d="m 220.76562,95.003906 -1.0625,0.191407 -0.74218,-4.046875 -2.25391,0.410156 0.70703,3.875 -1.01562,0.183594 -0.70703,-3.871094 -2.65625,0.484375 0.73828,4.046875 -1.0625,0.195312 -0.94532,-5.183593 8.05079,-1.46875 0.94921,5.183593"
     style="fill:#211e1e;fill-opacity:1;fill-rule:nonzero;stroke:none" />
  <path
     inkscape:connector-curvature="0"
     id="path112"
     d="m 221.04687,97.070313 -6.39453,3.058597 v 0.0234 l 6.92188,1.49219 0.15625,1.34375 -8.47656,-2.10547 -0.13282,-1.144529 7.77344,-3.96875 0.15234,1.300782"
     style="fill:#211e1e;fill-opacity:1;fill-rule:nonzero;stroke:none" />
  <path
     inkscape:connector-curvature="0"
     id="path114"
     d="m 220.45312,106.53906 v -0.0234 l -3.27734,-0.92579 0.11328,2.23047 z m 1.48047,0.5 -8.01172,3.48828 -0.0703,-1.34375 2.37891,-0.9375 -0.15235,-2.94531 -2.46093,-0.6914 -0.0664,-1.32813 8.32031,2.58203 0.0625,1.17578"
     style="fill:#211e1e;fill-opacity:1;fill-rule:nonzero;stroke:none" />
  <path
     inkscape:connector-curvature="0"
     id="path116"
     d="m 221.98828,116.24609 -1.08203,-0.0156 0.0352,-2.375 -7.08594,-0.10547 0.0156,-1.15234 7.08985,0.10547 0.0352,-2.4336 1.07813,0.0156 -0.0859,5.96093"
     style="fill:#211e1e;fill-opacity:1;fill-rule:nonzero;stroke:none" />
  <path
     inkscape:connector-curvature="0"
     id="path118"
     d="m 221.87891,118.42578 -8.16797,-0.41015 0.0547,-1.15235 8.17188,0.41016 -0.0586,1.15234"
     style="fill:#211e1e;fill-opacity:1;fill-rule:nonzero;stroke:none" />
  <path
     inkscape:connector-curvature="0"
     id="path120"
     d="m 217.65234,120.75 c -1.85937,-0.1875 -3.26172,0.80078 -3.41406,2.24219 -0.15234,1.5039 1.11328,2.68359 2.90234,2.86719 1.91016,0.19921 3.25782,-0.84375 3.39844,-2.20313 0.16016,-1.56641 -1.11719,-2.72266 -2.88672,-2.90625 z m -0.61718,6.35547 c -2.25391,-0.23438 -4.07422,-1.97656 -3.83985,-4.28125 0.23828,-2.3125 2.37891,-3.54297 4.58594,-3.3125 2.58984,0.26562 4.00781,2.32812 3.81641,4.17969 -0.25,2.43359 -2.46094,3.6289 -4.5625,3.41406"
     style="fill:#211e1e;fill-opacity:1;fill-rule:nonzero;stroke:none" />
  <path
     inkscape:connector-curvature="0"
     id="path122"
     d="m 215.84375,132.23437 c -0.77734,0.3086 -1.49219,0.56641 -2.17188,0.8086 l -0.30859,0.0898 0.0195,0.0273 c 0.14063,0.0117 0.42969,0.0547 0.58203,0.082 0.25,0.0352 0.65235,0.0859 1.03125,0.15234 l 4.875,0.89063 -0.19922,1.08593 -8.04687,-1.47265 0.21094,-1.15625 4.5664,-1.83203 c 0.39453,-0.16016 1.14063,-0.4375 1.71485,-0.65235 0.12109,-0.0508 0.76172,-0.28515 0.875,-0.30078 l 0.004,-0.0234 c -0.17578,-0.0352 -0.50781,-0.082 -0.67578,-0.10156 -0.22656,-0.0273 -0.47656,-0.0625 -0.73437,-0.10937 l -5.02735,-0.91797 0.20703,-1.13672 8.04688,1.47656 -0.21484,1.17969 -4.75391,1.91015"
     style="fill:#211e1e;fill-opacity:1;fill-rule:nonzero;stroke:none" />
  <path
     inkscape:connector-curvature="0"
     id="path124"
     d="m 215.76953,137.64062 c -0.39453,-0.0937 -0.66406,-0.46484 -0.58203,-0.8164 0.0781,-0.32813 0.45312,-0.5586 0.85937,-0.46094 0.38672,0.0898 0.66016,0.44922 0.57422,0.8125 -0.0898,0.38672 -0.48828,0.55078 -0.85156,0.46484 z m -4.09766,-0.96875 c -0.39843,-0.0937 -0.66406,-0.46484 -0.58203,-0.8125 0.0742,-0.32812 0.44922,-0.5625 0.85938,-0.46484 0.38672,0.0898 0.65625,0.45313 0.57422,0.8125 -0.0937,0.38672 -0.48828,0.55078 -0.85157,0.46484"
     style="fill:#211e1e;fill-opacity:1;fill-rule:nonzero;stroke:none" />
  <path
     inkscape:connector-curvature="0"
     id="path126"
     d="m 215.55469,148.71094 -1.03125,-0.33203 1.17187,-3.60938 -2.11328,-0.6875 c 0.0977,0.28516 0.30078,0.94531 -0.004,1.88281 -0.4414,1.36719 -1.71484,2.14063 -3.09765,1.69141 -1.48438,-0.47656 -2.26953,-2.07031 -1.69531,-3.83984 0.34765,-1.07422 1.01562,-1.73047 1.32421,-2.02344 l 1.21094,0.39453 c -0.53515,0.44531 -1.22265,1.00781 -1.53125,1.95312 -0.35547,1.10938 0.15625,2.09375 0.97656,2.36329 0.80079,0.25781 1.60938,-0.25 1.90235,-1.15235 0.0508,-0.16015 0.23437,-0.73047 0.0352,-1.55469 l 0.33985,-1.05078 4.01953,1.30469 -1.50781,4.66016"
     style="fill:#211e1e;fill-opacity:1;fill-rule:nonzero;stroke:none" />
  <path
     inkscape:connector-curvature="0"
     id="path128"
     d="m 213.33984,154.40234 -7.23828,-2.90234 0.41016,-1.01172 4.875,1.95703 0.6914,-1.72656 0.86719,0.34766 -0.1875,0.46875 c -0.40234,1 0.11328,1.64843 0.73828,1.89843 l 0.19922,0.082 -0.35547,0.88672"
     style="fill:#211e1e;fill-opacity:1;fill-rule:nonzero;stroke:none" />
  <path
     inkscape:connector-curvature="0"
     id="path130"
     d="m 210.01172,159.625 c 0.44531,-0.92969 0.0391,-1.83203 -0.62891,-2.15234 -0.73828,-0.35547 -1.58203,0.0234 -1.92578,0.73828 -0.47656,0.98437 -0.0273,2.02343 0.15234,2.44531 0.46485,0.0352 1.83594,0.14844 2.40235,-1.03125 z m -3.6836,-4.32813 c -0.64062,0.33204 -1.22265,0.77344 -1.53515,1.42188 -0.47266,0.98047 -0.12891,2.58594 1.84765,3.62891 -0.21484,-0.54297 -0.63671,-1.5586 -0.0586,-2.75782 0.61719,-1.28515 1.95313,-1.84375 3.23828,-1.22656 1.4375,0.69531 1.78125,2.39063 1.15235,3.69922 -0.76563,1.58984 -2.69532,2.39062 -4.90235,1.33203 -2.21484,-1.06641 -3.1289,-3.26562 -2.25,-5.08984 0.30078,-0.62891 0.77735,-1.14453 1.31641,-1.57813 l 1.1914,0.57031"
     style="fill:#211e1e;fill-opacity:1;fill-rule:nonzero;stroke:none" />
  <path
     inkscape:connector-curvature="0"
     id="path132"
     d="m 202.90625,166.68359 c 1.42969,0.8125 3.01562,0.66407 3.61328,-0.39062 0.625,-1.10547 -0.11328,-2.59766 -1.51953,-3.39844 -1.38672,-0.78516 -3.02734,-0.66797 -3.63281,0.39453 -0.66797,1.17969 0.18359,2.625 1.53906,3.39453 z m 2.69141,-4.8164 c 2.17968,1.23828 2.74609,3.35156 1.85156,4.92578 -0.90625,1.59765 -3.04297,2.10547 -5.14063,0.91797 -2.20312,-1.2461 -2.72656,-3.41016 -1.89453,-4.87891 0.94922,-1.67187 3.08594,-2.15234 5.1836,-0.96484"
     style="fill:#211e1e;fill-opacity:1;fill-rule:nonzero;stroke:none" />
  <path
     inkscape:connector-curvature="0"
     id="path134"
     d="m 194.08203,172.98828 0.61719,-0.91797 2.87109,1.94531 c 0.35547,0.22657 1.0625,0.58985 1.5,-0.0547 0.47266,-0.69532 -0.0586,-1.66407 -0.93359,-2.25391 l -2.1836,-1.48047 0.61719,-0.91406 2.8711,1.94531 c 0.26562,0.17969 1.04296,0.61719 1.5,-0.0586 0.44531,-0.65625 0.0195,-1.60938 -0.98438,-2.28906 l -2.13672,-1.44532 0.6211,-0.91406 4.61718,3.12891 -0.57422,0.84375 -0.74218,-0.40235 c 0.17187,0.4336 0.42968,1.10157 -0.12891,1.92578 -0.66016,0.97266 -1.58203,0.71094 -1.83594,0.63672 0.11719,0.21094 0.23438,0.40625 0.28125,0.75782 0.0781,0.48828 -0.0312,0.94921 -0.29297,1.33593 -0.55859,0.82422 -1.55078,1.00782 -2.54687,0.33594 l -3.13672,-2.125"
     style="fill:#211e1e;fill-opacity:1;fill-rule:nonzero;stroke:none" />
  <path
     inkscape:connector-curvature="0"
     id="path136"
     d="M 45.203125,192.88281 40,195.71484 l -0.890625,-0.79687 1.878906,-4.04688 -0.01563,-0.0195 -3.855468,2.28516 -0.871094,-0.77735 2.234375,-5.48437 0.949219,0.84766 -1.886719,4.07031 0.01953,0.0195 3.828125,-2.33594 0.898438,0.80469 -1.882813,4.07422 0.01953,0.0156 3.847657,-2.32031 0.929687,0.83203"
     style="fill:#211e1e;fill-opacity:1;fill-rule:nonzero;stroke:none" />
  <path
     inkscape:connector-curvature="0"
     id="path138"
     d="m 52.535156,198.36328 -4.929687,3.28125 -0.957031,-0.71484 1.511718,-4.19922 -0.01953,-0.0156 -3.632812,2.61719 -0.9375,-0.69922 1.738281,-5.66406 1.019531,0.76172 -1.515625,4.22656 0.01953,0.0156 3.605469,-2.66797 0.96875,0.72265 -1.519531,4.22657 0.01953,0.0156 3.628906,-2.65234 1,0.74609"
     style="fill:#211e1e;fill-opacity:1;fill-rule:nonzero;stroke:none" />
  <path
     inkscape:connector-curvature="0"
     id="path140"
     d="m 60.335938,203.17969 -4.621094,3.70312 -1.019531,-0.625 1.140625,-4.3164 -0.02344,-0.0156 -3.390625,2.92969 -0.996094,-0.61719 1.234375,-5.79297 1.082032,0.66797 -1.136719,4.34375 0.01953,0.0156 3.359375,-2.97657 1.027344,0.63282 -1.136719,4.34375 0.01953,0.0156 3.382813,-2.96094 1.058594,0.65235"
     style="fill:#211e1e;fill-opacity:1;fill-rule:nonzero;stroke:none" />
  <path
     inkscape:connector-curvature="0"
     id="path142"
     d="m 59.078125,207.93359 c -0.195312,0.35547 -0.644531,0.50782 -0.984375,0.32032 -0.3125,-0.17188 -0.453125,-0.60547 -0.253906,-0.97657 0.191406,-0.34375 0.628906,-0.5 0.980469,-0.30859 0.371093,0.20312 0.4375,0.63672 0.257812,0.96484"
     style="fill:#211e1e;fill-opacity:1;fill-rule:nonzero;stroke:none" />
  <path
     inkscape:connector-curvature="0"
     id="path144"
     d="m 65.992188,207.71875 c -0.613282,-1.06641 -1.375,-1.44531 -1.546875,-1.53125 -0.554688,-0.27344 -1.144532,-0.29688 -1.308594,0.0352 -0.179688,0.36718 0.273437,0.78125 0.820312,1.21093 1.351563,1.0586 1.742188,1.77344 1.355469,2.5586 -0.433594,0.87109 -1.738281,1.1914 -3.175781,0.47656 -1.023438,-0.50781 -1.539063,-1.23047 -1.757813,-1.54297 l 0.542969,-1.09375 c 0.351563,0.73438 0.933594,1.38672 1.691406,1.76172 0.574219,0.28516 1.285157,0.38281 1.515625,-0.0781 0.160157,-0.32421 0.01172,-0.63671 -0.902343,-1.35937 -1.015625,-0.78516 -1.179688,-1.14844 -1.289063,-1.39063 -0.07813,-0.22656 -0.199219,-0.57812 0.02344,-1.03125 0.40625,-0.82031 1.5625,-1.10156 2.898437,-0.4375 0.910156,0.44922 1.386719,1.04688 1.652344,1.38282 l -0.519531,1.03906"
     style="fill:#211e1e;fill-opacity:1;fill-rule:nonzero;stroke:none" />
  <path
     inkscape:connector-curvature="0"
     id="path146"
     d="m 69.164063,205.41797 c 0.171875,-0.38672 0.519531,-0.57031 0.882812,-0.41016 0.339844,0.14844 0.503906,0.51172 0.316406,0.9375 -0.179687,0.41016 -0.558593,0.57031 -0.898437,0.41797 -0.410156,-0.17969 -0.449219,-0.60547 -0.300781,-0.94531 z m 0.390625,2.20312 -2.25,5.10938 -1.078125,-0.47656 2.246093,-5.10547 1.082032,0.47265"
     style="fill:#211e1e;fill-opacity:1;fill-rule:nonzero;stroke:none" />
  <path
     inkscape:connector-curvature="0"
     id="path148"
     d="m 77.296875,216.57812 -1.109375,-0.40234 1.191406,-3.25781 c 0.132813,-0.39844 0.308594,-1.17969 -0.476562,-1.46485 -0.84375,-0.30859 -1.691406,0.4336 -2.050781,1.42188 l -0.910157,2.48047 -1.109375,-0.40625 1.191407,-3.25391 c 0.113281,-0.30469 0.34375,-1.16406 -0.476563,-1.46484 -0.796875,-0.28906 -1.65625,0.33984 -2.070312,1.48047 l -0.886719,2.42187 -1.113281,-0.40234 1.917968,-5.24219 1.027344,0.375 -0.203125,0.82031 c 0.394531,-0.26562 1.007813,-0.66797 2.007813,-0.30468 1.183593,0.43359 1.171875,1.39843 1.171875,1.66406 0.179687,-0.16016 0.347656,-0.31641 0.695312,-0.44531 0.476563,-0.1875 0.984375,-0.17969 1.453125,-0.008 1,0.36328 1.464844,1.30078 1.054688,2.42969 l -1.304688,3.55859"
     style="fill:#211e1e;fill-opacity:1;fill-rule:nonzero;stroke:none" />
  <path
     inkscape:connector-curvature="0"
     id="path150"
     d="m 84.660156,215.73437 c 0.277344,-1.03125 -0.25,-2.07031 -1.238281,-2.33984 -0.992187,-0.26953 -2.003906,0.35938 -2.285156,1.39063 -0.289063,1.0664 0.296875,2.08203 1.214844,2.33203 1.050781,0.28906 2.03125,-0.37891 2.308593,-1.38282 z m -4.746093,-1.29296 c 0.445312,-1.6211 2.09375,-2.45313 3.765625,-1.9961 1.773437,0.48047 2.609375,2.14063 2.203125,3.6211 -0.449219,1.65625 -2.195313,2.43359 -3.71875,2.01953 -1.730469,-0.47266 -2.6875,-2.03907 -2.25,-3.64453"
     style="fill:#211e1e;fill-opacity:1;fill-rule:nonzero;stroke:none" />
  <path
     inkscape:connector-curvature="0"
     id="path152"
     d="m 92.042969,220.20703 -1.15625,-0.23047 0.679687,-3.36719 c 0.128907,-0.64843 -0.04297,-1.28515 -0.847656,-1.44531 -1.097656,-0.22265 -1.867187,0.73828 -2.054687,1.65625 l -0.523438,2.59766 -1.15625,-0.23438 1.105469,-5.47265 1.054687,0.21484 -0.09766,0.9375 0.02734,0.004 c 0.316406,-0.32813 0.890625,-0.91016 2.074219,-0.67188 1.394531,0.28516 1.832031,1.38672 1.652343,2.27344 l -0.757812,3.73828"
     style="fill:#211e1e;fill-opacity:1;fill-rule:nonzero;stroke:none" />
  <path
     inkscape:connector-curvature="0"
     id="path154"
     d="m 98.785156,217.10937 c -0.925781,-0.82031 -1.761718,-0.9375 -1.953125,-0.96484 -0.613281,-0.082 -1.179687,0.082 -1.230468,0.44922 -0.05859,0.40625 0.507812,0.65234 1.160156,0.88672 1.621094,0.57812 2.214844,1.13281 2.097656,2 -0.132812,0.96094 -1.273437,1.67578 -2.863281,1.45703 -1.132813,-0.15625 -1.851563,-0.67969 -2.15625,-0.90625 l 0.167969,-1.21094 c 0.570312,0.58594 1.324218,1.01953 2.164062,1.13672 0.636719,0.0859 1.34375,-0.0469 1.414063,-0.55469 0.05078,-0.35937 -0.1875,-0.60937 -1.289063,-1.0039 -1.210937,-0.42188 -1.480469,-0.71485 -1.664062,-0.91016 C 94.492188,217.30078 94.261719,217 94.332031,216.5 c 0.125,-0.90234 1.132813,-1.53516 2.609375,-1.33203 1.003907,0.14062 1.648438,0.55469 2.003907,0.78515 l -0.160157,1.15625"
     style="fill:#211e1e;fill-opacity:1;fill-rule:nonzero;stroke:none" />
  <g
     style="clip-rule:nonzero"
     id="g158"
     clip-path="url(#clip1)">
    <path
       inkscape:connector-curvature="0"
       id="path156"
       d="m 105.11328,218.90625 c 0.0781,-1.0625 -0.64062,-1.98047 -1.66406,-2.05859 -1.02344,-0.0742 -1.89453,0.73828 -1.97266,1.80468 -0.082,1.09766 0.6875,1.98828 1.63672,2.0586 1.08985,0.082 1.92188,-0.76172 2,-1.80469 z m -4.90234,-0.35938 c 0.125,-1.67578 1.58594,-2.80859 3.3125,-2.67968 1.83203,0.13672 2.96875,1.60547 2.85937,3.13672 -0.1289,1.71093 -1.6914,2.8125 -3.26172,2.6914 -1.79296,-0.1289 -3.03125,-1.48828 -2.91015,-3.14844"
       style="fill:#211e1e;fill-opacity:1;fill-rule:nonzero;stroke:none" />
  </g>
  <g
     style="clip-rule:nonzero"
     id="g162"
     clip-path="url(#clip2)">
    <path
       inkscape:connector-curvature="0"
       id="path160"
       d="m 109.32813,220.14453 c 0.2539,0.27734 0.74218,0.82031 1.60156,0.82422 1.11719,0.004 1.72265,-0.96875 1.72656,-1.91406 0.004,-1.14063 -0.8125,-1.86328 -1.63281,-1.86719 -0.84766,-0.004 -1.6875,0.71484 -1.69141,1.90234 z m 0.0234,-6.46875 -0.0117,3.55469 h 0.0234 c 0.22266,-0.34766 0.75,-1.07813 1.95703,-1.07422 1.58985,0.004 2.61328,1.35156 2.60938,2.83984 -0.008,1.71485 -1.3086,3.00782 -2.78516,3.00391 -0.71875,-0.004 -1.32031,-0.29297 -1.82031,-0.77344 l -0.30859,0.63281 -0.875,-0.004 0.0312,-8.1836 1.17968,0.004"
       style="fill:#211e1e;fill-opacity:1;fill-rule:nonzero;stroke:none" />
  </g>
  <path
     inkscape:connector-curvature="0"
     id="path164"
     d="m 119.66016,217.49609 c -1.06641,-0.61718 -1.91407,-0.5664 -2.10547,-0.55468 -0.61719,0.0391 -1.14063,0.30859 -1.11719,0.68359 0.0234,0.40625 0.625,0.53516 1.3125,0.64062 1.69922,0.24219 2.39453,0.66797 2.44922,1.54297 0.0586,0.96875 -0.91406,1.89453 -2.51563,1.99219 -1.14062,0.0703 -1.94921,-0.30078 -2.29296,-0.45703 l -0.0742,-1.22266 c 0.67187,0.46094 1.5,0.73828 2.34375,0.6836 0.64453,-0.0391 1.30859,-0.3086 1.27734,-0.82422 -0.0234,-0.35938 -0.30469,-0.5586 -1.46094,-0.72656 -1.27343,-0.17188 -1.59375,-0.40625 -1.8125,-0.5625 -0.17578,-0.15625 -0.46093,-0.40235 -0.49218,-0.90625 -0.0547,-0.91016 0.80859,-1.73047 2.29687,-1.82422 1.01172,-0.0625 1.72266,0.21875 2.12109,0.375 l 0.0703,1.16015"
     style="fill:#211e1e;fill-opacity:1;fill-rule:nonzero;stroke:none" />
  <path
     inkscape:connector-curvature="0"
     id="path166"
     d="m 125.54297,217.19531 c -0.20703,-0.73437 -0.87109,-1.0039 -1.44531,-0.93359 -0.23047,0.0273 -1.07032,0.14453 -1.4375,1.28906 z m -2.92578,1.25391 c 0.26953,1.46484 1.55469,1.69531 2.21875,1.61328 0.86328,-0.10547 1.57031,-0.6875 2.08984,-1.30859 l 0.16406,1.33203 c -0.35546,0.28515 -1.10546,0.91015 -2.32812,1.05859 -1.91406,0.23438 -3.22266,-1.05078 -3.40625,-2.53125 -0.20703,-1.69922 1.07422,-3.06641 2.62891,-3.25391 0.54687,-0.0703 1.57812,-0.0156 2.29296,0.75391 0.59766,0.64063 0.69922,1.375 0.75,1.79297 l -4.41015,0.54297"
     style="fill:#211e1e;fill-opacity:1;fill-rule:nonzero;stroke:none" />
  <path
     inkscape:connector-curvature="0"
     id="path168"
     d="m 131.67187,215.37891 c -0.27343,-0.0469 -0.44531,-0.0781 -0.66015,-0.043 -0.94922,0.17187 -1.46094,1.23828 -1.26563,2.33593 l 0.44922,2.51954 -1.16406,0.20703 -0.97656,-5.4961 1.05859,-0.1875 0.27344,1.01172 0.0234,-0.004 c 0.0742,-0.37891 0.28125,-1.19532 1.43359,-1.40235 0.0508,-0.008 0.32812,-0.0586 0.63281,-0.0391 l 0.19531,1.09766"
     style="fill:#211e1e;fill-opacity:1;fill-rule:nonzero;stroke:none" />
  <path
     inkscape:connector-curvature="0"
     id="path170"
     d="m 133.42187,213.87109 2.63282,3.80469 0.67968,-4.58984 1.25,-0.29688 -1.09765,5.9961 -1.13672,0.26953 -3.61328,-4.87891 1.28515,-0.30469"
     style="fill:#211e1e;fill-opacity:1;fill-rule:nonzero;stroke:none" />
  <path
     inkscape:connector-curvature="0"
     id="path172"
     d="m 142.50781,214.45703 c -1.38672,0.60938 -1.90625,0.98047 -1.72656,1.56641 0.14453,0.48437 0.73828,0.67578 1.28125,0.51562 0.20703,-0.0625 1.44141,-0.51172 0.97266,-2.32812 -0.0664,0.0352 -0.35157,0.15625 -0.52735,0.24609 z m 2.07422,0.78125 c 0.0703,0.23047 0.19922,0.40234 0.49609,0.3125 0.0508,-0.0156 0.19532,-0.0625 0.36719,-0.19922 l 0.26563,0.8711 c -0.25,0.15234 -0.46485,0.27734 -0.78516,0.3789 -0.76172,0.23047 -1.15625,-0.0547 -1.33594,-0.60156 l -0.0234,0.008 c -0.13282,0.40235 -0.41797,1.19141 -1.46485,1.50781 -0.94531,0.28907 -2.20703,-0.0312 -2.53125,-1.10156 -0.4414,-1.46875 1.36719,-2.26953 3.21875,-3.02734 -0.28125,-0.80469 -1.1914,-0.79297 -1.72265,-0.63672 -0.84375,0.25781 -1.34375,0.92187 -1.6875,1.39062 L 139.03906,213 c 0.33985,-0.33984 1.00781,-0.96875 1.96875,-1.25781 1.57031,-0.47657 2.625,0.34375 2.91016,1.30078 l 0.66406,2.19531"
     style="fill:#211e1e;fill-opacity:1;fill-rule:nonzero;stroke:none" />
  <path
     inkscape:connector-curvature="0"
     id="path174"
     d="m 146.11719,208.42187 0.5664,1.57032 1.52344,-0.55078 0.31641,0.8789 -1.51953,0.55078 1.02343,2.83203 c 0.22266,0.60938 0.70703,0.5625 1.0586,0.4336 0.20703,-0.0742 0.41015,-0.1875 0.66015,-0.44141 l 0.33985,0.9375 c -0.1836,0.14063 -0.48047,0.375 -1.02344,0.57422 -0.95313,0.34375 -1.67969,0.18359 -2.02734,-0.77344 l -1.14454,-3.16015 -0.9414,0.33984 -0.31641,-0.87891 0.94141,-0.33984 -0.46094,-1.60937 1.00391,-0.36329"
     style="fill:#211e1e;fill-opacity:1;fill-rule:nonzero;stroke:none" />
  <path
     inkscape:connector-curvature="0"
     id="path176"
     d="m 154.60937,209.79687 c -0.42187,-0.98046 -1.48046,-1.46875 -2.42187,-1.0625 -0.94531,0.40235 -1.34375,1.52344 -0.92578,2.50391 0.42969,1.01563 1.52344,1.44922 2.39844,1.07813 1.0039,-0.42969 1.35937,-1.5586 0.94921,-2.51954 z m -4.52343,1.92969 c -0.65625,-1.54297 0.11718,-3.21875 1.71484,-3.89844 1.68359,-0.71875 3.37109,0.0586 3.97656,1.46875 0.67188,1.57813 -0.20703,3.27344 -1.66015,3.89454 -1.65235,0.70312 -3.375,0.0703 -4.03125,-1.46485"
     style="fill:#211e1e;fill-opacity:1;fill-rule:nonzero;stroke:none" />
  <path
     inkscape:connector-curvature="0"
     id="path178"
     d="m 159.74609,205.45312 c -0.26953,0.0273 -0.44922,0.0469 -0.64453,0.14454 -0.86328,0.42968 -1.05469,1.59765 -0.55859,2.59375 l 1.13672,2.28906 -1.0625,0.52734 -2.47657,-4.99609 0.96485,-0.48047 0.54297,0.89453 0.0234,-0.0117 c -0.0312,-0.38281 -0.0625,-1.22656 0.98438,-1.74609 0.043,-0.0234 0.29687,-0.14844 0.59375,-0.21485 l 0.49609,1"
     style="fill:#211e1e;fill-opacity:1;fill-rule:nonzero;stroke:none" />
  <path
     inkscape:connector-curvature="0"
     id="path180"
     d="m 160.98828,203.51953 3.70703,3.01563 0.0234,-0.0117 -0.85156,-4.63672 1.10937,-0.62891 0.9961,7.13672 c 0.16406,1.20313 -0.15625,1.96484 -0.94922,2.41406 -0.37891,0.21485 -0.71094,0.28125 -0.87891,0.32032 l -0.48828,-0.85547 c 0.35156,-0.0586 0.55078,-0.1211 0.73047,-0.22266 0.64844,-0.36719 0.55078,-1.14062 0.37109,-2.18359 l -4.95312,-3.67188 1.18359,-0.67578"
     style="fill:#211e1e;fill-opacity:1;fill-rule:nonzero;stroke:none" />
  <path
     inkscape:connector-curvature="0"
     id="path182"
     d="m 168.5625,204.72656 c 0.21094,0.34766 0.12109,0.8125 -0.20703,1.01563 -0.3086,0.1875 -0.75391,0.0977 -0.97266,-0.26172 -0.20703,-0.33594 -0.125,-0.79688 0.21485,-1.00391 0.35937,-0.22265 0.76953,-0.0664 0.96484,0.25"
     style="fill:#211e1e;fill-opacity:1;fill-rule:nonzero;stroke:none" />
  <path
     inkscape:connector-curvature="0"
     id="path184"
     d="m 172.91406,199.34375 c -0.60156,-0.88281 -1.73437,-1.15234 -2.58203,-0.57422 -0.84766,0.58203 -1.01953,1.76172 -0.41797,2.64453 0.6211,0.91016 1.77735,1.1211 2.5625,0.58594 0.90235,-0.61719 1.02735,-1.79688 0.4375,-2.65625 z m -4.05469,2.77734 c -0.94921,-1.38672 -0.51171,-3.18359 0.91797,-4.16015 1.51563,-1.03907 3.32032,-0.60547 4.1875,0.66406 0.96875,1.41406 0.4336,3.25 -0.87109,4.14453 -1.48438,1.01172 -3.29297,0.73047 -4.23438,-0.64844"
     style="fill:#211e1e;fill-opacity:1;fill-rule:nonzero;stroke:none" />
  <path
     inkscape:connector-curvature="0"
     id="path186"
     d="m 177.07422,194.11328 c -0.26172,0.082 -0.42969,0.13672 -0.60156,0.26953 -0.76563,0.58594 -0.72657,1.76953 -0.0469,2.65235 l 1.55859,2.02343 -0.93359,0.71875 -3.40625,-4.41406 0.85156,-0.65625 0.71094,0.76953 0.0195,-0.0156 c -0.10937,-0.3711 -0.30078,-1.1875 0.625,-1.90235 0.0391,-0.0312 0.26172,-0.20312 0.54297,-0.32812 l 0.67969,0.88281"
     style="fill:#211e1e;fill-opacity:1;fill-rule:nonzero;stroke:none" />
  <path
     inkscape:connector-curvature="0"
     id="path188"
     d="m 181.45703,191.03516 c -0.39453,-0.008 -1.04687,-0.0312 -1.64453,0.49218 -0.71094,0.61328 -0.89844,1.64844 -0.13672,2.53125 0.65234,0.75 1.65625,0.98828 2.42578,0.32813 0.76563,-0.66406 0.72266,-1.77344 0.0156,-2.58985 z m -0.85937,-1.38282 0.69921,-0.60937 3.21485,3.71484 c 0.74609,0.85938 1.1914,1.55469 1.05469,2.59375 -0.1211,0.9961 -0.76563,1.67969 -1.13672,2 -0.83203,0.72266 -1.76563,0.88281 -2.22657,0.96094 l -0.89062,-1.03516 c 0.52344,0.0195 1.59766,0.0273 2.47266,-0.73047 0.55078,-0.48046 0.7539,-1.24218 0.5664,-1.875 -0.11719,-0.40625 -0.65625,-1.03125 -0.92969,-1.36718 h -0.0352 c 0.008,0.33984 0.0273,1.30859 -0.82422,2.04687 -1.08594,0.94141 -2.77734,0.76953 -3.81641,-0.42578 -1.01953,-1.18359 -1.02734,-2.95312 0.1875,-4.00391 0.62891,-0.54687 1.21485,-0.59375 1.88672,-0.62109 l -0.22265,-0.64844"
     style="fill:#211e1e;fill-opacity:1;fill-rule:nonzero;stroke:none" />
  <g
     style="clip-rule:nonzero"
     id="g194"
     clip-path="url(#clip3)">
    <path
       inkscape:connector-curvature="0"
       id="path192"
       transform="matrix(0.1,0,0,-0.1,0,222)"
       d="m 165.78125,1097.8906 c 0,-522.03123 423.16406,-945.19529 945.19535,-945.19529 522.0312,0 945.1953,423.16406 945.1953,945.19529 0,522.0313 -423.1641,945.2344 -945.1953,945.2344 -522.03129,0 -945.19535,-423.2031 -945.19535,-945.2344 z m 0,0"
       style="fill:none;stroke:#211e1e;stroke-width:32.04000092;stroke-linecap:butt;stroke-linejoin:miter;stroke-miterlimit:10;stroke-opacity:1" />
  </g>
  <path
     inkscape:connector-curvature="0"
     id="path196"
     d="m 33.242188,162.02344 c 0,0 7.335937,-1.3125 10.257812,-3.07813 3.746094,-2.26172 14.878906,-13.33594 21.03125,-12.82422 l 8.207031,13.33594 20.335938,20.33594 8.261721,3.38281 c 0,0 14.26172,3.92578 17.27734,4.99219 4.17188,1.47265 18.65234,13.0039 18.65234,13.0039 4.90625,3.19141 -3.51953,3.67579 -4.41796,3.6836 l -6.02321,1.21266 c 0,0 -7.61742,0.75609 -9.01976,0.83812 -6.63281,0.375 -11.39453,0.77344 -12.21875,0.68359 -25.698179,-6.96634 -20.769534,-5.21875 -22.640627,-7.0664 -2.800782,-1.3711 -7.878907,-1.46094 -10.304688,-3.3125 -2.183594,-1.66407 -7.105469,-2.46875 -8.835937,-4.78516 -2.144532,-2.87109 -8.253907,-4.41016 -8.832032,-5.51953 -0.332031,-0.63281 -11.128906,-8.97656 -11.410156,-9.57031 -2.404755,-3.44106 -10.320312,-15.3125 -10.320312,-15.3125"
     style="fill:#f04f19;fill-opacity:1;fill-rule:nonzero;stroke:none"
     sodipodi:nodetypes="cccccccccccccccccc" />
  <path
     inkscape:connector-curvature="0"
     id="path198"
     d="m 170.55078,183.96094 c -3.83984,-1.6836 -13.57422,-3.0586 -17.82812,-4.8711 -1.3711,-0.58593 -5.15235,-1.96484 -5.15235,-1.96484 0,0 -4.08594,3.47266 -6.18359,3.66406 -2.09766,0.19141 -5.6211,-1.32031 -9.53516,-0.95312 -5.13672,0.48047 -14.46484,4.65234 -14.46484,4.65234 0,0 4.17187,1.46875 9.81641,6.87109 2.87109,2.7461 6.38281,5.39844 10.30859,10.0586 1.33984,1.59375 16.13281,-5.58203 16.13281,-5.58203 l 16.90625,-11.875"
     style="fill:#f04f19;fill-opacity:1;fill-rule:nonzero;stroke:none" />
  <path
     inkscape:connector-curvature="0"
     id="path202"
     d="m 16.578125,112.21094 c 0,52.20312 42.316406,94.51953 94.519535,94.51953 52.20312,0 94.51953,-42.31641 94.51953,-94.51953 0,-52.20313 -42.31641,-94.52344 -94.51953,-94.52344 -52.203129,0 -94.519535,42.32031 -94.519535,94.52344 z m 0,0"
     style="fill:none;stroke:#211e1e;stroke-width:2.15499997;stroke-linecap:butt;stroke-linejoin:miter;stroke-miterlimit:10;stroke-opacity:1" />
  <path
     inkscape:connector-curvature="0"
     id="path204"
     d="m 158.84766,46.949219 0.10156,-0.05078 -0.10938,0.04687 0.15625,-0.171875 -0.17187,0.160156 0.043,-0.117188 -0.0469,0.109375 -0.0117,-0.355468 -0.008,0.355468 -0.0547,-0.105468 0.0469,0.113281 -0.17188,-0.160156 0.16016,0.171875 -0.11719,-0.04297 0.10938,0.04687 -0.35157,0.01172 0.35157,0.01172 -0.10938,0.05078 0.11719,-0.04687 -0.16016,0.171875 0.17188,-0.160157 -0.0391,0.117188 0.0469,-0.109375 0.008,0.351562 0.0117,-0.351562 0.0508,0.109375 -0.043,-0.117188 0.16797,0.160157 -0.16015,-0.171875 0.11718,0.04297 -0.10546,-0.04687 0.35156,-0.01172 -0.35156,-0.01172"
     style="fill:#ffffff;fill-opacity:1;fill-rule:nonzero;stroke:none" />
  <path
     inkscape:connector-curvature="0"
     id="path206"
     d="m 118.75,79.003906 0.75781,-0.347656 -0.82812,0.296875 1.14062,-1.226562 -1.20703,1.132812 0.3125,-0.804687 -0.375,0.765625 -0.0781,-2.53125 -0.0625,2.511718 -0.34766,-0.757812 0.29688,0.828125 -1.22657,-1.140625 1.13672,1.210937 -0.80469,-0.308593 0.76563,0.371093 -2.53516,0.07422 2.51563,0.06641 -0.76172,0.34375 0.83203,-0.296875 -1.14453,1.230469 1.21094,-1.136719 -0.3125,0.804688 0.375,-0.765625 0.0742,2.53125 0.0664,-2.511719 0.34375,0.757813 -0.29297,-0.828125 1.22657,1.140625 -1.13672,-1.210938 0.80468,0.316406 -0.76562,-0.375 2.53125,-0.07813 -2.51172,-0.0625"
     style="fill:#ffffff;fill-opacity:1;fill-rule:nonzero;stroke:none" />
  <path
     inkscape:connector-curvature="0"
     id="path208"
     d="m 80.167969,42.722656 0.105469,0.226563 -0.08984,-0.238281 0.355469,0.335937 -0.332032,-0.359375 0.242188,0.08594 -0.226563,-0.101563 0.738282,-0.01953 -0.738282,-0.02344 0.222657,-0.109375 -0.238282,0.09375 0.332032,-0.355468 -0.359375,0.332031 0.08984,-0.242188 -0.101562,0.222657 -0.01953,-0.734375 -0.02734,0.738281 -0.105469,-0.222656 0.09375,0.238281 -0.355469,-0.335938 0.332032,0.359375 -0.242188,-0.08203 0.222656,0.09766 -0.734375,0.01953 0.738282,0.02344 -0.222657,0.109375 0.238282,-0.08984 -0.335938,0.351563 0.359375,-0.332031 -0.08594,0.238281 0.09766,-0.21875 0.02344,0.734375 0.02344,-0.742188"
     style="fill:#ffffff;fill-opacity:1;fill-rule:nonzero;stroke:none" />
  <path
     inkscape:connector-curvature="0"
     id="path210"
     d="m 197.09375,124.11328 0.14062,0.30078 -0.12109,-0.3164 0.47656,0.44531 -0.44531,-0.47656 0.32422,0.11328 -0.30078,-0.13672 0.98828,-0.0273 -0.99219,-0.0273 0.30078,-0.14844 -0.3164,0.125 0.44531,-0.47656 -0.48438,0.44531 0.11719,-0.32421 -0.13281,0.30078 -0.0273,-0.99219 -0.0352,0.99609 -0.14063,-0.30078 0.1211,0.32031 -0.47656,-0.44921 0.44921,0.48437 -0.32812,-0.11719 0.30078,0.13672 -0.98828,0.0234 0.99609,0.0312 -0.30468,0.14844 0.32031,-0.1211 -0.44922,0.46875 0.48437,-0.44531 -0.11718,0.32422 0.13281,-0.29688 0.0312,0.98829 0.0312,-0.9961"
     style="fill:#ffffff;fill-opacity:1;fill-rule:nonzero;stroke:none" />
  <path
     inkscape:connector-curvature="0"
     id="path212"
     d="m 155.77734,155.14844 0.14453,0.30468 -0.12109,-0.32031 0.47266,0.44922 -0.44532,-0.48047 0.32422,0.11328 -0.30078,-0.13281 0.99219,-0.0312 -0.99609,-0.0273 0.30078,-0.14844 -0.31641,0.125 0.44531,-0.47656 -0.48047,0.44531 0.11719,-0.32422 -0.13672,0.30078 -0.0273,-0.98828 -0.0312,0.99219 -0.14453,-0.30078 0.12109,0.32031 -0.47265,-0.44922 0.44531,0.48438 -0.32422,-0.11329 0.30078,0.13282 -0.99219,0.0234 0.9961,0.0352 -0.30078,0.14453 0.3164,-0.12109 -0.44531,0.47265 0.48047,-0.44921 -0.11719,0.32812 0.13672,-0.30078 0.0273,0.98828 0.0312,-0.99609"
     style="fill:#ffffff;fill-opacity:1;fill-rule:nonzero;stroke:none" />
  <path
     inkscape:connector-curvature="0"
     id="path214"
     d="m 99.390625,123.35547 0.144531,0.30078 -0.121093,-0.31641 0.476562,0.44922 -0.449219,-0.48047 0.328125,0.11329 -0.300781,-0.13672 0.98828,-0.0273 -0.992186,-0.0273 0.300781,-0.14844 -0.320312,0.125 0.449218,-0.47656 -0.484375,0.44531 0.117188,-0.32422 -0.136719,0.30078 -0.02344,-0.99218 -0.03516,0.99609 -0.144531,-0.30078 0.125,0.32031 -0.476562,-0.44922 0.449218,0.48438 -0.328125,-0.11719 0.300782,0.13672 -0.988282,0.0234 0.996094,0.0312 -0.304687,0.14843 0.320312,-0.12109 -0.449219,0.46875 0.484375,-0.44531 -0.117187,0.32422 0.132812,-0.29688 0.03125,0.98828 0.02734,-0.99609"
     style="fill:#ffffff;fill-opacity:1;fill-rule:nonzero;stroke:none" />
  <path
     inkscape:connector-curvature="0"
     id="path216"
     d="m 138.36328,116.37109 -0.0586,-0.22656 0.043,0.2461 -0.29297,-0.375 0.26562,0.39062 -0.21094,-0.12109 0.19922,0.13281 -0.71093,-0.0859 0.69531,0.12891 -0.22266,0.0625 0.23828,-0.0469 -0.36718,0.29297 0.38281,-0.26562 -0.11719,0.21093 0.13672,-0.19531 -0.0898,0.70313 0.1289,-0.69532 0.0625,0.22657 -0.0469,-0.24219 0.29297,0.37109 -0.26563,-0.38672 0.20703,0.1211 -0.19531,-0.13281 0.70703,0.082 -0.69531,-0.1211 0.22656,-0.0664 -0.24219,0.0469 0.3711,-0.28906 -0.38672,0.26172 0.12109,-0.21094 -0.13672,0.19531 0.0859,-0.70703 -0.125,0.69531"
     style="fill:#ffffff;fill-opacity:1;fill-rule:nonzero;stroke:none" />
  <path
     inkscape:connector-curvature="0"
     id="path218"
     d="m 180.125,159.34375 -0.28516,-0.58984 0.23828,0.61718 -0.92968,-0.87109 0.875,0.94141 -0.63282,-0.23047 0.58204,0.26953 -1.92969,0.0508 1.9414,0.0586 -0.58593,0.28516 0.62109,-0.23828 -0.875,0.93359 0.94531,-0.88281 -0.23047,0.63672 0.26563,-0.58203 0.0508,1.92968 0.0586,-1.94531 0.28516,0.58985 -0.23828,-0.6211 0.93359,0.875 -0.8789,-0.9414 0.63672,0.22265 -0.58594,-0.26172 1.92969,-0.0547 -1.94141,-0.0547 0.58594,-0.28516 -0.61719,0.24219 0.87109,-0.93359 -0.94531,0.875 0.22656,-0.63672 -0.26172,0.58203 -0.0508,-1.92969 -0.0586,1.94922"
     style="fill:#ffffff;fill-opacity:1;fill-rule:nonzero;stroke:none" />
  <path
     inkscape:connector-curvature="0"
     id="path220"
     d="m 33.753906,76.519531 -0.101562,-0.207031 0.08203,0.21875 -0.332031,-0.308594 0.316406,0.332032 -0.226562,-0.07813 0.203125,0.08984 -0.683594,0.02344 0.695312,0.01953 -0.214843,0.101563 0.222656,-0.08594 -0.3125,0.328125 0.335937,-0.308594 -0.08203,0.222657 0.09766,-0.207032 0.01563,0.6875 0.01953,-0.691406 0.101562,0.207031 -0.08203,-0.21875 0.332031,0.3125 -0.3125,-0.335937 0.226563,0.08203 -0.207032,-0.09375 0.683594,-0.01953 -0.691406,-0.02344 0.210937,-0.101562 -0.21875,0.08984 0.308594,-0.332032 -0.335937,0.3125 0.07813,-0.226562 -0.09375,0.207031 -0.01563,-0.6875 -0.01953,0.691406"
     style="fill:#ffffff;fill-opacity:1;fill-rule:nonzero;stroke:none" />
  <path
     inkscape:connector-curvature="0"
     id="path222"
     d="m 136.12847,30.828758 0.28967,1.058811 -0.19971,-1.088778 1.25856,1.748035 -1.13871,-1.847921 0.96892,0.569359 -0.86904,-0.619302 3.20641,0.539392 -3.20641,-0.729179 1.0688,-0.279686 -1.08877,0.199788 1.73805,-1.268574 -1.84793,1.148709 0.57937,-0.96891 -0.61931,0.869021 0.5394,-3.206393 -0.72919,3.196405 -0.28967,-1.058808 0.19971,1.108751 -1.25856,-1.758023 1.15868,1.847924 -0.99886,-0.57935 0.88898,0.619305 -3.21638,-0.529406 3.20641,0.719191 -1.05883,0.279685 1.09877,-0.18979 -1.73805,1.248595 1.82796,-1.148708 -0.56937,0.9789 0.61931,-0.869023 -0.5294,3.216381 0.70919,-3.206393"
     style="fill:#ffffff;fill-opacity:1;fill-rule:nonzero;stroke:none;stroke-width:2.5571239" />
  <path
     inkscape:connector-curvature="0"
     id="path224"
     d="m 109.39063,24.980469 0.0391,0.148437 -0.0273,-0.152343 0.17579,0.242187 -0.16016,-0.253906 0.13672,0.07422 -0.125,-0.08203 0.44922,0.07422 -0.44141,-0.101562 0.14453,-0.03906 -0.15234,0.03125 0.24219,-0.175781 -0.25782,0.15625 0.082,-0.136719 -0.0859,0.125 0.0703,-0.445312 -0.0977,0.441406 -0.0391,-0.148438 0.0273,0.15625 -0.17968,-0.242187 0.16797,0.25 -0.14063,-0.07813 0.125,0.08984 -0.44531,-0.07422 0.4414,0.09766 -0.14843,0.03906 0.15234,-0.02734 -0.24219,0.179687 0.25782,-0.164062 -0.082,0.136719 0.0859,-0.121094 -0.0703,0.449219 0.0977,-0.449219"
     style="fill:#ffffff;fill-opacity:1;fill-rule:nonzero;stroke:none" />
  <path
     inkscape:connector-curvature="0"
     id="path226"
     d="m 58.476563,39.792969 0.03906,0.148437 -0.02734,-0.15625 0.171875,0.242188 -0.15625,-0.253906 0.136719,0.07813 -0.125,-0.08594 0.449219,0.07813 -0.445313,-0.101562 0.144532,-0.04297 -0.148438,0.03125 0.242188,-0.171875 -0.257813,0.15625 0.08203,-0.136719 -0.08594,0.121094 0.07031,-0.441406 -0.09766,0.441406 -0.03906,-0.148438 0.02734,0.152344 -0.179687,-0.242187 0.164062,0.253906 -0.136718,-0.07813 0.121093,0.08594 -0.441406,-0.07422 0.4375,0.101562 -0.144531,0.03516 0.152344,-0.02344 -0.242188,0.175781 0.253906,-0.160156 -0.07813,0.132812 0.08594,-0.117187 -0.07031,0.445312 0.09766,-0.445312"
     style="fill:#ffffff;fill-opacity:1;fill-rule:nonzero;stroke:none" />
  <path
     inkscape:connector-curvature="0"
     id="path228"
     d="m 30.269531,135.05078 -0.05078,-0.47656 0.01172,0.5039 -0.460938,-0.84765 0.398438,0.87109 -0.382813,-0.32031 0.351563,0.34375 -1.394531,-0.41797 1.359375,0.49219 -0.480469,0.0508 0.507812,-0.0117 -0.847656,0.46094 0.867188,-0.39453 -0.316407,0.3789 0.34375,-0.34765 -0.417968,1.39453 0.492187,-1.35938 0.04687,0.47657 -0.0078,-0.50782 0.460937,0.84766 -0.398437,-0.86719 0.382812,0.31641 -0.351562,-0.33985 1.394531,0.41797 -1.359375,-0.49218 0.480469,-0.0508 -0.507813,0.0117 0.847656,-0.46484 -0.867187,0.39844 0.316406,-0.37891 -0.34375,0.34766 0.417969,-1.39453 -0.492188,1.35937"
     style="fill:#ffffff;fill-opacity:1;fill-rule:nonzero;stroke:none" />
  <path
     inkscape:connector-curvature="0"
     id="path230"
     d="m 45.847656,147.37109 -0.08984,-0.83203 0.01953,0.87891 -0.800781,-1.47266 0.691406,1.51172 -0.664063,-0.55078 0.609375,0.59375 -2.425781,-0.72656 2.359375,0.85937 -0.828125,0.0859 0.882813,-0.0195 L 44.125,148.5 l 1.511719,-0.6875 -0.550781,0.66406 0.59375,-0.61328 -0.726563,2.42578 0.859375,-2.35937 0.08203,0.82422 -0.01953,-0.87891 0.804688,1.47656 -0.695313,-1.51172 0.664063,0.55469 -0.605469,-0.59766 2.425781,0.72657 -2.363281,-0.85547 0.832031,-0.0859 -0.882812,0.0156 1.476562,-0.80079 -1.511719,0.69141 0.554688,-0.66406 -0.597656,0.60937 0.726562,-2.42578 -0.855469,2.36328"
     style="fill:#ffffff;fill-opacity:1;fill-rule:nonzero;stroke:none" />
  <path
     inkscape:connector-curvature="0"
     id="path232"
     d="m 120.78906,120.05859 -0.28515,-0.58593 0.23828,0.61328 -0.9336,-0.8711 0.87891,0.94141 -0.63281,-0.22656 0.58203,0.26562 -1.92969,0.0547 1.94141,0.0586 -0.58594,0.28516 0.61719,-0.24219 -0.8711,0.9336 0.94141,-0.87891 -0.22656,0.63281 0.26562,-0.58203 0.0508,1.92969 0.0586,-1.94531 0.28515,0.58984 -0.23828,-0.62109 0.92969,0.8789 -0.87891,-0.94531 0.63672,0.22266 -0.58203,-0.25782 1.92969,-0.0547 -1.94531,-0.0586 0.58593,-0.28515 -0.61328,0.24218 0.8711,-0.93359 -0.94532,0.875 0.22657,-0.63281 -0.26172,0.58203 -0.0547,-1.93359 -0.0547,1.94921"
     style="fill:#ffffff;fill-opacity:1;fill-rule:nonzero;stroke:none" />
  <path
     inkscape:connector-curvature="0"
     id="path234"
     d="M 190.10156,92.117188 190,91.910156 l 0.082,0.222657 -0.33203,-0.3125 0.3125,0.335937 -0.22266,-0.07813 0.20313,0.08984 -0.6836,0.01953 0.69141,0.01953 -0.21094,0.101563 0.21875,-0.08594 -0.30859,0.332032 0.33594,-0.308594 -0.082,0.222656 0.0977,-0.207031 0.0156,0.6875 0.0195,-0.691406 0.10156,0.207031 -0.082,-0.21875 0.33203,0.3125 -0.3125,-0.339844 0.22266,0.08203 -0.20313,-0.09375 0.6836,-0.01953 -0.69141,-0.01953 0.21094,-0.101563 -0.21875,0.08984 0.30859,-0.335937 -0.33594,0.3125 0.0781,-0.226563 -0.0937,0.207031 -0.0156,-0.683593 -0.0195,0.6875"
     style="fill:#ffffff;fill-opacity:1;fill-rule:nonzero;stroke:none" />
  <path
     inkscape:connector-curvature="0"
     id="path236"
     d="m 180.40625,131.42969 0.11328,0.41406 -0.0781,-0.42969 0.49218,0.6836 -0.44922,-0.71875 0.38282,0.22265 -0.33985,-0.24219 1.25391,0.20704 -1.25391,-0.28125 0.41797,-0.11329 -0.42578,0.082 0.67969,-0.4961 -0.72266,0.44922 0.22656,-0.38281 -0.24218,0.34375 0.21093,-1.25391 -0.28515,1.25 -0.11328,-0.41797 0.0781,0.4336 -0.49219,-0.6875 0.44922,0.72656 -0.38672,-0.23047 0.34766,0.24609 -1.25781,-0.20703 1.2539,0.28125 -0.41406,0.10547 0.42969,-0.0703 -0.67969,0.48437 0.71485,-0.44531 -0.22266,0.38281 0.24219,-0.34375 -0.21094,1.26172 0.28125,-1.2539"
     style="fill:#ffffff;fill-opacity:1;fill-rule:nonzero;stroke:none" />
  <path
     inkscape:connector-curvature="0"
     id="path238"
     d="m 146.04687,139.18359 0.0312,0.10547 -0.0195,-0.11328 0.12891,0.18359 -0.12109,-0.1914 0.10546,0.0586 -0.0937,-0.0664 0.33204,0.0586 -0.32813,-0.0742 0.10547,-0.0312 -0.10938,0.0234 0.17969,-0.12891 -0.1914,0.11328 0.0586,-0.10156 -0.0625,0.0937 0.0547,-0.33203 -0.0742,0.32812 -0.0273,-0.10937 0.0156,0.11719 -0.12891,-0.17969 0.1211,0.18359 -0.10157,-0.0547 0.0898,0.0625 -0.32813,-0.0547 0.32422,0.0742 -0.10547,0.0273 0.11328,-0.0195 -0.18359,0.13281 0.19141,-0.12109 -0.0586,0.10156 0.0625,-0.0859 -0.0508,0.32813 0.0703,-0.32813"
     style="fill:#ffffff;fill-opacity:1;fill-rule:nonzero;stroke:none" />
  <path
     inkscape:connector-curvature="0"
     id="path240"
     d="m 108.51563,129.61719 0.0391,0.14843 -0.0273,-0.15625 0.17188,0.24219 -0.16016,-0.2539 0.14063,0.0781 -0.125,-0.0859 0.44922,0.0742 -0.44532,-0.0977 0.14454,-0.043 -0.14844,0.0312 0.24219,-0.17188 -0.25782,0.15625 0.0781,-0.13672 -0.082,0.1211 0.0703,-0.44532 -0.0977,0.44532 -0.0391,-0.14844 0.0273,0.15234 -0.17968,-0.24218 0.16406,0.2539 -0.13672,-0.0781 0.12109,0.0859 -0.4414,-0.0742 0.4375,0.10156 -0.14453,0.0352 0.15234,-0.0234 -0.24219,0.17578 0.25391,-0.16016 -0.0781,0.13281 0.0859,-0.11718 -0.0742,0.44531 0.10157,-0.44531"
     style="fill:#ffffff;fill-opacity:1;fill-rule:nonzero;stroke:none" />
  <path
     inkscape:connector-curvature="0"
     id="path242"
     d="m 119.32813,42.820313 0.0391,0.144531 -0.0273,-0.152344 0.17579,0.242188 -0.16407,-0.253907 0.14063,0.07813 -0.125,-0.08594 0.44922,0.07422 -0.44532,-0.101563 0.14844,-0.03906 -0.15234,0.03125 0.24219,-0.175782 -0.25782,0.15625 0.082,-0.136718 -0.0859,0.125 0.0703,-0.445313 -0.0977,0.441406 -0.0391,-0.148437 0.0273,0.15625 -0.17968,-0.242188 0.16406,0.25 -0.13672,-0.07813 0.12109,0.08984 -0.4414,-0.07422 0.4375,0.101563 -0.14453,0.03516 0.15234,-0.02734 -0.24219,0.179688 0.25391,-0.164063 -0.0781,0.136719 0.0859,-0.117187 -0.0742,0.445312 0.10157,-0.445312"
     style="fill:#ffffff;fill-opacity:1;fill-rule:nonzero;stroke:none" />
  <path
     inkscape:connector-curvature="0"
     id="path244"
     d="m 142.02344,161.6875 -0.0664,-0.67969 0.0156,0.72266 -0.66016,-1.21094 0.56641,1.24219 -0.54297,-0.45703 0.5,0.49218 -1.99219,-0.60156 1.9375,0.70703 -0.67969,0.0703 0.72266,-0.0156 -1.21094,0.66406 1.23828,-0.57031 -0.45312,0.54688 0.49218,-0.5 -0.60156,1.99218 0.70703,-1.9414 0.0703,0.67968 -0.0117,-0.72265 0.66015,1.21094 -0.57422,-1.24219 0.54688,0.45703 -0.5,-0.49219 1.99609,0.60156 -1.94531,-0.70703 0.68359,-0.0703 -0.72265,0.0156 1.21094,-0.66407 -1.24219,0.57032 0.45312,-0.54688 -0.48828,0.50391 0.60156,-1.9961 -0.71093,1.94141"
     style="fill:#ffffff;fill-opacity:1;fill-rule:nonzero;stroke:none" />
  <path
     inkscape:connector-curvature="0"
     id="path246"
     d="m 150.897,57.069466 0.71062,-0.504348 -0.77941,0.458513 0.89403,-1.444218 -0.98569,1.37545 0.13736,-0.871121 -0.20657,0.848193 -0.57337,-2.521657 0.41257,2.521657 -0.48123,-0.687722 0.45835,0.756496 -1.46715,-0.871115 1.37542,0.962812 -0.87115,-0.137561 0.87115,0.206338 -2.54457,0.596027 2.54457,-0.435567 -0.71063,0.504346 0.80236,-0.4814 -0.91698,1.467147 0.98575,-1.375452 -0.16029,0.871117 0.22946,-0.848193 0.57337,2.544585 -0.41257,-2.567509 0.48123,0.710652 -0.45835,-0.779425 1.46715,0.916966 -1.39836,-1.008662 0.89409,0.160449 -0.87115,-0.229228 2.54457,-0.573126 -2.54457,0.435567"
     style="fill:#ffffff;fill-opacity:1;fill-rule:nonzero;stroke:none;stroke-width:5.86858988" />
  <path
     inkscape:connector-curvature="0"
     id="path248"
     d="m 124.33203,138.74219 0.0273,0.10937 -0.0156,-0.11328 0.12891,0.17969 -0.1211,-0.1875 0.10157,0.0547 -0.0937,-0.0625 0.33593,0.0586 -0.32812,-0.0781 0.10547,-0.0273 -0.11328,0.0195 0.18359,-0.1289 -0.19531,0.11718 0.0625,-0.10156 -0.0625,0.0937 0.0508,-0.33203 -0.0703,0.32812 -0.0312,-0.10937 0.0195,0.11328 -0.13282,-0.17969 0.125,0.1875 -0.10546,-0.0586 0.0937,0.0664 -0.33204,-0.0547 0.32813,0.0742 -0.10938,0.0273 0.11329,-0.0195 -0.17969,0.13281 0.1914,-0.12109 -0.0586,0.10156 0.0625,-0.0898 -0.0547,0.33203 0.0742,-0.33203"
     style="fill:#ffffff;fill-opacity:1;fill-rule:nonzero;stroke:none" />
  <path
     inkscape:connector-curvature="0"
     id="path250"
     d="m 173.56641,164.02344 0.0312,0.10937 -0.0234,-0.11328 0.1289,0.17969 -0.11718,-0.19141 0.10156,0.0586 -0.0898,-0.0625 0.33203,0.0586 -0.32813,-0.0781 0.10547,-0.0273 -0.10937,0.0195 0.17968,-0.1289 -0.1914,0.11718 0.0586,-0.10156 -0.0625,0.0937 0.0547,-0.33203 -0.0742,0.32812 -0.0312,-0.10937 0.0195,0.11328 -0.12891,-0.17969 0.1211,0.1875 -0.10547,-0.0586 0.0937,0.0664 -0.33203,-0.0586 0.32812,0.0781 -0.10547,0.0273 0.10938,-0.0195 -0.17969,0.13281 0.19141,-0.12109 -0.0586,0.10156 0.0625,-0.0898 -0.0547,0.33203 0.0742,-0.33203"
     style="fill:#ffffff;fill-opacity:1;fill-rule:nonzero;stroke:none" />
  <path
     inkscape:connector-curvature="0"
     id="path252"
     d="m 130.80078,81.890625 0.0391,0.148438 -0.0273,-0.15625 0.17578,0.246093 -0.16016,-0.257812 0.13672,0.07813 -0.125,-0.08594 0.44922,0.07813 -0.4414,-0.101562 0.14453,-0.03906 -0.15235,0.02734 0.24219,-0.175781 -0.25781,0.160156 0.082,-0.136719 -0.0859,0.125 0.0742,-0.449218 -0.0977,0.445312 -0.043,-0.148437 0.0273,0.152343 -0.17969,-0.242187 0.16797,0.253906 -0.14062,-0.07813 0.125,0.08594 -0.44532,-0.07422 0.4375,0.101562 -0.14453,0.03516 0.15235,-0.02344 -0.24219,0.175781 0.25781,-0.160156 -0.082,0.132813 0.0859,-0.117188 -0.0703,0.445313 0.0977,-0.445313"
     style="fill:#ffffff;fill-opacity:1;fill-rule:nonzero;stroke:none" />
  <path
     inkscape:connector-curvature="0"
     id="path254"
     d="m 117.23047,144.53125 0.0273,0.10937 -0.0195,-0.11718 0.12891,0.18359 -0.11719,-0.19141 0.10156,0.0586 -0.0937,-0.0625 0.33594,0.0547 -0.33203,-0.0781 0.10937,-0.0273 -0.11328,0.0234 0.17969,-0.1289 -0.19141,0.11719 0.0625,-0.10547 -0.0664,0.0937 0.0547,-0.33203 -0.0703,0.33203 -0.0312,-0.11328 0.0195,0.11718 -0.13281,-0.18359 0.1211,0.19141 -0.10157,-0.0625 0.0898,0.0703 -0.32813,-0.0586 0.32422,0.0742 -0.10547,0.0273 0.11328,-0.0195 -0.17968,0.13281 0.1875,-0.1211 -0.0586,0.10157 0.0664,-0.0859 -0.0547,0.33203 0.0742,-0.33203"
     style="fill:#ffffff;fill-opacity:1;fill-rule:nonzero;stroke:none" />
  <path
     inkscape:connector-curvature="0"
     id="path256"
     d="m 97.710938,66.648438 -0.148438,-0.300782 0.125,0.316407 -0.476562,-0.445313 0.449218,0.484375 -0.324218,-0.117187 0.296875,0.132812 -0.984375,0.02734 0.992187,0.03125 -0.300781,0.144531 0.316406,-0.121094 -0.445312,0.476563 0.484375,-0.449219 -0.117188,0.320313 0.132813,-0.296875 0.02734,0.992187 0.02734,-0.996094 0.148438,0.300782 -0.125,-0.316407 0.476562,0.449219 -0.449219,-0.484375 0.324219,0.113281 -0.296875,-0.132812 0.988281,-0.02734 -0.992187,-0.03125 0.296875,-0.148437 -0.316406,0.125 0.449218,-0.472657 -0.484375,0.449219 0.117188,-0.328125 -0.136719,0.296875 -0.02344,-0.984375 -0.03125,0.992188"
     style="fill:#ffffff;fill-opacity:1;fill-rule:nonzero;stroke:none" />
  <path
     inkscape:connector-curvature="0"
     id="path258"
     d="m 102.4375,46.417969 0.29688,-0.148438 -0.31641,0.121094 0.44922,-0.476562 -0.48438,0.449218 0.11328,-0.324218 -0.13281,0.300781 -0.0273,-0.984375 -0.0312,0.992187 -0.14453,-0.300781 0.12109,0.3125 -0.47266,-0.445312 0.44922,0.484375 -0.32812,-0.117188 0.29687,0.136719 -0.98437,0.02734 0.99219,0.02734 -0.30079,0.148438 0.32032,-0.125 -0.44922,0.476562 0.48437,-0.449218 -0.11718,0.324218 0.13281,-0.296875 0.0312,0.984375 0.0273,-0.992187 0.14453,0.300781 -0.12109,-0.316406 0.47656,0.449219 -0.44922,-0.484375 0.32422,0.117187 -0.29687,-0.136719 0.98828,-0.02734 -0.99219,-0.02734"
     style="fill:#ffffff;fill-opacity:1;fill-rule:nonzero;stroke:none" />
  <path
     inkscape:connector-curvature="0"
     id="path260"
     d="m 102.37109,46.433594 0.10547,-0.05078 -0.10937,0.04687 0.15625,-0.171875 -0.17188,0.160156 0.043,-0.117188 -0.0469,0.105469 -0.0117,-0.351562 -0.0117,0.355468 -0.0508,-0.109375 0.043,0.117188 -0.16797,-0.160156 0.15625,0.171875 -0.11328,-0.04297 0.10547,0.04687 -0.35157,0.01172 0.35547,0.0078 -0.10937,0.05469 0.11328,-0.04687 -0.15625,0.171875 0.16797,-0.160157 -0.0391,0.117188 0.0469,-0.109375 0.0117,0.351562 0.0117,-0.351562 0.0508,0.109375 -0.043,-0.117188 0.16797,0.160157 -0.16016,-0.171875 0.11328,0.04297 -0.10547,-0.05078 0.35547,-0.0078 -0.35547,-0.01172"
     style="fill:#ffffff;fill-opacity:1;fill-rule:nonzero;stroke:none" />
  <path
     inkscape:connector-curvature="0"
     id="path262"
     d="m 38.363281,134.47656 0.105469,-0.0508 -0.109375,0.0469 0.15625,-0.17188 -0.171875,0.16016 0.04297,-0.11719 -0.04687,0.10937 -0.01172,-0.35546 -0.01172,0.35546 -0.05078,-0.10546 0.04687,0.11328 -0.171875,-0.16016 0.15625,0.17188 -0.113281,-0.0391 0.105469,0.043 -0.351563,0.0117 0.355469,0.008 -0.109375,0.0508 0.113281,-0.043 -0.15625,0.17187 0.171875,-0.16016 -0.04297,0.11719 0.04687,-0.10547 0.01172,0.34766 0.01172,-0.35156 0.05078,0.10937 -0.04297,-0.11719 0.167969,0.16016 -0.160156,-0.17187 0.117187,0.0391 -0.105468,-0.0469 0.351562,-0.008 -0.355469,-0.0117"
     style="fill:#ffffff;fill-opacity:1;fill-rule:nonzero;stroke:none" />
  <path
     inkscape:connector-curvature="0"
     id="path264"
     d="m 70.335938,123.00391 -0.0625,-0.22657 0.04297,0.2461 -0.292968,-0.375 0.265625,0.38672 -0.207032,-0.11719 0.195313,0.13281 -0.707031,-0.0859 0.695312,0.12891 -0.222656,0.0625 0.238281,-0.0469 -0.367187,0.29296 0.382812,-0.26562 -0.117187,0.21094 0.132812,-0.19532 -0.08594,0.70313 0.125,-0.69531 0.0625,0.22656 -0.04297,-0.24219 0.292969,0.3711 -0.269532,-0.38672 0.210938,0.12109 -0.195313,-0.13672 0.707032,0.0898 -0.695313,-0.125 0.222656,-0.0664 -0.238281,0.0469 0.371094,-0.28906 -0.386719,0.26172 0.121094,-0.21094 -0.136719,0.19532 0.08594,-0.70704 -0.125,0.69532"
     style="fill:#ffffff;fill-opacity:1;fill-rule:nonzero;stroke:none" />
  <path
     inkscape:connector-curvature="0"
     id="path266"
     d="m 26.554688,98.179688 -0.285157,-0.585938 0.238282,0.617188 -0.929688,-0.871094 0.875,0.9375 -0.636719,-0.226563 0.582032,0.269532 -1.925782,0.05078 1.941407,0.05859 -0.585938,0.285156 0.617188,-0.242188 -0.875,0.933594 0.945312,-0.878906 -0.226562,0.636719 0.265625,-0.585938 0.05078,1.93359 0.05859,-1.949215 0.285156,0.589844 -0.238281,-0.617188 0.929687,0.875 -0.878906,-0.945312 0.636719,0.226562 -0.585938,-0.261718 1.933594,-0.05078 -1.945313,-0.05859 0.585938,-0.285157 -0.617188,0.238282 0.871094,-0.929688 -0.941406,0.875 0.226562,-0.636719 -0.261718,0.582032 -0.05469,-1.929688 -0.05469,1.945313"
     style="fill:#ffffff;fill-opacity:1;fill-rule:nonzero;stroke:none" />
  <path
     inkscape:connector-curvature="0"
     id="path268"
     d="m 59.648438,72.511719 c -2.050782,-1.496094 -4.609375,-3.347656 -8.191407,-3.347656 -2.875,0 -4.847656,1.535156 -4.847656,3.269531 0,1.65625 1.300781,2.5625 5.515625,3.503906 4.214844,0.90625 9.136719,2.40625 9.136719,7.5625 0,5.277344 -4.84375,8.902344 -10.867188,8.902344 -4.492187,0 -7.640625,-1.96875 -9.140625,-2.917969 v -5.667969 c 2.011719,1.613282 5.277344,4.09375 9.179688,4.09375 2.992187,0 5.351562,-1.890625 5.351562,-4.015625 0,-2.167968 -1.964843,-3.148437 -5.90625,-3.980468 -2.875,-0.667969 -5.039062,-1.375 -6.773437,-2.949219 -0.945313,-0.988281 -1.851563,-2.441406 -1.851563,-4.570313 0,-4.683593 4.292969,-7.71875 10.082032,-7.71875 2.953125,0 5.789062,0.828125 8.3125,2.324219 v 5.511719"
     style="fill:#ffffff;fill-opacity:1;fill-rule:nonzero;stroke:none" />
  <path
     inkscape:connector-curvature="0"
     id="path270"
     d="m 64.886719,91.96875 h 5.117187 V 65.109375 h -5.117187 z m 0,0"
     style="fill:#ffffff;fill-opacity:1;fill-rule:nonzero;stroke:none" />
  <path
     inkscape:connector-curvature="0"
     id="path272"
     d="M 102.02344,65.109375 V 91.96875 H 96.902344 V 73.066406 h -0.07422 L 88.59375,87.125 80.324219,73.066406 h -0.07813 V 91.96875 H 75.125 V 65.109375 h 5.710938 l 7.757812,13.152344 7.796875,-13.152344 h 5.632815"
     style="fill:#ffffff;fill-opacity:1;fill-rule:nonzero;stroke:none" />
  <path
     inkscape:connector-curvature="0"
     id="path274"
     d="m 111.00781,78.5 c 0,4.921875 2.91407,9.570313 7.67578,9.570313 4.53125,0 7.79688,-4.292969 7.79688,-9.53125 0,-5.632813 -3.54297,-9.53125 -7.59766,-9.53125 -5.08203,0 -7.875,4.6875 -7.875,9.492187 z m 20.83203,0.03906 c 0,8.074218 -6.0664,13.863281 -13.23437,13.863281 -7.40234,0 -12.95703,-5.949219 -12.95703,-13.785156 0,-8.230469 6.02734,-13.941407 12.83984,-13.941407 8.35156,0 13.35156,6.617188 13.35156,13.863282"
     style="fill:#ffffff;fill-opacity:1;fill-rule:nonzero;stroke:none" />
  <path
     inkscape:connector-curvature="0"
     id="path276"
     d="m 140.58594,65.109375 11.61328,18.3125 h 0.082 v -18.3125 h 5.11719 V 91.96875 h -5.11719 L 140.66406,73.457031 h -0.0781 V 91.96875 h -5.1211 V 65.109375 h 5.1211"
     style="fill:#ffffff;fill-opacity:1;fill-rule:nonzero;stroke:none" />
  <path
     inkscape:connector-curvature="0"
     id="path278"
     d="m 179.49609,72.511719 c -2.05078,-1.496094 -4.60937,-3.347656 -8.1914,-3.347656 -2.875,0 -4.84375,1.535156 -4.84375,3.269531 0,1.65625 1.29687,2.5625 5.51172,3.503906 4.21484,0.90625 9.13671,2.40625 9.13671,7.5625 0,5.277344 -4.84375,8.902344 -10.86718,8.902344 -4.49219,0 -7.64063,-1.96875 -9.13672,-2.917969 v -5.667969 c 2.00781,1.613282 5.27344,4.09375 9.17187,4.09375 2.9961,0 5.35938,-1.890625 5.35938,-4.015625 0,-2.167968 -1.96875,-3.148437 -5.91016,-3.980468 -2.875,-0.667969 -5.03906,-1.375 -6.77344,-2.949219 -0.9414,-0.988281 -1.84765,-2.441406 -1.84765,-4.570313 0,-4.683593 4.28906,-7.71875 10.08203,-7.71875 2.95312,0 5.78906,0.828125 8.30859,2.324219 v 5.511719"
     style="fill:#ffffff;fill-opacity:1;fill-rule:nonzero;stroke:none" />
  <path
     inkscape:connector-curvature="0"
     id="path280"
     d="m 45.171875,105.78906 c 0,2.17188 1.285156,4.22266 3.386719,4.22266 1.996094,0 3.4375,-1.89453 3.4375,-4.20313 0,-2.48437 -1.5625,-4.20312 -3.351563,-4.20312 -2.238281,0 -3.472656,2.06641 -3.472656,4.18359 z m 9.1875,0.0195 c 0,3.5586 -2.675781,6.11329 -5.835937,6.11329 -3.265625,0 -5.710938,-2.6211 -5.710938,-6.07813 0,-3.62891 2.65625,-6.148437 5.660156,-6.148437 3.679688,0 5.886719,2.917967 5.886719,6.113277"
     style="fill:#ffffff;fill-opacity:1;fill-rule:nonzero;stroke:none" />
  <path
     inkscape:connector-curvature="0"
     id="path282"
     d="M 60.097656,106.44922 V 109.75 h 2.1875 c 0.78125,0 2.695313,-0.14062 2.695313,-1.71875 0,-1.07812 -0.992188,-1.58203 -2.101563,-1.58203 z m 0,-4.61719 v 2.76172 H 62.0625 c 1.230469,0 2.203125,-0.43359 2.203125,-1.49609 0,-1.07422 -1.039062,-1.26563 -1.632812,-1.26563 z m 3.355469,-1.980467 c 1.90625,0 3.125,1.179687 3.125,2.746097 0,0.83203 -0.347656,1.59765 -0.957031,2.11718 -0.398438,0.36329 -0.746094,0.48438 -1.214844,0.625 v 0.0352 c 0.554688,0.0352 1.179688,0.0859 1.839844,0.55469 0.714844,0.48437 1.09375,1.32031 1.09375,2.24219 0,2.20312 -2.050781,3.55859 -4.773438,3.55859 H 57.84375 V 99.851563 h 5.609375"
     style="fill:#ffffff;fill-opacity:1;fill-rule:nonzero;stroke:none" />
  <path
     inkscape:connector-curvature="0"
     id="path284"
     d="m 78.289063,103.15234 c -0.902344,-0.66015 -2.03125,-1.47656 -3.613282,-1.47656 -1.265625,0 -2.136718,0.67578 -2.136718,1.44141 0,0.73047 0.574218,1.1289 2.433593,1.54297 C 76.828125,105.0625 79,105.72266 79,107.99609 c 0,2.32813 -2.136719,3.92579 -4.792969,3.92579 -1.980468,0 -3.367187,-0.86719 -4.027343,-1.28516 v -2.5 c 0.882812,0.71094 2.328125,1.80469 4.042968,1.80469 1.320313,0 2.363282,-0.83203 2.363282,-1.76953 0,-0.95704 -0.867188,-1.39063 -2.605469,-1.75782 -1.265625,-0.29297 -2.222656,-0.60547 -2.984375,-1.30078 -0.417969,-0.43359 -0.816406,-1.07812 -0.816406,-2.01562 0,-2.06641 1.890625,-3.402347 4.445312,-3.402347 1.300781,0 2.554688,0.363277 3.664063,1.023437 v 2.43359"
     style="fill:#ffffff;fill-opacity:1;fill-rule:nonzero;stroke:none" />
  <path
     inkscape:connector-curvature="0"
     id="path286"
     d="m 90.503906,99.886719 v 1.980471 h -5.746093 v 2.77734 h 5.46875 v 1.83985 h -5.46875 V 109.75 h 5.746093 v 1.98047 H 82.5 V 99.886719 h 8.003906"
     style="fill:#ffffff;fill-opacity:1;fill-rule:nonzero;stroke:none" />
  <path
     inkscape:connector-curvature="0"
     id="path288"
     d="m 96.605469,101.86719 v 3.0039 h 1.824219 c 1.667972,0 2.464842,-0.76562 2.464842,-1.63281 0,-0.71094 -0.57031,-1.37109 -1.699217,-1.37109 z m 2.917969,-1.980471 c 2.328122,0 3.648442,1.179691 3.648442,2.917971 0,1.875 -1.30469,2.8125 -3.250005,3.19531 v 0.0352 c 0.871095,0.26172 1.738285,0.53906 2.398435,2.32812 l 1.25,3.36719 h -2.46484 l -0.83203,-2.62109 c -0.488284,-1.54688 -1.14844,-2.36329 -2.796877,-2.36329 h -0.871094 v 4.98438 H 94.351563 V 99.886719 h 5.171875"
     style="fill:#ffffff;fill-opacity:1;fill-rule:nonzero;stroke:none" />
  <path
     inkscape:connector-curvature="0"
     id="path290"
     d="m 116.59766,99.886719 -4.35938,11.843751 h -2.21875 l -4.27344,-11.843751 h 2.48438 l 2.89844,8.996091 h 0.0352 l 2.89844,-8.996091 h 2.53516"
     style="fill:#ffffff;fill-opacity:1;fill-rule:nonzero;stroke:none" />
  <path
     inkscape:connector-curvature="0"
     id="path292"
     d="m 123,102.73438 h -0.0312 l -1.28516,3.96093 h 2.60157 z m 1.09766,-2.847661 4.32031,11.843751 h -2.53516 l -1.02343,-3.17578 h -3.76954 l -1.05859,3.17578 h -2.48437 l 4.34375,-11.843751 h 2.20703"
     style="fill:#ffffff;fill-opacity:1;fill-rule:nonzero;stroke:none" />
  <path
     inkscape:connector-curvature="0"
     id="path294"
     d="m 139.26172,99.886719 v 1.980471 h -3.42188 v 9.86328 h -2.25781 v -9.86328 h -3.33594 v -1.980471 h 9.01563"
     style="fill:#ffffff;fill-opacity:1;fill-rule:nonzero;stroke:none" />
  <path
     inkscape:connector-curvature="0"
     id="path296"
     d="m 143.76953,105.78906 c 0,2.17188 1.28516,4.22266 3.38672,4.22266 1.99609,0 3.4375,-1.89453 3.4375,-4.20313 0,-2.48437 -1.5625,-4.20312 -3.35156,-4.20312 -2.23828,0 -3.47266,2.06641 -3.47266,4.18359 z m 9.1875,0.0195 c 0,3.5586 -2.67578,6.11329 -5.83594,6.11329 -3.26562,0 -5.71484,-2.6211 -5.71484,-6.07813 0,-3.62891 2.66016,-6.148437 5.66406,-6.148437 3.67969,0 5.88672,2.917967 5.88672,6.113277"
     style="fill:#ffffff;fill-opacity:1;fill-rule:nonzero;stroke:none" />
  <path
     inkscape:connector-curvature="0"
     id="path298"
     d="m 158.69531,101.86719 v 3.0039 h 1.82422 c 1.66797,0 2.46484,-0.76562 2.46484,-1.63281 0,-0.71094 -0.57031,-1.37109 -1.69921,-1.37109 z m 2.91797,-1.980471 c 2.32813,0 3.64844,1.179691 3.64844,2.917971 0,1.875 -1.30078,2.8125 -3.2461,3.19531 v 0.0352 c 0.86719,0.26172 1.73438,0.53906 2.39454,2.32812 l 1.25,3.36719 h -2.46485 l -0.83594,-2.62109 c -0.48437,-1.54688 -1.14453,-2.36329 -2.79296,-2.36329 h -0.8711 v 4.98438 H 156.4375 V 99.886719 h 5.17578"
     style="fill:#ffffff;fill-opacity:1;fill-rule:nonzero;stroke:none" />
  <path
     inkscape:connector-curvature="0"
     id="path300"
     d="m 170.42578,99.886719 2.46875,4.375001 2.46484,-4.375001 h 2.8125 l -4.15234,6.441411 v 5.40234 h -2.25391 v -5.40234 l -4.10156,-6.441411 h 2.76172"
     style="fill:#ffffff;fill-opacity:1;fill-rule:nonzero;stroke:none" />
  <path
     inkscape:connector-curvature="0"
     id="path302"
     d="m 95.242188,179.05078 8.558592,-1.07031 c 0,0 -0.46094,-1.56641 -2.79297,-1.50391 -1.347654,0.0352 -3.066404,0.2461 -3.066404,0.2461 l -2.699218,2.32812"
     style="fill:#ffffff;fill-opacity:1;fill-rule:nonzero;stroke:none" />
  <path
     inkscape:connector-curvature="0"
     id="path304"
     d="m 101.37891,188.5 2.69531,-0.67578 -2.48438,0.18359 -6.960934,0.73438"
     style="fill:#211e1e;fill-opacity:1;fill-rule:nonzero;stroke:none" />
  <path
     inkscape:connector-curvature="0"
     id="path306"
     d="m 109.04688,191.69141 8.2539,-17.52344 -23.535155,-10.22656 -8.253906,17.51953 23.535161,10.23047"
     style="fill:#211e1e;fill-opacity:1;fill-rule:nonzero;stroke:none" />
  <path
     inkscape:connector-curvature="0"
     id="path308"
     d="m 109.04688,191.69141 8.2539,-17.52344 -23.535155,-10.22656 -8.253906,17.51953 z m 0,0"
     style="fill:none;stroke:#ffffff;stroke-width:2.43700004;stroke-linecap:butt;stroke-linejoin:miter;stroke-miterlimit:10;stroke-opacity:1" />
  <path
     inkscape:connector-curvature="0"
     id="path310"
     d="m 114.31641,168.63281 -14.625004,-6.5"
     style="fill:none;stroke:#ffffff;stroke-width:2.43700004;stroke-linecap:round;stroke-linejoin:miter;stroke-miterlimit:10;stroke-opacity:1" />
  <path
     inkscape:connector-curvature="0"
     id="path312"
     d="m 95.792969,199.05078 c 0,0 -0.05078,0.043 4.941411,-0.004 5.21875,-0.0508 5.125,0.0781 4.72265,0.0977 l -1.28515,-2.67578 h -7.457036 l -0.921875,2.58203"
     style="fill:#211e1e;fill-opacity:1;fill-rule:nonzero;stroke:none" />
  <path
     inkscape:connector-curvature="0"
     id="path314"
     d="M 95.148438,196.84375 H 105.79297 V 187.625 l -10.644532,-4.58594 v 13.80469"
     style="fill:#211e1e;fill-opacity:1;fill-rule:nonzero;stroke:none" />
  <path
     inkscape:connector-curvature="0"
     id="path316"
     d="m 95.792969,196.28906 v -17.21875 c 0,-1.64453 1.984375,-3.57812 4.511721,-3.57812 2.52344,0 4.6289,1.93359 4.6289,3.57812 v 17.21875 c -0.13281,-0.0977 -9.003902,0.22266 -9.140621,0"
     style="fill:#ffffff;fill-opacity:1;fill-rule:nonzero;stroke:none" />
  <path
     inkscape:connector-curvature="0"
     id="path318"
     d="m 94.507813,187.17969 7.082027,0.0937 1.38282,7.97265 -6.011722,0.125 -2.453125,-8.1914"
     style="fill:#ffffff;fill-opacity:1;fill-rule:nonzero;stroke:none" />
  <path
     inkscape:connector-curvature="0"
     id="path320"
     d="m 94.507812,187.17969 7.082028,0.0937 1.38282,7.97265 -6.011723,0.125 z m 0,0"
     style="fill:none;stroke:#211e1e;stroke-width:0.51499999;stroke-linecap:butt;stroke-linejoin:miter;stroke-miterlimit:10;stroke-opacity:1" />
  <path
     inkscape:connector-curvature="0"
     id="path322"
     d="m 103.0625,195.1875 -1.37891,-7.91406 2.11719,-0.1836 -0.27734,7.08203 -0.46094,1.01563"
     style="fill:#211e1e;fill-opacity:1;fill-rule:nonzero;stroke:none" />
  <path
     inkscape:connector-curvature="0"
     id="path324"
     d="m 94.21875,187.55078 v -8.46484 c 0,-1.8711 1.273438,-3.59375 3.722656,-3.59375 1.535157,0 3.679684,1.72265 3.679684,3.59375 v 8.46484 c -0.13281,-0.11328 -7.269527,0.25 -7.40234,0"
     style="fill:#ffffff;fill-opacity:1;fill-rule:nonzero;stroke:none" />
  <path
     inkscape:connector-curvature="0"
     id="path326"
     d="m 94.21875,187.55078 v -8.46484 c 0,-1.8711 1.273437,-3.59375 3.722656,-3.59375 1.535156,0 3.679684,1.72265 3.679684,3.59375 v 8.46484 c -0.13281,-0.11328 -7.269528,0.25 -7.40234,0 z m 0,0"
     style="fill:none;stroke:#211e1e;stroke-width:0.67500001;stroke-linecap:butt;stroke-linejoin:miter;stroke-miterlimit:2;stroke-opacity:1" />
  <path
     inkscape:connector-curvature="0"
     id="path328"
     d="m 91.007813,201.8125 h 19.511717 v -2.20703 H 91.007813 Z m 0,0"
     style="fill:#211e1e;fill-opacity:1;fill-rule:nonzero;stroke:none" />
  <path
     inkscape:connector-curvature="0"
     id="path330"
     d="m 56.140625,52.296875 0.144531,0.300781 -0.125,-0.320312 0.476563,0.449219 -0.445313,-0.480469 0.324219,0.113281 -0.300781,-0.132812 0.988281,-0.02734 -0.992187,-0.03125 0.300781,-0.144531 -0.316406,0.121093 0.445312,-0.476562 -0.484375,0.449219 0.121094,-0.328125 -0.136719,0.300781 -0.02734,-0.988281 -0.03125,0.996093 -0.144531,-0.300781 0.121094,0.320313 -0.476563,-0.453125 0.449219,0.484375 -0.324219,-0.113282 0.296875,0.132813 -0.988281,0.02734 0.996094,0.03125 -0.300781,0.144531 0.316406,-0.121094 -0.449219,0.472656 0.484375,-0.449218 -0.117187,0.328125 0.136718,-0.296875 0.02734,0.984375 0.03125,-0.992188"
     style="fill:#ffffff;fill-opacity:1;fill-rule:nonzero;stroke:none" />
  <g
     style="clip-rule:nonzero"
     id="g334"
     clip-path="url(#clip4)">
    <path
       inkscape:connector-curvature="0"
       id="path332"
       transform="matrix(0.1,0,0,-0.1,0,222)"
       d="m 165.78125,1097.8906 c 0,-522.03123 423.16406,-945.19529 945.19535,-945.19529 522.0312,0 945.1953,423.16406 945.1953,945.19529 0,522.0313 -423.1641,945.2344 -945.1953,945.2344 -522.03129,0 -945.19535,-423.2031 -945.19535,-945.2344 z m 0,0"
       style="fill:none;stroke:#f04f19;stroke-width:43.09999847;stroke-linecap:butt;stroke-linejoin:miter;stroke-miterlimit:10;stroke-opacity:1" />
  </g>
  <path
     inkscape:connector-curvature="0"
     id="path336"
     d="m 187.05469,180.42578 9.43359,8.17578 m -172.011718,-0.32422 10.578125,-9.0039 M 6.1679688,65.30859 18.84375,70.94531 m 195.24609,-5.65234 -12.67578,5.64062"
     style="fill:none;stroke:#f04f19;stroke-width:0.75;stroke-linecap:butt;stroke-linejoin:miter;stroke-miterlimit:10;stroke-opacity:1" />
  <g
     id="g239"
     transform="matrix(0.74999999,0,0,0.74999999,1.597659,1.788321)">
    <path
       class="st8"
       d="m 63.5,157.1 v 7.7 c 0,1.9 0.8,3.1 2.6,3.1 1.8,0 2.7,-1.2 2.7,-2.9 v -7.9 h 2.4 v 8 c 0,3 -1.7,4.8 -5,4.8 -3.3,0 -5,-1.7 -5,-4.7 v -8.1 z"
       id="path213"
       inkscape:connector-curvature="0"
       style="fill:#ffffff" />
    <path
       class="st8"
       d="m 77.2,157.1 5.5,8.6 v 0 -8.6 h 2.4 v 12.6 H 82.7 L 77.2,161 v 0 8.7 h -2.4 v -12.6 z"
       id="path215"
       inkscape:connector-curvature="0"
       style="fill:#ffffff" />
    <path
       class="st8"
       d="m 91.6,157.1 v 12.6 h -2.4 v -12.6 z"
       id="path217"
       inkscape:connector-curvature="0"
       style="fill:#ffffff" />
    <path
       class="st8"
       d="m 104.1,157.1 v 2.1 h -3.6 v 10.5 h -2.4 v -10.5 h -3.6 v -2.1 z"
       id="path219"
       inkscape:connector-curvature="0"
       style="fill:#ffffff" />
    <path
       class="st8"
       d="m 115.6,157.1 v 2.1 h -6.1 v 3 h 5.8 v 2 h -5.8 v 3.5 h 6.1 v 2.1 H 107 v -12.6 h 8.6 z"
       id="path221"
       inkscape:connector-curvature="0"
       style="fill:#ffffff" />
    <path
       class="st8"
       d="m 124.7,157.1 c 3.8,0 5.8,2.8 5.8,6 0,4.2 -2.9,6.6 -7,6.6 h -4.2 v -12.6 z m -1.3,10.5 c 2.6,0 4.5,-1.6 4.5,-4.3 0,-2.2 -1.1,-4.2 -3.7,-4.2 h -2.6 v 8.5 c 1.02229,0 1.07123,0 1.8,0 z"
       id="path223"
       inkscape:connector-curvature="0"
       style="fill:#ffffff"
       sodipodi:nodetypes="sssccscssccc" />
    <path
       class="st8"
       d="m 143.7,157.1 v 5.4 l 4.7,-5.4 h 2.9 l -4.2,4.6 4.5,8 h -2.8 l -3.3,-6.2 -1.8,2 v 4.2 h -2.4 v -12.6 z"
       id="path225"
       inkscape:connector-curvature="0"
       style="fill:#ffffff" />
    <path
       class="st8"
       d="m 156.7,157.1 v 12.6 h -2.4 v -12.6 z"
       id="path227"
       inkscape:connector-curvature="0"
       style="fill:#ffffff" />
    <path
       class="st8"
       d="m 163.2,157.1 5.5,8.6 v 0 -8.6 h 2.4 v 12.6 h -2.4 l -5.5,-8.7 v 0 8.7 h -2.4 v -12.6 z"
       id="path229"
       inkscape:connector-curvature="0"
       style="fill:#ffffff" />
    <path
       class="st8"
       d="m 185,158.1 v 2.6 c -1.2,-1 -2.7,-1.6 -4.1,-1.6 -2.3,0 -4,1.9 -4,4.5 0,2.4 1.6,4.2 3.4,4.2 1.5,0 2.6,-1.1 2.6,-2.7 h -3.2 V 163 h 5.6 v 6.8 h -2.1 l -0.2,-1.6 c -0.9,1.2 -2.1,1.8 -3.3,1.8 -2.7,0 -5.3,-2.7 -5.3,-6.3 0,-4.1 2.8,-6.8 6.4,-6.8 1.5,0 2.8,0.4 4.2,1.2 z"
       id="path231"
       inkscape:connector-curvature="0"
       style="fill:#ffffff" />
    <path
       class="st8"
       d="m 194.1,157.1 c 3.8,0 5.8,2.8 5.8,6 0,4.2 -2.9,6.6 -7,6.6 h -4.2 v -12.6 z m -1.3,10.5 c 2.6,0 4.5,-1.6 4.5,-4.3 0,-2.2 -1.1,-4.2 -3.7,-4.2 H 191 v 8.5 c 0.86289,0 0.97036,0 1.8,0 z"
       id="path233"
       inkscape:connector-curvature="0"
       style="fill:#ffffff"
       sodipodi:nodetypes="sssccscssccc" />
    <path
       class="st8"
       d="m 214.8,163.4 c 0,3.7 -2.7,6.5 -6.2,6.5 -3.5,0 -6.1,-2.8 -6.1,-6.6 0,-3.6 2.7,-6.5 6.1,-6.5 3.8,0.1 6.2,3.1 6.2,6.6 z m -6.1,4.5 c 2.1,0 3.7,-2 3.7,-4.5 0,-2.5 -1.6,-4.5 -3.6,-4.5 -2.1,0 -3.7,1.9 -3.7,4.5 0,2.5 1.5,4.5 3.6,4.5 z"
       id="path235"
       inkscape:connector-curvature="0"
       style="fill:#ffffff" />
    <path
       class="st8"
       d="m 220.9,157.1 3.6,6.2 3.7,-6.2 h 2.6 v 12.6 h -2.4 v -8.9 0 l -3.9,6.6 -3.9,-6.6 v 0 8.9 h -2.4 v -12.6 z"
       id="path237"
       inkscape:connector-curvature="0"
       style="fill:#ffffff" />
  </g>
</svg>
