<svg xmlns="http://www.w3.org/2000/svg" xmlns:xlink="http://www.w3.org/1999/xlink" width="297.333" height="296" viewBox="0 0 223 222">
    <style>
        .B{fill:#211e1e}.C{fill:none}.D{stroke-miterlimit:10}.E{stroke:#211e1e}.F{stroke-width:.265}
    </style>
    <defs>
        <clipPath id="A">
            <path d="M100 215h7v6.941h-7zm0 0"/>
        </clipPath>
        <clipPath id="B">
            <path d="M108 213h6v8.941h-6zm0 0"/>
        </clipPath>
        <clipPath id="C">
            <path d="M0 .051h222.074v221.891H0zm0 0"/>
        </clipPath>
        <clipPath id="D">
            <path d="M0 .051h222.074v221.891H0zm0 0"/>
        </clipPath>
        <path id="E" d="M16.578 112.211c0 52.203 42.316 94.52 94.52 94.52s94.52-42.316 94.52-94.52-42.316-94.523-94.52-94.523-94.52 42.32-94.52 94.523zm0 0"/>
        <path id="F" d="M95.123 119.613c2.85 0 4.35 2.1 4.35 4.5 0 3.15-2.175 4.95-5.25 4.95h-3.15v-9.45zm-.975 7.875c1.95 0 3.375-1.2 3.375-3.225 0-1.65-.825-3.15-2.775-3.15h-1.95v6.375h1.35z"/>
    </defs>
    <g class="B">
        <path d="M16.578 112.211c0 52.203 42.316 94.52 94.52 94.52s94.52-42.316 94.52-94.52-42.316-94.523-94.52-94.523-94.52 42.32-94.52 94.523m6.664 55.605.895-.605 3.164 4.688-.367.25c-1.293.871-2.023.695-3.906-.102-1.977-.824-2.434-.793-2.852-.512-.617.418-.562 1.293-.133 1.93.625.926 1.684 1.313 2.113 1.457l-1.074.727c-.445-.234-1.309-.695-1.953-1.652-.766-1.133-.902-2.578.293-3.383.836-.566 1.691-.477 4.098.535 1.184.508 1.762.695 2.242.398l-2.52-3.73m-3.637-6.192.934-.539 2.836 4.887-.387.223c-1.348.781-2.059.559-3.887-.367-1.914-.957-2.371-.957-2.805-.703-.645.371-.648 1.25-.266 1.914.563.965 1.59 1.422 2.008 1.594l-1.121.652c-.43-.266-1.258-.781-1.836-1.781-.684-1.184-.723-2.633.523-3.352.871-.508 1.723-.359 4.051.813 1.145.586 1.707.816 2.207.551l-2.258-3.891m-7.268.269c.313.621 1.07.871 1.695.559a1.26 1.26 0 0 0 .559-1.695 1.262 1.262 0 1 0-2.254 1.137zm-.559.281a1.88 1.88 0 0 1 .836-2.531 1.876 1.876 0 0 1 2.531.836 1.885 1.885 0 0 1-3.367 1.695"/>
        <path d="m8.578 153.969.992-.43 1.508 3.48 2.035-.883c-.262-.148-.848-.508-1.238-1.41-.57-1.324-.129-2.742 1.203-3.32 1.43-.621 3.07.059 3.809 1.762.449 1.035.379 1.969.34 2.391l-1.164.504c.105-.687.25-1.559-.145-2.473-.461-1.07-1.5-1.473-2.289-1.125-.773.332-1.043 1.246-.668 2.117.066.152.305.703 1 1.188l.438 1.012-3.875 1.68-1.945-4.492m-2.786-7.486.984-.348 7.496.805.406 1.152-7.469-.828 1.418 4.016-1.02.359-1.816-5.156m.579-1.925-1.379.418-.344-1.148 1.375-.418 1.586-.187.188.617-1.426.719m-2.34-11.138c-.187.375-.703 1.434-.453 2.57.195.879.832 1.535 1.5 1.391.598-.133.824-.652.84-2.102.02-1.297.18-2.805 1.711-3.145 1.559-.344 2.867.902 3.219 2.496.273 1.242-.098 2.297-.285 2.828l-1.371.301c.258-.547.844-1.746.566-2.996-.195-.879-.969-1.605-1.73-1.437-.797.176-.93 1.078-.945 2.16-.023.793-.078 1.602-.48 2.281-.207.301-.434.648-1.172.813-1.348.297-2.512-.699-2.875-2.34-.246-1.102-.027-1.898.129-2.523l1.348-.297m7.639-2.875c-.906-.168-1.125-.215-1.684-.141-.031.156-.102.52-.645.617-.488.086-.844-.145-.906-.488-.07-.398.305-.687.73-.762.652-.117 1.742.129 2.422.305l.082.469m-3.905-8.832c-.082-.887-.797-1.578-1.645-1.5-.934.09-1.332.969-1.273 1.613.031.324.203 1.234 1.41 2.027.977-.492 1.602-1.141 1.508-2.141zm-5.398-1.785c-.352.609-.637 1.289-.57 1.992.039.418.273 1.23 1.324 1.781.852.461 1.594.418 2.098.395l.02-.027c-.434-.297-1.328-.961-1.457-2.309-.141-1.52.805-2.594 2.145-2.723 1.504-.141 2.75 1.059 2.895 2.598.176 1.887-1.246 3.406-3.48 3.617-1.996.188-4.363-.77-4.59-3.172-.078-.836.145-1.531.316-2.031l1.301-.121m-1.987-7.633 1.047-.023 6.879 3.082.027 1.223-6.844-3.094.105 4.254-1.078.027-.137-5.469m.243-3.606a1.256 1.256 0 0 0 1.219 1.297 1.26 1.26 0 0 0 1.301-1.219 1.26 1.26 0 0 0-1.219-1.297 1.257 1.257 0 0 0-1.301 1.219zm-.625-.02a1.88 1.88 0 0 1 1.941-1.824 1.883 1.883 0 1 1-.117 3.765A1.88 1.88 0 0 1 0 108.672m2.461-6.957-.004.023 2.805 2.754.223-2.508zm-1.406-1.246 4.527.402.125-1.422 1.055.094-.125 1.422 2.195.195-.098 1.113-2.199-.199-.336 3.789-1.016-.09-4.23-4.191.102-1.113m1.168-8.426 1.031.164 6.203 4.281-.191 1.207-6.168-4.285-.668 4.203-1.066-.168.859-5.402m1.425-1.434-1.41-.289.242-1.176 1.41.289 1.484.586-.133.633-1.594-.043M6.25 75.336l7.242 4.32-.336 1.102-6.52-.434-.004.023 5.68 3.176-.348 1.137-8.449-.355.363-1.195 6.465.453.008-.023-5.645-3.141.352-1.145 6.309.379.008-.023-5.48-3.102.355-1.172m9.543-17.988 2.137 1.27.82-1.383c.578-.965.457-1.777-.242-2.195-.66-.391-1.32-.031-1.676.566zm.16-2.375c.852-1.434 2.133-1.621 3.145-1.02 1.32.785 1.496 2.297.648 3.723l-.891 1.492 3.055 1.816-.59.988-7.043-4.187 1.676-2.812m4.492-4.293-.012.02 2.051 2.719 1.258-1.844zm-.875-1.293 8.492 2.066-.754 1.113-2.465-.691-1.66 2.438 1.543 2.039-.75 1.102-5.066-7.098.66-.969m4.246-4.039 1.941 1.527.527-.668c.93-1.176 1.328-2.129.488-2.789-.797-.633-1.574.176-1.84.516zm.453-2.32c1.063-1.344 2.25-1.398 3.156-.684 1.047.82.758 2.016.445 2.918l.02.016c.273-.195.785-.512 1.824-.184l2.688.855-.797 1.004-2.164-.758c-.91-.32-1.547-.289-2.117.437l-.719.914 2.793 2.203-.711.902-6.43-5.074 2.012-2.551m10.852-2.12c.027-.461.113-1.621-1.16-2.785-1.355-1.242-3.066-1.324-4.062-.238-.988 1.078-.766 2.777.605 4.031 1.434 1.316 3.129 1.289 4.004.332a2.62 2.62 0 0 0 .25-.324l-2.152-.457.844-.918zm3.848-.137a3.26 3.26 0 0 1-.574.965c-.73.797-1.555.648-2.566.422a3.51 3.51 0 0 1-.254.402 2.97 2.97 0 0 1-.281.395c-1.332 1.457-3.758 1.602-5.613-.102-1.879-1.719-1.918-4.195-.559-5.68 1.395-1.523 3.875-1.625 5.672.02 1.16 1.063 1.664 2.414 1.398 3.965.438.09 1.117.238 1.578-.266.211-.23.34-.551.395-.859l.805.738M33.832 32.5l3.48 3.723c.813.867 1.852 1.223 2.84.297 1-.934.758-2.035-.055-2.902l-3.484-3.723.844-.785 3.578 3.824c1.676 1.789.891 3.375-.168 4.367-1.418 1.328-2.91 1.293-4.297-.187l-3.582-3.828.844-.785m9.203-8.028.688.836-3.187 2.605 1.449 1.777 3.051-2.496.652.801-3.047 2.492 1.711 2.09 3.184-2.605.688.836-4.082 3.336-5.184-6.336 4.078-3.336m7.991-3.875-.02.012.855 3.297 1.867-1.223zm-.316-1.527 7.055 5.152-1.121.738-2.012-1.578L52.164 25l.648 2.473-1.113.73-1.973-8.488.984-.645m9.091-3.168c-.41-.07-1.574-.254-2.59.316-.785.438-1.23 1.242-.895 1.836.301.535.863.602 2.254.191 1.246-.355 2.734-.641 3.508.727.781 1.391-.035 3.004-1.457 3.805-1.105.621-2.223.574-2.785.547l-.691-1.223c.602.09 1.918.301 3.039-.328.781-.441 1.254-1.395.871-2.074-.402-.711-1.301-.574-2.344-.277-.766.207-1.559.391-2.324.203-.348-.105-.746-.227-1.117-.887-.676-1.203-.062-2.605 1.402-3.43.984-.551 1.809-.574 2.453-.609l.676 1.203m5.64-4.91.469.973L63.773 13l3.09 6.379-1.035.5-3.09-6.379-2.191 1.063-.469-.973 5.363-2.598m2.801-.047.934 2.289.789-.32c1.391-.562 2.207-1.195 1.805-2.184-.383-.945-1.457-.625-1.859-.461zm1.539-1.789c1.59-.648 2.652-.109 3.086.961.504 1.23-.336 2.129-1.055 2.758l.012.023c.336-.035.934-.059 1.676.742l1.914 2.07-1.187.484-1.508-1.73c-.633-.73-1.199-1.016-2.059-.668l-1.078.438 1.344 3.305-1.066.434-3.09-7.59 3.012-1.227m5.968 2.11c.574 1.781 2.043 2.672 3.426 2.223 1.441-.461 2.012-2.098 1.457-3.809-.59-1.828-2.086-2.645-3.391-2.227-1.496.484-2.039 2.121-1.492 3.813zm6.063-1.992c.699 2.16-.164 4.527-2.367 5.242-2.215.711-4.203-.754-4.883-2.867-.801-2.477.52-4.605 2.289-5.176 2.332-.75 4.313.789 4.961 2.801m5.406-1.032 1.613 1.668.207.246.016-.027-.156-.566-.277-1.012-1.137-4.824 1.078-.254 1.875 7.969-1.145.27-3.516-3.449-1.281-1.316a10.08 10.08 0 0 1-.629-.676l-.023.004.18.66.195.719 1.172 4.98-1.121.262-1.875-7.969 1.168-.273 3.656 3.59M95.023.051l-1.234 1.937-.738.113.855-1.879zm-2.777 6.895c.281 1.852 1.594 2.961 3.031 2.746 1.492-.227 2.32-1.75 2.047-3.531-.289-1.898-1.637-2.945-2.988-2.738-1.559.234-2.355 1.77-2.09 3.523zm6.313-.996c.34 2.242-.895 4.445-3.184 4.793-2.301.352-4.027-1.414-4.359-3.609-.395-2.574 1.25-4.465 3.09-4.742 2.418-.371 4.133 1.469 4.453 3.559m9.082-4.736.535 8.168-1.117.07-.437-6.68h-.023l-2.449 5.008-3.07-4.598-.023.004.434 6.633-1.109.074-.535-8.168 1.328-.09 2.848 4.191 2.23-4.523 1.391-.09m3.254.016.152 8.18-1.152.02-.148-8.18 1.148-.02m7.973 2.192c-.391-.379-1.145-1.082-2.293-1.133-1.656-.07-2.805 1.492-2.875 3.109-.074 1.738 1.031 3.121 2.449 3.18 1.223.055 2.18-.648 2.539-.922l-.059 1.355c-.469.242-1.363.711-2.562.656-2.039-.086-3.672-1.84-3.566-4.32s1.852-4.211 4.082-4.117c1.113.051 1.852.512 2.344.836l-.059 1.355m2.281 2.341c-.219 1.859.75 3.277 2.195 3.449 1.5.176 2.699-1.074 2.906-2.863.223-1.906-.801-3.273-2.156-3.43-1.562-.184-2.738 1.078-2.945 2.844zm6.344.707c-.262 2.254-2.031 4.051-4.332 3.785-2.312-.273-3.512-2.434-3.254-4.637.305-2.586 2.391-3.973 4.234-3.758 2.434.285 3.598 2.512 3.352 4.609m8.875-.839-.023-.008-1.809 2.891 2.172.516zm.898-1.281 1.098 8.672-1.309-.309-.234-2.551-2.875-.68-1.352 2.172-1.297-.309 4.82-7.27 1.148.273m9.08 2.584-.316 1.031-2.273-.691-2.07 6.785-1.102-.336 2.07-6.785-2.332-.711.316-1.035 5.707 1.742m3.382 2.781-.019-.008-2.16 2.633 2.086.789zm1.055-1.152-.016 8.738-1.258-.477.09-2.555-2.758-1.043-1.621 1.98-1.246-.469 5.707-6.594 1.102.418m8.731 5.912c-.219-.5-.648-1.437-1.695-1.918-1.504-.695-3.16.313-3.84 1.785-.727 1.582-.23 3.281 1.059 3.875 1.109.512 2.262.223 2.699.105l-.566 1.234c-.527.047-1.535.141-2.625-.363-1.852-.855-2.695-3.098-1.656-5.355s3.313-3.191 5.34-2.258c1.016.469 1.52 1.18 1.852 1.66l-.566 1.234"/>
    </g>
    <path fill="#c8102e" stroke="#c8102e" stroke-width=".75118225" d="m109.673 19.037-9.115 143.48 6.736 2.995 49.977-134.215-7.417-3.626-43.607 125.975 11.66-133.97-8.234-.64zm47.598 12.26-49.948 134.225 7.21 3.206 80.132-98.37-4.84-7.812-73.91 95.667 49.023-121.97-7.667-4.946z" class="F"/>
    <g fill="#012169">
        <path d="m126.087 20.816 16.03 3.94-33.423 117.38z"/>
        <path stroke="#012169" stroke-width=".75118225" d="m174.627 43.858 10.082 11.136-63.099 93.248 53.017-104.384" class="F"/>
    </g>
    <path fill="#646464" fill-opacity=".389" d="m100.146 162.602 9.195-144.543s24.25-.961 48.492 12.367c25.473 14.008 37.399 39.834 37.399 39.834l-80.324 98.632"/>
    <g class="B">
        <path d="m163.832 16.215-.019-.012-2.516 2.301 1.953 1.074zm1.203-.992-1.262 8.648-1.176-.648.457-2.52-2.586-1.422-1.883 1.727-1.168-.641 6.59-5.715 1.027.57m10.611 6.645-4.523 6.816-.93-.617 3.703-5.578-.023-.012-4.98 2.492.348-5.512-.016-.012-3.676 5.535-.93-.617 4.523-6.812 1.109.734-.277 5.055 4.512-2.242 1.16.77m3.265 4.356-.019-.016-2.859 1.855 1.75 1.383zm1.352-.781-2.668 8.324-1.055-.832.863-2.41-2.312-1.828-2.145 1.395-1.047-.828 7.441-4.551.922.73m-3.011 10.417c.813-.434 1.012-.535 1.402-.941-.07-.141-.246-.469.121-.883.324-.371.746-.414 1.008-.184.309.266.191.727-.094 1.051-.434.496-1.441.984-2.078 1.273l-.359-.316m14.574 3.047c-.019-.543-.078-1.57-.875-2.398-1.148-1.195-3.055-.859-4.223.262-1.254 1.207-1.41 2.969-.43 3.992.848.883 2.027 1.031 2.473 1.082l-.973.938c-.508-.145-1.48-.426-2.312-1.289-1.414-1.473-1.383-3.863.41-5.586s4.242-1.766 5.789-.16c.773.809.988 1.652 1.121 2.223l-.98.938m3.375.905-2.613 2.168 2.566 3.09 2.613-2.168.738.887-6.301 5.227-.734-.887 2.898-2.406-2.566-3.094-2.898 2.406-.734-.887 6.297-5.223.734.887m5.274 6.621-6.57 4.895-.687-.926 6.566-4.891.691.922m1.875 2.629-5.883 3.984 2.281 3.371-.895.605-2.926-4.324 6.773-4.59.648.953m5.771 9.204-.93.551-2.094-3.543-1.973 1.164 2 3.391-.887.523-2.004-3.387-2.324 1.375L202 61.883l-.93.547-2.68-4.535 7.047-4.164 2.68 4.535m9.832 23.824-1.031.316-1.219-3.93-2.187.676 1.164 3.762-.988.305-1.164-3.762-2.578.801 1.215 3.93-1.031.32-1.559-5.035 7.824-2.418 1.555 5.035m.644 2.519-6.898 1.691.969 3.953-1.047.258-1.246-5.07 7.949-1.949.273 1.117m2.172 10.395-1.062.191-.742-4.047-2.254.41.707 3.875-1.016.184-.707-3.871-2.656.484.738 4.047-1.062.195-.945-5.184 8.051-1.469.949 5.184m.28 2.067-6.395 3.059v.023l6.922 1.492.156 1.344-8.477-2.105-.133-1.145 7.773-3.969.152 1.301m-.592 9.469v-.023l-3.277-.926.113 2.23zm1.48.5-8.012 3.488-.07-1.344 2.379-.937-.152-2.945-2.461-.691-.066-1.328 8.32 2.582.063 1.176m.054 9.206-1.082-.016.035-2.375-7.086-.105.016-1.152 7.09.105.035-2.434 1.078.016-.086 5.961m-.109 2.18-8.168-.41.055-1.152 8.172.41-.059 1.152m-4.227 2.324c-1.859-.187-3.262.801-3.414 2.242-.152 1.504 1.113 2.684 2.902 2.867 1.91.199 3.258-.844 3.398-2.203.16-1.566-1.117-2.723-2.887-2.906zm-.617 6.355c-2.254-.234-4.074-1.977-3.84-4.281.238-2.312 2.379-3.543 4.586-3.312 2.59.266 4.008 2.328 3.816 4.18-.25 2.434-2.461 3.629-4.562 3.414m-1.191 5.128-2.172.809-.309.09.019.027c.141.012.43.055.582.082l1.031.152 4.875.891-.199 1.086-8.047-1.473.211-1.156 4.566-1.832 1.715-.652c.121-.051.762-.285.875-.301l.004-.023-.676-.102-.734-.109-5.027-.918.207-1.137 8.047 1.477-.215 1.18-4.754 1.91m-.073 5.406c-.395-.094-.664-.465-.582-.816.078-.328.453-.559.859-.461.387.09.66.449.574.813-.09.387-.488.551-.852.465zm-4.098-.969c-.398-.094-.664-.465-.582-.812.074-.328.449-.562.859-.465.387.09.656.453.574.813-.094.387-.488.551-.852.465m3.884 12.038-1.031-.332 1.172-3.609-2.113-.687c.098.285.301.945-.004 1.883-.441 1.367-1.715 2.141-3.098 1.691-1.484-.477-2.27-2.07-1.695-3.84.348-1.074 1.016-1.73 1.324-2.023l1.211.395c-.535.445-1.223 1.008-1.531 1.953-.355 1.109.156 2.094.977 2.363.801.258 1.609-.25 1.902-1.152.051-.16.234-.73.035-1.555l.34-1.051 4.02 1.305-1.508 4.66m-2.216 5.69-7.238-2.902.41-1.012 4.875 1.957.691-1.727.867.348-.187.469c-.402 1 .113 1.648.738 1.898l.199.082-.355.887m-3.328 5.223c.445-.93.039-1.832-.629-2.152-.738-.355-1.582.023-1.926.738-.477.984-.027 2.023.152 2.445.465.035 1.836.148 2.402-1.031zm-3.684-4.328c-.641.332-1.223.773-1.535 1.422-.473.98-.129 2.586 1.848 3.629-.215-.543-.637-1.559-.059-2.758.617-1.285 1.953-1.844 3.238-1.227 1.438.695 1.781 2.391 1.152 3.699-.766 1.59-2.695 2.391-4.902 1.332-2.215-1.066-3.129-3.266-2.25-5.09.301-.629.777-1.145 1.316-1.578l1.191.57m-3.421 11.388c1.43.813 3.016.664 3.613-.391.625-1.105-.113-2.598-1.52-3.398-1.387-.785-3.027-.668-3.633.395-.668 1.18.184 2.625 1.539 3.395zm2.691-4.816c2.18 1.238 2.746 3.352 1.852 4.926-.906 1.598-3.043 2.105-5.141.918-2.203-1.246-2.727-3.41-1.895-4.879.949-1.672 3.086-2.152 5.184-.965m-11.515 11.12.617-.918 2.871 1.945c.355.227 1.063.59 1.5-.055.473-.695-.059-1.664-.934-2.254l-2.184-1.48.617-.914 2.871 1.945c.266.18 1.043.617 1.5-.059.445-.656.019-1.609-.984-2.289l-2.137-1.445.621-.914 4.617 3.129-.574.844-.742-.402c.172.434.43 1.102-.129 1.926-.66.973-1.582.711-1.836.637.117.211.234.406.281.758a1.83 1.83 0 0 1-.293 1.336c-.559.824-1.551 1.008-2.547.336l-3.137-2.125M45.203 192.883 40 195.715l-.891-.797 1.879-4.047-.016-.019-3.855 2.285-.871-.777 2.234-5.484.949.848-1.887 4.07.02.019 3.828-2.336.898.805-1.883 4.074.02.016 3.848-2.32.93.832m7.332 5.479-4.93 3.281-.957-.715 1.512-4.199-.02-.016-3.633 2.617-.937-.699 1.738-5.664 1.02.762-1.516 4.227.02.016 3.605-2.668.969.723-1.52 4.227.02.016 3.629-2.652 1 .746m7.801 4.815-4.621 3.703-1.02-.625 1.141-4.316-.023-.016-3.391 2.93-.996-.617 1.234-5.793 1.082.668-1.137 4.344.02.016 3.359-2.977 1.027.633-1.137 4.344.02.016 3.383-2.961 1.059.652m-1.258 4.753c-.195.355-.645.508-.984.32-.312-.172-.453-.605-.254-.977.191-.344.629-.5.98-.309.371.203.438.637.258.965m6.914-.214c-.613-1.066-1.375-1.445-1.547-1.531-.555-.273-1.145-.297-1.309.035-.18.367.273.781.82 1.211 1.352 1.059 1.742 1.773 1.355 2.559-.434.871-1.738 1.191-3.176.477a4.57 4.57 0 0 1-1.758-1.543l.543-1.094c.352.734.934 1.387 1.691 1.762.574.285 1.285.383 1.516-.078.16-.324.012-.637-.902-1.359-1.016-.785-1.18-1.148-1.289-1.391-.078-.227-.199-.578.023-1.031.406-.82 1.563-1.102 2.898-.437.91.449 1.387 1.047 1.652 1.383l-.52 1.039M69.164 205.418c.172-.387.52-.57.883-.41.34.148.504.512.316.938-.18.41-.559.57-.898.418-.41-.18-.449-.605-.301-.945zm.391 2.203-2.25 5.109-1.078-.477 2.246-5.105 1.082.473m7.742 8.957-1.109-.402 1.191-3.258c.133-.398.309-1.18-.477-1.465-.844-.309-1.691.434-2.051 1.422l-.91 2.48-1.109-.406 1.191-3.254c.113-.305.344-1.164-.477-1.465-.797-.289-1.656.34-2.07 1.48l-.887 2.422-1.113-.402 1.918-5.242 1.027.375-.203.82c.395-.266 1.008-.668 2.008-.305 1.184.434 1.172 1.398 1.172 1.664.18-.16.348-.316.695-.445.477-.187.984-.18 1.453-.008 1 .363 1.465 1.301 1.055 2.43l-1.305 3.559m7.364-.844c.277-1.031-.25-2.07-1.238-2.34s-2.004.359-2.285 1.391c-.289 1.066.297 2.082 1.215 2.332 1.051.289 2.031-.379 2.309-1.383zm-4.746-1.293c.445-1.621 2.094-2.453 3.766-1.996 1.773.48 2.609 2.141 2.203 3.621-.449 1.656-2.195 2.434-3.719 2.02-1.73-.473-2.687-2.039-2.25-3.645m12.129 5.766-1.156-.23.68-3.367c.129-.648-.043-1.285-.848-1.445-1.098-.223-1.867.738-2.055 1.656l-.523 2.598-1.156-.234 1.105-5.473 1.055.215-.098.938.027.004c.316-.328.891-.91 2.074-.672 1.395.285 1.832 1.387 1.652 2.273l-.758 3.738m6.743-3.099c-.926-.82-1.762-.937-1.953-.965-.613-.082-1.18.082-1.23.449-.059.406.508.652 1.16.887 1.621.578 2.215 1.133 2.098 2-.133.961-1.273 1.676-2.863 1.457a4.543 4.543 0 0 1-2.156-.906l.168-1.211c.57.586 1.324 1.02 2.164 1.137.637.086 1.344-.047 1.414-.555.051-.359-.187-.609-1.289-1.004-1.211-.422-1.48-.715-1.664-.91-.141-.188-.371-.488-.301-.988.125-.902 1.133-1.535 2.609-1.332 1.004.141 1.648.555 2.004.785l-.16 1.156"/>
    </g>
    <g class="B" clip-path="url(#A)">
        <path d="M105.113 218.906c.078-1.062-.641-1.98-1.664-2.059s-1.895.738-1.973 1.805c-.082 1.098.688 1.988 1.637 2.059 1.09.082 1.922-.762 2-1.805zm-4.902-.359c.125-1.676 1.586-2.809 3.313-2.68 1.832.137 2.969 1.605 2.859 3.137-.129 1.711-1.691 2.813-3.262 2.691-1.793-.129-3.031-1.488-2.91-3.148"/>
    </g>
    <g class="B" clip-path="url(#B)">
        <path d="M109.328 220.145c.254.277.742.82 1.602.824 1.117.004 1.723-.969 1.727-1.914.004-1.141-.812-1.863-1.633-1.867-.848-.004-1.687.715-1.691 1.902zm.023-6.469-.012 3.555h.023c.223-.348.75-1.078 1.957-1.074 1.59.004 2.613 1.352 2.609 2.84-.008 1.715-1.309 3.008-2.785 3.004-.719-.004-1.32-.293-1.82-.773l-.309.633-.875-.004.031-8.184 1.18.004"/>
    </g>
    <path d="M119.66 217.496c-1.066-.617-1.914-.566-2.105-.555-.617.039-1.141.309-1.117.684.023.406.625.535 1.313.641 1.699.242 2.395.668 2.449 1.543.059.969-.914 1.895-2.516 1.992-1.141.07-1.949-.301-2.293-.457l-.074-1.223c.672.461 1.5.738 2.344.684.645-.039 1.309-.309 1.277-.824-.023-.359-.305-.559-1.461-.727-1.273-.172-1.594-.406-1.812-.562-.176-.156-.461-.402-.492-.906-.055-.91.809-1.73 2.297-1.824 1.012-.062 1.723.219 2.121.375l.07 1.16m5.882-.302c-.207-.734-.871-1.004-1.445-.934-.23.027-1.07.145-1.437 1.289zm-2.926 1.254c.27 1.465 1.555 1.695 2.219 1.613.863-.105 1.57-.687 2.09-1.309l.164 1.332c-.355.285-1.105.91-2.328 1.059-1.914.234-3.223-1.051-3.406-2.531-.207-1.699 1.074-3.066 2.629-3.254.547-.07 1.578-.016 2.293.754.598.641.699 1.375.75 1.793l-4.41.543m9.054-3.07c-.273-.047-.445-.078-.66-.043-.949.172-1.461 1.238-1.266 2.336l.449 2.52-1.164.207-.977-5.496 1.059-.187.273 1.012.023-.004c.074-.379.281-1.195 1.434-1.402.051-.008.328-.059.633-.039l.195 1.098m1.751-1.51 2.633 3.805.68-4.59 1.25-.297-1.098 5.996-1.137.27-3.613-4.879 1.285-.305m9.086.586c-1.387.609-1.906.98-1.727 1.566.145.484.738.676 1.281.516.207-.062 1.441-.512.973-2.328-.066.035-.352.156-.527.246zm2.074.781c.07.23.199.402.496.313a1.1 1.1 0 0 0 .367-.199l.266.871a3.33 3.33 0 0 1-.785.379c-.762.23-1.156-.055-1.336-.602l-.023.008c-.133.402-.418 1.191-1.465 1.508-.945.289-2.207-.031-2.531-1.102-.441-1.469 1.367-2.27 3.219-3.027-.281-.805-1.191-.793-1.723-.637-.844.258-1.344.922-1.687 1.391l-.34-1.141c.34-.34 1.008-.969 1.969-1.258 1.57-.477 2.625.344 2.91 1.301l.664 2.195m1.534-6.816.566 1.57 1.523-.551.316.879-1.52.551 1.023 2.832c.223.609.707.563 1.059.434.207-.074.41-.187.66-.441l.34.938c-.184.141-.48.375-1.023.574-.953.344-1.68.184-2.027-.773l-1.145-3.16-.941.34-.316-.879.941-.34-.461-1.609 1.004-.363m8.493 1.373c-.422-.98-1.48-1.469-2.422-1.062s-1.344 1.523-.926 2.504c.43 1.016 1.523 1.449 2.398 1.078 1.004-.43 1.359-1.559.949-2.52zm-4.523 1.93c-.656-1.543.117-3.219 1.715-3.898 1.684-.719 3.371.059 3.977 1.469.672 1.578-.207 3.273-1.66 3.895-1.652.703-3.375.07-4.031-1.465m9.659-6.275c-.27.027-.449.047-.645.145-.863.43-1.055 1.598-.559 2.594l1.137 2.289-1.062.527-2.477-4.996.965-.48.543.895.023-.012c-.031-.383-.062-1.227.984-1.746a2.64 2.64 0 0 1 .594-.215l.496 1m1.243-1.934 3.707 3.016.023-.012-.852-4.637 1.109-.629.996 7.137c.164 1.203-.156 1.965-.949 2.414-.379.215-.711.281-.879.32l-.488-.855c.352-.059.551-.121.73-.223.648-.367.551-1.141.371-2.184l-4.953-3.672 1.184-.676m7.576 1.208c.211.348.121.813-.207 1.016a.715.715 0 0 1-.973-.262c-.207-.336-.125-.797.215-1.004.359-.223.77-.066.965.25m4.351-5.383c-.602-.883-1.734-1.152-2.582-.574s-1.02 1.762-.418 2.645c.621.91 1.777 1.121 2.563.586.902-.617 1.027-1.797.438-2.656zm-4.055 2.777c-.949-1.387-.512-3.184.918-4.16 1.516-1.039 3.32-.605 4.188.664.969 1.414.434 3.25-.871 4.145-1.484 1.012-3.293.73-4.234-.648m8.214-8.009c-.262.082-.43.137-.602.27-.766.586-.727 1.77-.047 2.652l1.559 2.023-.934.719-3.406-4.414.852-.656.711.77.019-.016c-.109-.371-.301-1.187.625-1.902a2.72 2.72 0 0 1 .543-.328l.68.883m4.383-3.079c-.395-.008-1.047-.031-1.645.492-.711.613-.898 1.648-.137 2.531.652.75 1.656.988 2.426.328s.723-1.773.016-2.59zm-.859-1.383.699-.609 3.215 3.715c.746.859 1.191 1.555 1.055 2.594-.121.996-.766 1.68-1.137 2-.832.723-1.766.883-2.227.961l-.891-1.035c.523.019 1.598.027 2.473-.73.551-.48.754-1.242.566-1.875-.117-.406-.656-1.031-.93-1.367h-.035c.008.34.027 1.309-.824 2.047-1.086.941-2.777.77-3.816-.426-1.02-1.184-1.027-2.953.188-4.004.629-.547 1.215-.594 1.887-.621l-.223-.648" class="B"/>
    <g class="C D E" clip-path="url(#C)">
        <use xlink:href="#E" stroke-width="3.204"/>
    </g>
    <g fill="#f04f19">
        <path d="M33.242 162.023s7.336-1.312 10.258-3.078c3.746-2.262 14.879-13.336 21.031-12.824l8.207 13.336 20.336 20.336 8.262 3.383 17.277 4.992c4.172 1.473 18.652 13.004 18.652 13.004 4.906 3.191-3.52 3.676-4.418 3.684l-6.023 1.213-9.02.838-12.219.684c-25.698-6.966-20.77-5.219-22.641-7.066-2.801-1.371-7.879-1.461-10.305-3.312-2.184-1.664-7.105-2.469-8.836-4.785-2.145-2.871-8.254-4.41-8.832-5.52-.332-.633-11.129-8.977-11.41-9.57-2.405-3.441-10.32-15.312-10.32-15.312"/>
        <path d="M170.551 183.961c-3.84-1.684-13.574-3.059-17.828-4.871-1.371-.586-5.152-1.965-5.152-1.965s-4.086 3.473-6.184 3.664-5.621-1.32-9.535-.953c-5.137.48-14.465 4.652-14.465 4.652s4.172 1.469 9.816 6.871c2.871 2.746 6.383 5.398 10.309 10.059 1.34 1.594 16.133-5.582 16.133-5.582l16.906-11.875"/>
    </g>
    <use xlink:href="#E" stroke-width="2.155" class="C D E"/>
    <g fill="#fff">
        <path d="m158.848 46.949.102-.051-.109.047.156-.172-.172.16.043-.117-.047.109-.012-.355-.008.355-.055-.105.047.113-.172-.16.16.172-.117-.043.109.047-.352.012.352.012-.109.051.117-.047-.16.172.172-.16-.039.117.047-.109.008.352.012-.352.051.109-.043-.117.168.16-.16-.172.117.043-.105-.047.352-.012-.352-.012M118.75 79.004l.758-.348-.828.297 1.141-1.227-1.207 1.133.313-.805-.375.766-.078-2.531-.062 2.512-.348-.758.297.828-1.227-1.141 1.137 1.211-.805-.309.766.371-2.535.074 2.516.066-.762.344.832-.297-1.145 1.23 1.211-1.137-.312.805.375-.766.074 2.531.066-2.512.344.758-.293-.828 1.227 1.141-1.137-1.211.805.316-.766-.375 2.531-.078-2.512-.062M80.168 42.723l.105.227-.09-.238.355.336-.332-.359.242.086-.227-.102.738-.02-.738-.023.223-.109-.238.094.332-.355-.359.332.09-.242-.102.223-.02-.734-.027.738-.105-.223.094.238-.355-.336.332.359-.242-.082.223.098-.734.02.738.023-.223.109.238-.09-.336.352.359-.332-.086.238.098-.219.023.734.023-.742m116.927 81.389.141.301-.121-.316.477.445-.445-.477.324.113-.301-.137.988-.027-.992-.027.301-.148-.316.125.445-.477-.484.445.117-.324-.133.301-.027-.992-.035.996-.141-.301.121.32-.477-.449.449.484-.328-.117.301.137-.988.023.996.031-.305.148.32-.121-.449.469.484-.445-.117.324.133-.297.031.988.031-.996m-41.317 31.036.145.305-.121-.32.473.449-.445-.48.324.113-.301-.133.992-.031-.996-.027.301-.148-.316.125.445-.477-.48.445.117-.324-.137.301-.027-.988-.031.992-.145-.301.121.32-.473-.449.445.484-.324-.113.301.133-.992.023.996.035-.301.145.316-.121-.445.473.48-.449-.117.328.137-.301.027.988.031-.996m-56.386-31.794.145.301-.121-.316.477.449-.449-.48.328.113-.301-.137.988-.027-.992-.027.301-.148-.32.125.449-.477-.484.445.117-.324-.137.301-.023-.992-.035.996-.145-.301.125.32-.477-.449.449.484-.328-.117.301.137-.988.023.996.031-.305.148.32-.121-.449.469.484-.445-.117.324.133-.297.031.988.027-.996m38.972-6.984-.059-.227.043.246-.293-.375.266.391-.211-.121.199.133-.711-.086.695.129-.223.063.238-.047-.367.293.383-.266-.117.211.137-.195-.09.703.129-.695.063.227-.047-.242.293.371-.266-.387.207.121-.195-.133.707.082-.695-.121.227-.066-.242.047.371-.289-.387.262.121-.211-.137.195.086-.707-.125.695m41.762 42.972-.285-.59.238.617-.93-.871.875.941-.633-.23.582.27-1.93.051 1.941.059-.586.285.621-.238-.875.934.945-.883-.23.637.266-.582.051 1.93.059-1.945.285.59-.238-.621.934.875-.879-.941.637.223-.586-.262 1.93-.055-1.941-.055.586-.285-.617.242.871-.934-.945.875.227-.637-.262.582-.051-1.93-.059 1.949M33.754 76.52l-.102-.207.082.219-.332-.309.316.332-.227-.078.203.09-.684.023.695.02-.215.102.223-.086-.312.328.336-.309-.082.223.098-.207.016.688.02-.691.102.207-.082-.219.332.313-.312-.336.227.082-.207-.094.684-.02-.691-.023.211-.102-.219.09.309-.332-.336.313.078-.227-.094.207-.016-.687-.02.691m102.373-45.692.29 1.059-.2-1.089 1.259 1.748-1.139-1.848.969.569-.869-.619 3.206.539-3.206-.729 1.069-.28-1.089.2 1.738-1.269-1.848 1.149.579-.969-.619.869.539-3.206-.729 3.196-.29-1.059.2 1.109-1.259-1.758 1.159 1.848-.999-.579.889.619-3.216-.529 3.206.719-1.059.28 1.099-.19-1.738 1.249 1.828-1.149-.569.979.619-.869-.529 3.216.709-3.206m-26.737-5.849.039.148-.027-.152.176.242-.16-.254.137.074-.125-.082.449.074-.441-.102.145-.039-.152.031.242-.176-.258.156.082-.137-.086.125.07-.445-.098.441-.039-.148.027.156-.18-.242.168.25-.141-.078.125.09-.445-.074.441.098-.148.039.152-.027-.242.18.258-.164-.082.137.086-.121-.07.449.098-.449M58.477 39.793l.039.148-.027-.156.172.242-.156-.254.137.078-.125-.086.449.078-.445-.102.145-.043-.148.031.242-.172-.258.156.082-.137-.086.121.07-.441-.098.441-.039-.148.027.152-.18-.242.164.254-.137-.078.121.086-.441-.074.438.102-.145.035.152-.023-.242.176.254-.16-.078.133.086-.117-.07.445.098-.445M30.27 135.051l-.051-.477.012.504-.461-.848.398.871-.383-.32.352.344-1.395-.418 1.359.492-.48.051.508-.012-.848.461.867-.395-.316.379.344-.348-.418 1.395.492-1.359.047.477-.008-.508.461.848-.398-.867.383.316-.352-.34 1.395.418-1.359-.492.48-.051-.508.012.848-.465-.867.398.316-.379-.344.348.418-1.395-.492 1.359m15.578 12.321-.09-.832.02.879-.801-1.473.691 1.512-.664-.551.609.594-2.426-.727 2.359.859-.828.086.883-.019-1.477.801 1.512-.687-.551.664.594-.613-.727 2.426.859-2.359.082.824-.02-.879.805 1.477-.695-1.512.664.555-.605-.598 2.426.727-2.363-.855.832-.086-.883.016 1.477-.801-1.512.691.555-.664-.598.609.727-2.426-.855 2.363m74.941-27.313-.285-.586.238.613-.934-.871.879.941-.633-.227.582.266-1.93.055 1.941.059-.586.285.617-.242-.871.934.941-.879-.227.633.266-.582.051 1.93.059-1.945.285.59-.238-.621.93.879-.879-.945.637.223-.582-.258 1.93-.055-1.945-.059.586-.285-.613.242.871-.934-.945.875.227-.633-.262.582-.055-1.934-.055 1.949m69.313-27.942L190 91.91l.082.223-.332-.312.313.336-.223-.078.203.09-.684.02.691.02-.211.102.219-.086-.309.332.336-.309-.082.223.098-.207.016.688.019-.691.102.207-.082-.219.332.313-.312-.34.223.082-.203-.094.684-.02-.691-.02.211-.102-.219.09.309-.336-.336.313.078-.227-.094.207-.016-.684-.019.688m-9.697 39.311.113.414-.078-.43.492.684-.449-.719.383.223-.34-.242 1.254.207-1.254-.281.418-.113-.426.082.68-.496-.723.449.227-.383-.242.344.211-1.254-.285 1.25-.113-.418.078.434-.492-.687.449.727-.387-.23.348.246-1.258-.207 1.254.281-.414.105.43-.07-.68.484.715-.445-.223.383.242-.344-.211 1.262.281-1.254m-34.359 7.752.031.105-.019-.113.129.184-.121-.191.105.059-.094-.066.332.059-.328-.074.105-.031-.109.023.18-.129-.191.113.059-.102-.062.094.055-.332-.074.328-.027-.109.016.117-.129-.18.121.184-.102-.055.09.063-.328-.055.324.074-.105.027.113-.019-.184.133.191-.121-.059.102.063-.086-.051.328.07-.328m-37.532-9.569.039.148-.027-.156.172.242-.16-.254.141.078-.125-.086.449.074-.445-.098.145-.043-.148.031.242-.172-.258.156.078-.137-.082.121.07-.445-.098.445-.039-.148.027.152-.18-.242.164.254-.137-.078.121.086-.441-.074.438.102-.145.035.152-.023-.242.176.254-.16-.078.133.086-.117-.074.445.102-.445M119.328 42.82l.039.145-.027-.152.176.242-.164-.254.141.078-.125-.086.449.074-.445-.102.148-.039-.152.031.242-.176-.258.156.082-.137-.086.125.07-.445-.098.441-.039-.148.027.156-.18-.242.164.25-.137-.078.121.09-.441-.074.438.102-.145.035.152-.027-.242.18.254-.164-.078.137.086-.117-.074.445.102-.445m22.695 118.867-.066-.68.016.723-.66-1.211.566 1.242-.543-.457.5.492-1.992-.602 1.938.707-.68.07.723-.016-1.211.664 1.238-.57-.453.547.492-.5-.602 1.992.707-1.941.07.68-.012-.723.66 1.211-.574-1.242.547.457-.5-.492 1.996.602-1.945-.707.684-.07-.723.016 1.211-.664-1.242.57.453-.547-.488.504.602-1.996-.711 1.941m8.873-104.619.711-.504-.779.459.894-1.444-.986 1.375.137-.871-.207.848-.573-2.522.413 2.522-.481-.688.458.756-1.467-.871 1.375.963-.871-.138.871.206-2.545.596 2.545-.436-.711.504.802-.481-.917 1.467.986-1.375-.16.871.229-.848.573 2.545-.413-2.568.481.711-.458-.779 1.467.917-1.398-1.009.894.16-.871-.229 2.545-.573-2.545.436m-26.564 81.673.027.109-.016-.113.129.18-.121-.187.102.055-.094-.062.336.059-.328-.078.105-.027-.113.019.184-.129-.195.117.063-.102-.062.094.051-.332-.07.328-.031-.109.019.113-.133-.18.125.188-.105-.059.094.066-.332-.055.328.074-.109.027.113-.019-.18.133.191-.121-.059.102.063-.09-.055.332.074-.332m49.233 25.28.031.109-.023-.113.129.18-.117-.191.102.059-.09-.062.332.059-.328-.078.105-.027-.109.019.18-.129-.191.117.059-.102-.062.094.055-.332-.074.328-.031-.109.019.113-.129-.18.121.188-.105-.059.094.066-.332-.059.328.078-.105.027.109-.019-.18.133.191-.121-.059.102.063-.09-.055.332.074-.332m-42.767-82.133.039.148-.027-.156.176.246-.16-.258.137.078-.125-.086.449.078-.441-.102.145-.039-.152.027.242-.176-.258.16.082-.137-.086.125.074-.449-.098.445-.043-.148.027.152-.18-.242.168.254-.141-.078.125.086-.445-.074.438.102-.145.035.152-.023-.242.176.258-.16-.082.133.086-.117-.07.445.098-.445m-13.572 62.64.027.109-.019-.117.129.184-.117-.191.102.059-.094-.062.336.055-.332-.078.109-.027-.113.023.18-.129-.191.117.063-.105-.066.094.055-.332-.07.332-.031-.113.019.117-.133-.184.121.191-.102-.062.09.07-.328-.059.324.074-.105.027.113-.019-.18.133.188-.121-.059.102.066-.086-.055.332.074-.332m-19.52-77.885-.148-.301.125.316-.477-.445.449.484-.324-.117.297.133-.984.027.992.031-.301.145.316-.121-.445.477.484-.449-.117.32.133-.297.027.992.027-.996.148.301-.125-.316.477.449-.449-.484.324.113-.297-.133.988-.027-.992-.031.297-.148-.316.125.449-.473-.484.449.117-.328-.137.297-.023-.984-.031.992M102.438 46.418l.297-.148-.316.121.449-.477-.484.449.113-.324-.133.301-.027-.984-.031.992-.145-.301.121.313-.473-.445.449.484-.328-.117.297.137-.984.027.992.027-.301.148.32-.125-.449.477.484-.449-.117.324.133-.297.031.984.027-.992.145.301-.121-.316.477.449-.449-.484.324.117-.297-.137.988-.027-.992-.027"/>
        <path d="m102.371 46.434.105-.051-.109.047.156-.172-.172.16.043-.117-.047.105-.012-.352-.012.355-.051-.109.043.117-.168-.16.156.172-.113-.043.105.047-.352.012.355.008-.109.055.113-.047-.156.172.168-.16-.039.117.047-.109.012.352.012-.352.051.109-.043-.117.168.16-.16-.172.113.043-.105-.051.355-.008-.355-.012m-64.007 88.044.105-.051-.109.047.156-.172-.172.16.043-.117-.047.109-.012-.355-.012.355-.051-.105.047.113-.172-.16.156.172-.113-.039.105.043-.352.012.355.008-.109.051.113-.043-.156.172.172-.16-.043.117.047-.105.012.348.012-.352.051.109-.043-.117.168.16-.16-.172.117.039-.105-.047.352-.008-.355-.012m31.973-11.473-.062-.227.043.246-.293-.375.266.387-.207-.117.195.133-.707-.086.695.129-.223.063.238-.047-.367.293.383-.266-.117.211.133-.195-.086.703.125-.695.063.227-.043-.242.293.371-.27-.387.211.121-.195-.137.707.09-.695-.125.223-.066-.238.047.371-.289-.387.262.121-.211-.137.195.086-.707-.125.695M26.555 98.18l-.285-.586.238.617-.93-.871.875.938-.637-.227.582.27-1.926.051 1.941.059-.586.285.617-.242-.875.934.945-.879-.227.637.266-.586.051 1.934.059-1.949.285.59-.238-.617.93.875-.879-.945.637.227-.586-.262 1.934-.051-1.945-.059.586-.285-.617.238.871-.93-.941.875.227-.637-.262.582-.055-1.93-.055 1.945M59.648 72.512c-2.051-1.496-4.609-3.348-8.191-3.348-2.875 0-4.848 1.535-4.848 3.27 0 1.656 1.301 2.563 5.516 3.504 4.215.906 9.137 2.406 9.137 7.563 0 5.277-4.844 8.902-10.867 8.902-4.492 0-7.641-1.969-9.141-2.918v-5.668c2.012 1.613 5.277 4.094 9.18 4.094 2.992 0 5.352-1.891 5.352-4.016 0-2.168-1.965-3.148-5.906-3.98-2.875-.668-5.039-1.375-6.773-2.949-.945-.988-1.852-2.441-1.852-4.57 0-4.684 4.293-7.719 10.082-7.719 2.953 0 5.789.828 8.313 2.324v5.512m5.237 19.456h5.117v-26.86h-5.117zm37.136-26.86v26.859h-5.121V73.066h-.074l-8.234 14.059-8.27-14.059h-.078v18.902h-5.121V65.109h5.711l7.758 13.152 7.797-13.152h5.633m8.984 13.391c0 4.922 2.914 9.57 7.676 9.57 4.531 0 7.797-4.293 7.797-9.531 0-5.633-3.543-9.531-7.598-9.531-5.082 0-7.875 4.688-7.875 9.492zm20.832.039c0 8.074-6.066 13.863-13.234 13.863-7.402 0-12.957-5.949-12.957-13.785 0-8.23 6.027-13.941 12.84-13.941 8.352 0 13.352 6.617 13.352 13.863m8.745-13.43 11.613 18.313h.082V65.109h5.117v26.859h-5.117l-11.617-18.512h-.078v18.512h-5.121V65.109h5.121m38.91 7.403c-2.051-1.496-4.609-3.348-8.191-3.348-2.875 0-4.844 1.535-4.844 3.27 0 1.656 1.297 2.563 5.512 3.504 4.215.906 9.137 2.406 9.137 7.563 0 5.277-4.844 8.902-10.867 8.902-4.492 0-7.641-1.969-9.137-2.918v-5.668c2.008 1.613 5.273 4.094 9.172 4.094 2.996 0 5.359-1.891 5.359-4.016 0-2.168-1.969-3.148-5.91-3.98-2.875-.668-5.039-1.375-6.773-2.949-.941-.988-1.848-2.441-1.848-4.57 0-4.684 4.289-7.719 10.082-7.719 2.953 0 5.789.828 8.309 2.324v5.512M45.172 105.789c0 2.172 1.285 4.223 3.387 4.223 1.996 0 3.438-1.895 3.438-4.203 0-2.484-1.562-4.203-3.352-4.203-2.238 0-3.473 2.066-3.473 4.184zm9.188.019c0 3.559-2.676 6.113-5.836 6.113-3.266 0-5.711-2.621-5.711-6.078 0-3.629 2.656-6.148 5.66-6.148 3.68 0 5.887 2.918 5.887 6.113M60.098 106.449v3.301h2.188c.781 0 2.695-.141 2.695-1.719 0-1.078-.992-1.582-2.102-1.582zm0-4.617v2.762h1.965c1.23 0 2.203-.434 2.203-1.496 0-1.074-1.039-1.266-1.633-1.266zm3.355-1.98c1.906 0 3.125 1.18 3.125 2.746 0 .832-.348 1.598-.957 2.117-.398.363-.746.484-1.215.625v.035c.555.035 1.18.086 1.84.555.715.484 1.094 1.32 1.094 2.242 0 2.203-2.051 3.559-4.773 3.559h-4.723V99.852h5.609m14.836 3.3c-.902-.66-2.031-1.477-3.613-1.477-1.266 0-2.137.676-2.137 1.441 0 .73.574 1.129 2.434 1.543 1.855.402 4.027 1.063 4.027 3.336 0 2.328-2.137 3.926-4.793 3.926-1.98 0-3.367-.867-4.027-1.285v-2.5c.883.711 2.328 1.805 4.043 1.805 1.32 0 2.363-.832 2.363-1.77 0-.957-.867-1.391-2.605-1.758-1.266-.293-2.223-.605-2.984-1.301a2.814 2.814 0 0 1-.816-2.016c0-2.066 1.891-3.402 4.445-3.402 1.301 0 2.555.363 3.664 1.023v2.434m12.214-3.264v1.98h-5.746v2.777h5.469v1.84h-5.469v3.266h5.746v1.98H82.5V99.887h8.004m6.101 1.98v3.004h1.824c1.668 0 2.465-.766 2.465-1.633 0-.711-.57-1.371-1.699-1.371zm2.918-1.98c2.328 0 3.648 1.18 3.648 2.918 0 1.875-1.305 2.813-3.25 3.195v.035c.871.262 1.738.539 2.398 2.328l1.25 3.367h-2.465l-.832-2.621c-.488-1.547-1.148-2.363-2.797-2.363h-.871v4.984H94.35V99.887h5.172m17.076 0-4.359 11.844h-2.219l-4.273-11.844h2.484l2.898 8.996h.035l2.898-8.996h2.535m6.403 2.847h-.031l-1.285 3.961h2.602zm1.098-2.848 4.32 11.844h-2.535l-1.023-3.176h-3.77l-1.059 3.176h-2.484l4.344-11.844h2.207m15.164.001v1.98h-3.422v9.863h-2.258v-9.863h-3.336v-1.98h9.016m4.508 5.902c0 2.172 1.285 4.223 3.387 4.223 1.996 0 3.438-1.895 3.438-4.203 0-2.484-1.562-4.203-3.352-4.203-2.238 0-3.473 2.066-3.473 4.184zm9.188.019c0 3.559-2.676 6.113-5.836 6.113-3.266 0-5.715-2.621-5.715-6.078 0-3.629 2.66-6.148 5.664-6.148 3.68 0 5.887 2.918 5.887 6.113m5.737-3.941v3.004h1.824c1.668 0 2.465-.766 2.465-1.633 0-.711-.57-1.371-1.699-1.371zm2.918-1.98c2.328 0 3.648 1.18 3.648 2.918 0 1.875-1.301 2.813-3.246 3.195v.035c.867.262 1.734.539 2.395 2.328l1.25 3.367h-2.465l-.836-2.621c-.484-1.547-1.145-2.363-2.793-2.363h-.871v4.984h-2.258V99.887h5.176m8.813 0 2.469 4.375 2.465-4.375h2.813l-4.152 6.441v5.402h-2.254v-5.402l-4.102-6.441h2.762m-75.185 79.164 8.559-1.07s-.461-1.566-2.793-1.504c-1.348.035-3.066.246-3.066.246l-2.699 2.328"/>
    </g>
    <g class="B">
        <path d="m101.379 188.5 2.695-.676-2.484.184-6.961.734"/>
        <path d="m109.047 191.691 8.254-17.523-23.535-10.227-8.254 17.52 23.535 10.23"/>
    </g>
    <g stroke="#fff" stroke-width="2.437" class="C D">
        <path d="m109.047 191.691 8.254-17.523-23.535-10.227-8.254 17.52zm0 0"/>
        <path stroke-linecap="round" d="m114.316 168.633-14.625-6.5"/>
    </g>
    <g class="B">
        <path d="M95.793 199.051s-.051.043 4.941-.004l4.723.098-1.285-2.676h-7.457l-.922 2.582"/>
        <path d="M95.148 196.844h10.645v-9.219l-10.645-4.586v13.805"/>
    </g>
    <g fill="#fff">
        <path d="M95.793 196.289V179.07c0-1.645 1.984-3.578 4.512-3.578s4.629 1.934 4.629 3.578v17.219c-.133-.098-9.004.223-9.141 0"/>
        <path d="m94.508 187.18 7.082.094 1.383 7.973-6.012.125-2.453-8.191"/>
    </g>
    <path stroke-width=".515" d="m94.508 187.18 7.082.094 1.383 7.973-6.012.125zm0 0" class="C D E"/>
    <path d="m103.063 195.188-1.379-7.914 2.117-.184-.277 7.082-.461 1.016" class="B"/>
    <path fill="#fff" d="M94.219 187.551v-8.465c0-1.871 1.273-3.594 3.723-3.594 1.535 0 3.68 1.723 3.68 3.594v8.465c-.133-.113-7.27.25-7.402 0"/>
    <path stroke-miterlimit="2" stroke-width=".675" d="M94.219 187.551v-8.465c0-1.871 1.273-3.594 3.723-3.594 1.535 0 3.68 1.723 3.68 3.594v8.465c-.133-.113-7.27.25-7.402 0zm0 0" class="C E"/>
    <path d="M91.008 201.813h19.512v-2.207H91.008zm0 0" class="B"/>
    <path fill="#fff" d="m56.141 52.297.145.301-.125-.32.477.449-.445-.48.324.113-.301-.133.988-.027-.992-.031.301-.145-.316.121.445-.477-.484.449.121-.328-.137.301-.027-.988-.031.996-.145-.301.121.32-.477-.453.449.484-.324-.113.297.133-.988.027.996.031-.301.145.316-.121-.449.473.484-.449-.117.328.137-.297.027.984.031-.992"/>
    <g class="C D" clip-path="url(#D)">
        <use xlink:href="#E" stroke="#f04f19" stroke-width="4.31"/>
    </g>
    <path stroke="#f04f19" stroke-width=".75" d="m187.055 180.426 9.434 8.176m-172.012-.324 10.578-9.004M6.168 65.309l12.676 5.637m195.246-5.652-12.676 5.641" class="C D"/>
    <g fill="#fff">
        <path d="M49.223 119.613v5.775c0 1.425.6 2.325 1.95 2.325s2.025-.9 2.025-2.175v-5.925h1.8v6c0 2.25-1.275 3.6-3.75 3.6s-3.75-1.275-3.75-3.525v-6.075zm10.275 0 4.125 6.45v-6.45h1.8v9.45h-1.8l-4.125-6.525v6.525h-1.8v-9.45zm10.8 0v9.45h-1.8v-9.45zm9.375 0v1.575h-2.7v7.875h-1.8v-7.875h-2.7v-1.575zm8.625 0v1.575h-4.575v2.25h4.35v1.5h-4.35v2.625h4.575v1.575h-6.45v-9.45h6.45z"/>
        <use xlink:href="#F"/>
        <path d="M109.373 119.613v4.05l3.525-4.05h2.175l-3.15 3.45 3.375 6h-2.1l-2.475-4.65-1.35 1.5v3.15h-1.8v-9.45zm9.75 0v9.45h-1.8v-9.45zm4.875 0 4.125 6.45v-6.45h1.8v9.45h-1.8l-4.125-6.525v6.525h-1.8v-9.45zm16.35.75v1.95c-.9-.75-2.025-1.2-3.075-1.2-1.725 0-3 1.425-3 3.375 0 1.8 1.2 3.15 2.55 3.15 1.125 0 1.95-.825 1.95-2.025h-2.4v-1.575h4.2v5.1h-1.575l-.15-1.2c-.675.9-1.575 1.35-2.475 1.35-2.025 0-3.975-2.025-3.975-4.725 0-3.075 2.1-5.1 4.8-5.1 1.125 0 2.1.3 3.15.9z"/>
        <use xlink:href="#F" x="52.05"/>
        <path d="M162.698 124.338c0 2.775-2.025 4.875-4.65 4.875s-4.575-2.1-4.575-4.95c0-2.7 2.025-4.875 4.575-4.875 2.85.075 4.65 2.325 4.65 4.95zm-4.575 3.375c1.575 0 2.775-1.5 2.775-3.375s-1.2-3.375-2.7-3.375c-1.575 0-2.775 1.425-2.775 3.375 0 1.875 1.125 3.375 2.7 3.375zm9.15-8.1 2.7 4.65 2.775-4.65h1.95v9.45h-1.8v-6.675l-2.925 4.95-2.925-4.95v6.675h-1.8v-9.45z"/>
    </g>
</svg>
