<?xml version="1.0" encoding="UTF-8" standalone="no"?>
<!-- Created with Inkscape (http://www.inkscape.org/) -->

<svg
   version="1.1"
   id="svg1"
   width="296.10666"
   height="295.93332"
   viewBox="0 0 296.10666 295.93332"
   sodipodi:docname="SO_Logo_FINAL.eps"
   xmlns:inkscape="http://www.inkscape.org/namespaces/inkscape"
   xmlns:sodipodi="http://sodipodi.sourceforge.net/DTD/sodipodi-0.dtd"
   xmlns="http://www.w3.org/2000/svg"
   xmlns:svg="http://www.w3.org/2000/svg">
  <defs
     id="defs1" />
  <sodipodi:namedview
     id="namedview1"
     pagecolor="#ffffff"
     bordercolor="#000000"
     borderopacity="0.25"
     inkscape:showpageshadow="2"
     inkscape:pageopacity="0.0"
     inkscape:pagecheckerboard="0"
     inkscape:deskcolor="#d1d1d1">
    <inkscape:page
       x="0"
       y="0"
       inkscape:label="1"
       id="page1"
       width="296.10666"
       height="295.93332"
       margin="0"
       bleed="0" />
  </sodipodi:namedview>
  <g
     id="g1"
     inkscape:groupmode="layer"
     inkscape:label="1">
    <g
       id="group-R5">
      <path
         id="path2"
         d="m 232.422,541.828 8.953,6.051 31.641,-46.879 -3.68,-2.48 c -12.941,-8.731 -20.215,-6.969 -39.074,1.011 -19.754,8.239 -24.317,7.918 -28.496,5.11 -6.172,-4.18 -5.625,-12.922 -1.317,-19.301 6.239,-9.25 16.824,-13.121 21.121,-14.57 l -10.742,-7.25 c -4.48,2.339 -13.094,6.96 -19.539,16.511 -7.668,11.34 -9.016,25.789 2.93,33.84 8.359,5.649 16.922,4.758 40.996,-5.351 11.816,-5.071 17.586,-6.961 22.39,-4 l -25.183,37.308"
         style="fill:#231f20;fill-opacity:1;fill-rule:nonzero;stroke:none"
         transform="matrix(0.13333333,0,0,-0.13333333,0,295.93333)" />
      <path
         id="path3"
         d="m 196.063,603.762 9.347,5.398 28.328,-48.879 -3.836,-2.242 c -13.496,-7.82 -20.625,-5.559 -38.879,3.691 -19.14,9.571 -23.71,9.551 -28.066,7.032 -6.434,-3.731 -6.484,-12.5 -2.637,-19.141 5.598,-9.652 15.879,-14.23 20.071,-15.961 l -11.211,-6.5 c -4.297,2.629 -12.578,7.82 -18.352,17.789 -6.855,11.832 -7.215,26.332 5.235,33.539 8.722,5.063 17.199,3.594 40.5,-8.136 11.445,-5.864 17.07,-8.153 22.058,-5.524 l -22.558,38.934"
         style="fill:#231f20;fill-opacity:1;fill-rule:nonzero;stroke:none"
         transform="matrix(0.13333333,0,0,-0.13333333,0,295.93333)" />
      <path
         id="path4"
         d="m 123.367,601.051 c 3.137,-6.223 10.715,-8.711 16.934,-5.571 6.211,3.129 8.711,10.719 5.578,16.93 -3.145,6.211 -10.723,8.711 -16.934,5.578 -6.211,-3.136 -8.711,-10.726 -5.578,-16.937 z m -5.574,-2.801 c -4.699,9.32 -0.988,20.609 8.34,25.301 9.324,4.711 20.613,0.988 25.312,-8.34 4.707,-9.313 0.985,-20.602 -8.34,-25.301 -9.316,-4.711 -20.605,-0.988 -25.312,8.34"
         style="fill:#231f20;fill-opacity:1;fill-rule:nonzero;stroke:none"
         transform="matrix(0.13333333,0,0,-0.13333333,0,295.93333)" />
      <path
         id="path5"
         d="m 85.7891,680.32 9.914,4.289 15.0589,-34.8 20.359,8.82 c -2.605,1.492 -8.476,5.101 -12.383,14.121 -5.711,13.211 -1.277,27.422 12.043,33.191 14.305,6.2 30.692,-0.57 38.086,-17.632 4.481,-10.348 3.797,-19.661 3.406,-23.879 l -11.668,-5.051 c 1.083,6.871 2.528,15.601 -1.425,24.742 -4.629,10.668 -14.992,14.688 -22.91,11.25 -7.707,-3.332 -10.411,-12.48 -6.653,-21.172 0.676,-1.551 3.047,-7.039 9.981,-11.89 l 4.386,-10.118 -38.742,-16.793 -19.4529,44.922"
         style="fill:#231f20;fill-opacity:1;fill-rule:nonzero;stroke:none"
         transform="matrix(0.13333333,0,0,-0.13333333,0,295.93333)" />
      <path
         id="path6"
         d="m 57.918,755.172 9.8437,3.469 74.9613,-8.039 4.074,-11.551 -74.6681,8.277 14.1602,-40.148 -10.1875,-3.602 -18.1836,51.594"
         style="fill:#231f20;fill-opacity:1;fill-rule:nonzero;stroke:none"
         transform="matrix(0.13333333,0,0,-0.13333333,0,295.93333)" />
      <path
         id="path7"
         d="m 63.7188,774.41 -13.7774,-4.172 -3.4687,11.492 13.7812,4.161 15.8399,1.898 1.875,-6.199 -14.25,-7.18"
         style="fill:#231f20;fill-opacity:1;fill-rule:nonzero;stroke:none"
         transform="matrix(0.13333333,0,0,-0.13333333,0,295.93333)" />
      <path
         id="path8"
         d="m 40.3203,885.77 c -1.8828,-3.731 -7.039,-14.329 -4.5312,-25.688 1.9453,-8.781 8.3007,-15.371 14.9804,-13.902 5.9766,1.32 8.2735,6.5 8.3907,21.019 0.2148,12.942 1.7968,28.031 17.1367,31.422 15.5859,3.438 28.6521,-9.031 32.1681,-24.961 2.746,-12.41 -0.957,-22.941 -2.852,-28.262 l -13.7107,-3.027 c 2.5977,5.481 8.4377,17.457 5.6758,29.988 -1.9453,8.789 -9.6875,16.051 -17.2968,14.371 -7.9688,-1.761 -9.2969,-10.781 -9.4805,-21.621 -0.2149,-7.91 -0.7617,-16.019 -4.7969,-22.808 -2.0391,-3.02 -4.3437,-6.492 -11.7266,-8.11 -13.4687,-2.98 -25.1171,6.981 -28.7421,23.379 -2.4297,11.008 -0.2618,18.981 1.3086,25.231 l 13.4765,2.969"
         style="fill:#231f20;fill-opacity:1;fill-rule:nonzero;stroke:none"
         transform="matrix(0.13333333,0,0,-0.13333333,0,295.93333)" />
      <path
         id="path9"
         d="m 116.719,914.52 c -9.074,1.679 -11.231,2.16 -16.8284,1.402 -0.3398,-1.531 -1.0351,-5.192 -6.4726,-6.152 -4.8438,-0.872 -8.418,1.441 -9.0352,4.871 -0.7109,4.007 3.0469,6.871 7.3047,7.629 6.5039,1.152 17.4335,-1.309 24.1915,-3.032 l 0.84,-4.718"
         style="fill:#231f20;fill-opacity:1;fill-rule:nonzero;stroke:none"
         transform="matrix(0.13333333,0,0,-0.13333333,0,295.93333)" />
      <path
         id="path10"
         d="m 77.6641,1002.87 c -0.8282,8.85 -7.9883,15.77 -16.4649,14.97 -9.3242,-0.88 -13.3203,-9.68 -12.7148,-16.13 0.3047,-3.23 2.0117,-12.351 14.082,-20.261 9.7774,4.903 16.0352,11.391 15.0977,21.421 z m -53.9727,17.84 c -3.5273,-6.12 -6.3789,-12.89 -5.7226,-19.94 0.3906,-4.18 2.7226,-12.29 13.2421,-17.801 8.5039,-4.617 15.9375,-4.168 20.9766,-3.938 l 0.2148,0.258 c -4.375,2.973 -13.3125,9.602 -14.582,23.101 -1.4258,15.17 8.0469,25.94 21.4258,27.2 15.0586,1.41 27.5,-10.56 28.9453,-25.97 1.7774,-18.87 -12.4609,-34.061 -34.8047,-36.159 -19.9414,-1.871 -43.62107,7.711 -45.87889,31.73 -0.78125,8.359 1.45703,15.319 3.16409,20.299 l 13.0195,1.22"
         style="fill:#231f20;fill-opacity:1;fill-rule:nonzero;stroke:none"
         transform="matrix(0.13333333,0,0,-0.13333333,0,295.93333)" />
      <path
         id="path11"
         d="m 3.83594,1097.02 10.44136,0.26 68.7969,-30.82 0.3047,-12.23 -68.4492,30.94 1.0547,-42.56 -10.78909,-0.27 -1.35937,54.68"
         style="fill:#231f20;fill-opacity:1;fill-rule:nonzero;stroke:none"
         transform="matrix(0.13333333,0,0,-0.13333333,0,295.93333)" />
      <path
         id="path12"
         d="m 6.25,1133.09 c -0.21484,-6.96 5.2422,-12.77 12.1953,-12.99 6.9531,-0.22 12.7735,5.25 12.9883,12.2 0.2148,6.97 -5.2422,12.78 -12.1953,12.99 -6.9649,0.22 -12.77346,-5.24 -12.9883,-12.2 z m -6.2421875,0.2 c 0.3242185,10.43 8.9843775,18.55 19.4257875,18.23 10.4297,-0.32 18.5625,-8.97 18.2422,-19.41 -0.332,-10.43 -8.9844,-18.57 -19.4258,-18.25 -10.42969,0.33 -18.5625,8.99 -18.2421875,19.43"
         style="fill:#231f20;fill-opacity:1;fill-rule:nonzero;stroke:none"
         transform="matrix(0.13333333,0,0,-0.13333333,0,295.93333)" />
      <path
         id="path13"
         d="m 24.6094,1202.85 -0.0196,-0.24 28.0274,-27.53 2.2266,25.09 z m -14.0742,12.46 45.2929,-4.03 1.2617,14.22 10.5157,-0.93 -1.2578,-14.22 21.9804,-1.95 -0.9843,-11.12 -21.9844,1.96 -3.3672,-37.88 -10.1563,0.89 -42.28512,41.94 0.98442,11.12"
         style="fill:#231f20;fill-opacity:1;fill-rule:nonzero;stroke:none"
         transform="matrix(0.13333333,0,0,-0.13333333,0,295.93333)" />
      <path
         id="path14"
         d="m 22.2266,1299.56 10.3125,-1.64 62.039,-42.79 -1.9218,-12.08 -61.6719,42.84 -6.6992,-42.05 -10.6524,1.71 8.5938,54.01"
         style="fill:#231f20;fill-opacity:1;fill-rule:nonzero;stroke:none"
         transform="matrix(0.13333333,0,0,-0.13333333,0,295.93333)" />
      <path
         id="path15"
         d="m 36.4922,1313.91 -14.1094,2.9 2.4219,11.76 14.1016,-2.9 14.8437,-5.88 -1.3086,-6.34 -15.9492,0.46"
         style="fill:#231f20;fill-opacity:1;fill-rule:nonzero;stroke:none"
         transform="matrix(0.13333333,0,0,-0.13333333,0,295.93333)" />
      <path
         id="path16"
         d="m 62.5195,1466.63 72.4215,-43.18 -3.371,-11.02 -65.195,4.33 -0.0664,-0.24 56.8244,-31.77 -3.477,-11.36 -84.4997,3.57 3.6406,11.94 64.6411,-4.54 0.066,0.23 -56.4337,31.41 3.5039,11.48 63.0978,-3.82 0.066,0.23 -54.7927,31.03 3.5742,11.71"
         style="fill:#231f20;fill-opacity:1;fill-rule:nonzero;stroke:none"
         transform="matrix(0.13333333,0,0,-0.13333333,0,295.93333)" />
      <path
         id="path17"
         d="m 157.938,1646.51 21.347,-12.69 8.215,13.82 c 5.762,9.68 4.578,17.79 -2.434,21.96 -6.601,3.92 -13.211,0.31 -16.765,-5.66 z m 1.574,23.77 c 8.515,14.34 21.347,16.19 31.453,10.19 13.203,-7.86 14.953,-22.98 6.484,-37.22 l -8.886,-14.94 30.527,-18.16 -5.887,-9.89 -70.43,41.87 16.739,28.15"
         style="fill:#231f20;fill-opacity:1;fill-rule:nonzero;stroke:none"
         transform="matrix(0.13333333,0,0,-0.13333333,0,295.93333)" />
      <path
         id="path18"
         d="m 204.461,1713.22 -0.125,-0.2 20.516,-27.21 12.57,18.46 z m -8.75,12.93 84.914,-20.7 -7.559,-11.1 -24.628,6.91 -16.622,-24.4 15.438,-20.39 -7.5,-11.01 -50.664,70.97 6.621,9.72"
         style="fill:#231f20;fill-opacity:1;fill-rule:nonzero;stroke:none"
         transform="matrix(0.13333333,0,0,-0.13333333,0,295.93333)" />
      <path
         id="path19"
         d="m 238.172,1766.54 19.394,-15.3 5.274,6.69 c 9.289,11.75 13.293,21.28 4.914,27.9 -8,6.31 -15.762,-1.77 -18.43,-5.17 z m 4.531,23.16 c 10.625,13.46 22.512,14.01 31.555,6.88 10.449,-8.24 7.586,-20.19 4.461,-29.19 l 0.187,-0.15 c 2.754,1.95 7.852,5.11 18.231,1.81 l 26.875,-8.53 -7.957,-10.07 -21.633,7.61 c -9.09,3.2 -15.457,2.87 -21.18,-4.37 l -7.199,-9.14 27.949,-22.05 -7.129,-9.05 -64.285,50.75 20.125,25.5"
         style="fill:#231f20;fill-opacity:1;fill-rule:nonzero;stroke:none"
         transform="matrix(0.13333333,0,0,-0.13333333,0,295.93333)" />
      <path
         id="path20"
         d="m 351.199,1810.95 c 0.305,4.6 1.153,16.19 -11.59,27.85 -13.546,12.4 -30.644,13.25 -40.617,2.37 -9.883,-10.79 -7.683,-27.78 6.028,-40.32 14.343,-13.14 31.316,-12.88 40.066,-3.33 0.891,0.96 2.09,2.64 2.48,3.25 l -21.511,4.57 8.425,9.2 z m 38.496,1.36 c -1.054,-3.11 -3.582,-7.29 -5.769,-9.67 -7.297,-7.97 -15.52,-6.47 -25.633,-4.19 -0.395,-0.79 -1.418,-2.46 -2.543,-4.03 -1.035,-1.66 -2.148,-3.23 -2.801,-3.94 -13.359,-14.6 -37.59,-16.01 -56.172,0.99 -18.761,17.19 -19.179,41.96 -5.566,56.83 13.934,15.22 38.769,16.23 56.738,-0.21 11.594,-10.61 16.61,-24.16 13.985,-39.64 4.363,-0.91 11.132,-2.39 15.761,2.64 2.098,2.32 3.399,5.51 3.946,8.59 l 8.054,-7.37"
         style="fill:#231f20;fill-opacity:1;fill-rule:nonzero;stroke:none"
         transform="matrix(0.13333333,0,0,-0.13333333,0,295.93333)" />
      <path
         id="path21"
         d="m 338.301,1895 34.832,-37.22 c 8.105,-8.68 18.508,-12.24 28.41,-2.99 9.98,9.35 7.547,20.36 -0.559,29.05 l -34.832,37.21 8.407,7.88 35.812,-38.28 c 16.719,-17.87 8.895,-33.74 -1.699,-43.65 -14.192,-13.27 -29.113,-12.95 -42.969,1.86 l -35.812,38.27 8.41,7.87"
         style="fill:#231f20;fill-opacity:1;fill-rule:nonzero;stroke:none"
         transform="matrix(0.13333333,0,0,-0.13333333,0,295.93333)" />
      <path
         id="path22"
         d="m 430.371,1975.29 6.844,-8.36 -31.875,-26.06 14.512,-17.77 30.488,24.94 6.535,-7.99 -30.48,-24.92 17.101,-20.92 31.875,26.07 6.844,-8.37 -40.797,-33.37 -51.84,63.39 40.793,33.36"
         style="fill:#231f20;fill-opacity:1;fill-rule:nonzero;stroke:none"
         transform="matrix(0.13333333,0,0,-0.13333333,0,295.93333)" />
      <path
         id="path23"
         d="m 510.262,2014.02 -0.203,-0.13 8.574,-32.96 18.652,12.23 z m -3.153,15.29 70.547,-51.55 -11.23,-7.36 -20.117,15.77 -24.668,-16.17 6.472,-24.74 -11.121,-7.3 -19.719,84.9 9.836,6.45"
         style="fill:#231f20;fill-opacity:1;fill-rule:nonzero;stroke:none"
         transform="matrix(0.13333333,0,0,-0.13333333,0,295.93333)" />
      <path
         id="path24"
         d="m 597.996,2060.96 c -4.109,0.71 -15.75,2.56 -25.898,-3.14 -7.84,-4.4 -12.285,-12.41 -8.934,-18.37 2.996,-5.34 8.621,-6.03 22.547,-1.91 12.453,3.55 27.344,6.42 35.051,-7.27 7.82,-13.91 -0.313,-30.05 -14.532,-38.04 -11.093,-6.23 -22.226,-5.75 -27.882,-5.5 l -6.883,12.24 c 6.015,-0.88 19.168,-2.98 30.351,3.31 7.84,4.41 12.539,13.92 8.711,20.73 -3.996,7.1 -13.007,5.75 -23.437,2.78 -7.637,-2.09 -15.547,-3.93 -23.215,-2.04 -3.484,1.06 -7.469,2.26 -11.172,8.86 -6.758,12.02 -0.625,26.07 14.016,34.29 9.832,5.53 18.094,5.78 24.519,6.08 l 6.758,-12.02"
         style="fill:#231f20;fill-opacity:1;fill-rule:nonzero;stroke:none"
         transform="matrix(0.13333333,0,0,-0.13333333,0,295.93333)" />
      <path
         id="path25"
         d="m 654.422,2110.05 4.699,-9.71 -21.367,-10.34 30.867,-63.79 -10.359,-5.01 -30.871,63.79 -21.914,-10.61 -4.696,9.72 53.641,25.95"
         style="fill:#231f20;fill-opacity:1;fill-rule:nonzero;stroke:none"
         transform="matrix(0.13333333,0,0,-0.13333333,0,295.93333)" />
      <path
         id="path26"
         d="m 682.441,2110.54 9.317,-22.9 7.898,3.21 c 13.887,5.65 22.071,11.96 18.047,21.85 -3.836,9.44 -14.59,6.24 -18.582,4.61 z m 15.379,17.91 c 15.899,6.47 26.516,1.07 30.86,-9.61 5.019,-12.33 -3.379,-21.31 -10.535,-27.59 l 0.097,-0.23 c 3.36,0.34 9.344,0.57 16.746,-7.43 l 19.172,-20.7 -11.887,-4.84 -15.078,17.32 c -6.328,7.27 -12.019,10.13 -20.586,6.65 l -10.781,-4.38 13.43,-33.02 -10.664,-4.34 -30.891,75.91 30.117,12.26"
         style="fill:#231f20;fill-opacity:1;fill-rule:nonzero;stroke:none"
         transform="matrix(0.13333333,0,0,-0.13333333,0,295.93333)" />
      <path
         id="path27"
         d="m 757.488,2107.33 c 5.742,-17.81 20.461,-26.69 34.278,-22.22 14.394,4.63 20.097,20.97 14.57,38.11 -5.887,18.27 -20.879,26.42 -33.906,22.23 -14.961,-4.84 -20.399,-21.22 -14.942,-38.12 z m 60.657,19.94 c 6.953,-21.59 -1.661,-45.29 -23.704,-52.41 -22.156,-7.14 -42.019,7.51 -48.836,28.64 -7.988,24.8 5.204,46.07 22.899,51.78 23.312,7.51 43.156,-7.9 49.641,-28.01"
         style="fill:#231f20;fill-opacity:1;fill-rule:nonzero;stroke:none"
         transform="matrix(0.13333333,0,0,-0.13333333,0,295.93333)" />
      <path
         id="path28"
         d="m 872.176,2137.57 c 5.949,-5.86 11.203,-11.41 16.133,-16.66 l 2.07,-2.46 0.176,0.28 c -0.45,1.38 -1.219,4.15 -1.582,5.66 -0.692,2.43 -1.864,6.35 -2.743,10.09 l -11.367,48.25 10.742,2.53 18.778,-79.67 -11.453,-2.7 -35.137,34.5 c -3.047,2.99 -8.586,8.71 -12.832,13.13 -0.949,0.89 -5.684,5.82 -6.281,6.79 l -0.235,-0.06 c 0.41,-1.75 1.301,-5 1.797,-6.6 0.645,-2.2 1.34,-4.63 1.946,-7.19 l 11.726,-49.77 -11.219,-2.64 -18.769,79.68 11.679,2.74 36.571,-35.9"
         style="fill:#231f20;fill-opacity:1;fill-rule:nonzero;stroke:none"
         transform="matrix(0.13333333,0,0,-0.13333333,0,295.93333)" />
      <path
         id="path29"
         d="m 950.223,2219.49 -12.344,-19.36 -7.363,-1.13 8.554,18.79 z m -27.754,-68.95 c 2.824,-18.51 15.937,-29.63 30.293,-27.45 14.953,2.28 23.203,17.5 20.488,35.3 -2.891,19 -16.387,29.45 -29.91,27.39 -15.547,-2.37 -23.535,-17.68 -20.871,-35.24 z m 63.097,9.98 c 3.407,-22.44 -8.906,-44.47 -31.808,-47.95 -23.028,-3.52 -40.281,14.14 -43.621,36.09 -3.926,25.76 12.508,44.66 30.898,47.45 24.219,3.69 41.348,-14.71 44.531,-35.59"
         style="fill:#231f20;fill-opacity:1;fill-rule:nonzero;stroke:none"
         transform="matrix(0.13333333,0,0,-0.13333333,0,295.93333)" />
      <path
         id="path30"
         d="m 1076.39,2207.86 5.35,-81.69 -11.14,-0.72 -4.38,66.82 -0.24,-0.02 -24.51,-50.07 -30.68,45.97 -0.23,-0.01 4.34,-66.35 -11.13,-0.73 -5.352,81.68 13.292,0.88 28.48,-41.92 22.3,45.24 13.9,0.92"
         style="fill:#231f20;fill-opacity:1;fill-rule:nonzero;stroke:none"
         transform="matrix(0.13333333,0,0,-0.13333333,0,295.93333)" />
      <path
         id="path31"
         d="m 1109,2207.7 1.51,-81.79 -11.52,-0.22 -1.5,81.8 11.51,0.21"
         style="fill:#231f20;fill-opacity:1;fill-rule:nonzero;stroke:none"
         transform="matrix(0.13333333,0,0,-0.13333333,0,295.93333)" />
      <path
         id="path32"
         d="m 1188.72,2185.8 c -3.93,3.77 -11.44,10.82 -22.95,11.31 -16.55,0.71 -28.04,-14.91 -28.72,-31.11 -0.75,-17.38 10.31,-31.2 24.47,-31.79 12.24,-0.53 21.79,6.51 25.39,9.24 l -0.58,-13.55 c -4.67,-2.44 -13.64,-7.11 -25.64,-6.59 -20.39,0.87 -36.7,18.39 -35.64,43.21 1.06,24.82 18.49,42.11 40.81,41.16 11.15,-0.48 18.52,-5.13 23.44,-8.34 l -0.58,-13.54"
         style="fill:#231f20;fill-opacity:1;fill-rule:nonzero;stroke:none"
         transform="matrix(0.13333333,0,0,-0.13333333,0,295.93333)" />
      <path
         id="path33"
         d="m 1211.52,2162.37 c -2.18,-18.59 7.51,-32.77 21.94,-34.46 15.02,-1.77 27,10.73 29.09,28.6 2.23,19.08 -8.01,32.72 -21.59,34.32 -15.62,1.82 -27.38,-10.81 -29.44,-28.46 z m 63.46,-7.06 c -2.65,-22.54 -20.34,-40.52 -43.35,-37.83 -23.12,2.71 -35.09,24.31 -32.51,46.34 3.04,25.88 23.87,39.75 42.34,37.57 24.32,-2.84 35.97,-25.11 33.52,-46.08"
         style="fill:#231f20;fill-opacity:1;fill-rule:nonzero;stroke:none"
         transform="matrix(0.13333333,0,0,-0.13333333,0,295.93333)" />
      <path
         id="path34"
         d="m 1363.71,2163.73 -0.23,0.06 -18.08,-28.89 21.72,-5.16 z m 8.97,12.81 10.99,-86.75 -13.08,3.12 -2.35,25.47 -28.73,6.81 -13.53,-21.71 -12.96,3.08 48.21,72.69 11.45,-2.71"
         style="fill:#231f20;fill-opacity:1;fill-rule:nonzero;stroke:none"
         transform="matrix(0.13333333,0,0,-0.13333333,0,295.93333)" />
      <path
         id="path35"
         d="m 1463.48,2150.7 -3.16,-10.32 -22.73,6.92 -20.71,-67.85 -11.02,3.37 20.71,67.85 -23.31,7.12 3.16,10.32 57.06,-17.41"
         style="fill:#231f20;fill-opacity:1;fill-rule:nonzero;stroke:none"
         transform="matrix(0.13333333,0,0,-0.13333333,0,295.93333)" />
      <path
         id="path36"
         d="m 1497.32,2122.89 -0.21,0.09 -21.61,-26.35 20.87,-7.88 z m 10.52,11.54 -0.15,-87.38 -12.58,4.74 0.92,25.55 -27.6,10.42 -16.19,-19.78 -12.46,4.7 57.07,65.91 10.99,-4.16"
         style="fill:#231f20;fill-opacity:1;fill-rule:nonzero;stroke:none"
         transform="matrix(0.13333333,0,0,-0.13333333,0,295.93333)" />
      <path
         id="path37"
         d="m 1595.15,2075.31 c -2.2,4.99 -6.47,14.37 -16.94,19.19 -15.05,6.94 -31.6,-3.14 -38.4,-17.86 -7.29,-15.82 -2.3,-32.8 10.57,-38.73 11.12,-5.13 22.64,-2.25 27.01,-1.09 l -5.69,-12.32 c -5.25,-0.49 -15.32,-1.4 -26.22,3.63 -18.54,8.56 -26.98,30.97 -16.56,53.54 10.41,22.58 33.11,31.93 53.38,22.58 10.15,-4.68 15.21,-11.77 18.53,-16.61 l -5.68,-12.33"
         style="fill:#231f20;fill-opacity:1;fill-rule:nonzero;stroke:none"
         transform="matrix(0.13333333,0,0,-0.13333333,0,295.93333)" />
      <path
         id="path38"
         d="m 1638.32,2057.85 -0.21,0.12 -25.15,-23 19.55,-10.77 z m 12.05,9.94 -12.62,-86.5 -11.76,6.49 4.56,25.17 -25.85,14.25 -18.85,-17.29 -11.67,6.43 65.9,57.13 10.29,-5.68"
         style="fill:#231f20;fill-opacity:1;fill-rule:nonzero;stroke:none"
         transform="matrix(0.13333333,0,0,-0.13333333,0,295.93333)" />
      <path
         id="path39"
         d="m 1756.44,2001.32 -45.24,-68.14 -9.29,6.17 37.03,55.76 -0.21,0.13 -49.81,-24.94 3.48,55.13 -0.19,0.12 -36.76,-55.34 -9.29,6.17 45.25,68.13 11.09,-7.37 -2.77,-50.55 45.13,22.43 11.58,-7.7"
         style="fill:#231f20;fill-opacity:1;fill-rule:nonzero;stroke:none"
         transform="matrix(0.13333333,0,0,-0.13333333,0,295.93333)" />
      <path
         id="path40"
         d="m 1789.09,1957.77 -0.19,0.16 -28.59,-18.55 17.5,-13.84 z m 13.53,7.82 -26.68,-83.26 -10.54,8.34 8.63,24.08 -23.15,18.31 -21.44,-13.95 -10.46,8.27 74.41,45.51 9.23,-7.3"
         style="fill:#231f20;fill-opacity:1;fill-rule:nonzero;stroke:none"
         transform="matrix(0.13333333,0,0,-0.13333333,0,295.93333)" />
      <path
         id="path41"
         d="m 1772.5,1861.4 c 8.13,4.36 10.11,5.35 14.01,9.42 -0.68,1.39 -2.43,4.69 1.21,8.84 3.26,3.69 7.47,4.14 10.09,1.83 3.07,-2.69 1.92,-7.26 -0.94,-10.52 -4.34,-4.96 -14.4,-9.85 -20.76,-12.74 l -3.61,3.17"
         style="fill:#231f20;fill-opacity:1;fill-rule:nonzero;stroke:none"
         transform="matrix(0.13333333,0,0,-0.13333333,0,295.93333)" />
      <path
         id="path42"
         d="m 1918.26,1830.92 c -0.23,5.42 -0.79,15.71 -8.78,24.02 -11.47,11.94 -30.55,8.58 -42.23,-2.65 -12.54,-12.06 -14.09,-29.68 -4.27,-39.89 8.48,-8.83 20.25,-10.32 24.73,-10.85 l -9.76,-9.38 c -5.07,1.45 -14.78,4.27 -23.09,12.92 -14.14,14.71 -13.84,38.64 4.08,55.86 17.9,17.2 42.44,17.66 57.91,1.57 7.73,-8.05 9.86,-16.5 11.19,-22.21 l -9.78,-9.39"
         style="fill:#231f20;fill-opacity:1;fill-rule:nonzero;stroke:none"
         transform="matrix(0.13333333,0,0,-0.13333333,0,295.93333)" />
      <path
         id="path43"
         d="m 1952,1821.89 -26.13,-21.68 25.66,-30.92 26.14,21.66 7.35,-8.85 -62.97,-52.26 -7.35,8.88 28.99,24.05 -25.67,30.93 -28.99,-24.06 -7.35,8.86 62.96,52.25 7.36,-8.86"
         style="fill:#231f20;fill-opacity:1;fill-rule:nonzero;stroke:none"
         transform="matrix(0.13333333,0,0,-0.13333333,0,295.93333)" />
      <path
         id="path44"
         d="m 2004.71,1755.65 -65.69,-48.93 -6.88,9.24 65.68,48.93 6.89,-9.24"
         style="fill:#231f20;fill-opacity:1;fill-rule:nonzero;stroke:none"
         transform="matrix(0.13333333,0,0,-0.13333333,0,295.93333)" />
      <path
         id="path45"
         d="m 2023.47,1729.38 -58.82,-39.86 22.81,-33.69 -8.94,-6.06 -29.28,43.23 67.76,45.91 6.47,-9.53"
         style="fill:#231f20;fill-opacity:1;fill-rule:nonzero;stroke:none"
         transform="matrix(0.13333333,0,0,-0.13333333,0,295.93333)" />
      <path
         id="path46"
         d="m 2081.18,1637.34 -9.3,-5.5 -20.95,35.44 -19.73,-11.65 20.02,-33.9 -8.89,-5.26 -20.02,33.9 -23.26,-13.75 20.95,-35.44 -9.3,-5.49 -26.81,45.36 70.47,41.65 26.82,-45.36"
         style="fill:#231f20;fill-opacity:1;fill-rule:nonzero;stroke:none"
         transform="matrix(0.13333333,0,0,-0.13333333,0,295.93333)" />
      <path
         id="path47"
         d="m 2179.5,1399.11 -10.32,-3.19 -12.17,39.32 -21.89,-6.77 11.62,-37.61 -9.87,-3.05 -11.62,37.61 -25.81,-7.98 12.17,-39.33 -10.32,-3.19 -15.57,50.34 78.22,24.19 15.56,-50.34"
         style="fill:#231f20;fill-opacity:1;fill-rule:nonzero;stroke:none"
         transform="matrix(0.13333333,0,0,-0.13333333,0,295.93333)" />
      <path
         id="path48"
         d="m 2185.94,1373.9 -68.99,-16.92 9.7,-39.5 -10.49,-2.58 -12.44,50.69 79.47,19.5 2.75,-11.19"
         style="fill:#231f20;fill-opacity:1;fill-rule:nonzero;stroke:none"
         transform="matrix(0.13333333,0,0,-0.13333333,0,295.93333)" />
      <path
         id="path49"
         d="m 2207.65,1269.98 -10.63,-1.94 -7.41,40.48 -22.54,-4.12 7.07,-38.72 -10.16,-1.86 -7.08,38.73 -26.56,-4.86 7.41,-40.49 -10.63,-1.94 -9.47,51.83 80.51,14.71 9.49,-51.82"
         style="fill:#231f20;fill-opacity:1;fill-rule:nonzero;stroke:none"
         transform="matrix(0.13333333,0,0,-0.13333333,0,295.93333)" />
      <path
         id="path50"
         d="m 2210.47,1249.3 -63.96,-30.59 0.03,-0.24 69.22,-14.93 1.56,-13.44 -84.78,21.08 -1.33,11.43 77.75,39.68 1.51,-12.99"
         style="fill:#231f20;fill-opacity:1;fill-rule:nonzero;stroke:none"
         transform="matrix(0.13333333,0,0,-0.13333333,0,295.93333)" />
      <path
         id="path51"
         d="m 2204.54,1154.61 -0.02,0.24 -32.77,9.24 1.14,-22.28 z m 14.79,-5 -80.1,-34.87 -0.71,13.41 23.78,9.4 -1.51,29.46 -24.62,6.89 -0.68,13.3 83.23,-25.85 0.61,-11.74"
         style="fill:#231f20;fill-opacity:1;fill-rule:nonzero;stroke:none"
         transform="matrix(0.13333333,0,0,-0.13333333,0,295.93333)" />
      <path
         id="path52"
         d="m 2219.87,1057.55 -10.8,0.15 0.35,23.75 -70.88,1.05 0.17,11.51 70.89,-1.04 0.35,24.34 10.8,-0.16 -0.88,-59.6"
         style="fill:#231f20;fill-opacity:1;fill-rule:nonzero;stroke:none"
         transform="matrix(0.13333333,0,0,-0.13333333,0,295.93333)" />
      <path
         id="path53"
         d="m 2218.79,1035.75 -81.7,4.11 0.58,11.5 81.69,-4.11 -0.57,-11.5"
         style="fill:#231f20;fill-opacity:1;fill-rule:nonzero;stroke:none"
         transform="matrix(0.13333333,0,0,-0.13333333,0,295.93333)" />
      <path
         id="path54"
         d="m 2176.54,1012.49 c -18.61,1.9 -32.65,-7.98 -34.14,-22.42 -1.55,-15.039 11.11,-26.832 29.01,-28.679 19.09,-1.961 32.59,8.461 33.99,22.058 1.61,15.653 -11.19,27.211 -28.86,29.041 z m -6.18,-63.541 c -22.55,2.321 -40.77,19.762 -38.41,42.801 2.39,23.15 23.8,35.42 45.88,33.14 25.9,-2.67 40.05,-23.29 38.15,-41.8 -2.51,-24.34 -24.61,-36.301 -45.62,-34.141"
         style="fill:#231f20;fill-opacity:1;fill-rule:nonzero;stroke:none"
         transform="matrix(0.13333333,0,0,-0.13333333,0,295.93333)" />
      <path
         id="path55"
         d="m 2158.44,897.66 c -7.77,-3.078 -14.94,-5.672 -21.73,-8.09 l -3.09,-0.89 0.19,-0.282 c 1.43,-0.136 4.3,-0.539 5.83,-0.816 2.5,-0.352 6.55,-0.844 10.33,-1.531 l 48.73,-8.922 -1.99,-10.848 -80.47,14.719 2.12,11.57 45.67,18.34 c 3.95,1.602 11.41,4.379 17.16,6.5 1.19,0.512 7.6,2.871 8.73,3.031 l 0.04,0.231 c -1.77,0.328 -5.09,0.808 -6.77,1 -2.25,0.297 -4.75,0.629 -7.35,1.109 l -50.26,9.188 2.07,11.34 80.46,-14.739 -2.15,-11.8 -47.52,-19.11"
         style="fill:#231f20;fill-opacity:1;fill-rule:nonzero;stroke:none"
         transform="matrix(0.13333333,0,0,-0.13333333,0,295.93333)" />
      <path
         id="path56"
         d="m 2157.71,843.59 c -3.96,0.949 -6.67,4.66 -5.84,8.172 0.78,3.258 4.53,5.578 8.61,4.617 3.86,-0.899 6.58,-4.52 5.73,-8.129 -0.91,-3.859 -4.87,-5.512 -8.5,-4.66 z m -40.98,9.68 c -3.98,0.941 -6.67,4.652 -5.84,8.152 0.76,3.277 4.52,5.59 8.6,4.629 3.86,-0.91 6.58,-4.512 5.73,-8.129 -0.91,-3.852 -4.88,-5.512 -8.49,-4.652"
         style="fill:#231f20;fill-opacity:1;fill-rule:nonzero;stroke:none"
         transform="matrix(0.13333333,0,0,-0.13333333,0,295.93333)" />
      <path
         id="path57"
         d="m 2155.54,732.898 -10.29,3.332 11.7,36.09 -21.12,6.852 c 0.97,-2.84 3,-9.434 -0.04,-18.801 -4.44,-13.699 -17.17,-21.441 -30.99,-16.949 -14.85,4.797 -22.69,20.726 -16.95,38.418 3.49,10.75 10.15,17.289 13.23,20.211 l 12.11,-3.942 c -5.35,-4.437 -12.21,-10.05 -15.29,-19.519 -3.58,-11.078 1.54,-20.949 9.77,-23.61 7.99,-2.601 16.07,2.489 19,11.5 0.52,1.598 2.37,7.321 0.36,15.532 l 3.41,10.519 40.2,-13.031 -15.1,-46.602"
         style="fill:#231f20;fill-opacity:1;fill-rule:nonzero;stroke:none"
         transform="matrix(0.13333333,0,0,-0.13333333,0,295.93333)" />
      <path
         id="path58"
         d="m 2133.39,675.961 -72.36,29.027 4.07,10.121 48.75,-19.558 6.92,17.258 8.68,-3.489 -1.87,-4.66 c -4.02,-10.019 1.14,-16.488 7.38,-18.988 l 2,-0.813 -3.57,-8.898"
         style="fill:#231f20;fill-opacity:1;fill-rule:nonzero;stroke:none"
         transform="matrix(0.13333333,0,0,-0.13333333,0,295.93333)" />
      <path
         id="path59"
         d="m 2100.11,623.738 c 4.47,9.301 0.41,18.313 -6.29,21.532 -7.36,3.55 -15.83,-0.239 -19.26,-7.379 -4.74,-9.84 -0.27,-20.243 1.55,-24.442 4.63,-0.359 18.33,-1.488 24,10.289 z m -36.84,43.274 c -6.4,-3.313 -12.23,-7.703 -15.34,-14.192 -4.74,-9.82 -1.27,-25.879 18.48,-36.3 -2.17,5.429 -6.36,15.57 -0.59,27.57 6.19,12.871 19.52,18.441 32.38,12.262 14.39,-6.922 17.82,-23.883 11.53,-36.973 -7.65,-15.891 -26.95,-23.91 -49.01,-13.309 -22.17,10.668 -31.31,32.629 -22.52,50.899 3.02,6.269 7.77,11.441 13.18,15.761 l 11.89,-5.718"
         style="fill:#231f20;fill-opacity:1;fill-rule:nonzero;stroke:none"
         transform="matrix(0.13333333,0,0,-0.13333333,0,295.93333)" />
      <path
         id="path60"
         d="m 2029.05,553.16 c 14.29,-8.109 30.17,-6.621 36.14,3.922 6.27,11.047 -1.11,25.977 -15.2,33.977 -13.87,7.863 -30.26,6.679 -36.3,-3.957 -6.68,-11.793 1.8,-26.25 15.36,-33.942 z m 26.91,48.172 c 21.8,-12.371 27.47,-33.512 18.53,-49.262 -9.05,-15.961 -30.43,-21.07 -51.4,-9.179 -22.02,12.48 -27.28,34.089 -18.93,48.789 9.46,16.699 30.83,21.539 51.8,9.652"
         style="fill:#231f20;fill-opacity:1;fill-rule:nonzero;stroke:none"
         transform="matrix(0.13333333,0,0,-0.13333333,0,295.93333)" />
      <path
         id="path61"
         d="m 1940.82,490.129 6.19,9.152 28.69,-19.441 c 3.55,-2.258 10.64,-5.899 15.01,0.558 4.71,6.942 -0.6,16.633 -9.34,22.551 l -21.85,14.801 6.18,9.129 28.7,-19.438 c 2.68,-1.812 10.43,-6.191 15.01,0.559 4.44,6.559 0.19,16.102 -9.84,22.891 l -21.36,14.461 6.19,9.136 46.19,-31.277 -5.73,-8.441 -7.42,4.019 c 1.7,-4.34 4.28,-11.019 -1.3,-19.258 -6.6,-9.73 -15.83,-7.101 -18.38,-6.383 1.18,-2.109 2.34,-4.046 2.84,-7.578 0.77,-4.851 -0.34,-9.48 -2.96,-13.351 -5.58,-8.239 -15.51,-10.059 -25.44,-3.34 l -31.38,21.25"
         style="fill:#231f20;fill-opacity:1;fill-rule:nonzero;stroke:none"
         transform="matrix(0.13333333,0,0,-0.13333333,0,295.93333)" />
      <path
         id="path62"
         d="m 452.008,291.18 -52,-28.309 -8.906,7.961 18.789,40.469 -0.184,0.168 -38.516,-22.848 -8.707,7.789 22.336,54.852 9.473,-8.481 -18.855,-40.73 0.195,-0.18 38.273,23.359 9.004,-8.031 -18.847,-40.738 0.183,-0.172 38.473,23.191 9.289,-8.3"
         style="fill:#231f20;fill-opacity:1;fill-rule:nonzero;stroke:none"
         transform="matrix(0.13333333,0,0,-0.13333333,0,295.93333)" />
      <path
         id="path63"
         d="m 525.336,236.359 -49.297,-32.8 -9.559,7.14 15.125,42 -0.199,0.16 -36.332,-26.168 -9.371,6.989 17.399,56.629 10.183,-7.61 -15.18,-42.258 0.211,-0.152 36.063,26.66 9.68,-7.219 -15.176,-42.269 0.199,-0.16 36.27,26.531 9.984,-7.473"
         style="fill:#231f20;fill-opacity:1;fill-rule:nonzero;stroke:none"
         transform="matrix(0.13333333,0,0,-0.13333333,0,295.93333)" />
      <path
         id="path64"
         d="m 603.355,188.199 -46.218,-37.027 -10.168,6.269 11.371,43.161 -0.215,0.136 -33.891,-29.277 -9.968,6.148 12.332,57.922 10.828,-6.672 -11.387,-43.429 0.215,-0.141 33.59,29.75 10.277,-6.34 -11.387,-43.429 0.215,-0.141 33.809,29.609 10.597,-6.539"
         style="fill:#231f20;fill-opacity:1;fill-rule:nonzero;stroke:none"
         transform="matrix(0.13333333,0,0,-0.13333333,0,295.93333)" />
      <path
         id="path65"
         d="m 590.785,140.68 c -1.961,-3.578 -6.453,-5.078 -9.832,-3.219 -3.144,1.738 -4.562,6.07 -2.539,9.75 1.914,3.469 6.289,5.027 9.774,3.121 3.71,-2.051 4.394,-6.402 2.597,-9.652"
         style="fill:#231f20;fill-opacity:1;fill-rule:nonzero;stroke:none"
         transform="matrix(0.13333333,0,0,-0.13333333,0,295.93333)" />
      <path
         id="path66"
         d="m 659.938,142.801 c -6.165,10.687 -13.762,14.449 -15.5,15.308 -5.516,2.75 -11.415,2.993 -13.067,-0.339 -1.816,-3.661 2.746,-7.79 8.195,-12.11 13.524,-10.578 17.43,-17.738 13.543,-25.59 -4.324,-8.711 -17.371,-11.89 -31.746,-4.761 -10.246,5.089 -15.39,12.32 -17.59,15.429 l 5.45,10.961 c 3.507,-7.379 9.316,-13.867 16.914,-17.64 5.754,-2.848 12.863,-3.829 15.148,0.793 1.602,3.226 0.137,6.367 -9.023,13.597 -10.168,7.84 -11.797,11.473 -12.903,13.891 -0.761,2.25 -1.98,5.801 0.246,10.32 4.051,8.18 15.633,11 28.985,4.379 9.09,-4.5 13.855,-10.48 16.512,-13.82 l -5.164,-10.418"
         style="fill:#231f20;fill-opacity:1;fill-rule:nonzero;stroke:none"
         transform="matrix(0.13333333,0,0,-0.13333333,0,295.93333)" />
      <path
         id="path67"
         d="m 691.656,165.82 c 1.688,3.852 5.184,5.711 8.817,4.102 3.41,-1.492 5.05,-5.113 3.156,-9.391 -1.777,-4.07 -5.578,-5.672 -8.977,-4.172 -4.121,1.821 -4.5,6.051 -2.996,9.461 z m 3.907,-22.05 -22.5,-51.0786 -10.801,4.7695 22.48,51.0701 10.821,-4.761"
         style="fill:#231f20;fill-opacity:1;fill-rule:nonzero;stroke:none"
         transform="matrix(0.13333333,0,0,-0.13333333,0,295.93333)" />
      <path
         id="path68"
         d="m 772.973,54.2109 -11.094,4.0391 11.914,32.5898 c 1.32,3.9805 3.078,11.7692 -4.773,14.6292 -8.45,3.07 -16.895,-4.321 -20.52,-14.2385 l -9.07,-24.7891 -11.106,4.0469 11.914,32.5707 c 1.125,3.043 3.438,11.64 -4.754,14.632 -7.968,2.911 -16.574,-3.41 -20.734,-14.793 l -8.867,-24.2261 -11.102,4.039 19.18,52.3981 10.254,-3.73 -2.043,-8.199 c 3.976,2.64 10.098,6.672 20.109,3.019 11.824,-4.308 11.707,-13.98 11.688,-16.648 1.816,1.64 3.496,3.199 6.965,4.48 4.785,1.848 9.824,1.789 14.539,0.078 10.011,-3.648 14.648,-13.019 10.539,-24.2887 L 772.973,54.2109"
         style="fill:#231f20;fill-opacity:1;fill-rule:nonzero;stroke:none"
         transform="matrix(0.13333333,0,0,-0.13333333,0,295.93333)" />
      <path
         id="path69"
         d="m 846.586,62.6719 c 2.805,10.3086 -2.469,20.6992 -12.371,23.3984 -9.914,2.6992 -20.02,-3.6211 -22.832,-13.9219 C 808.473,61.5 814.34,51.332 823.5,48.832 c 10.527,-2.8828 20.332,3.7774 23.086,13.8399 z m -47.441,12.9297 c 4.433,16.207 20.937,24.5074 37.648,19.9492 17.715,-4.8203 26.094,-21.4024 22.051,-36.2227 C 854.32,42.7813 836.891,34.9805 821.664,39.1289 804.32,43.8594 794.75,59.5195 799.145,75.6016"
         style="fill:#231f20;fill-opacity:1;fill-rule:nonzero;stroke:none"
         transform="matrix(0.13333333,0,0,-0.13333333,0,295.93333)" />
      <path
         id="path70"
         d="m 920.445,17.9102 -11.574,2.3398 6.789,33.6484 c 1.309,6.4805 -0.43,12.8399 -8.488,14.461 -10.945,2.2187 -18.652,-7.3711 -20.508,-16.5508 l -5.242,-26.0078 -11.582,2.3476 11.043,54.7227 10.578,-2.1406 -0.977,-9.3594 0.254,-0.0508 c 3.153,3.2891 8.907,9.1016 20.742,6.711 13.973,-2.8399 18.309,-13.8711 16.524,-22.6993 l -7.559,-37.4218"
         style="fill:#231f20;fill-opacity:1;fill-rule:nonzero;stroke:none"
         transform="matrix(0.13333333,0,0,-0.13333333,0,295.93333)" />
      <path
         id="path71"
         d="m 987.855,48.9219 c -9.246,8.1875 -17.636,9.3476 -19.539,9.6172 -6.113,0.8398 -11.777,-0.7891 -12.304,-4.4805 -0.559,-4.0391 5.066,-6.5078 11.621,-8.8789 16.18,-5.75 22.148,-11.3086 20.945,-19.9805 -1.328,-9.6289 -12.703,-16.76951 -28.601,-14.5703 -11.329,1.5703 -18.516,6.8008 -21.563,9.0508 l 1.68,12.1094 c 5.664,-5.8594 13.242,-10.1875 21.629,-11.3399 6.367,-0.8789 13.418,0.4414 14.132,5.5391 0.497,3.582 -1.875,6.082 -12.871,10.0234 -12.129,4.2188 -14.836,7.1367 -16.64,9.0977 -1.418,1.8906 -3.731,4.8711 -3.039,9.8711 1.25,9.0312 11.34,15.3789 26.105,13.3398 10.047,-1.3906 16.473,-5.5586 20.039,-7.8594 l -1.594,-11.539"
         style="fill:#231f20;fill-opacity:1;fill-rule:nonzero;stroke:none"
         transform="matrix(0.13333333,0,0,-0.13333333,0,295.93333)" />
      <path
         id="path72"
         d="m 1051.13,30.9219 c 0.79,10.6367 -6.39,19.8281 -16.62,20.5898 -10.24,0.75 -18.95,-7.3828 -19.73,-18.0312 -0.82,-11 6.88,-19.8789 16.37,-20.5821 10.88,-0.8086 19.22,7.6016 19.98,18.0235 z m -49.02,3.6172 c 1.23,16.7617 15.84,28.0625 33.12,26.7929 18.31,-1.3632 29.71,-16.0507 28.58,-31.3632 -1.27,-17.1094 -16.88,-28.11724 -32.61,-26.93755 -17.93,1.32031 -30.32,14.87895 -29.09,31.50785"
         style="fill:#231f20;fill-opacity:1;fill-rule:nonzero;stroke:none"
         transform="matrix(0.13333333,0,0,-0.13333333,0,295.93333)" />
      <path
         id="path73"
         d="m 1093.3,18.5508 c 2.53,-2.7695 7.41,-8.1914 16,-8.2188 11.17,-0.0429 17.22,9.668 17.26,19.1368 0.04,11.4101 -8.13,18.6328 -16.34,18.6601 -8.48,0.0313 -16.85,-7.1406 -16.9,-19.0195 z m 0.22,64.6875 -0.13,-35.5274 h 0.26 c 2.19,3.4805 7.49,10.7696 19.54,10.7383 15.92,-0.0586 26.14,-13.539 26.09,-28.4179 C 1139.21,12.8711 1126.21,-0.0507813 1111.44,0 c -7.18,0.03125 -13.19,2.92969 -18.18,7.73828 l -3.12,-6.33984 -8.72,0.03125 0.29,81.85161 11.81,-0.043"
         style="fill:#231f20;fill-opacity:1;fill-rule:nonzero;stroke:none"
         transform="matrix(0.13333333,0,0,-0.13333333,0,295.93333)" />
      <path
         id="path74"
         d="m 1196.6,45.0391 c -10.67,6.1797 -19.14,5.6601 -21.06,5.539 -6.16,-0.3789 -11.4,-3.0976 -11.17,-6.8086 0.25,-4.0703 6.24,-5.3789 13.14,-6.4101 17,-2.4297 23.95,-6.6875 24.49,-15.4297 0.59,-9.7109 -9.14,-18.96095 -25.15,-19.94923 -11.41,-0.69922 -19.5,3.00781 -22.94,4.60156 l -0.76,12.20707 c 6.72,-4.6289 15,-7.3672 23.46,-6.8399 6.43,0.3906 13.08,3.0899 12.75,8.2305 -0.22,3.6016 -3.04,5.5898 -14.59,7.2812 -12.72,1.7383 -15.96,4.0586 -18.12,5.6094 -1.76,1.5781 -4.61,4.0391 -4.92,9.0781 -0.56,9.1016 8.06,17.3204 22.95,18.2422 10.12,0.6211 17.24,-2.1914 21.21,-3.7422 l 0.71,-11.6093"
         style="fill:#231f20;fill-opacity:1;fill-rule:nonzero;stroke:none"
         transform="matrix(0.13333333,0,0,-0.13333333,0,295.93333)" />
      <path
         id="path75"
         d="m 1255.44,48.0391 c -2.07,7.3593 -8.74,10.039 -14.48,9.3398 -2.3,-0.2695 -10.7,-1.4297 -14.34,-12.8672 z m -29.27,-12.5196 c 2.71,-14.6601 15.54,-16.9492 22.17,-16.1406 8.66,1.0703 15.71,6.8906 20.91,13.082 l 1.63,-13.332 c -3.54,-2.8476 -11.05,-9.0898 -23.28,-10.58984 -19.12,-2.34765 -32.22,10.54294 -34.04,25.31254 -2.07,17.0195 10.74,30.6679 26.29,32.5703 5.47,0.6875 15.76,0.1367 22.93,-7.5703 5.96,-6.3907 6.98,-13.75 7.5,-17.9219 l -44.11,-5.4102"
         style="fill:#231f20;fill-opacity:1;fill-rule:nonzero;stroke:none"
         transform="matrix(0.13333333,0,0,-0.13333333,0,295.93333)" />
      <path
         id="path76"
         d="m 1316.7,66.2109 c -2.7,0.4883 -4.43,0.7774 -6.58,0.4102 -9.49,-1.6914 -14.62,-12.3594 -12.65,-23.3516 l 4.48,-25.1679 -11.62,-2.0703 -9.8,54.9296 10.6,1.8985 2.73,-10.1211 0.25,0.0508 c 0.75,3.7929 2.81,11.9492 14.32,14 0.51,0.0898 3.28,0.5898 6.32,0.4101 l 1.95,-10.9883"
         style="fill:#231f20;fill-opacity:1;fill-rule:nonzero;stroke:none"
         transform="matrix(0.13333333,0,0,-0.13333333,0,295.93333)" />
      <path
         id="path77"
         d="m 1334.23,81.3008 26.33,-38.0508 6.78,45.8984 12.5,2.961 -10.97,-59.9688 -11.37,-2.6914 -36.15,48.7891 12.88,3.0625"
         style="fill:#231f20;fill-opacity:1;fill-rule:nonzero;stroke:none"
         transform="matrix(0.13333333,0,0,-0.13333333,0,295.93333)" />
      <path
         id="path78"
         d="m 1425.09,75.4102 c -13.87,-6.0899 -19.06,-9.7891 -17.29,-15.6485 1.45,-4.8203 7.41,-6.7734 12.83,-5.1406 2.08,0.6289 14.41,5.1094 9.74,23.2695 -0.69,-0.3398 -3.54,-1.582 -5.28,-2.4804 z m 20.72,-7.7813 c 0.7,-2.2969 2.02,-4.0195 4.97,-3.1289 0.5,0.1484 1.96,0.6016 3.69,1.9883 l 2.63,-8.7266 c -2.49,-1.5 -4.65,-2.7812 -7.85,-3.7617 -7.62,-2.3008 -11.56,0.5195 -13.34,6 l -0.25,-0.0781 c -1.33,-4.0313 -4.19,-11.9219 -14.64,-15.0938 -9.46,-2.8593 -22.08,0.3321 -25.31,11.0235 -4.43,14.6992 13.67,22.6992 32.17,30.2968 -2.82,8.0508 -11.91,7.9336 -17.2,6.3399 -8.47,-2.5664 -13.45,-9.2188 -16.88,-13.8985 l -3.42,11.3907 c 3.4,3.4101 10.09,9.6992 19.68,12.6015 15.73,4.758 26.26,-3.4609 29.13,-12.9922 l 6.62,-21.9609"
         style="fill:#231f20;fill-opacity:1;fill-rule:nonzero;stroke:none"
         transform="matrix(0.13333333,0,0,-0.13333333,0,295.93333)" />
      <path
         id="path79"
         d="m 1461.17,135.762 5.68,-15.672 15.22,5.488 3.18,-8.789 -15.22,-5.5 10.24,-28.3202 c 2.22,-6.1094 7.09,-5.6094 10.6,-4.3399 2.05,0.7422 4.11,1.8711 6.59,4.4219 l 3.39,-9.3594 c -1.81,-1.4219 -4.78,-3.7695 -10.23,-5.7422 -9.54,-3.4492 -16.8,-1.8711 -20.27,7.711 l -11.43,31.5898 -9.42,-3.398 -3.18,8.789 9.43,3.41 -4.6,16.09 10.02,3.621"
         style="fill:#231f20;fill-opacity:1;fill-rule:nonzero;stroke:none"
         transform="matrix(0.13333333,0,0,-0.13333333,0,295.93333)" />
      <path
         id="path80"
         d="m 1546.08,122.031 c -4.2,9.797 -14.78,14.68 -24.22,10.641 -9.45,-4.024 -13.44,-15.25 -9.24,-25.063 4.31,-10.1481 15.24,-14.4879 23.97,-10.7574 10.04,4.2774 13.59,15.5784 9.49,25.1794 z m -45.21,-19.301 c -6.59,15.442 1.17,32.192 17.12,38.989 16.87,7.203 33.74,-0.59 39.77,-14.707 6.74,-15.774 -2.07,-32.7112 -16.58,-38.9104 -16.53,-7.0508 -33.76,-0.711 -40.31,14.6284"
         style="fill:#231f20;fill-opacity:1;fill-rule:nonzero;stroke:none"
         transform="matrix(0.13333333,0,0,-0.13333333,0,295.93333)" />
      <path
         id="path81"
         d="m 1597.47,165.488 c -2.72,-0.289 -4.49,-0.488 -6.45,-1.457 -8.63,-4.293 -10.56,-15.972 -5.6,-25.961 l 11.36,-22.879 -10.59,-5.25 -24.78,49.95 9.64,4.8 5.44,-8.953 0.24,0.121 c -0.33,3.84 -0.65,12.262 9.82,17.461 0.46,0.231 2.99,1.489 5.96,2.16 l 4.96,-9.992"
         style="fill:#231f20;fill-opacity:1;fill-rule:nonzero;stroke:none"
         transform="matrix(0.13333333,0,0,-0.13333333,0,295.93333)" />
      <path
         id="path82"
         d="m 1609.87,184.789 37.07,-30.148 0.23,0.121 -8.48,46.386 11.06,6.293 9.96,-71.371 c 1.66,-12.031 -1.55,-19.648 -9.48,-24.148 -3.79,-2.16 -7.12,-2.801 -8.8,-3.203 l -4.86,8.543 c 3.49,0.609 5.51,1.207 7.31,2.226 6.47,3.672 5.48,11.403 3.69,21.844 l -49.53,36.727 11.83,6.73"
         style="fill:#231f20;fill-opacity:1;fill-rule:nonzero;stroke:none"
         transform="matrix(0.13333333,0,0,-0.13333333,0,295.93333)" />
      <path
         id="path83"
         d="m 1685.62,172.73 c 2.13,-3.48 1.21,-8.121 -2.08,-10.14 -3.06,-1.891 -7.52,-0.969 -9.72,2.609 -2.07,3.371 -1.26,7.961 2.14,10.039 3.61,2.223 7.72,0.66 9.66,-2.508"
         style="fill:#231f20;fill-opacity:1;fill-rule:nonzero;stroke:none"
         transform="matrix(0.13333333,0,0,-0.13333333,0,295.93333)" />
      <path
         id="path84"
         d="m 1729.15,226.578 c -6.02,8.813 -17.36,11.524 -25.82,5.711 -8.48,-5.801 -10.22,-17.598 -4.19,-26.418 6.22,-9.109 17.78,-11.23 25.63,-5.859 9,6.16 10.28,17.957 4.38,26.566 z m -40.56,-27.797 c -9.47,13.867 -5.12,31.84 9.18,41.629 15.15,10.379 33.22,6.031 41.88,-6.648 9.67,-14.16 4.32,-32.512 -8.7,-41.442 -14.84,-10.148 -32.95,-7.308 -42.36,6.461"
         style="fill:#231f20;fill-opacity:1;fill-rule:nonzero;stroke:none"
         transform="matrix(0.13333333,0,0,-0.13333333,0,295.93333)" />
      <path
         id="path85"
         d="m 1770.75,278.859 c -2.64,-0.82 -4.31,-1.347 -6.04,-2.687 -7.63,-5.871 -7.26,-17.703 -0.44,-26.524 l 15.59,-20.218 -9.35,-7.219 -34.06,44.148 8.53,6.582 7.1,-7.711 0.2,0.161 c -1.09,3.711 -3.02,11.89 6.23,19.019 0.41,0.32 2.64,2.039 5.43,3.27 l 6.81,-8.821"
         style="fill:#231f20;fill-opacity:1;fill-rule:nonzero;stroke:none"
         transform="matrix(0.13333333,0,0,-0.13333333,0,295.93333)" />
      <path
         id="path86"
         d="m 1814.58,309.648 c -3.96,0.063 -10.46,0.313 -16.47,-4.91 -7.09,-6.129 -8.97,-16.5 -1.34,-25.308 6.51,-7.52 16.56,-9.918 24.24,-3.289 7.65,6.648 7.23,17.718 0.16,25.89 z m -8.59,13.84 6.98,6.063 32.14,-37.121 c 7.46,-8.621 11.92,-15.551 10.56,-25.942 -1.23,-9.957 -7.68,-16.816 -11.36,-20.008 -8.34,-7.23 -17.68,-8.808 -22.26,-9.601 l -8.94,10.34 c 5.25,-0.188 16.01,-0.25 24.73,7.312 5.53,4.789 7.56,12.438 5.68,18.739 -1.16,4.082 -6.58,10.339 -9.3,13.699 h -0.36 c 0.08,-3.418 0.3,-13.09 -8.25,-20.481 -10.85,-9.406 -27.77,-7.718 -38.14,4.262 -10.2,11.809 -10.27,29.531 1.86,40.031 6.28,5.469 12.16,5.957 18.88,6.219 l -2.22,6.488"
         style="fill:#231f20;fill-opacity:1;fill-rule:nonzero;stroke:none"
         transform="matrix(0.13333333,0,0,-0.13333333,0,295.93333)" />
      <path
         id="path87"
         d="m 165.762,1097.9 c 0,-522.029 423.187,-945.22 945.218,-945.22 522.03,0 945.21,423.191 945.21,945.22 0,522.03 -423.18,945.21 -945.21,945.21 -522.031,0 -945.218,-423.18 -945.218,-945.21"
         style="fill:#231f20;fill-opacity:1;fill-rule:nonzero;stroke:none"
         transform="matrix(0.13333333,0,0,-0.13333333,0,295.93333)" />
      <path
         id="path88"
         d="m 165.762,1097.9 c 0,-522.029 423.187,-945.22 945.218,-945.22 522.03,0 945.21,423.191 945.21,945.22 0,522.03 -423.18,945.21 -945.21,945.21 -522.031,0 -945.218,-423.18 -945.218,-945.21 z"
         style="fill:none;stroke:#231f20;stroke-width:32.0428;stroke-linecap:butt;stroke-linejoin:miter;stroke-miterlimit:10;stroke-dasharray:none;stroke-opacity:1"
         transform="matrix(0.13333333,0,0,-0.13333333,0,295.93333)" />
      <path
         id="path89"
         d="m 332.422,599.77 c 0,0 73.336,13.14 102.586,30.781 37.472,22.597 148.762,133.371 210.312,128.25 L 727.398,625.43 930.73,422.051 1013.34,388.25 c 0,0 142.64,-39.281 172.81,-49.918 41.71,-14.73 186.5,-130.062 186.5,-130.062 49.07,-31.899 -35.18,-36.758 -44.17,-36.809 l -58.9,-22.082 c 0,0 -71.9,-16.379 -85.89,-17.18 -66.34,-3.75 -119.6,11 -127.83,11.922 -67.59,7.508 -207.712,52.168 -226.407,70.641 -18.16,17.949 -78.769,14.617 -103.062,33.129 -21.813,16.621 -71.02,24.668 -88.344,47.847 -21.445,28.723 -82.531,44.114 -88.34,55.211 -3.301,6.321 -111.281,89.77 -114.102,95.711 -15.394,32.391 -103.183,153.11 -103.183,153.11"
         style="fill:#f1511b;fill-opacity:1;fill-rule:nonzero;stroke:none"
         transform="matrix(0.13333333,0,0,-0.13333333,0,295.93333)" />
      <path
         id="path90"
         d="m 1705.49,380.41 c -38.38,16.809 -135.71,30.57 -178.25,48.711 -13.71,5.848 -51.54,19.641 -51.54,19.641 0,0 -40.87,-34.742 -61.84,-36.641 -20.98,-1.922 -56.2,13.18 -95.34,9.527 -51.39,-4.796 -144.64,-46.519 -144.64,-46.519 0,0 41.72,-14.707 98.15,-68.707 28.72,-27.461 63.81,-53.981 103.07,-100.602 13.41,-15.929 161.34,55.828 161.34,55.828 l 169.05,118.762"
         style="fill:#f1511b;fill-opacity:1;fill-rule:nonzero;stroke:none"
         transform="matrix(0.13333333,0,0,-0.13333333,0,295.93333)" />
      <path
         id="path91"
         d="m 1006.13,595.109 95.48,1444.971 c 0,0 234.75,9.38 477.16,-123.9 254.76,-140.07 377.9,-397.53 377.9,-397.53 L 1138.64,531.32"
         style="fill:#444142;fill-opacity:1;fill-rule:nonzero;stroke:none"
         transform="matrix(0.13333333,0,0,-0.13333333,0,295.93333)" />
      <path
         id="path92"
         d="m 165.762,1097.9 c 0,-522.029 423.187,-945.22 945.218,-945.22 522.03,0 945.21,423.191 945.21,945.22 0,522.03 -423.18,945.21 -945.21,945.21 -522.031,0 -945.218,-423.18 -945.218,-945.21 z"
         style="fill:none;stroke:#231f20;stroke-width:21.5505;stroke-linecap:butt;stroke-linejoin:miter;stroke-miterlimit:10;stroke-dasharray:none;stroke-opacity:1"
         transform="matrix(0.13333333,0,0,-0.13333333,0,295.93333)" />
      <path
         id="path93"
         d="m 1588.46,1750.52 1.05,0.5 -1.1,-0.47 1.57,1.71 -1.73,-1.58 0.43,1.16 -0.47,-1.08 -0.12,3.54 -0.1,-3.57 -0.52,1.08 0.45,-1.13 -1.71,1.58 1.59,-1.71 -1.14,0.41 1.06,-0.44 -3.52,-0.13 3.54,-0.1 -1.08,-0.51 1.14,0.45 -1.59,-1.72 1.71,1.6 -0.4,-1.17 0.47,1.08 0.1,-3.5 0.12,3.53 0.51,-1.09 -0.43,1.15 1.69,-1.6 -1.61,1.72 1.16,-0.41 -1.05,0.47 3.52,0.1 -3.54,0.13"
         style="fill:#ffffff;fill-opacity:1;fill-rule:nonzero;stroke:none"
         transform="matrix(0.13333333,0,0,-0.13333333,0,295.93333)" />
      <path
         id="path94"
         d="m 1187.51,1429.98 7.58,3.45 -8.29,-2.95 11.42,12.26 -12.1,-11.35 3.14,8.05 -3.74,-7.67 -0.78,25.32 -0.65,-25.11 -3.45,7.58 2.96,-8.29 -12.28,11.42 11.37,-12.09 -8.05,3.09 7.65,-3.71 -25.33,-0.77 25.13,-0.65 -7.58,-3.45 8.29,2.96 -11.42,-12.28 12.1,11.34 -3.12,-8.02 3.73,7.66 0.77,-25.34 0.66,25.13 3.43,-7.59 -2.94,8.28 12.27,-11.4 -11.36,12.1 8.04,-3.14 -7.66,3.75 25.32,0.78 -25.11,0.64"
         style="fill:#ffffff;fill-opacity:1;fill-rule:nonzero;stroke:none"
         transform="matrix(0.13333333,0,0,-0.13333333,0,295.93333)" />
      <path
         id="path95"
         d="m 801.676,1792.76 1.074,-2.24 -0.91,2.36 3.547,-3.33 -3.336,3.58 2.426,-0.85 -2.243,0.99 7.36,0.21 -7.387,0.22 2.234,1.09 -2.355,-0.91 3.328,3.55 -3.601,-3.34 0.878,2.43 -1.015,-2.25 -0.196,7.36 -0.246,-7.38 -1.074,2.23 0.922,-2.39 -3.543,3.36 3.336,-3.6 -2.422,0.85 2.219,-1 -7.344,-0.18 7.391,-0.25 -2.239,-1.09 2.36,0.91 -3.332,-3.51 3.605,3.33 -0.879,-2.42 1,2.21 0.215,-7.33 0.227,7.39"
         style="fill:#ffffff;fill-opacity:1;fill-rule:nonzero;stroke:none"
         transform="matrix(0.13333333,0,0,-0.13333333,0,295.93333)" />
      <path
         id="path96"
         d="m 1970.92,978.859 1.44,-3.007 -1.22,3.179 4.77,-4.48 -4.47,4.801 3.25,-1.141 -3.01,1.348 9.89,0.281 -9.93,0.281 3.01,1.469 -3.18,-1.219 4.48,4.758 -4.85,-4.481 1.18,3.262 -1.36,-3 -0.27,9.891 -0.32,-9.942 -1.44,3.012 1.24,-3.223 -4.77,4.524 4.48,-4.844 -3.26,1.141 3,-1.348 -9.88,-0.242 9.94,-0.32 -3.02,-1.469 3.18,1.219 -4.48,-4.719 4.85,4.48 -1.19,-3.261 1.35,2.98 0.28,-9.867 0.31,9.937"
         style="fill:#ffffff;fill-opacity:1;fill-rule:nonzero;stroke:none"
         transform="matrix(0.13333333,0,0,-0.13333333,0,295.93333)" />
      <path
         id="path97"
         d="m 1557.76,668.5 1.45,-3.012 -1.22,3.184 4.76,-4.481 -4.48,4.797 3.26,-1.136 -3.01,1.347 9.9,0.281 -9.94,0.282 3.01,1.476 -3.17,-1.226 4.47,4.758 -4.84,-4.469 1.18,3.25 -1.37,-3.012 -0.26,9.902 -0.32,-9.941 -1.45,3.012 1.24,-3.211 -4.76,4.508 4.48,-4.84 -3.26,1.14 3,-1.347 -9.89,-0.242 9.94,-0.321 -3.01,-1.469 3.17,1.219 -4.47,-4.719 4.84,4.481 -1.18,-3.262 1.35,2.981 0.28,-9.871 0.3,9.941"
         style="fill:#ffffff;fill-opacity:1;fill-rule:nonzero;stroke:none"
         transform="matrix(0.13333333,0,0,-0.13333333,0,295.93333)" />
      <path
         id="path98"
         d="m 993.922,986.441 1.445,-3.011 -1.222,3.172 4.765,-4.481 -4.48,4.809 3.261,-1.141 -3.015,1.352 9.894,0.281 -9.933,0.277 3.015,1.473 -3.179,-1.223 4.476,4.762 -4.844,-4.481 1.184,3.258 -1.367,-3.019 -0.266,9.91 -0.328,-9.938 -1.445,3 1.246,-3.211 -4.766,4.52 4.477,-4.84 -3.254,1.141 2.992,-1.352 -9.879,-0.238 9.938,-0.32 -3.012,-1.481 3.176,1.219 -4.477,-4.707 4.844,4.469 -1.18,-3.25 1.34,2.968 0.289,-9.859 0.305,9.941"
         style="fill:#ffffff;fill-opacity:1;fill-rule:nonzero;stroke:none"
         transform="matrix(0.13333333,0,0,-0.13333333,0,295.93333)" />
      <path
         id="path99"
         d="m 1383.65,1056.28 -0.62,2.27 0.43,-2.46 -2.92,3.74 2.65,-3.88 -2.1,1.19 1.98,-1.31 -7.09,0.85 6.95,-1.28 -2.23,-0.62 2.4,0.46 -3.69,-2.92 3.84,2.65 -1.18,-2.1 1.35,1.94 -0.88,-7.05 1.28,6.95 0.62,-2.23 -0.46,2.39 2.95,-3.7 -2.68,3.87 2.09,-1.21 -1.97,1.34 7.09,-0.85 -6.96,1.24 2.24,0.66 -2.4,-0.46 3.71,2.89 -3.87,-2.63 1.21,2.1 -1.35,-1.96 0.86,7.08 -1.25,-6.96"
         style="fill:#ffffff;fill-opacity:1;fill-rule:nonzero;stroke:none"
         transform="matrix(0.13333333,0,0,-0.13333333,0,295.93333)" />
      <path
         id="path100"
         d="m 1801.25,626.578 -2.85,5.871 2.38,-6.148 -9.31,8.711 8.78,-9.41 -6.35,2.277 5.83,-2.688 -19.29,-0.519 19.42,-0.582 -5.86,-2.84 6.18,2.398 -8.74,-9.339 9.45,8.8 -2.29,-6.339 2.65,5.82 0.51,-19.309 0.59,19.469 2.85,-5.91 -2.38,6.191 9.31,-8.75 -8.78,9.449 6.36,-2.242 -5.85,2.602 19.3,0.539 -19.42,0.562 5.86,2.848 -6.17,-2.398 8.72,9.328 -9.44,-8.75 2.27,6.351 -2.63,-5.82 -0.52,19.301 -0.58,-19.473"
         style="fill:#ffffff;fill-opacity:1;fill-rule:nonzero;stroke:none"
         transform="matrix(0.13333333,0,0,-0.13333333,0,295.93333)" />
      <path
         id="path101"
         d="m 337.539,1454.82 -1.019,2.07 0.832,-2.2 -3.321,3.1 3.137,-3.34 -2.262,0.77 2.063,-0.89 -6.844,-0.21 6.926,-0.2 -2.121,-1.02 2.199,0.86 -3.098,-3.3 3.36,3.09 -0.809,-2.23 0.957,2.07 0.16,-6.88 0.207,6.92 1.016,-2.07 -0.836,2.19 3.32,-3.13 -3.136,3.38 2.261,-0.82 -2.054,0.94 6.839,0.2 -6.921,0.21 2.117,1.01 -2.203,-0.89 3.097,3.34 -3.359,-3.14 0.789,2.28 -0.93,-2.07 -0.168,6.84 -0.199,-6.88"
         style="fill:#ffffff;fill-opacity:1;fill-rule:nonzero;stroke:none"
         transform="matrix(0.13333333,0,0,-0.13333333,0,295.93333)" />
      <path
         id="path102"
         d="m 1361.15,1913.74 1.12,-4.13 -0.79,4.26 4.93,-6.82 -4.47,7.22 3.81,-2.24 -3.42,2.43 12.57,-2.1 -12.54,2.82 4.17,1.12 -4.26,-0.79 6.79,4.95 -7.21,-4.5 2.25,3.82 -2.42,-3.42 2.1,12.53 -2.85,-12.5 -1.12,4.17 0.79,-4.33 -4.92,6.86 4.5,-7.25 -3.88,2.29 3.47,-2.42 -12.58,2.07 12.52,-2.83 -4.13,-1.08 4.29,0.72 -6.78,-4.86 7.14,4.47 -2.22,-3.81 2.42,3.41 -2.09,-12.59 2.81,12.53"
         style="fill:#ffffff;fill-opacity:1;fill-rule:nonzero;stroke:none"
         transform="matrix(0.13333333,0,0,-0.13333333,0,295.93333)" />
      <path
         id="path103"
         d="m 1093.91,1970.18 0.39,-1.48 -0.26,1.54 1.73,-2.42 -1.6,2.56 1.38,-0.79 -1.25,0.85 4.49,-0.75 -4.43,1.02 1.45,0.39 -1.51,-0.3 2.43,1.74 -2.59,-1.58 0.82,1.39 -0.86,-1.25 0.72,4.46 -0.98,-4.43 -0.39,1.48 0.26,-1.55 -1.78,2.43 1.65,-2.53 -1.38,0.8 1.22,-0.89 -4.43,0.76 4.39,-1.02 -1.45,-0.37 1.52,0.27 -2.43,-1.78 2.56,1.61 -0.79,-1.34 0.85,1.18 -0.72,-4.46 0.99,4.46"
         style="fill:#ffffff;fill-opacity:1;fill-rule:nonzero;stroke:none"
         transform="matrix(0.13333333,0,0,-0.13333333,0,295.93333)" />
      <path
         id="path104"
         d="m 584.762,1822.07 0.39,-1.48 -0.265,1.54 1.738,-2.43 -1.605,2.56 1.375,-0.78 -1.243,0.85 4.493,-0.76 -4.43,1.02 1.445,0.39 -1.508,-0.29 2.426,1.74 -2.594,-1.57 0.821,1.37 -0.856,-1.25 0.731,4.47 -0.989,-4.43 -0.394,1.48 0.262,-1.55 -1.77,2.43 1.641,-2.52 -1.383,0.78 1.219,-0.88 -4.426,0.75 4.394,-1.02 -1.445,-0.36 1.508,0.26 -2.434,-1.76 2.567,1.6 -0.793,-1.34 0.855,1.18 -0.722,-4.46 0.992,4.46"
         style="fill:#ffffff;fill-opacity:1;fill-rule:nonzero;stroke:none"
         transform="matrix(0.13333333,0,0,-0.13333333,0,295.93333)" />
      <path
         id="path105"
         d="m 302.703,869.5 -0.5,4.77 0.117,-5.051 -4.617,8.472 3.973,-8.691 -3.805,3.172 3.484,-3.422 -13.929,4.191 13.57,-4.941 -4.766,-0.488 5.059,0.09 -8.476,-4.59 8.687,3.957 -3.176,-3.821 3.434,3.512 -4.195,-13.961 4.941,13.59 0.484,-4.758 -0.109,5.059 4.617,-8.481 -3.984,8.692 3.816,-3.18 -3.484,3.418 13.929,-4.168 -13.57,4.91 4.766,0.5 -5.059,-0.101 8.477,4.621 -8.676,-3.981 3.172,3.809 -3.43,-3.481 4.18,13.922 -4.93,-13.57"
         style="fill:#ffffff;fill-opacity:1;fill-rule:nonzero;stroke:none"
         transform="matrix(0.13333333,0,0,-0.13333333,0,295.93333)" />
      <path
         id="path106"
         d="m 458.461,746.301 -0.879,8.301 0.207,-8.801 -8.023,14.738 6.902,-15.098 -6.621,5.5 6.07,-5.953 -24.238,7.293 23.609,-8.601 -8.293,-0.852 8.801,0.172 -14.746,-7.988 15.113,6.879 -5.519,-6.641 5.969,6.109 -7.297,-24.269 8.597,23.621 0.836,-8.262 -0.183,8.789 8.027,-14.75 -6.93,15.121 6.641,-5.55 -6.07,5.953 24.238,-7.25 -23.602,8.558 8.285,0.86 -8.8,-0.168 14.746,8.027 -15.09,-6.93 5.519,6.641 -5.968,-6.07 7.269,24.242 -8.57,-23.621"
         style="fill:#ffffff;fill-opacity:1;fill-rule:nonzero;stroke:none"
         transform="matrix(0.13333333,0,0,-0.13333333,0,295.93333)" />
      <path
         id="path107"
         d="m 1207.88,1019.42 -2.85,5.86 2.38,-6.15 -9.31,8.72 8.78,-9.41 -6.35,2.28 5.83,-2.69 -19.29,-0.53 19.42,-0.57 -5.87,-2.85 6.19,2.41 -8.74,-9.33 9.44,8.79 -2.28,-6.35 2.65,5.83 0.51,-19.309 0.58,19.469 2.87,-5.9 -2.4,6.19 9.32,-8.76 -8.78,9.45 6.35,-2.24 -5.84,2.6 19.3,0.53 -19.43,0.57 5.87,2.86 -6.17,-2.41 8.72,9.33 -9.43,-8.76 2.26,6.35 -2.64,-5.82 -0.52,19.31 -0.57,-19.47"
         style="fill:#ffffff;fill-opacity:1;fill-rule:nonzero;stroke:none"
         transform="matrix(0.13333333,0,0,-0.13333333,0,295.93333)" />
      <path
         id="path108"
         d="m 1901.01,1298.82 -1.02,2.07 0.83,-2.19 -3.32,3.09 3.14,-3.34 -2.26,0.78 2.06,-0.9 -6.85,-0.21 6.93,-0.2 -2.12,-1.02 2.2,0.86 -3.1,-3.3 3.37,3.09 -0.82,-2.23 0.96,2.07 0.16,-6.88 0.21,6.92 1.01,-2.07 -0.83,2.19 3.31,-3.13 -3.13,3.38 2.26,-0.82 -2.06,0.94 6.85,0.2 -6.93,0.21 2.12,1.02 -2.2,-0.9 3.09,3.34 -3.36,-3.13 0.8,2.27 -0.93,-2.07 -0.17,6.84 -0.2,-6.88"
         style="fill:#ffffff;fill-opacity:1;fill-rule:nonzero;stroke:none"
         transform="matrix(0.13333333,0,0,-0.13333333,0,295.93333)" />
      <path
         id="path109"
         d="m 1804.08,905.699 1.11,-4.129 -0.78,4.27 4.92,-6.828 -4.47,7.218 3.81,-2.23 -3.41,2.422 12.56,-2.094 -12.53,2.82 4.17,1.122 -4.27,-0.79 6.79,4.95 -7.21,-4.489 2.26,3.809 -2.42,-3.418 2.09,12.527 -2.84,-12.5 -1.13,4.172 0.79,-4.332 -4.92,6.86 4.5,-7.25 -3.87,2.293 3.46,-2.43 -12.58,2.066 12.53,-2.816 -4.13,-1.082 4.29,0.719 -6.78,-4.848 7.14,4.449 -2.22,-3.801 2.42,3.411 -2.1,-12.598 2.82,12.527"
         style="fill:#ffffff;fill-opacity:1;fill-rule:nonzero;stroke:none"
         transform="matrix(0.13333333,0,0,-0.13333333,0,295.93333)" />
      <path
         id="path110"
         d="m 1460.48,828.18 0.29,-1.09 -0.19,1.14 1.28,-1.808 -1.19,1.91 1.03,-0.594 -0.93,0.641 3.34,-0.559 -3.29,0.75 1.07,0.289 -1.12,-0.211 1.81,1.293 -1.93,-1.171 0.61,1.019 -0.64,-0.93 0.54,3.332 -0.73,-3.3 -0.29,1.097 0.19,-1.148 -1.32,1.801 1.22,-1.871 -1.02,0.582 0.91,-0.653 -3.29,0.563 3.26,-0.762 -1.08,-0.27 1.13,0.2 -1.81,-1.321 1.9,1.2 -0.58,-1.008 0.63,0.879 -0.53,-3.309 0.73,3.309"
         style="fill:#ffffff;fill-opacity:1;fill-rule:nonzero;stroke:none"
         transform="matrix(0.13333333,0,0,-0.13333333,0,295.93333)" />
      <path
         id="path111"
         d="m 1085.15,923.84 0.39,-1.488 -0.27,1.539 1.74,-2.422 -1.6,2.562 1.37,-0.793 -1.24,0.864 4.49,-0.762 -4.43,1.012 1.45,0.398 -1.51,-0.289 2.42,1.73 -2.58,-1.57 0.81,1.367 -0.85,-1.238 0.72,4.461 -0.98,-4.43 -0.4,1.481 0.27,-1.551 -1.78,2.437 1.65,-2.527 -1.38,0.789 1.21,-0.89 -4.43,0.75 4.4,-1 -1.45,-0.379 1.51,0.269 -2.42,-1.769 2.56,1.597 -0.79,-1.34 0.85,1.192 -0.73,-4.469 1,4.469"
         style="fill:#ffffff;fill-opacity:1;fill-rule:nonzero;stroke:none"
         transform="matrix(0.13333333,0,0,-0.13333333,0,295.93333)" />
      <path
         id="path112"
         d="m 1193.27,1791.81 0.39,-1.47 -0.26,1.54 1.74,-2.43 -1.61,2.56 1.38,-0.79 -1.25,0.86 4.49,-0.76 -4.42,1.02 1.45,0.39 -1.52,-0.29 2.43,1.73 -2.59,-1.57 0.82,1.38 -0.85,-1.25 0.72,4.46 -0.98,-4.42 -0.4,1.47 0.27,-1.54 -1.78,2.43 1.64,-2.53 -1.38,0.79 1.22,-0.89 -4.43,0.75 4.39,-1.01 -1.44,-0.36 1.51,0.26 -2.43,-1.77 2.56,1.61 -0.78,-1.35 0.85,1.18 -0.73,-4.46 0.99,4.46"
         style="fill:#ffffff;fill-opacity:1;fill-rule:nonzero;stroke:none"
         transform="matrix(0.13333333,0,0,-0.13333333,0,295.93333)" />
      <path
         id="path113"
         d="m 1420.25,603.121 -0.69,6.789 0.15,-7.211 -6.6,12.11 5.67,-12.411 -5.43,4.543 4.99,-4.91 -19.92,6 19.41,-7.062 -6.83,-0.688 7.25,0.149 -12.13,-6.629 12.4,5.687 -4.52,-5.449 4.89,4.992 -6,-19.922 7.09,19.411 0.69,-6.809 -0.14,7.23 6.6,-12.113 -5.71,12.422 5.46,-4.551 -5,4.922 19.94,-6.012 -19.42,7.063 6.82,0.687 -7.24,-0.14 12.13,6.633 -12.42,-5.723 4.53,5.48 -4.89,-5.027 6,19.957 -7.08,-19.418"
         style="fill:#ffffff;fill-opacity:1;fill-rule:nonzero;stroke:none"
         transform="matrix(0.13333333,0,0,-0.13333333,0,295.93333)" />
      <path
         id="path114"
         d="m 1506.89,1648.17 1.19,0.84 -1.33,-0.78 1.53,2.48 -1.67,-2.34 0.24,1.49 -0.37,-1.45 -0.99,4.3 0.73,-4.32 -0.84,1.19 0.78,-1.31 -2.49,1.51 2.36,-1.67 -1.48,0.26 1.45,-0.39 -4.32,-0.98 4.32,0.74 -1.19,-0.85 1.35,0.79 -1.55,-2.5 1.69,2.36 -0.27,-1.47 0.38,1.43 0.99,-4.32 -0.73,4.34 0.83,-1.18 -0.77,1.32 2.48,-1.55 -2.36,1.71 1.51,-0.28 -1.47,0.4 4.32,0.99 -4.32,-0.76"
         style="fill:#ffffff;fill-opacity:1;fill-rule:nonzero;stroke:none"
         transform="matrix(0.13333333,0,0,-0.13333333,0,295.93333)" />
      <path
         id="path115"
         d="m 1243.32,832.57 0.29,-1.101 -0.19,1.14 1.29,-1.8 -1.19,1.902 1.02,-0.582 -0.93,0.633 3.34,-0.563 -3.29,0.762 1.08,0.289 -1.13,-0.219 1.81,1.289 -1.93,-1.172 0.61,1.032 -0.63,-0.93 0.53,3.32 -0.73,-3.289 -0.29,1.09 0.19,-1.141 -1.32,1.801 1.23,-1.883 -1.03,0.59 0.91,-0.66 -3.3,0.563 3.27,-0.75 -1.08,-0.282 1.13,0.2 -1.81,-1.321 1.91,1.203 -0.59,-1 0.63,0.879 -0.53,-3.308 0.73,3.308"
         style="fill:#ffffff;fill-opacity:1;fill-rule:nonzero;stroke:none"
         transform="matrix(0.13333333,0,0,-0.13333333,0,295.93333)" />
      <path
         id="path116"
         d="m 1735.66,579.762 0.3,-1.102 -0.2,1.149 1.29,-1.797 -1.19,1.898 1.02,-0.59 -0.92,0.641 3.34,-0.57 -3.29,0.757 1.07,0.301 -1.12,-0.23 1.8,1.301 -1.92,-1.168 0.6,1.019 -0.63,-0.922 0.54,3.313 -0.73,-3.293 -0.3,1.101 0.2,-1.148 -1.32,1.797 1.22,-1.867 -1.03,0.589 0.91,-0.671 -3.29,0.57 3.26,-0.758 -1.07,-0.273 1.12,0.203 -1.8,-1.321 1.9,1.188 -0.59,-1 0.64,0.883 -0.54,-3.321 0.73,3.321"
         style="fill:#ffffff;fill-opacity:1;fill-rule:nonzero;stroke:none"
         transform="matrix(0.13333333,0,0,-0.13333333,0,295.93333)" />
      <path
         id="path117"
         d="m 1308.01,1401.1 0.39,-1.48 -0.27,1.54 1.74,-2.43 -1.6,2.56 1.38,-0.78 -1.25,0.85 4.5,-0.76 -4.43,1.02 1.44,0.4 -1.51,-0.3 2.43,1.73 -2.59,-1.57 0.82,1.38 -0.86,-1.24 0.73,4.45 -0.98,-4.42 -0.4,1.47 0.26,-1.54 -1.78,2.43 1.66,-2.53 -1.39,0.79 1.22,-0.88 -4.43,0.75 4.39,-1.02 -1.45,-0.36 1.52,0.27 -2.43,-1.78 2.57,1.61 -0.8,-1.35 0.85,1.19 -0.72,-4.47 0.99,4.47"
         style="fill:#ffffff;fill-opacity:1;fill-rule:nonzero;stroke:none"
         transform="matrix(0.13333333,0,0,-0.13333333,0,295.93333)" />
      <path
         id="path118"
         d="m 1172.29,774.699 0.29,-1.09 -0.2,1.141 1.3,-1.801 -1.19,1.903 1.02,-0.582 -0.93,0.628 3.35,-0.558 -3.3,0.762 1.07,0.289 -1.12,-0.219 1.8,1.289 -1.92,-1.172 0.61,1.031 -0.64,-0.929 0.55,3.308 -0.73,-3.289 -0.31,1.102 0.2,-1.153 -1.32,1.813 1.23,-1.883 -1.03,0.59 0.9,-0.668 -3.29,0.57 3.26,-0.75 -1.07,-0.281 1.12,0.199 -1.8,-1.32 1.91,1.199 -0.6,-0.996 0.65,0.867 -0.55,-3.32 0.74,3.32"
         style="fill:#ffffff;fill-opacity:1;fill-rule:nonzero;stroke:none"
         transform="matrix(0.13333333,0,0,-0.13333333,0,295.93333)" />
      <path
         id="path119"
         d="m 977.105,1553.5 -1.472,3.02 1.242,-3.18 -4.766,4.48 4.5,-4.84 -3.254,1.18 2.973,-1.34 -9.859,-0.29 9.937,-0.29 -3.011,-1.46 3.156,1.22 -4.457,-4.77 4.844,4.49 -1.18,-3.22 1.347,2.97 0.282,-9.9 0.285,9.94 1.469,-3.01 -1.227,3.18 4.746,-4.48 -4.5,4.84 3.262,-1.15 -2.977,1.35 9.879,0.25 -9.941,0.33 2.992,1.46 -3.152,-1.22 4.476,4.73 -4.824,-4.49 1.145,3.26 -1.348,-2.97 -0.266,9.86 -0.301,-9.95"
         style="fill:#ffffff;fill-opacity:1;fill-rule:nonzero;stroke:none"
         transform="matrix(0.13333333,0,0,-0.13333333,0,295.93333)" />
      <path
         id="path120"
         d="m 1024.36,1755.83 2.99,1.47 -3.18,-1.22 4.49,4.76 -4.83,-4.5 1.14,3.26 -1.34,-2.99 -0.27,9.85 -0.3,-9.93 -1.47,3.01 1.24,-3.14 -4.76,4.44 4.5,-4.82 -3.26,1.16 2.97,-1.35 -9.86,-0.28 9.94,-0.29 -3.01,-1.46 3.17,1.24 -4.47,-4.77 4.84,4.5 -1.18,-3.25 1.35,2.97 0.28,-9.86 0.29,9.94 1.46,-3.02 -1.22,3.16 4.76,-4.46 -4.49,4.83 3.25,-1.16 -2.99,1.34 9.9,0.29 -9.94,0.28"
         style="fill:#ffffff;fill-opacity:1;fill-rule:nonzero;stroke:none"
         transform="matrix(0.13333333,0,0,-0.13333333,0,295.93333)" />
      <path
         id="path121"
         d="m 1023.71,1755.67 1.06,0.51 -1.1,-0.47 1.56,1.71 -1.72,-1.59 0.42,1.17 -0.47,-1.08 -0.12,3.54 -0.1,-3.57 -0.51,1.09 0.45,-1.15 -1.71,1.59 1.59,-1.71 -1.15,0.41 1.06,-0.45 -3.52,-0.12 3.54,-0.1 -1.08,-0.51 1.15,0.44 -1.59,-1.7 1.71,1.58 -0.41,-1.16 0.47,1.08 0.1,-3.5 0.12,3.52 0.51,-1.07 -0.43,1.13 1.69,-1.58 -1.6,1.7 1.15,-0.4 -1.05,0.47 3.52,0.1 -3.54,0.12"
         style="fill:#ffffff;fill-opacity:1;fill-rule:nonzero;stroke:none"
         transform="matrix(0.13333333,0,0,-0.13333333,0,295.93333)" />
      <path
         id="path122"
         d="m 383.637,875.238 1.054,0.512 -1.097,-0.469 1.566,1.707 -1.726,-1.59 0.421,1.161 -0.468,-1.071 -0.121,3.543 -0.098,-3.57 -0.512,1.078 0.449,-1.141 -1.71,1.59 1.589,-1.707 -1.144,0.399 1.058,-0.442 -3.519,-0.129 3.539,-0.089 -1.078,-0.508 1.144,0.437 -1.589,-1.711 1.71,1.59 -0.406,-1.156 0.469,1.066 0.098,-3.488 0.121,3.52 0.508,-1.079 -0.422,1.137 1.687,-1.59 -1.605,1.711 1.16,-0.398 -1.059,0.469 3.52,0.089 -3.539,0.129"
         style="fill:#ffffff;fill-opacity:1;fill-rule:nonzero;stroke:none"
         transform="matrix(0.13333333,0,0,-0.13333333,0,295.93333)" />
      <path
         id="path123"
         d="m 703.359,989.961 -0.617,2.258 0.426,-2.457 -2.918,3.738 2.656,-3.871 -2.101,1.18 1.972,-1.309 -7.086,0.852 6.95,-1.282 -2.227,-0.621 2.395,0.449 -3.68,-2.918 3.84,2.661 -1.184,-2.102 1.348,1.941 -0.883,-7.05 1.281,6.949 0.617,-2.231 -0.453,2.391 2.95,-3.699 -2.684,3.871 2.094,-1.211 -1.969,1.352 7.086,-0.864 -6.957,1.25 2.234,0.653 -2.398,-0.461 3.711,2.89 -3.875,-2.621 1.218,2.09 -1.347,-1.961 0.855,7.082 -1.254,-6.949"
         style="fill:#ffffff;fill-opacity:1;fill-rule:nonzero;stroke:none"
         transform="matrix(0.13333333,0,0,-0.13333333,0,295.93333)" />
      <path
         id="path124"
         d="m 265.531,1238.19 -2.851,5.86 2.383,-6.14 -9.305,8.71 8.777,-9.41 -6.355,2.29 5.824,-2.7 -19.289,-0.53 19.43,-0.56 -5.864,-2.85 6.172,2.4 -8.742,-9.33 9.453,8.8 -2.277,-6.36 2.644,5.83 0.508,-19.3 0.59,19.46 2.851,-5.91 -2.382,6.19 9.308,-8.75 -8.781,9.45 6.359,-2.24 -5.843,2.61 19.304,0.52 -19.429,0.57 5.867,2.86 -6.172,-2.41 8.715,9.33 -9.43,-8.76 2.262,6.36 -2.629,-5.83 -0.527,19.31 -0.571,-19.47"
         style="fill:#ffffff;fill-opacity:1;fill-rule:nonzero;stroke:none"
         transform="matrix(0.13333333,0,0,-0.13333333,0,295.93333)" />
      <path
         id="path125"
         d="m 596.469,1494.87 c -20.477,14.97 -46.071,33.47 -81.914,33.47 -28.746,0 -48.442,-15.36 -48.442,-32.68 0,-16.55 12.996,-25.61 55.141,-35.05 42.144,-9.06 91.359,-24.03 91.359,-75.62 0,-52.77 -48.437,-89 -108.683,-89 -44.907,0 -76.407,19.68 -91.375,29.15 v 56.7 c 20.086,-16.14 52.765,-40.96 91.761,-40.96 29.938,0 53.559,18.91 53.559,40.17 0,21.67 -19.684,31.5 -59.082,39.79 -28.738,6.68 -50.41,13.77 -67.734,29.53 -9.45,9.85 -18.504,24.41 -18.504,45.68 0,46.86 42.933,77.19 100.82,77.19 29.535,0 57.891,-8.27 83.094,-23.24 v -55.13"
         style="fill:#ffffff;fill-opacity:1;fill-rule:nonzero;stroke:none"
         transform="matrix(0.13333333,0,0,-0.13333333,0,295.93333)" />
      <path
         id="path126"
         d="m 700.063,1568.91 v -268.59 h -51.2 v 268.59 h 51.2"
         style="fill:#ffffff;fill-opacity:1;fill-rule:nonzero;stroke:none"
         transform="matrix(0.13333333,0,0,-0.13333333,0,295.93333)" />
      <path
         id="path127"
         d="m 1020.24,1568.91 v -268.59 h -51.201 v 189.03 h -0.777 l -82.317,-140.59 -82.703,140.59 h -0.793 V 1300.32 H 751.25 v 268.59 h 57.109 l 77.586,-131.54 77.977,131.54 h 56.318"
         style="fill:#ffffff;fill-opacity:1;fill-rule:nonzero;stroke:none"
         transform="matrix(0.13333333,0,0,-0.13333333,0,295.93333)" />
      <path
         id="path128"
         d="m 1110.06,1435.01 c 0,-49.22 29.15,-95.7 76.79,-95.7 45.3,0 77.97,42.92 77.97,95.3 0,56.32 -35.44,95.3 -75.99,95.3 -50.82,0 -78.77,-46.86 -78.77,-94.9 z m 208.33,-0.4 c 0,-80.73 -60.65,-138.62 -132.33,-138.62 -74.03,0 -129.56,59.47 -129.56,137.83 0,82.32 60.25,139.42 128.38,139.42 83.5,0 133.51,-66.16 133.51,-138.63"
         style="fill:#ffffff;fill-opacity:1;fill-rule:nonzero;stroke:none"
         transform="matrix(0.13333333,0,0,-0.13333333,0,295.93333)" />
      <path
         id="path129"
         d="m 1405.84,1568.91 116.17,-183.12 h 0.79 v 183.12 h 51.2 v -268.59 h -51.2 l -116.17,185.1 h -0.79 v -185.1 h -51.2 v 268.59 h 51.2"
         style="fill:#ffffff;fill-opacity:1;fill-rule:nonzero;stroke:none"
         transform="matrix(0.13333333,0,0,-0.13333333,0,295.93333)" />
      <path
         id="path130"
         d="m 1794.95,1494.87 c -20.48,14.97 -46.07,33.47 -81.91,33.47 -28.74,0 -48.45,-15.36 -48.45,-32.68 0,-16.55 13,-25.61 55.15,-35.05 42.13,-9.06 91.35,-24.03 91.35,-75.62 0,-52.77 -48.43,-89 -108.68,-89 -44.9,0 -76.4,19.68 -91.37,29.15 v 56.7 c 20.09,-16.14 52.76,-40.96 91.75,-40.96 29.94,0 53.57,18.91 53.57,40.17 0,21.67 -19.69,31.5 -59.09,39.79 -28.74,6.68 -50.41,13.77 -67.72,29.53 -9.45,9.85 -18.51,24.41 -18.51,45.68 0,46.86 42.92,77.19 100.82,77.19 29.53,0 57.89,-8.27 83.09,-23.24 v -55.13"
         style="fill:#ffffff;fill-opacity:1;fill-rule:nonzero;stroke:none"
         transform="matrix(0.13333333,0,0,-0.13333333,0,295.93333)" />
      <path
         id="path131"
         d="m 451.727,1162.09 c 0,-21.71 12.859,-42.2 33.863,-42.2 19.973,0 34.375,18.92 34.375,42.03 0,24.83 -15.625,42.03 -33.516,42.03 -22.398,0 -34.722,-20.68 -34.722,-41.86 z m 91.867,-0.17 c 0,-35.6 -26.75,-61.14 -58.352,-61.14 -32.648,0 -57.137,26.23 -57.137,60.78 0,36.3 26.571,61.48 56.622,61.48 36.804,0 58.867,-29.17 58.867,-61.12"
         style="fill:#ffffff;fill-opacity:1;fill-rule:nonzero;stroke:none"
         transform="matrix(0.13333333,0,0,-0.13333333,0,295.93333)" />
      <path
         id="path132"
         d="m 600.992,1155.49 v -33 h 21.883 c 7.805,0 26.914,1.4 26.914,17.2 0,10.76 -9.891,15.8 -21.004,15.8 z m 0,46.2 v -27.62 h 19.621 c 12.325,0 22.059,4.34 22.059,14.94 0,10.77 -10.426,12.68 -16.336,12.68 z m 33.516,19.78 c 19.105,0 31.254,-11.8 31.254,-27.43 0,-8.34 -3.461,-15.98 -9.547,-21.18 -3.992,-3.65 -7.461,-4.87 -12.164,-6.26 v -0.34 c 5.566,-0.36 11.824,-0.88 18.418,-5.56 7.121,-4.86 10.945,-13.2 10.945,-22.41 0,-22.05 -20.504,-35.6 -47.766,-35.6 h -47.23 v 118.78 h 56.09"
         style="fill:#ffffff;fill-opacity:1;fill-rule:nonzero;stroke:none"
         transform="matrix(0.13333333,0,0,-0.13333333,0,295.93333)" />
      <path
         id="path133"
         d="m 782.891,1188.49 c -9.028,6.6 -20.317,14.75 -36.133,14.75 -12.668,0 -21.352,-6.77 -21.352,-14.4 0,-7.31 5.723,-11.29 24.309,-15.46 18.582,-4 40.289,-10.6 40.289,-33.34 0,-23.28 -21.363,-39.26 -47.934,-39.26 -19.8,0 -33.691,8.69 -40.289,12.86 v 25 c 8.86,-7.12 23.278,-18.06 40.461,-18.06 13.196,0 23.621,8.34 23.621,17.71 0,9.55 -8.679,13.9 -26.05,17.55 -12.668,2.95 -22.231,6.08 -29.868,13.02 -4.168,4.35 -8.164,10.77 -8.164,20.15 0,20.66 18.938,34.03 44.457,34.03 13.028,0 25.539,-3.64 36.653,-10.23 v -24.32"
         style="fill:#ffffff;fill-opacity:1;fill-rule:nonzero;stroke:none"
         transform="matrix(0.13333333,0,0,-0.13333333,0,295.93333)" />
      <path
         id="path134"
         d="m 905.047,1221.13 v -19.8 h -57.484 v -27.78 h 54.707 v -18.4 h -54.707 v -32.66 h 57.484 v -19.8 h -80.059 v 118.44 h 80.059"
         style="fill:#ffffff;fill-opacity:1;fill-rule:nonzero;stroke:none"
         transform="matrix(0.13333333,0,0,-0.13333333,0,295.93333)" />
      <path
         id="path135"
         d="m 966.07,1201.33 v -30.04 h 18.231 c 16.679,0 24.659,7.64 24.659,16.32 0,7.12 -5.72,13.72 -17.011,13.72 z m 29.172,19.8 c 23.278,0 36.478,-11.81 36.478,-29.17 0,-18.75 -13.03,-28.14 -32.482,-31.95 v -0.35 c 8.682,-2.62 17.372,-5.39 23.972,-23.28 l 12.49,-33.69 h -24.66 l -8.32,26.23 c -4.872,15.46 -11.474,23.61 -27.97,23.61 h -8.68 v -49.84 h -22.574 v 118.44 h 51.746"
         style="fill:#ffffff;fill-opacity:1;fill-rule:nonzero;stroke:none"
         transform="matrix(0.13333333,0,0,-0.13333333,0,295.93333)" />
      <path
         id="path136"
         d="m 1165.99,1221.13 -43.59,-118.44 h -22.22 l -42.72,118.44 h 24.83 l 29,-89.95 h 0.34 l 29,89.95 h 25.36"
         style="fill:#ffffff;fill-opacity:1;fill-rule:nonzero;stroke:none"
         transform="matrix(0.13333333,0,0,-0.13333333,0,295.93333)" />
      <path
         id="path137"
         d="m 1230.01,1192.64 h -0.34 l -12.85,-39.58 h 26.03 z m 10.95,28.49 43.23,-118.44 h -25.35 l -10.26,31.78 h -37.68 l -10.6,-31.78 h -24.82 l 43.42,118.44 h 22.06"
         style="fill:#ffffff;fill-opacity:1;fill-rule:nonzero;stroke:none"
         transform="matrix(0.13333333,0,0,-0.13333333,0,295.93333)" />
      <path
         id="path138"
         d="m 1392.62,1221.13 v -19.8 h -34.21 v -98.64 h -22.59 v 98.64 h -33.34 v 19.8 h 90.14"
         style="fill:#ffffff;fill-opacity:1;fill-rule:nonzero;stroke:none"
         transform="matrix(0.13333333,0,0,-0.13333333,0,295.93333)" />
      <path
         id="path139"
         d="m 1437.7,1162.09 c 0,-21.71 12.86,-42.2 33.86,-42.2 19.97,0 34.39,18.92 34.39,42.03 0,24.83 -15.64,42.03 -33.52,42.03 -22.4,0 -34.73,-20.68 -34.73,-41.86 z m 91.87,-0.17 c 0,-35.6 -26.75,-61.14 -58.35,-61.14 -32.66,0 -57.14,26.23 -57.14,60.78 0,36.3 26.57,61.48 56.62,61.48 36.81,0 58.87,-29.17 58.87,-61.12"
         style="fill:#ffffff;fill-opacity:1;fill-rule:nonzero;stroke:none"
         transform="matrix(0.13333333,0,0,-0.13333333,0,295.93333)" />
      <path
         id="path140"
         d="m 1586.96,1201.33 v -30.04 h 18.23 c 16.68,0 24.66,7.64 24.66,16.32 0,7.12 -5.72,13.72 -17,13.72 z m 29.18,19.8 c 23.27,0 36.48,-11.81 36.48,-29.17 0,-18.75 -13.03,-28.14 -32.48,-31.95 v -0.35 c 8.68,-2.62 17.37,-5.39 23.96,-23.28 l 12.5,-33.69 h -24.66 l -8.33,26.23 c -4.87,15.46 -11.47,23.61 -27.96,23.61 h -8.69 v -49.84 h -22.57 v 118.44 h 51.75"
         style="fill:#ffffff;fill-opacity:1;fill-rule:nonzero;stroke:none"
         transform="matrix(0.13333333,0,0,-0.13333333,0,295.93333)" />
      <path
         id="path141"
         d="m 1704.27,1221.13 24.66,-43.75 24.65,43.75 h 28.14 l -41.52,-64.43 v -54.01 h -22.56 v 54.01 l -40.98,64.43 h 27.61"
         style="fill:#ffffff;fill-opacity:1;fill-rule:nonzero;stroke:none"
         transform="matrix(0.13333333,0,0,-0.13333333,0,295.93333)" />
      <path
         id="path142"
         d="M 952.422,429.48 1038,440.211 c 0,0 -4.6,15.648 -27.91,15.039 -13.5,-0.359 -30.676,-2.461 -30.676,-2.461 L 952.422,429.48"
         style="fill:#ffffff;fill-opacity:1;fill-rule:nonzero;stroke:none"
         transform="matrix(0.13333333,0,0,-0.13333333,0,295.93333)" />
      <path
         id="path143"
         d="m 1013.77,335.012 26.99,6.75 -24.85,-1.852 -69.625,-7.351"
         style="fill:#231f20;fill-opacity:1;fill-rule:nonzero;stroke:none"
         transform="matrix(0.13333333,0,0,-0.13333333,0,295.93333)" />
      <path
         id="path144"
         d="M 1090.45,303.102 1173.01,478.32 937.664,580.602 855.105,405.391 1090.45,303.102"
         style="fill:#231f20;fill-opacity:1;fill-rule:nonzero;stroke:#ffffff;stroke-width:24.3713;stroke-linecap:butt;stroke-linejoin:miter;stroke-miterlimit:10;stroke-dasharray:none;stroke-opacity:1"
         transform="matrix(0.13333333,0,0,-0.13333333,0,295.93333)" />
      <path
         id="path145"
         d="M 1143.16,533.68 996.934,598.672"
         style="fill:none;stroke:#ffffff;stroke-width:24.3713;stroke-linecap:round;stroke-linejoin:miter;stroke-miterlimit:10;stroke-dasharray:none;stroke-opacity:1"
         transform="matrix(0.13333333,0,0,-0.13333333,0,295.93333)" />
      <path
         id="path146"
         d="m 957.938,229.488 c 0,0 -0.5,-0.429 49.422,0.043 52.19,0.489 51.23,-0.781 47.2,-0.961 l -12.84,26.75 h -74.564 l -9.218,-25.832"
         style="fill:#231f20;fill-opacity:1;fill-rule:nonzero;stroke:none"
         transform="matrix(0.13333333,0,0,-0.13333333,0,295.93333)" />
      <path
         id="path147"
         d="m 951.5,251.57 h 106.44 v 92.168 L 951.5,389.621 V 251.57"
         style="fill:#231f20;fill-opacity:1;fill-rule:nonzero;stroke:none"
         transform="matrix(0.13333333,0,0,-0.13333333,0,295.93333)" />
      <path
         id="path148"
         d="m 957.953,257.102 v 172.199 c 0,16.449 19.84,35.769 45.077,35.769 25.24,0 46.32,-19.32 46.32,-35.769 V 257.102 c -1.36,1 -90.049,-2.211 -91.397,0"
         style="fill:#ffffff;fill-opacity:1;fill-rule:nonzero;stroke:none"
         transform="matrix(0.13333333,0,0,-0.13333333,0,295.93333)" />
      <path
         id="path149"
         d="m 945.059,348.191 70.851,-0.921 13.81,-79.739 -60.122,-1.23 -24.539,81.89"
         style="fill:#ffffff;fill-opacity:1;fill-rule:nonzero;stroke:none"
         transform="matrix(0.13333333,0,0,-0.13333333,0,295.93333)" />
      <path
         id="path150"
         d="m 945.059,348.191 70.851,-0.921 13.81,-79.739 -60.122,-1.23 z"
         style="fill:none;stroke:#231f20;stroke-width:5.15294;stroke-linecap:butt;stroke-linejoin:miter;stroke-miterlimit:10;stroke-dasharray:none;stroke-opacity:1"
         transform="matrix(0.13333333,0,0,-0.13333333,0,295.93333)" />
      <path
         id="path151"
         d="m 1030.64,268.141 -13.8,79.129 21.16,1.851 -2.76,-70.859 -4.6,-10.121"
         style="fill:#231f20;fill-opacity:1;fill-rule:nonzero;stroke:none"
         transform="matrix(0.13333333,0,0,-0.13333333,0,295.93333)" />
      <path
         id="path152"
         d="m 942.203,344.488 v 84.641 c 0,18.73 12.703,35.941 37.211,35.941 15.336,0 36.796,-17.211 36.796,-35.941 v -84.641 c -1.32,1.153 -72.698,-2.5 -74.007,0"
         style="fill:#ffffff;fill-opacity:1;fill-rule:nonzero;stroke:none"
         transform="matrix(0.13333333,0,0,-0.13333333,0,295.93333)" />
      <path
         id="path153"
         d="m 942.203,344.488 v 84.641 c 0,18.73 12.703,35.941 37.211,35.941 15.336,0 36.796,-17.211 36.796,-35.941 v -84.641 c -1.32,1.153 -72.698,-2.5 -74.007,0 z"
         style="fill:none;stroke:#231f20;stroke-width:6.74693;stroke-linecap:butt;stroke-linejoin:miter;stroke-miterlimit:2;stroke-dasharray:none;stroke-opacity:1"
         transform="matrix(0.13333333,0,0,-0.13333333,0,295.93333)" />
      <path
         id="path154"
         d="M 1105.18,201.871 H 910.094 v 22.078 h 195.086 v -22.078"
         style="fill:#231f20;fill-opacity:1;fill-rule:nonzero;stroke:none"
         transform="matrix(0.13333333,0,0,-0.13333333,0,295.93333)" />
      <path
         id="path155"
         d="m 561.391,1697.04 1.445,-3.01 -1.219,3.18 4.766,-4.48 -4.485,4.81 3.262,-1.15 -3.012,1.35 9.899,0.28 -9.942,0.29 3.016,1.46 -3.18,-1.22 4.481,4.77 -4.844,-4.48 1.18,3.26 -1.367,-3.01 -0.262,9.89 -0.328,-9.94 -1.446,3.01 1.247,-3.21 -4.766,4.52 4.477,-4.85 -3.258,1.14 2.992,-1.34 -9.875,-0.25 9.933,-0.32 -3.011,-1.47 3.179,1.22 -4.48,-4.72 4.848,4.48 -1.184,-3.26 1.344,2.97 0.289,-9.85 0.301,9.93"
         style="fill:#ffffff;fill-opacity:1;fill-rule:nonzero;stroke:none"
         transform="matrix(0.13333333,0,0,-0.13333333,0,295.93333)" />
      <path
         id="path156"
         d="m 165.762,1097.9 c 0,-522.029 423.187,-945.22 945.218,-945.22 522.03,0 945.21,423.191 945.21,945.22 0,522.03 -423.18,945.21 -945.21,945.21 -522.031,0 -945.218,-423.18 -945.218,-945.21 z"
         style="fill:none;stroke:#f1511b;stroke-width:43.101;stroke-linecap:butt;stroke-linejoin:miter;stroke-miterlimit:10;stroke-dasharray:none;stroke-opacity:1"
         transform="matrix(0.13333333,0,0,-0.13333333,0,295.93333)" />
      <path
         id="path157"
         d="m 1870.56,415.73 94.33,-81.761"
         style="fill:none;stroke:#f1511b;stroke-width:7.5;stroke-linecap:butt;stroke-linejoin:miter;stroke-miterlimit:10;stroke-dasharray:none;stroke-opacity:1"
         transform="matrix(0.13333333,0,0,-0.13333333,0,295.93333)" />
      <path
         id="path158"
         d="m 244.766,337.211 105.781,90.051"
         style="fill:none;stroke:#f1511b;stroke-width:7.5;stroke-linecap:butt;stroke-linejoin:miter;stroke-miterlimit:10;stroke-dasharray:none;stroke-opacity:1"
         transform="matrix(0.13333333,0,0,-0.13333333,0,295.93333)" />
      <path
         id="path159"
         d="M 61.6875,1566.92 188.441,1510.54"
         style="fill:none;stroke:#f1511b;stroke-width:7.5;stroke-linecap:butt;stroke-linejoin:miter;stroke-miterlimit:10;stroke-dasharray:none;stroke-opacity:1"
         transform="matrix(0.13333333,0,0,-0.13333333,0,295.93333)" />
      <path
         id="path160"
         d="m 2140.91,1567.06 -126.76,-56.38"
         style="fill:none;stroke:#f1511b;stroke-width:7.5;stroke-linecap:butt;stroke-linejoin:miter;stroke-miterlimit:10;stroke-dasharray:none;stroke-opacity:1"
         transform="matrix(0.13333333,0,0,-0.13333333,0,295.93333)" />
    </g>
  </g>
</svg>
