<?xml version="1.0" encoding="UTF-8" standalone="no"?>
<!-- Created with Inkscape (http://www.inkscape.org/) -->

<svg
   version="1.1"
   id="svg1"
   width="710.64001"
   height="710.23999"
   viewBox="0 0 710.64001 710.23999"
   sodipodi:docname="SO_Logo_final_large.eps"
   xmlns:inkscape="http://www.inkscape.org/namespaces/inkscape"
   xmlns:sodipodi="http://sodipodi.sourceforge.net/DTD/sodipodi-0.dtd"
   xmlns="http://www.w3.org/2000/svg"
   xmlns:svg="http://www.w3.org/2000/svg">
  <defs
     id="defs1" />
  <sodipodi:namedview
     id="namedview1"
     pagecolor="#ffffff"
     bordercolor="#000000"
     borderopacity="0.25"
     inkscape:showpageshadow="2"
     inkscape:pageopacity="0.0"
     inkscape:pagecheckerboard="0"
     inkscape:deskcolor="#d1d1d1">
    <inkscape:page
       x="0"
       y="0"
       inkscape:label="1"
       id="page1"
       width="710.64001"
       height="710.23999"
       margin="0"
       bleed="0" />
  </sodipodi:namedview>
  <g
     id="g1"
     inkscape:groupmode="layer"
     inkscape:label="1">
    <g
       id="group-R5">
      <path
         id="path2"
         d="m 557.809,1300.41 21.496,14.5 75.937,-112.5 -8.84,-5.95 c -31.054,-20.96 -48.515,-16.74 -93.773,2.41 -47.41,19.79 -58.359,19.01 -68.387,12.26 -14.816,-10.03 -13.504,-31.01 -3.164,-46.31 14.973,-22.2 40.379,-31.47 50.692,-34.97 l -25.782,-17.39 c -10.758,5.6 -31.425,16.69 -46.894,39.61 -18.399,27.23 -21.637,61.9 7.031,81.24 20.059,13.54 40.617,11.4 98.391,-12.85 28.355,-12.16 42.211,-16.71 53.738,-9.61 l -60.445,89.56"
         style="fill:#231f20;fill-opacity:1;fill-rule:nonzero;stroke:none"
         transform="matrix(0.13333333,0,0,-0.13333333,0,710.24)" />
      <path
         id="path3"
         d="m 470.555,1449.02 22.425,12.96 67.993,-117.31 -9.207,-5.36 c -32.395,-18.78 -49.504,-13.36 -93.305,8.84 -45.938,22.97 -56.906,22.92 -67.359,16.88 -15.446,-8.96 -15.563,-30 -6.329,-45.94 13.426,-23.17 38.11,-34.15 48.165,-38.3 l -26.911,-15.61 c -10.312,6.33 -30.183,18.77 -44.039,42.7 -16.449,28.41 -17.316,63.19 12.567,80.51 20.925,12.14 41.273,8.6 97.195,-19.55 27.465,-14.06 40.969,-19.55 52.945,-13.24 l -54.14,93.42"
         style="fill:#231f20;fill-opacity:1;fill-rule:nonzero;stroke:none"
         transform="matrix(0.13333333,0,0,-0.13333333,0,710.24)" />
      <path
         id="path4"
         d="m 296.086,1442.53 c 7.519,-14.93 25.707,-20.9 40.641,-13.38 14.906,7.52 20.902,25.73 13.382,40.64 -7.546,14.9 -25.738,20.9 -40.644,13.38 -14.902,-7.52 -20.902,-25.73 -13.379,-40.64 z m -13.383,-6.72 c -11.273,22.35 -2.367,49.45 20.016,60.72 22.383,11.3 49.476,2.36 60.75,-20.02 11.293,-22.35 2.363,-49.45 -20.02,-60.72 -22.359,-11.3 -49.453,-2.37 -60.746,20.02"
         style="fill:#231f20;fill-opacity:1;fill-rule:nonzero;stroke:none"
         transform="matrix(0.13333333,0,0,-0.13333333,0,710.24)" />
      <path
         id="path5"
         d="m 205.895,1632.77 23.789,10.29 36.144,-83.5 48.867,21.16 c -6.261,3.58 -20.347,12.24 -29.722,33.89 -13.711,31.71 -3.067,65.81 28.902,79.63 34.336,14.89 73.66,-1.35 91.406,-42.3 10.754,-24.84 9.117,-47.18 8.18,-57.3 l -28.008,-12.11 c 2.602,16.47 6.067,37.42 -3.426,59.36 -11.105,25.62 -35.976,35.25 -54.984,27 -18.492,-7.99 -24.98,-29.96 -15.957,-50.82 1.617,-3.7 7.309,-16.89 23.949,-28.51 l 10.524,-24.31 -92.973,-40.29 -46.691,107.81"
         style="fill:#231f20;fill-opacity:1;fill-rule:nonzero;stroke:none"
         transform="matrix(0.13333333,0,0,-0.13333333,0,710.24)" />
      <path
         id="path6"
         d="m 139.008,1812.42 23.621,8.32 179.906,-19.29 9.778,-27.72 -179.204,19.87 33.985,-96.38 -24.446,-8.62 -43.64,123.82"
         style="fill:#231f20;fill-opacity:1;fill-rule:nonzero;stroke:none"
         transform="matrix(0.13333333,0,0,-0.13333333,0,710.24)" />
      <path
         id="path7"
         d="m 152.926,1858.59 -33.071,-10.01 -8.32,27.57 33.07,9.98 38.02,4.57 4.496,-14.88 -34.195,-17.23"
         style="fill:#231f20;fill-opacity:1;fill-rule:nonzero;stroke:none"
         transform="matrix(0.13333333,0,0,-0.13333333,0,710.24)" />
      <path
         id="path8"
         d="m 96.7695,2125.85 c -4.5195,-8.95 -16.8945,-34.38 -10.875,-61.66 4.6641,-21.08 19.9215,-36.87 35.9535,-33.35 14.347,3.16 19.855,15.6 20.136,50.46 0.512,31.05 4.313,67.26 41.133,75.4 37.403,8.25 68.766,-21.68 77.203,-59.92 6.586,-29.78 -2.3,-55.04 -6.847,-67.82 l -32.903,-7.26 c 6.235,13.14 20.246,41.9 13.618,71.97 -4.665,21.09 -23.254,38.5 -41.508,34.48 -19.129,-4.22 -22.317,-25.86 -22.762,-51.89 -0.512,-18.99 -1.824,-38.44 -11.508,-54.73 -4.898,-7.27 -10.43,-15.59 -28.144,-19.47 -32.3246,-7.15 -60.2816,16.76 -68.9808,56.1 -5.8321,26.44 -0.6289,45.57 3.1406,60.57 l 32.3437,7.12"
         style="fill:#231f20;fill-opacity:1;fill-rule:nonzero;stroke:none"
         transform="matrix(0.13333333,0,0,-0.13333333,0,710.24)" />
      <path
         id="path9"
         d="m 280.125,2194.85 c -21.773,4.03 -26.953,5.18 -40.387,3.35 -0.82,-3.65 -2.48,-12.44 -15.535,-14.74 -11.629,-2.09 -20.207,3.44 -21.68,11.67 -1.71,9.63 7.313,16.5 17.528,18.33 15.609,2.74 41.836,-3.14 58.058,-7.29 l 2.016,-11.32"
         style="fill:#231f20;fill-opacity:1;fill-rule:nonzero;stroke:none"
         transform="matrix(0.13333333,0,0,-0.13333333,0,710.24)" />
      <path
         id="path10"
         d="m 186.398,2406.89 c -1.992,21.23 -19.175,37.85 -39.515,35.93 -22.383,-2.11 -31.969,-23.22 -30.52,-38.72 0.731,-7.74 4.832,-29.62 33.801,-48.61 23.461,11.74 38.481,27.33 36.234,51.4 z m -129.5386,42.82 c -8.4649,-14.69 -15.3047,-30.93 -13.7383,-47.86 0.9375,-10.03 6.5391,-29.48 31.7852,-42.72 20.414,-11.1 38.2497,-10.01 50.3397,-9.46 l 0.52,0.64 c -10.5,7.13 -31.9457,23.04 -34.9926,55.43 -3.4218,36.4 19.3126,62.25 51.4216,65.27 36.137,3.4 66,-25.33 69.465,-62.31 4.27,-45.29 -29.906,-81.76 -83.527,-86.8 -47.8635,-4.47 -104.6994,18.52 -110.1135,76.15 -1.875,20.06 3.4961,36.78 7.5977,48.73 l 31.2422,2.93"
         style="fill:#231f20;fill-opacity:1;fill-rule:nonzero;stroke:none"
         transform="matrix(0.13333333,0,0,-0.13333333,0,710.24)" />
      <path
         id="path11"
         d="m 9.21094,2632.85 25.05466,0.63 165.1174,-73.97 0.726,-29.37 -164.277,74.28 2.5352,-102.17 -25.8984,-0.62 -3.25786,131.22"
         style="fill:#231f20;fill-opacity:1;fill-rule:nonzero;stroke:none"
         transform="matrix(0.13333333,0,0,-0.13333333,0,710.24)" />
      <path
         id="path12"
         d="m 14.9961,2719.43 c -0.5117,-16.71 12.5898,-30.66 29.2734,-31.2 16.6914,-0.51 30.6602,12.61 31.1719,29.3 0.5195,16.71 -12.582,30.66 -29.2734,31.17 -16.7071,0.52 -30.6524,-12.58 -31.1719,-29.27 z m -14.9726625,0.47 c 0.7695315,25.03 21.5624625,44.53 46.6132625,43.75 25.0352,-0.77 44.5586,-21.53 43.7852,-46.59 -0.8008,-25.03 -21.5625,-44.55 -46.6211,-43.78 -25.0274,0.77 -44.5508,21.56 -43.7773625,46.62"
         style="fill:#231f20;fill-opacity:1;fill-rule:nonzero;stroke:none"
         transform="matrix(0.13333333,0,0,-0.13333333,0,710.24)" />
      <path
         id="path13"
         d="m 59.0586,2886.84 -0.043,-0.56 67.2654,-66.09 5.34,60.23 z m -33.7734,29.91 108.7068,-9.68 3.024,34.12 25.242,-2.22 -3.028,-34.13 52.758,-4.69 -2.367,-26.67 -52.754,4.69 -8.086,-90.91 -24.375,2.15 -101.4841,100.65 2.3633,26.69"
         style="fill:#231f20;fill-opacity:1;fill-rule:nonzero;stroke:none"
         transform="matrix(0.13333333,0,0,-0.13333333,0,710.24)" />
      <path
         id="path14"
         d="m 53.3438,3118.94 24.75,-3.93 148.8942,-102.71 -4.613,-28.99 -148.0078,102.84 -16.0781,-100.92 -25.5703,4.08 20.625,129.63"
         style="fill:#231f20;fill-opacity:1;fill-rule:nonzero;stroke:none"
         transform="matrix(0.13333333,0,0,-0.13333333,0,710.24)" />
      <path
         id="path15"
         d="m 87.5859,3153.4 -33.8671,6.96 5.8085,28.22 33.8438,-6.96 35.6249,-14.11 -3.141,-15.21 -38.2691,1.1"
         style="fill:#231f20;fill-opacity:1;fill-rule:nonzero;stroke:none"
         transform="matrix(0.13333333,0,0,-0.13333333,0,710.24)" />
      <path
         id="path16"
         d="m 150.047,3519.91 173.812,-103.64 -8.086,-26.43 -156.468,10.38 -0.168,-0.56 136.383,-76.25 -8.34,-27.28 -202.8089,8.58 8.7461,28.67 155.1328,-10.9 0.16,0.53 -135.445,75.4 8.414,27.54 151.43,-9.16 0.168,0.54 -131.508,74.48 8.578,28.1"
         style="fill:#231f20;fill-opacity:1;fill-rule:nonzero;stroke:none"
         transform="matrix(0.13333333,0,0,-0.13333333,0,710.24)" />
      <path
         id="path17"
         d="m 379.055,3951.63 51.23,-30.44 19.711,33.14 c 13.828,23.24 10.992,42.7 -5.836,52.71 -15.844,9.42 -31.707,0.75 -40.242,-13.57 z m 3.769,57.05 c 20.442,34.4 51.235,38.86 75.492,24.44 31.692,-18.84 35.887,-55.14 15.563,-89.31 l -21.328,-35.86 73.265,-43.58 -14.128,-23.74 -169.036,100.48 40.172,67.57"
         style="fill:#231f20;fill-opacity:1;fill-rule:nonzero;stroke:none"
         transform="matrix(0.13333333,0,0,-0.13333333,0,710.24)" />
      <path
         id="path18"
         d="m 490.711,4111.74 -0.309,-0.5 49.243,-65.3 30.168,44.3 z m -21,31.03 203.785,-49.69 -18.137,-26.63 -59.113,16.57 -39.887,-58.55 37.051,-48.93 -18,-26.44 -121.59,170.35 15.891,23.32"
         style="fill:#231f20;fill-opacity:1;fill-rule:nonzero;stroke:none"
         transform="matrix(0.13333333,0,0,-0.13333333,0,710.24)" />
      <path
         id="path19"
         d="m 571.613,4239.7 46.547,-36.72 12.656,16.05 c 22.293,28.22 31.903,51.07 11.793,66.96 -19.199,15.14 -37.832,-4.24 -44.226,-12.4 z m 10.879,55.59 c 25.5,32.3 54.024,33.61 75.723,16.5 25.078,-19.78 18.215,-48.46 10.715,-70.05 l 0.441,-0.35 c 6.613,4.66 18.844,12.26 43.762,4.33 l 64.496,-20.48 -19.102,-24.16 -51.914,18.28 c -21.816,7.66 -37.097,6.89 -50.836,-10.5 l -17.269,-21.94 67.074,-52.92 -17.109,-21.7 -154.285,121.78 48.304,61.21"
         style="fill:#231f20;fill-opacity:1;fill-rule:nonzero;stroke:none"
         transform="matrix(0.13333333,0,0,-0.13333333,0,710.24)" />
      <path
         id="path20"
         d="m 842.883,4346.27 c 0.722,11.04 2.765,38.86 -27.82,66.85 -32.512,29.76 -73.547,31.8 -97.477,5.69 -23.723,-25.9 -18.449,-66.65 14.457,-96.77 34.434,-31.53 75.168,-30.92 96.168,-8 2.133,2.32 5.016,6.36 5.949,7.81 l -51.629,10.97 20.227,22.08 z m 92.387,3.28 c -2.528,-7.47 -8.598,-17.5 -13.852,-23.23 -17.504,-19.12 -37.242,-15.51 -61.523,-10.05 -0.938,-1.87 -3.399,-5.88 -6.094,-9.65 -2.481,-3.99 -5.156,-7.76 -6.723,-9.47 -32.066,-35.04 -90.211,-38.42 -134.816,2.39 -45.024,41.25 -46.028,100.69 -13.36,136.38 33.45,36.54 93.047,38.96 136.172,-0.51 27.824,-25.46 39.871,-57.97 33.567,-95.14 10.472,-2.18 26.718,-5.72 37.828,6.36 5.039,5.55 8.152,13.21 9.465,20.59 l 19.336,-17.67"
         style="fill:#231f20;fill-opacity:1;fill-rule:nonzero;stroke:none"
         transform="matrix(0.13333333,0,0,-0.13333333,0,710.24)" />
      <path
         id="path21"
         d="m 811.922,4548 83.598,-89.32 c 19.453,-20.84 44.414,-29.39 68.183,-7.17 23.949,22.43 18.117,48.87 -1.336,69.7 l -83.605,89.32 20.179,18.89 85.95,-91.85 c 40.119,-42.89 21.349,-80.98 -4.078,-104.77 -34.059,-31.85 -69.868,-31.07 -103.125,4.46 l -85.946,91.85 20.18,18.89"
         style="fill:#231f20;fill-opacity:1;fill-rule:nonzero;stroke:none"
         transform="matrix(0.13333333,0,0,-0.13333333,0,710.24)" />
      <path
         id="path22"
         d="m 1032.89,4740.7 16.43,-20.06 -76.5,-62.56 34.83,-42.63 73.17,59.84 15.68,-19.18 -73.15,-59.81 41.04,-50.2 76.5,62.58 16.43,-20.09 -97.92,-80.08 -124.408,152.13 97.898,80.06"
         style="fill:#231f20;fill-opacity:1;fill-rule:nonzero;stroke:none"
         transform="matrix(0.13333333,0,0,-0.13333333,0,710.24)" />
      <path
         id="path23"
         d="m 1224.63,4833.65 -0.49,-0.3 20.58,-79.12 44.76,29.36 z m -7.57,36.71 169.31,-123.73 -26.95,-17.67 -48.28,37.85 -59.2,-38.81 15.53,-59.37 -26.69,-17.53 -47.32,203.76 23.6,15.5"
         style="fill:#231f20;fill-opacity:1;fill-rule:nonzero;stroke:none"
         transform="matrix(0.13333333,0,0,-0.13333333,0,710.24)" />
      <path
         id="path24"
         d="m 1435.19,4946.3 c -9.87,1.7 -37.8,6.16 -62.15,-7.53 -18.82,-10.57 -29.49,-29.79 -21.45,-44.09 7.2,-12.81 20.7,-14.48 54.12,-4.59 29.88,8.54 65.63,15.43 84.12,-17.44 18.77,-33.4 -0.76,-72.11 -34.88,-91.29 -26.62,-14.95 -53.34,-13.8 -66.91,-13.19 l -16.52,29.37 c 14.43,-2.13 46,-7.15 72.84,7.94 18.82,10.57 30.09,33.4 20.91,49.74 -9.59,17.06 -31.22,13.8 -56.25,6.67 -18.33,-5.01 -37.32,-9.41 -55.72,-4.89 -8.37,2.55 -17.93,5.44 -26.81,21.26 -16.22,28.85 -1.5,62.58 33.63,82.31 23.6,13.27 43.43,13.85 58.86,14.6 l 16.21,-28.87"
         style="fill:#231f20;fill-opacity:1;fill-rule:nonzero;stroke:none"
         transform="matrix(0.13333333,0,0,-0.13333333,0,710.24)" />
      <path
         id="path25"
         d="m 1570.62,5064.14 11.27,-23.32 -51.28,-24.82 74.08,-153.09 -24.86,-12.03 -74.09,153.1 -52.59,-25.46 -11.28,23.32 128.75,62.3"
         style="fill:#231f20;fill-opacity:1;fill-rule:nonzero;stroke:none"
         transform="matrix(0.13333333,0,0,-0.13333333,0,710.24)" />
      <path
         id="path26"
         d="m 1637.86,5065.29 22.36,-54.96 18.96,7.71 c 33.33,13.57 52.97,28.71 43.31,52.45 -9.21,22.67 -35.02,14.97 -44.6,11.06 z m 36.91,43.01 c 38.16,15.51 63.64,2.55 74.07,-23.07 12.04,-29.6 -8.12,-51.16 -25.29,-66.23 l 0.23,-0.54 c 8.06,0.79 22.43,1.36 40.2,-17.84 l 46,-49.69 -28.52,-11.6 -36.19,41.56 c -15.18,17.46 -28.85,24.3 -49.4,15.96 l -25.88,-10.53 32.23,-79.23 -25.6,-10.41 -74.13,182.18 72.28,29.44"
         style="fill:#231f20;fill-opacity:1;fill-rule:nonzero;stroke:none"
         transform="matrix(0.13333333,0,0,-0.13333333,0,710.24)" />
      <path
         id="path27"
         d="m 1817.98,5057.6 c 13.78,-42.75 49.1,-64.05 82.26,-53.35 34.55,11.14 48.23,50.35 34.97,91.48 -14.13,43.86 -50.11,63.43 -81.37,53.35 -35.91,-11.6 -48.96,-50.91 -35.86,-91.48 z m 145.57,47.86 c 16.68,-51.82 -3.99,-108.71 -56.89,-125.79 -53.18,-17.13 -100.85,18.02 -117.21,68.74 -19.17,59.51 12.5,110.56 54.96,124.27 55.95,18.02 103.57,-18.96 119.14,-67.22"
         style="fill:#231f20;fill-opacity:1;fill-rule:nonzero;stroke:none"
         transform="matrix(0.13333333,0,0,-0.13333333,0,710.24)" />
      <path
         id="path28"
         d="m 2093.22,5130.19 c 14.28,-14.09 26.89,-27.4 38.73,-40.01 l 4.96,-5.91 0.43,0.68 c -1.08,3.31 -2.93,9.96 -3.8,13.6 -1.67,5.83 -4.48,15.23 -6.59,24.21 l -27.28,115.8 25.78,6.07 45.07,-191.22 -27.49,-6.48 -84.33,82.81 c -7.31,7.17 -20.6,20.9 -30.8,31.53 -2.27,2.12 -13.64,13.96 -15.07,16.28 l -0.56,-0.14 c 0.98,-4.19 3.12,-12 4.31,-15.84 1.55,-5.27 3.22,-11.11 4.67,-17.25 l 28.15,-119.46 -26.93,-6.33 -45.05,191.23 28.03,6.58 87.77,-86.15"
         style="fill:#231f20;fill-opacity:1;fill-rule:nonzero;stroke:none"
         transform="matrix(0.13333333,0,0,-0.13333333,0,710.24)" />
      <path
         id="path29"
         d="m 2280.54,5326.78 -29.63,-46.48 -17.67,-2.69 20.53,45.09 z m -66.61,-165.47 c 6.77,-44.44 38.25,-71.11 72.7,-65.88 35.88,5.46 55.69,42 49.17,84.72 -6.94,45.59 -39.32,70.67 -71.78,65.73 -37.32,-5.68 -56.49,-42.43 -50.09,-84.57 z m 151.43,23.93 c 8.18,-53.84 -21.38,-106.71 -76.34,-115.08 -55.26,-8.43 -96.68,33.94 -104.69,86.63 -9.43,61.82 30.02,107.17 74.15,113.88 58.13,8.86 99.24,-35.3 106.88,-85.43"
         style="fill:#231f20;fill-opacity:1;fill-rule:nonzero;stroke:none"
         transform="matrix(0.13333333,0,0,-0.13333333,0,710.24)" />
      <path
         id="path30"
         d="m 2583.33,5298.86 12.84,-196.05 -26.74,-1.74 -10.5,160.39 -0.59,-0.05 -58.8,-120.18 -73.64,110.34 -0.57,-0.03 10.43,-159.25 -26.71,-1.74 -12.85,196.03 31.9,2.11 68.37,-100.61 53.5,108.58 33.36,2.2"
         style="fill:#231f20;fill-opacity:1;fill-rule:nonzero;stroke:none"
         transform="matrix(0.13333333,0,0,-0.13333333,0,710.24)" />
      <path
         id="path31"
         d="m 2661.61,5298.49 3.61,-196.31 -27.63,-0.52 -3.61,196.32 27.63,0.51"
         style="fill:#231f20;fill-opacity:1;fill-rule:nonzero;stroke:none"
         transform="matrix(0.13333333,0,0,-0.13333333,0,710.24)" />
      <path
         id="path32"
         d="m 2852.93,5245.92 c -9.43,9.05 -27.44,25.97 -55.08,27.14 -39.73,1.71 -67.29,-35.76 -68.93,-74.65 -1.8,-41.71 24.75,-74.88 58.73,-76.31 29.37,-1.26 52.3,15.63 60.94,22.19 l -1.4,-32.52 c -11.21,-5.86 -32.72,-17.07 -61.53,-15.82 -48.93,2.08 -88.07,44.12 -85.55,103.71 2.56,59.57 44.4,101.06 97.95,98.79 26.77,-1.15 44.47,-12.31 56.25,-20.02 l -1.38,-32.51"
         style="fill:#231f20;fill-opacity:1;fill-rule:nonzero;stroke:none"
         transform="matrix(0.13333333,0,0,-0.13333333,0,710.24)" />
      <path
         id="path33"
         d="m 2907.65,5189.7 c -5.24,-44.63 18.03,-78.66 52.65,-82.72 36.05,-4.24 64.8,25.76 69.81,68.65 5.38,45.8 -19.21,78.54 -51.81,82.36 -37.48,4.39 -65.7,-25.94 -70.65,-68.29 z m 152.3,-16.95 c -6.35,-54.1 -48.82,-97.25 -104.03,-90.8 -55.5,6.52 -84.21,58.34 -78.03,111.23 7.29,62.09 57.28,95.39 101.63,90.17 58.36,-6.82 86.32,-60.28 80.43,-110.6"
         style="fill:#231f20;fill-opacity:1;fill-rule:nonzero;stroke:none"
         transform="matrix(0.13333333,0,0,-0.13333333,0,710.24)" />
      <path
         id="path34"
         d="m 3272.91,5192.95 -0.57,0.14 -43.38,-69.32 52.12,-12.38 z m 21.51,30.75 26.39,-208.2 -31.41,7.48 -5.62,61.13 -68.95,16.35 -32.49,-52.09 -31.1,7.38 115.71,174.46 27.47,-6.51"
         style="fill:#231f20;fill-opacity:1;fill-rule:nonzero;stroke:none"
         transform="matrix(0.13333333,0,0,-0.13333333,0,710.24)" />
      <path
         id="path35"
         d="m 3512.34,5161.69 -7.57,-24.78 -54.56,16.62 -49.69,-162.85 -26.46,8.09 49.72,162.85 -55.95,17.08 7.57,24.77 136.94,-41.78"
         style="fill:#231f20;fill-opacity:1;fill-rule:nonzero;stroke:none"
         transform="matrix(0.13333333,0,0,-0.13333333,0,710.24)" />
      <path
         id="path36"
         d="m 3593.58,5094.94 -0.52,0.21 -51.86,-63.24 50.08,-18.91 z m 25.24,27.7 -0.38,-209.72 -30.18,11.37 2.23,61.33 -66.26,25.01 -38.86,-47.49 -29.88,11.28 136.94,158.21 26.39,-9.99"
         style="fill:#231f20;fill-opacity:1;fill-rule:nonzero;stroke:none"
         transform="matrix(0.13333333,0,0,-0.13333333,0,710.24)" />
      <path
         id="path37"
         d="m 3828.35,4980.75 c -5.28,11.98 -15.51,34.48 -40.64,46.05 -36.12,16.67 -75.85,-7.55 -92.16,-42.86 -17.51,-37.97 -5.52,-78.73 25.37,-92.96 26.68,-12.3 54.32,-5.39 64.82,-2.6 l -13.66,-29.58 c -12.59,-1.17 -36.78,-3.35 -62.93,8.72 -44.48,20.53 -64.76,74.32 -39.75,128.49 24.98,54.18 79.47,76.64 128.13,54.18 24.35,-11.22 36.49,-28.24 44.46,-39.86 l -13.64,-29.58"
         style="fill:#231f20;fill-opacity:1;fill-rule:nonzero;stroke:none"
         transform="matrix(0.13333333,0,0,-0.13333333,0,710.24)" />
      <path
         id="path38"
         d="m 3931.97,4938.84 -0.52,0.28 -60.35,-55.19 46.92,-25.85 z m 28.92,23.86 -30.28,-207.61 -28.24,15.59 10.94,60.39 -62.03,34.2 -45.24,-41.48 -28.01,15.42 158.16,137.13 24.7,-13.64"
         style="fill:#231f20;fill-opacity:1;fill-rule:nonzero;stroke:none"
         transform="matrix(0.13333333,0,0,-0.13333333,0,710.24)" />
      <path
         id="path39"
         d="m 4215.47,4803.18 -108.59,-163.54 -22.28,14.81 88.84,133.81 -0.48,0.33 -119.56,-59.86 8.37,132.3 -0.47,0.31 -88.23,-132.83 -22.28,14.79 108.58,163.53 26.63,-17.67 -6.66,-121.34 108.33,53.84 27.8,-18.48"
         style="fill:#231f20;fill-opacity:1;fill-rule:nonzero;stroke:none"
         transform="matrix(0.13333333,0,0,-0.13333333,0,710.24)" />
      <path
         id="path40"
         d="m 4293.82,4698.65 -0.47,0.38 -68.6,-44.53 42,-33.21 z m 32.46,18.75 -64.03,-199.8 -25.29,20.01 20.72,57.8 -55.57,43.95 -51.45,-33.49 -25.1,19.85 178.57,109.22 22.15,-17.54"
         style="fill:#231f20;fill-opacity:1;fill-rule:nonzero;stroke:none"
         transform="matrix(0.13333333,0,0,-0.13333333,0,710.24)" />
      <path
         id="path41"
         d="m 4254,4467.38 c 19.52,10.45 24.26,12.81 33.63,22.59 -1.64,3.35 -5.84,11.25 2.9,21.21 7.82,8.86 17.93,9.93 24.22,4.4 7.36,-6.44 4.59,-17.44 -2.25,-25.24 -10.43,-11.91 -34.57,-23.64 -49.83,-30.58 l -8.67,7.62"
         style="fill:#231f20;fill-opacity:1;fill-rule:nonzero;stroke:none"
         transform="matrix(0.13333333,0,0,-0.13333333,0,710.24)" />
      <path
         id="path42"
         d="m 4603.83,4394.2 c -0.56,13.03 -1.9,37.71 -21.07,57.66 -27.54,28.64 -73.34,20.6 -101.37,-6.36 -30.09,-28.94 -33.79,-71.25 -10.24,-95.74 20.36,-21.19 48.6,-24.77 59.37,-26.03 l -23.44,-22.53 c -12.17,3.49 -35.46,10.27 -55.41,31.01 -33.94,35.32 -33.21,92.74 9.77,134.06 42.96,41.3 101.87,42.4 138.99,3.78 18.56,-19.32 23.67,-39.59 26.86,-53.3 l -23.46,-22.55"
         style="fill:#231f20;fill-opacity:1;fill-rule:nonzero;stroke:none"
         transform="matrix(0.13333333,0,0,-0.13333333,0,710.24)" />
      <path
         id="path43"
         d="m 4684.8,4372.55 -62.71,-52.04 61.59,-74.22 62.71,52.01 17.66,-21.26 -151.13,-125.42 -17.65,21.31 69.59,57.73 -61.62,74.22 -69.56,-57.73 -17.65,21.26 151.11,125.39 17.66,-21.25"
         style="fill:#231f20;fill-opacity:1;fill-rule:nonzero;stroke:none"
         transform="matrix(0.13333333,0,0,-0.13333333,0,710.24)" />
      <path
         id="path44"
         d="m 4811.3,4213.57 -157.64,-117.45 -16.52,22.2 157.63,117.42 16.53,-22.17"
         style="fill:#231f20;fill-opacity:1;fill-rule:nonzero;stroke:none"
         transform="matrix(0.13333333,0,0,-0.13333333,0,710.24)" />
      <path
         id="path45"
         d="m 4856.32,4150.5 -141.17,-95.65 54.76,-80.86 -21.45,-14.53 -70.29,103.74 162.64,110.2 15.51,-22.9"
         style="fill:#231f20;fill-opacity:1;fill-rule:nonzero;stroke:none"
         transform="matrix(0.13333333,0,0,-0.13333333,0,710.24)" />
      <path
         id="path46"
         d="m 4994.83,3929.63 -22.3,-13.23 -50.31,85.08 -47.34,-27.98 48.05,-81.35 -21.33,-12.61 -48.05,81.35 -55.83,-33 50.28,-85.06 -22.31,-13.17 -64.36,108.87 169.15,99.96 64.35,-108.86"
         style="fill:#231f20;fill-opacity:1;fill-rule:nonzero;stroke:none"
         transform="matrix(0.13333333,0,0,-0.13333333,0,710.24)" />
      <path
         id="path47"
         d="m 5230.81,3357.87 -24.78,-7.67 -29.21,94.39 -52.54,-16.25 27.9,-90.28 -23.68,-7.31 -27.89,90.26 -61.95,-19.15 29.21,-94.38 -24.78,-7.67 -37.36,120.82 187.71,58.06 37.37,-120.82"
         style="fill:#231f20;fill-opacity:1;fill-rule:nonzero;stroke:none"
         transform="matrix(0.13333333,0,0,-0.13333333,0,710.24)" />
      <path
         id="path48"
         d="m 5246.25,3297.37 -165.56,-40.62 23.27,-94.8 -25.17,-6.19 -29.86,121.64 190.74,46.81 6.58,-26.84"
         style="fill:#231f20;fill-opacity:1;fill-rule:nonzero;stroke:none"
         transform="matrix(0.13333333,0,0,-0.13333333,0,710.24)" />
      <path
         id="path49"
         d="m 5298.35,3047.95 -25.5,-4.66 -17.78,97.17 -54.11,-9.89 16.98,-92.93 -24.38,-4.45 -16.99,92.93 -63.75,-11.65 17.79,-97.17 -25.52,-4.67 -22.74,124.38 193.24,35.33 22.76,-124.39"
         style="fill:#231f20;fill-opacity:1;fill-rule:nonzero;stroke:none"
         transform="matrix(0.13333333,0,0,-0.13333333,0,710.24)" />
      <path
         id="path50"
         d="m 5305.12,2998.31 -153.49,-73.41 0.08,-0.56 166.12,-35.83 3.75,-32.28 -203.49,50.6 -3.18,27.45 186.6,95.23 3.61,-31.2"
         style="fill:#231f20;fill-opacity:1;fill-rule:nonzero;stroke:none"
         transform="matrix(0.13333333,0,0,-0.13333333,0,710.24)" />
      <path
         id="path51"
         d="m 5290.9,2771.06 -0.05,0.59 -78.66,22.17 2.75,-53.46 z m 35.48,-12 -192.23,-83.67 -1.69,32.18 57.07,22.54 -3.63,70.72 -59.09,16.54 -1.64,31.9 199.76,-62.04 1.45,-28.17"
         style="fill:#231f20;fill-opacity:1;fill-rule:nonzero;stroke:none"
         transform="matrix(0.13333333,0,0,-0.13333333,0,710.24)" />
      <path
         id="path52"
         d="m 5327.69,2538.11 -25.92,0.38 0.84,57 -170.1,2.51 0.4,27.63 170.12,-2.51 0.85,58.43 25.92,-0.4 -2.11,-143.04"
         style="fill:#231f20;fill-opacity:1;fill-rule:nonzero;stroke:none"
         transform="matrix(0.13333333,0,0,-0.13333333,0,710.24)" />
      <path
         id="path53"
         d="m 5325.1,2485.81 -196.09,9.86 1.39,27.61 196.07,-9.87 -1.37,-27.6"
         style="fill:#231f20;fill-opacity:1;fill-rule:nonzero;stroke:none"
         transform="matrix(0.13333333,0,0,-0.13333333,0,710.24)" />
      <path
         id="path54"
         d="m 5223.7,2429.98 c -44.67,4.57 -78.37,-19.15 -81.93,-53.82 -3.74,-36.09 26.65,-64.38 69.6,-68.81 45.82,-4.71 78.24,20.29 81.59,52.95 3.86,37.54 -26.86,65.29 -69.26,69.68 z m -14.84,-152.49 c -54.11,5.55 -97.85,47.42 -92.17,102.7 5.72,55.58 57.12,85.01 110.1,79.55 62.16,-6.39 96.13,-55.9 91.56,-100.31 -6.03,-58.43 -59.07,-87.12 -109.49,-81.94"
         style="fill:#231f20;fill-opacity:1;fill-rule:nonzero;stroke:none"
         transform="matrix(0.13333333,0,0,-0.13333333,0,710.24)" />
      <path
         id="path55"
         d="m 5180.25,2154.4 c -18.63,-7.41 -35.86,-13.62 -52.15,-19.43 l -7.41,-2.13 0.45,-0.68 c 3.45,-0.34 10.31,-1.29 13.99,-1.98 6,-0.82 15.73,-2.01 24.8,-3.65 l 116.95,-21.43 -4.78,-26.03 -193.13,35.34 5.09,27.75 109.62,44.02 c 9.47,3.85 27.37,10.53 41.18,15.6 2.86,1.22 18.23,6.9 20.95,7.27 l 0.1,0.57 c -4.24,0.8 -12.21,1.94 -16.24,2.39 -5.42,0.72 -11.42,1.52 -17.65,2.66 l -120.64,22.07 4.97,27.2 193.13,-35.36 -5.19,-28.34 -114.04,-45.84"
         style="fill:#231f20;fill-opacity:1;fill-rule:nonzero;stroke:none"
         transform="matrix(0.13333333,0,0,-0.13333333,0,710.24)" />
      <path
         id="path56"
         d="m 5178.51,2024.63 c -9.51,2.27 -16,11.18 -14.01,19.59 1.85,7.83 10.85,13.4 20.64,11.11 9.26,-2.18 15.8,-10.85 13.76,-19.52 -2.17,-9.26 -11.69,-13.23 -20.39,-11.18 z m -98.37,23.22 c -9.53,2.25 -16,11.16 -14.01,19.57 1.83,7.85 10.85,13.41 20.65,11.11 9.26,-2.18 15.8,-10.83 13.75,-19.52 -2.19,-9.24 -11.71,-13.22 -20.39,-11.16"
         style="fill:#231f20;fill-opacity:1;fill-rule:nonzero;stroke:none"
         transform="matrix(0.13333333,0,0,-0.13333333,0,710.24)" />
      <path
         id="path57"
         d="m 5173.29,1758.96 -24.68,7.99 28.08,86.63 -50.7,16.43 c 2.32,-6.82 7.2,-22.62 -0.09,-45.12 -10.67,-32.88 -41.21,-51.45 -74.37,-40.68 -35.64,11.52 -54.47,49.75 -40.68,92.22 8.36,25.78 24.34,41.49 31.75,48.49 l 29.07,-9.44 c -12.85,-10.67 -29.33,-24.13 -36.71,-46.86 -8.61,-26.6 3.7,-50.27 23.44,-56.67 19.2,-6.23 38.58,5.98 45.61,27.61 1.24,3.85 5.69,17.56 0.86,37.26 l 8.18,25.25 96.5,-31.26 -36.26,-111.85"
         style="fill:#231f20;fill-opacity:1;fill-rule:nonzero;stroke:none"
         transform="matrix(0.13333333,0,0,-0.13333333,0,710.24)" />
      <path
         id="path58"
         d="m 5120.13,1622.32 -173.65,69.66 9.76,24.3 116.99,-46.95 16.62,41.42 20.84,-8.37 -4.5,-11.2 c -9.64,-24.04 2.74,-39.56 17.71,-45.57 l 4.81,-1.94 -8.58,-21.35"
         style="fill:#231f20;fill-opacity:1;fill-rule:nonzero;stroke:none"
         transform="matrix(0.13333333,0,0,-0.13333333,0,710.24)" />
      <path
         id="path59"
         d="m 5040.26,1496.98 c 10.73,22.33 0.98,43.94 -15.1,51.68 -17.64,8.5 -37.98,-0.59 -46.22,-17.73 -11.36,-23.6 -0.65,-48.56 3.73,-58.66 11.11,-0.84 44,-3.56 57.59,24.71 z m -88.41,103.85 c -15.35,-7.95 -29.34,-18.47 -36.82,-34.06 -11.37,-23.58 -3.05,-62.11 44.34,-87.11 -5.2,13.02 -15.25,37.36 -1.4,66.16 14.86,30.89 46.85,44.25 77.72,29.41 34.52,-16.59 42.75,-57.3 27.66,-88.71 -18.36,-38.13 -64.67,-57.39 -117.62,-31.94 -53.2,25.59 -75.14,78.3 -54.04,122.16 7.24,15.04 18.63,27.44 31.62,37.82 l 28.54,-13.73"
         style="fill:#231f20;fill-opacity:1;fill-rule:nonzero;stroke:none"
         transform="matrix(0.13333333,0,0,-0.13333333,0,710.24)" />
      <path
         id="path60"
         d="m 4869.72,1327.59 c 34.29,-19.48 72.41,-15.88 86.72,9.4 15.07,26.53 -2.64,62.37 -36.46,81.56 -33.28,18.87 -72.64,16.04 -87.12,-9.51 -16.04,-28.29 4.32,-63 36.86,-81.45 z m 64.57,115.6 c 52.34,-29.68 65.93,-80.42 44.49,-118.22 -21.72,-38.3 -73.03,-50.56 -123.37,-22.03 -52.83,29.95 -65.46,81.81 -45.42,117.09 22.7,40.07 73.98,51.71 124.3,23.16"
         style="fill:#231f20;fill-opacity:1;fill-rule:nonzero;stroke:none"
         transform="matrix(0.13333333,0,0,-0.13333333,0,710.24)" />
      <path
         id="path61"
         d="m 4657.97,1176.32 14.86,21.95 68.86,-46.64 c 8.5,-5.44 25.52,-14.16 36.02,1.33 11.3,16.67 -1.45,39.92 -22.43,54.12 l -52.43,35.52 14.83,21.92 68.89,-46.66 c 6.43,-4.34 25.03,-14.87 36.03,1.34 10.63,15.75 0.43,38.64 -23.63,54.93 l -51.26,34.71 14.86,21.94 110.84,-75.07 -13.73,-20.25 -17.82,9.63 c 4.08,-10.41 10.27,-26.43 -3.12,-46.22 -15.84,-23.34 -37.99,-17.04 -44.1,-15.3 2.83,-5.07 5.59,-9.73 6.79,-18.19 1.85,-11.64 -0.8,-22.76 -7.11,-32.03 -13.38,-19.79 -37.21,-24.17 -61.05,-8.02 l -75.3,50.99"
         style="fill:#231f20;fill-opacity:1;fill-rule:nonzero;stroke:none"
         transform="matrix(0.13333333,0,0,-0.13333333,0,710.24)" />
      <path
         id="path62"
         d="m 1084.82,698.828 -124.797,-67.937 -21.378,19.097 45.097,97.133 -0.449,0.418 -92.438,-54.848 -20.89,18.7 53.601,131.629 22.735,-20.34 -45.25,-97.758 0.469,-0.422 91.851,56.059 21.609,-19.278 -45.234,-97.769 0.445,-0.422 92.339,55.672 22.29,-19.934"
         style="fill:#231f20;fill-opacity:1;fill-rule:nonzero;stroke:none"
         transform="matrix(0.13333333,0,0,-0.13333333,0,710.24)" />
      <path
         id="path63"
         d="m 1260.81,567.281 -118.32,-78.73 -22.94,17.14 36.3,100.797 -0.48,0.371 -87.19,-62.808 -22.49,16.789 41.75,135.898 24.45,-18.25 -36.44,-101.429 0.5,-0.348 86.56,63.98 23.22,-17.32 -36.42,-101.473 0.49,-0.367 87.04,63.649 23.97,-17.899"
         style="fill:#231f20;fill-opacity:1;fill-rule:nonzero;stroke:none"
         transform="matrix(0.13333333,0,0,-0.13333333,0,710.24)" />
      <path
         id="path64"
         d="m 1448.05,451.691 -110.92,-88.882 -24.41,15.05 27.29,103.59 -0.51,0.332 -81.34,-70.269 -23.92,14.75 29.59,139.027 25.99,-16.008 -27.33,-104.25 0.52,-0.332 80.62,71.391 24.66,-15.199 -27.33,-104.231 0.52,-0.34 81.14,71.071 25.43,-15.7"
         style="fill:#231f20;fill-opacity:1;fill-rule:nonzero;stroke:none"
         transform="matrix(0.13333333,0,0,-0.13333333,0,710.24)" />
      <path
         id="path65"
         d="m 1417.88,337.641 c -4.7,-8.602 -15.49,-12.18 -23.6,-7.731 -7.54,4.172 -10.94,14.57 -6.09,23.41 4.6,8.321 15.09,12.071 23.46,7.481 8.91,-4.922 10.55,-15.352 6.23,-23.16"
         style="fill:#231f20;fill-opacity:1;fill-rule:nonzero;stroke:none"
         transform="matrix(0.13333333,0,0,-0.13333333,0,710.24)" />
      <path
         id="path66"
         d="m 1583.85,342.719 c -14.79,25.672 -33.03,34.691 -37.2,36.761 -13.24,6.579 -27.4,7.168 -31.36,-0.82 -4.36,-8.789 6.59,-18.711 19.66,-29.058 32.46,-25.411 41.84,-42.59 32.51,-61.442 -10.38,-20.879 -41.69,-28.519 -76.19,-11.422 -24.59,12.223 -36.94,29.582 -42.21,37.043 l 13.08,26.289 c 8.41,-17.691 22.35,-33.281 40.59,-42.32 13.81,-6.84 30.87,-9.191 36.35,1.898 3.84,7.762 0.33,15.282 -21.66,32.622 -24.4,18.82 -28.31,27.539 -30.96,33.351 -1.82,5.391 -4.75,13.93 0.59,24.777 9.72,19.622 37.52,26.383 69.56,10.5 21.82,-10.808 33.26,-25.148 39.63,-33.168 l -12.39,-25.011"
         style="fill:#231f20;fill-opacity:1;fill-rule:nonzero;stroke:none"
         transform="matrix(0.13333333,0,0,-0.13333333,0,710.24)" />
      <path
         id="path67"
         d="m 1659.97,397.969 c 4.06,9.23 12.44,13.711 21.17,9.84 8.17,-3.579 12.11,-12.258 7.56,-22.547 -4.26,-9.75 -13.38,-13.59 -21.53,-9.981 -9.89,4.36 -10.81,14.508 -7.2,22.688 z m 9.38,-52.918 -54.01,-122.582 -25.91,11.429 53.95,122.582 25.97,-11.429"
         style="fill:#231f20;fill-opacity:1;fill-rule:nonzero;stroke:none"
         transform="matrix(0.13333333,0,0,-0.13333333,0,710.24)" />
      <path
         id="path68"
         d="m 1855.13,130.102 -26.62,9.699 28.59,78.211 c 3.17,9.558 7.38,28.25 -11.46,35.109 -20.27,7.379 -40.54,-10.359 -49.24,-34.172 l -21.77,-59.48 -26.65,9.703 28.59,78.187 c 2.7,7.289 8.25,27.942 -11.41,35.11 -19.13,6.98 -39.78,-8.188 -49.76,-35.508 l -21.28,-58.152 -26.65,9.699 46.03,125.773 24.61,-8.949 -4.89,-19.691 c 9.53,6.328 24.23,16.007 48.25,7.238 28.39,-10.328 28.1,-33.539 28.05,-39.957 4.36,3.937 8.4,7.687 16.72,10.758 11.48,4.429 23.58,4.289 34.9,0.179 24.02,-8.757 35.15,-31.238 25.28,-58.289 l -31.29,-85.468"
         style="fill:#231f20;fill-opacity:1;fill-rule:nonzero;stroke:none"
         transform="matrix(0.13333333,0,0,-0.13333333,0,710.24)" />
      <path
         id="path69"
         d="m 2031.81,150.422 c 6.72,24.719 -5.93,49.66 -29.7,56.156 -23.79,6.461 -48.05,-8.699 -54.79,-33.43 -6.99,-25.546 7.1,-49.957 29.08,-55.968 25.27,-6.879 48.8,9.082 55.41,33.242 z m -113.86,31.027 c 10.64,38.91 50.25,58.832 90.35,47.879 42.51,-11.566 62.63,-51.367 52.92,-86.918 -10.85,-39.73 -52.69,-58.4608 -89.23,-48.4998 -41.62,11.3518 -64.59,48.9418 -54.04,87.5388"
         style="fill:#231f20;fill-opacity:1;fill-rule:nonzero;stroke:none"
         transform="matrix(0.13333333,0,0,-0.13333333,0,710.24)" />
      <path
         id="path70"
         d="m 2209.06,42.9805 -27.77,5.6289 16.29,80.7616 c 3.14,15.539 -1.03,30.797 -20.37,34.688 -26.27,5.339 -44.76,-17.668 -49.21,-39.7 l -12.59,-62.441 -27.8,5.6406 26.51,131.3324 25.38,-5.129 -2.34,-22.453 0.61,-0.149 c 7.57,7.899 21.37,21.84 49.78,16.098 33.54,-6.789 43.95,-33.278 39.65,-54.457 l -18.14,-89.8205"
         style="fill:#231f20;fill-opacity:1;fill-rule:nonzero;stroke:none"
         transform="matrix(0.13333333,0,0,-0.13333333,0,710.24)" />
      <path
         id="path71"
         d="m 2370.85,117.422 c -22.19,19.637 -42.32,22.43 -46.89,23.078 -14.68,2.031 -28.27,-1.891 -29.53,-10.75 -1.34,-9.699 12.16,-15.629 27.89,-21.309 38.83,-13.8004 53.15,-27.1324 50.27,-47.9527 -3.19,-23.1094 -30.49,-40.2695 -68.65,-34.9688 -27.19,3.7696 -44.44,16.3086 -51.75,21.6993 l 4.03,29.0898 c 13.6,-14.0898 31.78,-24.4688 51.92,-27.2305 15.28,-2.1093 32.2,1.0508 33.91,13.3125 1.19,8.5703 -4.5,14.5782 -30.89,24.0391 -29.11,10.1289 -35.6,17.1403 -39.94,21.8323 -3.4,4.539 -8.95,11.687 -7.29,23.687 3,21.68 27.21,36.91 62.65,32.02 24.12,-3.328 39.54,-13.34 48.1,-18.867 l -3.83,-27.68"
         style="fill:#231f20;fill-opacity:1;fill-rule:nonzero;stroke:none"
         transform="matrix(0.13333333,0,0,-0.13333333,0,710.24)" />
      <path
         id="path72"
         d="m 2522.71,74.2109 c 1.89,25.5391 -15.33,47.5901 -39.9,49.4181 -24.56,1.812 -45.46,-17.719 -47.34,-43.2579 -1.97,-26.4219 16.52,-47.7305 39.28,-49.4102 26.11,-1.9492 46.13,18.2383 47.96,43.25 z m -117.64,8.6875 c 2.95,40.2106 38.02,67.3316 79.48,64.2816 43.94,-3.25 71.3,-38.5 68.6,-75.2503 -3.05,-41.0586 -40.52,-67.48048 -78.28,-64.64064 -43.03,3.17184 -72.75,35.69144 -69.8,75.60934"
         style="fill:#231f20;fill-opacity:1;fill-rule:nonzero;stroke:none"
         transform="matrix(0.13333333,0,0,-0.13333333,0,710.24)" />
      <path
         id="path73"
         d="m 2623.91,44.5313 c 6.09,-6.6524 17.79,-19.6602 38.41,-19.7422 26.8,-0.0899 41.34,23.1992 41.43,45.9414 0.1,27.3789 -19.52,44.7305 -39.23,44.7895 -20.34,0.07 -40.43,-17.1294 -40.54,-45.6489 z m 0.54,155.2497 -0.31,-85.261 h 0.61 c 5.28,8.339 17.98,25.851 46.91,25.75 38.21,-0.141 62.72,-32.481 62.61,-68.1997 C 2734.1,30.8906 2702.91,-0.121094 2667.47,0 c -17.24,0.0585938 -31.68,7.03125 -43.65,18.5781 l -7.48,-15.19919 -20.93,0.0625 0.7,196.42959 28.34,-0.09"
         style="fill:#231f20;fill-opacity:1;fill-rule:nonzero;stroke:none"
         transform="matrix(0.13333333,0,0,-0.13333333,0,710.24)" />
      <path
         id="path74"
         d="m 2871.84,108.09 c -25.61,14.84 -45.93,13.601 -50.55,13.308 -14.77,-0.91 -27.36,-7.449 -26.79,-16.347 0.59,-9.7815 14.98,-12.9104 31.52,-15.3791 40.8,-5.8399 57.49,-16.0508 58.78,-37.0313 1.41,-23.3008 -21.93,-45.51169 -60.37,-47.8906 -27.37,-1.67969 -46.79,7.2305 -55.06,11.0508 l -1.8,29.289 c 16.13,-11.1093 36,-17.6679 56.29,-16.3984 15.42,0.9375 31.39,7.3984 30.62,19.75 -0.55,8.6289 -7.31,13.4102 -35.04,17.457 -30.52,4.1719 -38.3,9.75 -43.48,13.4805 -4.21,3.7695 -11.06,9.6797 -11.81,21.7811 -1.34,21.828 19.35,41.57 55.08,43.781 24.3,1.489 41.38,-5.261 50.9,-8.98 l 1.71,-27.871"
         style="fill:#231f20;fill-opacity:1;fill-rule:nonzero;stroke:none"
         transform="matrix(0.13333333,0,0,-0.13333333,0,710.24)" />
      <path
         id="path75"
         d="m 3013.05,115.309 c -4.97,17.652 -20.97,24.089 -34.75,22.41 -5.51,-0.66 -25.67,-3.43 -34.41,-30.899 z m -70.24,-30.0707 c 6.49,-35.1797 37.29,-40.6563 53.2,-38.7188 20.79,2.5586 37.72,16.5196 50.19,31.3907 l 3.9,-32 c -8.47,-6.8399 -26.5,-21.8204 -55.86,-25.4102 -45.89,-5.6406 -77.33,25.3008 -81.68,60.7383 -4.97,40.8517 25.75,73.6137 63.09,78.1797 13.13,1.641 37.82,0.332 55.03,-18.18 14.3,-15.34 16.73,-33.008 18,-43.0075 L 2942.81,85.2383"
         style="fill:#231f20;fill-opacity:1;fill-rule:nonzero;stroke:none"
         transform="matrix(0.13333333,0,0,-0.13333333,0,710.24)" />
      <path
         id="path76"
         d="m 3160.08,158.898 c -6.47,1.172 -10.64,1.883 -15.8,0.993 -22.76,-4.051 -35.08,-29.672 -30.35,-56.039 l 10.76,-60.4028 -27.9,-4.9687 -23.52,131.8395 25.45,4.551 6.54,-24.293 0.61,0.121 c 1.8,9.09 6.74,28.692 34.35,33.61 1.22,0.211 7.88,1.41 15.17,0.961 l 4.69,-26.372"
         style="fill:#231f20;fill-opacity:1;fill-rule:nonzero;stroke:none"
         transform="matrix(0.13333333,0,0,-0.13333333,0,710.24)" />
      <path
         id="path77"
         d="m 3202.15,195.109 63.19,-91.3 16.29,110.152 30,7.098 -26.35,-143.9184 -27.28,-6.4492 -86.76,117.0896 30.91,7.328"
         style="fill:#231f20;fill-opacity:1;fill-rule:nonzero;stroke:none"
         transform="matrix(0.13333333,0,0,-0.13333333,0,710.24)" />
      <path
         id="path78"
         d="m 3420.21,180.98 c -33.28,-14.601 -45.73,-23.48 -41.48,-37.55 3.46,-11.571 17.78,-16.258 30.79,-12.352 5,1.524 34.57,12.293 23.37,55.863 -1.66,-0.82 -8.51,-3.8 -12.68,-5.961 z m 49.74,-18.652 c 1.68,-5.539 4.84,-9.66 11.92,-7.527 1.2,0.347 4.72,1.437 8.86,4.789 l 6.31,-20.961 c -5.98,-3.598 -11.15,-6.68 -18.85,-9.02 -18.28,-5.531 -27.72,1.243 -32.01,14.391 l -0.59,-0.191 c -3.21,-9.68 -10.06,-28.618 -35.15,-36.207 -22.69,-6.872 -52.99,0.789 -60.73,26.437 -10.64,35.289 32.82,54.492 77.2,72.723 -6.77,19.316 -28.59,19.039 -41.27,15.218 -20.34,-6.171 -32.29,-22.128 -40.53,-33.359 l -8.2,27.328 c 8.16,8.18 24.21,23.281 47.23,30.242 37.76,11.43 63.03,-8.3 69.91,-31.171 l 15.9,-52.692"
         style="fill:#231f20;fill-opacity:1;fill-rule:nonzero;stroke:none"
         transform="matrix(0.13333333,0,0,-0.13333333,0,710.24)" />
      <path
         id="path79"
         d="m 3506.81,325.828 13.62,-37.617 36.54,13.187 7.64,-21.089 -36.54,-13.207 24.58,-67.973 c 5.33,-14.649 17.03,-13.461 25.43,-10.41 4.93,1.769 9.88,4.472 15.82,10.609 l 8.14,-22.469 c -4.34,-3.398 -11.47,-9.05 -24.54,-13.789 -22.9,-8.269 -40.33,-4.468 -48.65,18.52 l -27.46,75.82 -22.58,-8.172 -7.65,21.114 22.65,8.179 -11.05,38.61 24.05,8.687"
         style="fill:#231f20;fill-opacity:1;fill-rule:nonzero;stroke:none"
         transform="matrix(0.13333333,0,0,-0.13333333,0,710.24)" />
      <path
         id="path80"
         d="m 3710.6,292.879 c -10.08,23.519 -35.49,35.223 -58.15,25.543 -22.66,-9.652 -32.25,-36.613 -22.17,-60.16 10.36,-24.364 36.58,-34.762 57.54,-25.813 24.09,10.27 32.6,37.379 22.78,60.43 z m -108.51,-46.32 c -15.82,37.062 2.81,77.261 41.08,93.562 40.5,17.301 80.98,-1.402 95.46,-35.293 16.17,-37.848 -4.97,-78.5 -39.79,-93.379 -39.68,-16.918 -81.03,-1.711 -96.75,35.11"
         style="fill:#231f20;fill-opacity:1;fill-rule:nonzero;stroke:none"
         transform="matrix(0.13333333,0,0,-0.13333333,0,710.24)" />
      <path
         id="path81"
         d="m 3833.93,397.172 c -6.54,-0.684 -10.78,-1.172 -15.47,-3.492 -20.72,-10.289 -25.36,-38.321 -13.45,-62.301 l 27.25,-54.91 -25.4,-12.617 -59.49,119.886 23.16,11.512 13.05,-21.469 0.57,0.278 c -0.8,9.242 -1.55,29.441 23.57,41.902 1.11,0.57 7.18,3.598 14.3,5.187 l 11.91,-23.976"
         style="fill:#231f20;fill-opacity:1;fill-rule:nonzero;stroke:none"
         transform="matrix(0.13333333,0,0,-0.13333333,0,710.24)" />
      <path
         id="path82"
         d="m 3863.7,443.5 88.96,-72.371 0.54,0.301 -20.34,111.332 26.53,15.097 23.91,-171.277 c 3.98,-28.883 -3.7,-47.16 -22.74,-57.961 -9.09,-5.191 -17.09,-6.73 -21.14,-7.699 l -11.65,20.508 c 8.37,1.461 13.22,2.91 17.53,5.351 15.55,8.809 13.17,27.348 8.87,52.41 l -118.88,88.168 28.41,16.141"
         style="fill:#231f20;fill-opacity:1;fill-rule:nonzero;stroke:none"
         transform="matrix(0.13333333,0,0,-0.13333333,0,710.24)" />
      <path
         id="path83"
         d="m 4045.5,414.559 c 5.11,-8.36 2.89,-19.489 -4.99,-24.348 -7.36,-4.52 -18.07,-2.32 -23.34,6.277 -4.98,8.09 -3.03,19.102 5.12,24.09 8.67,5.332 18.55,1.582 23.21,-6.019"
         style="fill:#231f20;fill-opacity:1;fill-rule:nonzero;stroke:none"
         transform="matrix(0.13333333,0,0,-0.13333333,0,710.24)" />
      <path
         id="path84"
         d="m 4149.96,543.801 c -14.44,21.14 -41.67,27.648 -61.96,13.711 -20.36,-13.934 -24.53,-42.262 -10.06,-63.422 14.93,-21.879 42.67,-26.949 61.5,-14.059 21.6,14.778 24.68,43.09 10.52,63.77 z m -97.34,-66.731 c -22.73,33.309 -12.3,76.43 22.04,99.91 36.34,24.918 79.7,14.489 100.49,-15.96 23.21,-33.981 10.38,-78.032 -20.88,-99.438 -35.6,-24.383 -79.08,-17.562 -101.65,15.488"
         style="fill:#231f20;fill-opacity:1;fill-rule:nonzero;stroke:none"
         transform="matrix(0.13333333,0,0,-0.13333333,0,710.24)" />
      <path
         id="path85"
         d="m 4249.8,669.25 c -6.33,-1.941 -10.36,-3.23 -14.5,-6.441 -18.31,-14.079 -17.42,-42.469 -1.05,-63.649 l 37.42,-48.519 -22.45,-17.321 -81.73,105.93 20.47,15.809 17.03,-18.5 0.5,0.382 c -2.63,8.911 -7.27,28.547 14.93,45.649 0.97,0.781 6.35,4.898 13.04,7.859 l 16.34,-21.199"
         style="fill:#231f20;fill-opacity:1;fill-rule:nonzero;stroke:none"
         transform="matrix(0.13333333,0,0,-0.13333333,0,710.24)" />
      <path
         id="path86"
         d="m 4354.99,743.148 c -9.49,0.172 -25.1,0.75 -39.51,-11.757 -17.02,-14.719 -21.55,-39.61 -3.24,-60.75 15.64,-18.051 39.75,-23.821 58.18,-7.903 18.37,15.961 17.36,42.543 0.39,62.133 z m -20.63,33.243 16.76,14.531 77.14,-89.094 c 17.9,-20.687 28.61,-37.308 25.36,-62.238 -2.96,-23.91 -18.45,-40.379 -27.28,-48.031 -20.02,-17.36 -42.43,-21.137 -53.42,-23.039 l -21.47,24.832 c 12.61,-0.473 38.44,-0.622 59.37,17.527 13.27,11.5 18.14,29.851 13.64,44.973 -2.79,9.796 -15.8,24.82 -22.33,32.886 h -0.87 c 0.21,-8.207 0.72,-31.41 -19.79,-49.148 -26.05,-22.602 -66.65,-18.551 -91.54,10.211 -24.49,28.34 -24.66,70.879 4.45,96.078 15.1,13.121 29.2,14.289 45.33,14.93 l -5.35,15.582"
         style="fill:#231f20;fill-opacity:1;fill-rule:nonzero;stroke:none"
         transform="matrix(0.13333333,0,0,-0.13333333,0,710.24)" />
      <path
         id="path87"
         d="m 397.828,2634.95 c 0,-1252.86 1015.652,-2268.52 2268.522,-2268.52 1252.87,0 2268.52,1015.66 2268.52,2268.52 0,1252.87 -1015.65,2268.52 -2268.52,2268.52 -1252.87,0 -2268.522,-1015.65 -2268.522,-2268.52"
         style="fill:#231f20;fill-opacity:1;fill-rule:nonzero;stroke:none"
         transform="matrix(0.13333333,0,0,-0.13333333,0,710.24)" />
      <path
         id="path88"
         d="m 397.828,2634.95 c 0,-1252.86 1015.652,-2268.52 2268.522,-2268.52 1252.87,0 2268.52,1015.66 2268.52,2268.52 0,1252.87 -1015.65,2268.52 -2268.52,2268.52 -1252.87,0 -2268.522,-1015.65 -2268.522,-2268.52 z"
         style="fill:none;stroke:#231f20;stroke-width:76.9028;stroke-linecap:butt;stroke-linejoin:miter;stroke-miterlimit:10;stroke-dasharray:none;stroke-opacity:1"
         transform="matrix(0.13333333,0,0,-0.13333333,0,710.24)" />
      <path
         id="path89"
         d="m 797.809,1439.47 c 0,0 176.007,31.52 246.221,73.87 89.92,54.23 357.01,320.07 504.74,307.77 l 196.98,-320.09 488.01,-488.1 198.26,-81.119 c 0,0 342.32,-94.25 414.74,-119.813 100.11,-35.328 447.58,-312.129 447.58,-312.129 117.79,-76.558 -84.41,-88.218 -106,-88.339 l -141.35,-53.008 c 0,0 -172.57,-39.321 -206.12,-41.223 -159.21,-9.008 -287.06,26.41 -306.81,28.602 -162.21,18.019 -498.5,125.211 -543.37,169.558 -43.59,43.051 -189.05,35.071 -247.36,79.5 -52.34,39.871 -170.45,59.18 -212.01,114.84 -51.48,68.93 -198.09,105.871 -212.02,132.512 -7.93,15.168 -267.08,215.419 -273.85,229.689 -36.95,77.73 -247.641,367.48 -247.641,367.48"
         style="fill:#f1511b;fill-opacity:1;fill-rule:nonzero;stroke:none"
         transform="matrix(0.13333333,0,0,-0.13333333,0,710.24)" />
      <path
         id="path90"
         d="m 4093.18,912.98 c -92.12,40.36 -325.7,73.372 -427.81,116.92 -32.87,14.02 -123.67,47.11 -123.67,47.11 0,0 -98.1,-83.35 -148.44,-87.928 -50.34,-4.582 -134.88,31.648 -228.83,22.878 -123.33,-11.5 -347.13,-111.628 -347.13,-111.628 0,0 100.13,-35.332 235.58,-164.902 68.91,-65.918 153.12,-129.559 247.35,-241.461 32.19,-38.231 387.23,133.98 387.23,133.98 l 405.72,285.031"
         style="fill:#f1511b;fill-opacity:1;fill-rule:nonzero;stroke:none"
         transform="matrix(0.13333333,0,0,-0.13333333,0,710.24)" />
      <path
         id="path91"
         d="m 2414.72,1428.29 229.13,3467.91 c 0,0 563.41,22.52 1145.2,-297.36 C 4400.5,4262.65 4696,3644.77 4696,3644.77 L 2732.74,1275.16"
         style="fill:#444142;fill-opacity:1;fill-rule:nonzero;stroke:none"
         transform="matrix(0.13333333,0,0,-0.13333333,0,710.24)" />
      <path
         id="path92"
         d="m 397.828,2634.95 c 0,-1252.86 1015.652,-2268.52 2268.522,-2268.52 1252.87,0 2268.52,1015.66 2268.52,2268.52 0,1252.87 -1015.65,2268.52 -2268.52,2268.52 -1252.87,0 -2268.522,-1015.65 -2268.522,-2268.52 z"
         style="fill:none;stroke:#231f20;stroke-width:51.7212;stroke-linecap:butt;stroke-linejoin:miter;stroke-miterlimit:10;stroke-dasharray:none;stroke-opacity:1"
         transform="matrix(0.13333333,0,0,-0.13333333,0,710.24)" />
      <path
         id="path93"
         d="m 3812.29,4201.24 2.54,1.22 -2.64,-1.13 3.76,4.11 -4.15,-3.82 1.02,2.79 -1.12,-2.59 -0.3,8.5 -0.24,-8.55 -1.22,2.59 1.07,-2.74 -4.1,3.82 3.81,-4.11 -2.73,0.98 2.53,-1.07 -8.45,-0.3 8.5,-0.24 -2.58,-1.23 2.73,1.08 -3.81,-4.11 4.1,3.82 -0.97,-2.79 1.12,2.59 0.24,-8.4 0.3,8.45 1.22,-2.59 -1.03,2.74 4.06,-3.82 -3.85,4.11 2.78,-0.98 -2.55,1.13 8.46,0.24 -8.5,0.3"
         style="fill:#ffffff;fill-opacity:1;fill-rule:nonzero;stroke:none"
         transform="matrix(0.13333333,0,0,-0.13333333,0,710.24)" />
      <path
         id="path94"
         d="m 2850.03,3431.96 18.18,8.27 -19.9,-7.09 27.43,29.43 -29.04,-27.23 7.53,19.31 -9,-18.38 -1.85,60.75 -1.57,-60.26 -8.26,18.18 7.09,-19.89 -29.47,27.42 27.27,-29.04 -19.31,7.44 18.38,-8.91 -60.8,-1.85 60.31,-1.56 -18.18,-8.27 19.9,7.09 -27.43,-29.47 29.04,27.22 -7.48,-19.25 8.94,18.37 1.86,-60.8 1.56,60.31 8.26,-18.23 -7.09,19.9 29.48,-27.37 -27.27,29.03 19.31,-7.53 -18.38,9 60.75,1.86 -60.26,1.55"
         style="fill:#ffffff;fill-opacity:1;fill-rule:nonzero;stroke:none"
         transform="matrix(0.13333333,0,0,-0.13333333,0,710.24)" />
      <path
         id="path95"
         d="m 1924.02,4302.63 2.58,-5.38 -2.18,5.67 8.5,-8 -8,8.58 5.82,-2.03 -5.38,2.4 17.66,0.5 -17.73,0.51 5.38,2.62 -5.67,-2.18 7.99,8.5 -8.65,-7.99 2.11,5.81 -2.43,-5.37 -0.47,17.65 -0.58,-17.73 -2.59,5.37 2.22,-5.73 -8.5,8.06 7.99,-8.64 -5.81,2.03 5.34,-2.4 -17.62,-0.43 17.73,-0.58 -5.38,-2.62 5.67,2.18 -7.99,-8.43 8.64,7.99 -2.11,-5.82 2.41,5.32 0.5,-17.6 0.55,17.74"
         style="fill:#ffffff;fill-opacity:1;fill-rule:nonzero;stroke:none"
         transform="matrix(0.13333333,0,0,-0.13333333,0,710.24)" />
      <path
         id="path96"
         d="m 4730.21,2349.27 3.47,-7.22 -2.93,7.62 11.44,-10.76 -10.76,11.55 7.83,-2.74 -7.24,3.22 23.76,0.68 -23.85,0.69 7.23,3.52 -7.63,-2.93 10.75,11.43 -11.63,-10.75 2.83,7.82 -3.27,-7.23 -0.63,23.76 -0.78,-23.86 -3.47,7.23 2.98,-7.72 -11.44,10.85 10.75,-11.63 -7.82,2.73 7.19,-3.22 -23.71,-0.58 23.85,-0.79 -7.23,-3.52 7.63,2.94 -10.76,-11.34 11.64,10.74 -2.84,-7.81 3.23,7.14 0.68,-23.66 0.73,23.84"
         style="fill:#ffffff;fill-opacity:1;fill-rule:nonzero;stroke:none"
         transform="matrix(0.13333333,0,0,-0.13333333,0,710.24)" />
      <path
         id="path97"
         d="m 3738.64,1604.41 3.47,-7.23 -2.94,7.62 11.44,-10.75 -10.75,11.54 7.81,-2.74 -7.22,3.23 23.75,0.67 -23.85,0.7 7.24,3.51 -7.63,-2.93 10.75,11.44 -11.63,-10.75 2.83,7.81 -3.27,-7.23 -0.64,23.75 -0.78,-23.84 -3.47,7.22 2.99,-7.71 -11.45,10.85 10.75,-11.63 -7.81,2.73 7.18,-3.22 -23.7,-0.59 23.84,-0.78 -7.23,-3.52 7.62,2.93 -10.75,-11.34 11.63,10.75 -2.83,-7.82 3.23,7.15 0.69,-23.68 0.73,23.86"
         style="fill:#ffffff;fill-opacity:1;fill-rule:nonzero;stroke:none"
         transform="matrix(0.13333333,0,0,-0.13333333,0,710.24)" />
      <path
         id="path98"
         d="m 2385.41,2367.46 3.47,-7.24 -2.93,7.63 11.44,-10.75 -10.76,11.54 7.83,-2.74 -7.24,3.22 23.75,0.68 -23.84,0.69 7.23,3.52 -7.62,-2.94 10.74,11.45 -11.63,-10.76 2.83,7.82 -3.27,-7.23 -0.63,23.75 -0.78,-23.86 -3.48,7.24 2.99,-7.72 -11.44,10.85 10.75,-11.63 -7.82,2.74 7.18,-3.23 -23.7,-0.59 23.85,-0.78 -7.23,-3.52 7.62,2.93 -10.75,-11.34 11.64,10.76 -2.84,-7.83 3.23,7.14 0.68,-23.66 0.73,23.86"
         style="fill:#ffffff;fill-opacity:1;fill-rule:nonzero;stroke:none"
         transform="matrix(0.13333333,0,0,-0.13333333,0,710.24)" />
      <path
         id="path99"
         d="m 3320.75,2535.08 -1.48,5.43 1.02,-5.88 -7,8.96 6.37,-9.3 -5.04,2.85 4.73,-3.15 -17,2.04 16.68,-3.06 -5.35,-1.5 5.74,1.1 -8.82,-7.01 9.21,6.38 -2.83,-5.04 3.23,4.65 -2.12,-16.92 3.08,16.68 1.48,-5.36 -1.09,5.75 7.07,-8.89 -6.44,9.29 5.02,-2.91 -4.71,3.23 17,-2.05 -16.69,2.99 5.36,1.57 -5.76,-1.11 8.91,6.94 -9.3,-6.3 2.92,5.03 -3.22,-4.72 2.05,17.01 -3.02,-16.7"
         style="fill:#ffffff;fill-opacity:1;fill-rule:nonzero;stroke:none"
         transform="matrix(0.13333333,0,0,-0.13333333,0,710.24)" />
      <path
         id="path100"
         d="m 4323.01,1503.8 -6.85,14.07 5.71,-14.76 -22.33,20.92 21.07,-22.59 -15.25,5.48 13.97,-6.44 -46.28,-1.28 46.63,-1.37 -14.08,-6.84 14.82,5.76 -20.98,-22.39 22.68,21.13 -5.47,-15.26 6.36,13.99 1.22,-46.34 1.41,46.73 6.85,-14.18 -5.72,14.86 22.34,-21.02 -21.08,22.68 15.26,-5.37 -14.03,6.25 46.33,1.27 -46.63,1.38 14.08,6.83 -14.81,-5.76 20.93,22.38 -22.64,-21.01 5.43,15.24 -6.31,-13.97 -1.27,46.33 -1.36,-46.72"
         style="fill:#ffffff;fill-opacity:1;fill-rule:nonzero;stroke:none"
         transform="matrix(0.13333333,0,0,-0.13333333,0,710.24)" />
      <path
         id="path101"
         d="m 810.09,3491.56 -2.445,4.99 2.007,-5.28 -7.968,7.43 7.523,-8.02 -5.426,1.86 4.938,-2.15 -16.422,-0.5 16.621,-0.48 -5.082,-2.45 5.273,2.06 -7.425,-7.92 8.058,7.43 -1.953,-5.37 2.301,4.98 0.387,-16.52 0.492,16.62 2.441,-4.99 -2,5.28 7.961,-7.53 -7.527,8.11 5.429,-1.95 -4.937,2.25 16.422,0.48 -16.617,0.5 5.082,2.44 -5.278,-2.15 7.426,8.02 -8.058,-7.53 1.902,5.47 -2.246,-4.98 -0.391,16.42 -0.488,-16.52"
         style="fill:#ffffff;fill-opacity:1;fill-rule:nonzero;stroke:none"
         transform="matrix(0.13333333,0,0,-0.13333333,0,710.24)" />
      <path
         id="path102"
         d="m 3266.77,4592.98 2.67,-9.92 -1.88,10.23 11.81,-16.37 -10.72,17.32 9.15,-5.36 -8.19,5.83 30.15,-5.03 -30.08,6.76 10,2.68 -10.24,-1.89 16.3,11.89 -17.3,-10.8 5.41,9.15 -5.82,-8.2 5.03,30.07 -6.83,-29.99 -2.69,10 1.9,-10.39 -11.81,16.46 10.78,-17.4 -9.3,5.5 8.34,-5.82 -30.21,4.96 30.06,-6.77 -9.91,-2.6 10.31,1.74 -16.29,-11.66 17.16,10.7 -5.35,-9.13 5.81,8.19 -5.02,-30.23 6.76,30.08"
         style="fill:#ffffff;fill-opacity:1;fill-rule:nonzero;stroke:none"
         transform="matrix(0.13333333,0,0,-0.13333333,0,710.24)" />
      <path
         id="path103"
         d="m 2625.38,4728.43 0.94,-3.54 -0.63,3.7 4.17,-5.83 -3.85,6.14 3.3,-1.88 -2.99,2.05 10.78,-1.81 -10.63,2.44 3.47,0.94 -3.62,-0.71 5.83,4.17 -6.22,-3.78 1.96,3.32 -2.05,-3 1.74,10.7 -2.35,-10.62 -0.96,3.55 0.63,-3.72 -4.26,5.83 3.95,-6.06 -3.31,1.89 2.92,-2.12 -10.63,1.8 10.54,-2.43 -3.47,-0.87 3.63,0.63 -5.83,-4.25 6.15,3.86 -1.9,-3.23 2.05,2.83 -1.74,-10.7 2.38,10.7"
         style="fill:#ffffff;fill-opacity:1;fill-rule:nonzero;stroke:none"
         transform="matrix(0.13333333,0,0,-0.13333333,0,710.24)" />
      <path
         id="path104"
         d="m 1403.42,4372.96 0.94,-3.54 -0.63,3.7 4.17,-5.83 -3.85,6.14 3.3,-1.88 -2.99,2.05 10.78,-1.81 -10.63,2.44 3.47,0.94 -3.62,-0.71 5.83,4.17 -6.22,-3.77 1.96,3.3 -2.05,-2.99 1.74,10.7 -2.36,-10.62 -0.95,3.55 0.63,-3.71 -4.26,5.82 3.95,-6.05 -3.31,1.89 2.92,-2.13 -10.63,1.81 10.55,-2.44 -3.48,-0.87 3.63,0.63 -5.83,-4.26 6.15,3.87 -1.9,-3.23 2.06,2.83 -1.75,-10.7 2.38,10.7"
         style="fill:#ffffff;fill-opacity:1;fill-rule:nonzero;stroke:none"
         transform="matrix(0.13333333,0,0,-0.13333333,0,710.24)" />
      <path
         id="path105"
         d="m 726.492,2086.79 -1.207,11.46 0.278,-12.14 -11.071,20.34 9.528,-20.84 -9.129,7.59 8.367,-8.2 -33.43,10.05 32.563,-11.86 -11.438,-1.17 12.141,0.22 -20.344,-11.01 20.852,9.49 -7.618,-9.16 8.231,8.43 -10.059,-33.49 11.856,32.6 1.152,-11.41 -0.254,12.13 11.074,-20.34 -9.554,20.85 9.16,-7.65 -8.375,8.21 33.433,-10 -32.558,11.79 11.43,1.19 -12.137,-0.22 20.347,11.06 -20.82,-9.56 7.61,9.17 -8.231,-8.37 10.027,33.43 -11.824,-32.59"
         style="fill:#ffffff;fill-opacity:1;fill-rule:nonzero;stroke:none"
         transform="matrix(0.13333333,0,0,-0.13333333,0,710.24)" />
      <path
         id="path106"
         d="m 1100.31,1791.11 -2.1,19.93 0.48,-21.11 -19.26,35.39 16.57,-36.27 -15.88,13.2 14.56,-14.27 -58.16,17.5 56.65,-20.63 -19.9,-2.05 21.12,0.39 -35.39,-19.16 36.27,16.52 -13.25,-15.94 14.33,14.66 -17.5,-58.26 20.62,56.7 2.01,-19.83 -0.44,21.1 19.26,-35.39 -16.63,36.27 15.94,-13.3 -14.57,14.28 58.17,-17.41 -56.65,20.53 19.89,2.06 -21.12,-0.39 35.4,19.26 -36.22,-16.62 13.25,15.94 -14.33,-14.56 17.45,58.15 -20.57,-56.69"
         style="fill:#ffffff;fill-opacity:1;fill-rule:nonzero;stroke:none"
         transform="matrix(0.13333333,0,0,-0.13333333,0,710.24)" />
      <path
         id="path107"
         d="m 2898.91,2446.6 -6.84,14.08 5.72,-14.76 -22.33,20.92 21.06,-22.59 -15.25,5.48 13.97,-6.45 -46.28,-1.27 46.62,-1.37 -14.07,-6.83 14.82,5.76 -20.98,-22.4 22.68,21.13 -5.46,-15.26 6.34,13.99 1.22,-46.34 1.42,46.73 6.85,-14.18 -5.73,14.86 22.35,-21.01 -21.08,22.67 15.26,-5.37 -14.04,6.25 46.35,1.27 -46.63,1.37 14.07,6.84 -14.8,-5.76 20.92,22.38 -22.64,-21.01 5.43,15.24 -6.31,-13.97 -1.27,46.34 -1.37,-46.74"
         style="fill:#ffffff;fill-opacity:1;fill-rule:nonzero;stroke:none"
         transform="matrix(0.13333333,0,0,-0.13333333,0,710.24)" />
      <path
         id="path108"
         d="m 4562.42,3117.16 -2.45,5 2.01,-5.29 -7.97,7.43 7.53,-8.01 -5.43,1.85 4.94,-2.15 -16.42,-0.49 16.62,-0.49 -5.09,-2.44 5.27,2.06 -7.42,-7.93 8.07,7.43 -1.96,-5.37 2.3,4.98 0.38,-16.52 0.5,16.62 2.44,-4.98 -2,5.27 7.97,-7.52 -7.53,8.11 5.42,-1.96 -4.93,2.25 16.42,0.49 -16.62,0.49 5.09,2.45 -5.29,-2.15 7.44,8.01 -8.07,-7.53 1.9,5.48 -2.24,-4.99 -0.39,16.43 -0.49,-16.53"
         style="fill:#ffffff;fill-opacity:1;fill-rule:nonzero;stroke:none"
         transform="matrix(0.13333333,0,0,-0.13333333,0,710.24)" />
      <path
         id="path109"
         d="m 4329.79,2173.7 2.67,-9.91 -1.88,10.22 11.81,-16.38 -10.71,17.33 9.14,-5.36 -8.19,5.83 30.15,-5.03 -30.08,6.76 10,2.68 -10.24,-1.88 16.31,11.88 -17.32,-10.79 5.42,9.14 -5.81,-8.19 5.02,30.07 -6.83,-30 -2.69,10 1.9,-10.4 -11.81,16.47 10.79,-17.4 -9.3,5.5 8.34,-5.82 -30.22,4.97 30.07,-6.78 -9.92,-2.6 10.31,1.74 -16.29,-11.66 17.16,10.71 -5.35,-9.14 5.81,8.18 -5.03,-30.22 6.77,30.08"
         style="fill:#ffffff;fill-opacity:1;fill-rule:nonzero;stroke:none"
         transform="matrix(0.13333333,0,0,-0.13333333,0,710.24)" />
      <path
         id="path110"
         d="m 3505.15,1987.64 0.71,-2.63 -0.48,2.75 3.1,-4.34 -2.86,4.57 2.45,-1.4 -2.21,1.52 8.01,-1.35 -7.91,1.82 2.58,0.7 -2.68,-0.52 4.32,3.09 -4.62,-2.8 1.46,2.46 -1.52,-2.23 1.29,7.96 -1.75,-7.9 -0.72,2.64 0.48,-2.76 -3.16,4.33 2.93,-4.5 -2.46,1.41 2.16,-1.59 -7.9,1.35 7.85,-1.81 -2.58,-0.65 2.68,0.47 -4.32,-3.16 4.57,2.87 -1.41,-2.41 1.53,2.11 -1.3,-7.96 1.76,7.96"
         style="fill:#ffffff;fill-opacity:1;fill-rule:nonzero;stroke:none"
         transform="matrix(0.13333333,0,0,-0.13333333,0,710.24)" />
      <path
         id="path111"
         d="m 2604.35,2217.2 0.94,-3.54 -0.63,3.7 4.17,-5.83 -3.85,6.14 3.3,-1.88 -2.99,2.05 10.79,-1.82 -10.64,2.44 3.47,0.95 -3.62,-0.71 5.83,4.17 -6.22,-3.78 1.96,3.31 -2.05,-2.99 1.75,10.69 -2.36,-10.61 -0.96,3.54 0.63,-3.71 -4.25,5.83 3.94,-6.06 -3.31,1.89 2.92,-2.13 -10.63,1.81 10.54,-2.43 -3.46,-0.87 3.62,0.63 -5.83,-4.25 6.15,3.85 -1.89,-3.23 2.05,2.84 -1.74,-10.7 2.37,10.7"
         style="fill:#ffffff;fill-opacity:1;fill-rule:nonzero;stroke:none"
         transform="matrix(0.13333333,0,0,-0.13333333,0,710.24)" />
      <path
         id="path112"
         d="m 2863.85,4300.36 0.94,-3.55 -0.63,3.7 4.17,-5.83 -3.85,6.15 3.3,-1.89 -2.99,2.05 10.78,-1.81 -10.62,2.43 3.47,0.96 -3.63,-0.72 5.83,4.17 -6.22,-3.77 1.96,3.3 -2.05,-2.98 1.74,10.69 -2.35,-10.62 -0.96,3.55 0.64,-3.71 -4.26,5.83 3.94,-6.06 -3.31,1.88 2.92,-2.12 -10.63,1.81 10.55,-2.44 -3.47,-0.87 3.62,0.63 -5.83,-4.25 6.15,3.86 -1.89,-3.23 2.05,2.84 -1.75,-10.71 2.38,10.71"
         style="fill:#ffffff;fill-opacity:1;fill-rule:nonzero;stroke:none"
         transform="matrix(0.13333333,0,0,-0.13333333,0,710.24)" />
      <path
         id="path113"
         d="m 3408.6,1447.5 -1.67,16.29 0.36,-17.31 -15.84,29.07 13.63,-29.79 -13.04,10.9 11.99,-11.78 -47.83,14.39 46.59,-16.93 -16.39,-1.67 17.41,0.36 -29.12,-15.91 29.77,13.67 -10.86,-13.09 11.74,11.98 -14.4,-47.82 17.01,46.59 1.67,-16.35 -0.36,17.38 15.84,-29.07 -13.7,29.79 13.12,-10.91 -11.99,11.79 47.83,-14.41 -46.59,16.95 16.34,1.67 -17.36,-0.36 29.1,15.9 -29.79,-13.73 10.86,13.16 -11.73,-12.07 14.42,47.91 -17.01,-46.6"
         style="fill:#ffffff;fill-opacity:1;fill-rule:nonzero;stroke:none"
         transform="matrix(0.13333333,0,0,-0.13333333,0,710.24)" />
      <path
         id="path114"
         d="m 3616.54,3955.61 2.83,2.01 -3.17,-1.86 3.67,5.96 -4.01,-5.62 0.58,3.56 -0.88,-3.47 -2.4,10.32 1.77,-10.36 -2,2.84 1.85,-3.13 -5.96,3.61 5.67,-4 -3.56,0.63 3.46,-0.93 -10.37,-2.35 10.37,1.76 -2.84,-2.05 3.23,1.91 -3.72,-6.01 4.06,5.66 -0.63,-3.52 0.88,3.43 2.39,-10.37 -1.76,10.41 2.01,-2.83 -1.86,3.18 5.97,-3.72 -5.68,4.11 3.62,-0.69 -3.52,0.98 10.36,2.34 -10.36,-1.8"
         style="fill:#ffffff;fill-opacity:1;fill-rule:nonzero;stroke:none"
         transform="matrix(0.13333333,0,0,-0.13333333,0,710.24)" />
      <path
         id="path115"
         d="m 2983.97,1998.17 0.7,-2.64 -0.47,2.76 3.1,-4.34 -2.86,4.57 2.45,-1.4 -2.22,1.52 8.01,-1.35 -7.9,1.82 2.58,0.7 -2.69,-0.53 4.33,3.1 -4.63,-2.8 1.47,2.45 -1.53,-2.22 1.3,7.95 -1.76,-7.89 -0.71,2.64 0.47,-2.77 -3.16,4.34 2.94,-4.5 -2.46,1.39 2.16,-1.58 -7.9,1.35 7.84,-1.81 -2.58,-0.64 2.69,0.47 -4.32,-3.17 4.57,2.87 -1.42,-2.4 1.53,2.11 -1.3,-7.96 1.77,7.96"
         style="fill:#ffffff;fill-opacity:1;fill-rule:nonzero;stroke:none"
         transform="matrix(0.13333333,0,0,-0.13333333,0,710.24)" />
      <path
         id="path116"
         d="m 4165.6,1391.43 0.71,-2.63 -0.48,2.75 3.1,-4.34 -2.86,4.57 2.45,-1.4 -2.21,1.52 8.01,-1.35 -7.91,1.82 2.58,0.7 -2.68,-0.52 4.32,3.09 -4.62,-2.8 1.46,2.46 -1.53,-2.23 1.3,7.95 -1.75,-7.89 -0.72,2.64 0.47,-2.77 -3.15,4.34 2.93,-4.5 -2.46,1.4 2.16,-1.59 -7.9,1.35 7.85,-1.81 -2.58,-0.64 2.68,0.47 -4.32,-3.17 4.57,2.88 -1.41,-2.41 1.52,2.11 -1.29,-7.96 1.76,7.96"
         style="fill:#ffffff;fill-opacity:1;fill-rule:nonzero;stroke:none"
         transform="matrix(0.13333333,0,0,-0.13333333,0,710.24)" />
      <path
         id="path117"
         d="m 3139.23,3362.63 0.93,-3.54 -0.63,3.7 4.17,-5.83 -3.84,6.14 3.3,-1.89 -3,2.06 10.79,-1.81 -10.63,2.43 3.47,0.95 -3.63,-0.71 5.83,4.17 -6.22,-3.78 1.97,3.31 -2.05,-2.99 1.74,10.7 -2.36,-10.62 -0.96,3.54 0.64,-3.71 -4.26,5.83 3.95,-6.06 -3.32,1.89 2.92,-2.13 -10.62,1.82 10.54,-2.44 -3.47,-0.87 3.62,0.63 -5.83,-4.26 6.16,3.86 -1.9,-3.22 2.05,2.83 -1.74,-10.7 2.38,10.7"
         style="fill:#ffffff;fill-opacity:1;fill-rule:nonzero;stroke:none"
         transform="matrix(0.13333333,0,0,-0.13333333,0,710.24)" />
      <path
         id="path118"
         d="m 2813.49,1859.29 0.71,-2.63 -0.47,2.75 3.09,-4.34 -2.85,4.58 2.45,-1.41 -2.22,1.53 8.01,-1.35 -7.9,1.81 2.58,0.7 -2.69,-0.52 4.33,3.1 -4.63,-2.81 1.47,2.46 -1.53,-2.23 1.29,7.96 -1.74,-7.9 -0.72,2.64 0.47,-2.75 -3.16,4.33 2.93,-4.51 -2.46,1.41 2.17,-1.59 -7.91,1.35 7.85,-1.8 -2.58,-0.66 2.69,0.47 -4.33,-3.16 4.57,2.87 -1.41,-2.41 1.52,2.11 -1.29,-7.96 1.76,7.96"
         style="fill:#ffffff;fill-opacity:1;fill-rule:nonzero;stroke:none"
         transform="matrix(0.13333333,0,0,-0.13333333,0,710.24)" />
      <path
         id="path119"
         d="m 2345.05,3728.42 -3.53,7.24 2.98,-7.64 -11.44,10.77 10.8,-11.64 -7.81,2.84 7.14,-3.23 -23.66,-0.68 23.85,-0.7 -7.24,-3.51 7.58,2.93 -10.7,-11.44 11.63,10.76 -2.83,-7.72 3.23,7.14 0.68,-23.76 0.68,23.85 3.52,-7.23 -2.93,7.63 11.39,-10.76 -10.8,11.62 7.82,-2.73 -7.14,3.22 23.7,0.6 -23.85,0.78 7.19,3.52 -7.58,-2.93 10.75,11.34 -11.58,-10.76 2.74,7.82 -3.23,-7.14 -0.63,23.66 -0.73,-23.85"
         style="fill:#ffffff;fill-opacity:1;fill-rule:nonzero;stroke:none"
         transform="matrix(0.13333333,0,0,-0.13333333,0,710.24)" />
      <path
         id="path120"
         d="m 2458.46,4214 7.19,3.52 -7.63,-2.93 10.76,11.44 -11.59,-10.8 2.73,7.82 -3.22,-7.19 -0.63,23.66 -0.74,-23.86 -3.52,7.24 2.99,-7.53 -11.44,10.66 10.8,-11.59 -7.82,2.79 7.13,-3.23 -23.65,-0.68 23.85,-0.69 -7.24,-3.51 7.63,2.98 -10.75,-11.44 11.63,10.8 -2.83,-7.82 3.22,7.14 0.69,-23.66 0.68,23.85 3.52,-7.23 -2.94,7.57 11.44,-10.7 -10.8,11.58 7.82,-2.78 -7.18,3.22 23.76,0.69 -23.86,0.68"
         style="fill:#ffffff;fill-opacity:1;fill-rule:nonzero;stroke:none"
         transform="matrix(0.13333333,0,0,-0.13333333,0,710.24)" />
      <path
         id="path121"
         d="m 2456.9,4213.61 2.54,1.23 -2.65,-1.13 3.77,4.11 -4.15,-3.82 1.02,2.79 -1.12,-2.59 -0.29,8.5 -0.25,-8.55 -1.22,2.59 1.07,-2.74 -4.1,3.82 3.81,-4.11 -2.73,0.97 2.53,-1.07 -8.45,-0.29 8.5,-0.25 -2.58,-1.22 2.73,1.08 -3.81,-4.11 4.1,3.81 -0.97,-2.78 1.12,2.59 0.25,-8.41 0.29,8.46 1.22,-2.6 -1.02,2.74 4.05,-3.81 -3.86,4.11 2.78,-0.98 -2.53,1.12 8.45,0.25 -8.5,0.29"
         style="fill:#ffffff;fill-opacity:1;fill-rule:nonzero;stroke:none"
         transform="matrix(0.13333333,0,0,-0.13333333,0,710.24)" />
      <path
         id="path122"
         d="m 920.727,2100.58 2.539,1.22 -2.645,-1.13 3.77,4.11 -4.153,-3.82 1.024,2.79 -1.129,-2.59 -0.285,8.5 -0.246,-8.55 -1.227,2.59 1.074,-2.74 -4.101,3.82 3.808,-4.11 -2.734,0.98 2.539,-1.07 -8.457,-0.3 8.508,-0.24 -2.59,-1.22 2.734,1.07 -3.808,-4.11 4.101,3.82 -0.976,-2.79 1.129,2.59 0.246,-8.41 0.285,8.46 1.222,-2.59 -1.019,2.74 4.055,-3.82 -3.86,4.11 2.782,-0.98 -2.54,1.13 8.457,0.24 -8.503,0.3"
         style="fill:#ffffff;fill-opacity:1;fill-rule:nonzero;stroke:none"
         transform="matrix(0.13333333,0,0,-0.13333333,0,710.24)" />
      <path
         id="path123"
         d="m 1688.06,2375.9 -1.48,5.43 1.02,-5.89 -7,8.97 6.37,-9.3 -5.04,2.84 4.73,-3.15 -17,2.04 16.68,-3.06 -5.35,-1.5 5.75,1.11 -8.83,-7.02 9.22,6.38 -2.84,-5.04 3.23,4.65 -2.12,-16.92 3.08,16.68 1.48,-5.36 -1.09,5.76 7.07,-8.9 -6.44,9.29 5.03,-2.91 -4.72,3.23 17,-2.05 -16.69,2.99 5.37,1.57 -5.77,-1.1 8.91,6.93 -9.3,-6.3 2.92,5.04 -3.22,-4.72 2.05,17 -3.02,-16.69"
         style="fill:#ffffff;fill-opacity:1;fill-rule:nonzero;stroke:none"
         transform="matrix(0.13333333,0,0,-0.13333333,0,710.24)" />
      <path
         id="path124"
         d="m 637.273,2971.66 -6.839,14.08 5.714,-14.76 -22.335,20.91 21.066,-22.58 -15.254,5.48 13.98,-6.45 -46.285,-1.28 46.629,-1.36 -14.078,-6.85 14.813,5.77 -20.969,-22.39 22.68,21.12 -5.469,-15.25 6.347,13.98 1.219,-46.33 1.418,46.72 6.844,-14.17 -5.723,14.86 22.344,-21.02 -21.066,22.68 15.246,-5.37 -14.028,6.25 46.344,1.27 -46.633,1.37 14.075,6.84 -14.805,-5.76 20.918,22.38 -22.633,-21.02 5.426,15.25 -6.309,-13.98 -1.269,46.34 -1.368,-46.73"
         style="fill:#ffffff;fill-opacity:1;fill-rule:nonzero;stroke:none"
         transform="matrix(0.13333333,0,0,-0.13333333,0,710.24)" />
      <path
         id="path125"
         d="m 1431.52,3587.69 c -49.14,35.93 -110.56,80.33 -196.59,80.33 -68.98,0 -116.26,-36.85 -116.26,-78.43 0,-39.72 31.2,-61.46 132.34,-84.13 101.15,-21.74 219.27,-57.67 219.27,-181.48 0,-126.64 -116.26,-213.6 -260.85,-213.6 -107.77,0 -183.38,47.24 -219.301,69.94 v 136.1 c 48.211,-38.75 126.641,-98.31 220.231,-98.31 71.84,0 128.54,45.38 128.54,96.42 0,52 -47.24,75.6 -141.79,95.48 -68.98,16.05 -120.98,33.06 -162.57,70.88 -22.67,23.64 -44.411,58.59 -44.411,109.63 0,112.48 103.041,185.26 241.971,185.26 70.88,0 138.93,-19.85 199.42,-55.77 v -132.32"
         style="fill:#ffffff;fill-opacity:1;fill-rule:nonzero;stroke:none"
         transform="matrix(0.13333333,0,0,-0.13333333,0,710.24)" />
      <path
         id="path126"
         d="m 1680.15,3765.39 v -644.63 h -122.88 v 644.63 h 122.88"
         style="fill:#ffffff;fill-opacity:1;fill-rule:nonzero;stroke:none"
         transform="matrix(0.13333333,0,0,-0.13333333,0,710.24)" />
      <path
         id="path127"
         d="m 2448.57,3765.39 v -644.63 h -122.88 v 453.68 h -1.86 l -197.56,-337.42 -198.49,337.42 h -1.9 V 3120.76 H 1803 v 644.63 h 137.07 l 186.2,-315.7 187.14,315.7 h 135.16"
         style="fill:#ffffff;fill-opacity:1;fill-rule:nonzero;stroke:none"
         transform="matrix(0.13333333,0,0,-0.13333333,0,710.24)" />
      <path
         id="path128"
         d="m 2664.14,3444.03 c 0,-118.15 69.95,-229.68 184.3,-229.68 108.71,0 187.14,103.01 187.14,228.72 0,135.16 -85.06,228.73 -182.4,228.73 -121.95,0 -189.04,-112.47 -189.04,-227.77 z m 499.99,-0.96 c 0,-193.76 -145.56,-332.69 -317.58,-332.69 -177.68,0 -310.95,142.72 -310.95,330.79 0,197.56 144.59,334.61 308.12,334.61 200.39,0 320.41,-158.79 320.41,-332.71"
         style="fill:#ffffff;fill-opacity:1;fill-rule:nonzero;stroke:none"
         transform="matrix(0.13333333,0,0,-0.13333333,0,710.24)" />
      <path
         id="path129"
         d="m 3374,3765.39 278.83,-439.51 h 1.89 v 439.51 h 122.88 v -644.63 h -122.88 l -278.81,444.26 H 3374 v -444.26 h -122.88 v 644.63 H 3374"
         style="fill:#ffffff;fill-opacity:1;fill-rule:nonzero;stroke:none"
         transform="matrix(0.13333333,0,0,-0.13333333,0,710.24)" />
      <path
         id="path130"
         d="m 4307.88,3587.69 c -49.14,35.93 -110.57,80.33 -196.59,80.33 -68.99,0 -116.26,-36.85 -116.26,-78.43 0,-39.72 31.19,-61.46 132.33,-84.13 101.14,-21.74 219.27,-57.67 219.27,-181.48 0,-126.64 -116.26,-213.6 -260.85,-213.6 -107.76,0 -183.36,47.24 -219.28,69.94 v 136.1 c 48.2,-38.75 126.63,-98.31 220.22,-98.31 71.84,0 128.53,45.38 128.53,96.42 0,52 -47.23,75.6 -141.79,95.48 -68.98,16.05 -120.98,33.06 -162.54,70.88 -22.68,23.64 -44.42,58.59 -44.42,109.63 0,112.48 103.03,185.26 241.95,185.26 70.88,0 138.93,-19.85 199.43,-55.77 v -132.32"
         style="fill:#ffffff;fill-opacity:1;fill-rule:nonzero;stroke:none"
         transform="matrix(0.13333333,0,0,-0.13333333,0,710.24)" />
      <path
         id="path131"
         d="m 1084.15,2789.03 c 0,-52.11 30.85,-101.29 81.26,-101.29 47.94,0 82.51,45.42 82.51,100.87 0,59.59 -37.51,100.86 -80.44,100.86 -53.76,0 -83.33,-49.61 -83.33,-100.44 z m 220.47,-0.42 c 0,-85.44 -64.19,-146.73 -140.03,-146.73 -78.37,0 -137.14,62.95 -137.14,145.87 0,87.13 63.77,147.55 135.89,147.55 88.34,0 141.28,-70.02 141.28,-146.69"
         style="fill:#ffffff;fill-opacity:1;fill-rule:nonzero;stroke:none"
         transform="matrix(0.13333333,0,0,-0.13333333,0,710.24)" />
      <path
         id="path132"
         d="m 1442.38,2773.19 v -79.2 h 52.51 c 18.75,0 64.6,3.35 64.6,41.27 0,25.81 -23.74,37.93 -50.41,37.93 z m 0,110.87 v -66.29 h 47.1 c 29.57,0 52.93,10.42 52.93,35.85 0,25.85 -25.02,30.44 -39.2,30.44 z m 80.43,47.48 c 45.86,0 75.02,-28.33 75.02,-65.84 0,-20.01 -8.32,-38.34 -22.91,-50.83 -9.6,-8.76 -17.91,-11.7 -29.2,-15.01 v -0.83 c 13.36,-0.86 28.37,-2.1 44.21,-13.35 17.08,-11.67 26.26,-31.68 26.26,-53.77 0,-52.93 -49.21,-85.44 -114.63,-85.44 H 1388.2 v 285.07 h 134.61"
         style="fill:#ffffff;fill-opacity:1;fill-rule:nonzero;stroke:none"
         transform="matrix(0.13333333,0,0,-0.13333333,0,710.24)" />
      <path
         id="path133"
         d="m 1878.93,2852.38 c -21.67,15.84 -48.76,35.4 -86.72,35.4 -30.4,0 -51.24,-16.25 -51.24,-34.57 0,-17.53 13.73,-27.09 58.35,-37.1 44.59,-9.59 96.69,-25.43 96.69,-80.02 0,-55.87 -51.28,-94.21 -115.05,-94.21 -47.51,0 -80.85,20.85 -96.69,30.85 v 60.01 c 21.26,-17.08 55.87,-43.34 97.11,-43.34 31.68,0 56.7,20.02 56.7,42.51 0,22.92 -20.85,33.34 -62.53,42.1 -30.4,7.08 -53.35,14.6 -71.68,31.27 -10,10.42 -19.6,25.84 -19.6,48.34 0,49.59 45.45,81.68 106.7,81.68 31.27,0 61.29,-8.73 87.96,-24.57 v -58.35"
         style="fill:#ffffff;fill-opacity:1;fill-rule:nonzero;stroke:none"
         transform="matrix(0.13333333,0,0,-0.13333333,0,710.24)" />
      <path
         id="path134"
         d="m 2172.11,2930.71 v -47.51 h -137.96 v -66.67 h 131.3 v -44.17 h -131.3 v -78.37 h 137.96 v -47.52 h -192.14 v 284.24 h 192.14"
         style="fill:#ffffff;fill-opacity:1;fill-rule:nonzero;stroke:none"
         transform="matrix(0.13333333,0,0,-0.13333333,0,710.24)" />
      <path
         id="path135"
         d="m 2318.56,2883.2 v -72.09 h 43.76 c 40.03,0 59.18,18.32 59.18,39.17 0,17.08 -13.73,32.92 -40.82,32.92 z m 70.02,47.51 c 55.87,0 87.55,-28.33 87.55,-70.01 0,-45 -31.27,-67.53 -77.96,-76.68 v -0.83 c 20.85,-6.28 41.69,-12.94 57.53,-55.87 l 29.99,-80.85 h -59.18 l -19.98,62.95 c -11.7,37.09 -27.54,56.66 -67.12,56.66 h -20.85 v -119.61 h -54.17 v 284.24 h 124.19"
         style="fill:#ffffff;fill-opacity:1;fill-rule:nonzero;stroke:none"
         transform="matrix(0.13333333,0,0,-0.13333333,0,710.24)" />
      <path
         id="path136"
         d="m 2798.36,2930.71 -104.59,-284.24 h -53.35 l -102.52,284.24 h 59.59 l 69.6,-215.88 h 0.83 l 69.61,215.88 h 60.83"
         style="fill:#ffffff;fill-opacity:1;fill-rule:nonzero;stroke:none"
         transform="matrix(0.13333333,0,0,-0.13333333,0,710.24)" />
      <path
         id="path137"
         d="m 2952.03,2862.35 h -0.83 l -30.85,-95 h 62.49 z m 26.26,68.36 103.76,-284.24 h -60.84 l -24.6,76.27 h -90.45 l -25.43,-76.27 h -59.59 l 104.21,284.24 h 52.94"
         style="fill:#ffffff;fill-opacity:1;fill-rule:nonzero;stroke:none"
         transform="matrix(0.13333333,0,0,-0.13333333,0,710.24)" />
      <path
         id="path138"
         d="m 3342.27,2930.71 v -47.51 h -82.09 v -236.73 h -54.22 v 236.73 h -80.02 v 47.51 h 216.33"
         style="fill:#ffffff;fill-opacity:1;fill-rule:nonzero;stroke:none"
         transform="matrix(0.13333333,0,0,-0.13333333,0,710.24)" />
      <path
         id="path139"
         d="m 3450.5,2789.03 c 0,-52.11 30.85,-101.29 81.26,-101.29 47.93,0 82.51,45.42 82.51,100.87 0,59.59 -37.51,100.86 -80.44,100.86 -53.76,0 -83.33,-49.61 -83.33,-100.44 z m 220.46,-0.42 c 0,-85.44 -64.19,-146.73 -140.03,-146.73 -78.36,0 -137.13,62.95 -137.13,145.87 0,87.13 63.77,147.55 135.89,147.55 88.33,0 141.27,-70.02 141.27,-146.69"
         style="fill:#ffffff;fill-opacity:1;fill-rule:nonzero;stroke:none"
         transform="matrix(0.13333333,0,0,-0.13333333,0,710.24)" />
      <path
         id="path140"
         d="m 3808.72,2883.2 v -72.09 h 43.76 c 40.03,0 59.18,18.32 59.18,39.17 0,17.08 -13.74,32.92 -40.83,32.92 z m 70.02,47.51 c 55.87,0 87.54,-28.33 87.54,-70.01 0,-45 -31.26,-67.53 -77.95,-76.68 v -0.83 c 20.84,-6.28 41.69,-12.94 57.52,-55.87 l 29.99,-80.85 h -59.18 l -19.98,62.95 c -11.7,37.09 -27.54,56.66 -67.12,56.66 h -20.84 v -119.61 h -54.18 v 284.24 h 124.2"
         style="fill:#ffffff;fill-opacity:1;fill-rule:nonzero;stroke:none"
         transform="matrix(0.13333333,0,0,-0.13333333,0,710.24)" />
      <path
         id="path141"
         d="m 4090.23,2930.71 59.18,-105.01 59.18,105.01 h 67.54 l -99.63,-154.63 v -129.61 h -54.18 v 129.61 l -98.34,154.63 h 66.25"
         style="fill:#ffffff;fill-opacity:1;fill-rule:nonzero;stroke:none"
         transform="matrix(0.13333333,0,0,-0.13333333,0,710.24)" />
      <path
         id="path142"
         d="m 2285.81,1030.76 205.39,25.76 c 0,0 -11.05,37.55 -66.99,36.07 -32.39,-0.85 -73.62,-5.88 -73.62,-5.88 l -64.78,-55.95"
         style="fill:#ffffff;fill-opacity:1;fill-rule:nonzero;stroke:none"
         transform="matrix(0.13333333,0,0,-0.13333333,0,710.24)" />
      <path
         id="path143"
         d="m 2433.04,804.02 64.78,16.191 -59.62,-4.41 -167.11,-17.672"
         style="fill:#231f20;fill-opacity:1;fill-rule:nonzero;stroke:none"
         transform="matrix(0.13333333,0,0,-0.13333333,0,710.24)" />
      <path
         id="path144"
         d="M 2617.08,727.461 2815.22,1147.97 2250.4,1393.44 2052.25,972.949 2617.08,727.461"
         style="fill:#231f20;fill-opacity:1;fill-rule:nonzero;stroke:#ffffff;stroke-width:58.4911;stroke-linecap:butt;stroke-linejoin:miter;stroke-miterlimit:10;stroke-dasharray:none;stroke-opacity:1"
         transform="matrix(0.13333333,0,0,-0.13333333,0,710.24)" />
      <path
         id="path145"
         d="m 2743.58,1280.85 -350.95,155.97"
         style="fill:none;stroke:#ffffff;stroke-width:58.4911;stroke-linecap:round;stroke-linejoin:miter;stroke-miterlimit:10;stroke-dasharray:none;stroke-opacity:1"
         transform="matrix(0.13333333,0,0,-0.13333333,0,710.24)" />
      <path
         id="path146"
         d="m 2299.06,550.781 c 0,0 -1.22,-1.031 118.6,0.098 125.26,1.18 122.96,-1.879 113.29,-2.309 l -30.83,64.211 h -178.94 l -22.12,-62"
         style="fill:#231f20;fill-opacity:1;fill-rule:nonzero;stroke:none"
         transform="matrix(0.13333333,0,0,-0.13333333,0,710.24)" />
      <path
         id="path147"
         d="m 2283.6,603.789 h 255.45 v 221.18 L 2283.6,935.078 V 603.789"
         style="fill:#231f20;fill-opacity:1;fill-rule:nonzero;stroke:none"
         transform="matrix(0.13333333,0,0,-0.13333333,0,710.24)" />
      <path
         id="path148"
         d="m 2299.08,617.031 v 413.309 c 0,39.47 47.63,85.82 108.19,85.82 60.57,0 111.16,-46.35 111.16,-85.82 V 617.031 c -3.25,2.43 -216.11,-5.281 -219.35,0"
         style="fill:#ffffff;fill-opacity:1;fill-rule:nonzero;stroke:none"
         transform="matrix(0.13333333,0,0,-0.13333333,0,710.24)" />
      <path
         id="path149"
         d="m 2268.14,835.672 170.06,-2.211 33.12,-191.391 -144.29,-2.949 -58.89,196.551"
         style="fill:#ffffff;fill-opacity:1;fill-rule:nonzero;stroke:none"
         transform="matrix(0.13333333,0,0,-0.13333333,0,710.24)" />
      <path
         id="path150"
         d="m 2268.14,835.672 170.06,-2.211 33.12,-191.391 -144.29,-2.949 z"
         style="fill:none;stroke:#231f20;stroke-width:12.367;stroke-linecap:butt;stroke-linejoin:miter;stroke-miterlimit:10;stroke-dasharray:none;stroke-opacity:1"
         transform="matrix(0.13333333,0,0,-0.13333333,0,710.24)" />
      <path
         id="path151"
         d="m 2473.53,643.531 -33.13,189.93 50.8,4.43 -6.63,-170.059 -11.04,-24.301"
         style="fill:#231f20;fill-opacity:1;fill-rule:nonzero;stroke:none"
         transform="matrix(0.13333333,0,0,-0.13333333,0,710.24)" />
      <path
         id="path152"
         d="m 2261.28,826.781 v 203.129 c 0,44.96 30.5,86.25 89.31,86.25 36.81,0 88.31,-41.29 88.31,-86.25 V 826.781 c -3.16,2.77 -174.48,-6.011 -177.62,0"
         style="fill:#ffffff;fill-opacity:1;fill-rule:nonzero;stroke:none"
         transform="matrix(0.13333333,0,0,-0.13333333,0,710.24)" />
      <path
         id="path153"
         d="m 2261.28,826.781 v 203.129 c 0,44.96 30.5,86.25 89.31,86.25 36.81,0 88.31,-41.29 88.31,-86.25 V 826.781 c -3.16,2.77 -174.48,-6.011 -177.62,0 z"
         style="fill:none;stroke:#231f20;stroke-width:16.1926;stroke-linecap:butt;stroke-linejoin:miter;stroke-miterlimit:2;stroke-dasharray:none;stroke-opacity:1"
         transform="matrix(0.13333333,0,0,-0.13333333,0,710.24)" />
      <path
         id="path154"
         d="m 2652.42,484.488 h -468.2 V 537.5 h 468.2 v -53.012"
         style="fill:#231f20;fill-opacity:1;fill-rule:nonzero;stroke:none"
         transform="matrix(0.13333333,0,0,-0.13333333,0,710.24)" />
      <path
         id="path155"
         d="m 1347.34,4072.91 3.47,-7.23 -2.93,7.62 11.43,-10.75 -10.75,11.54 7.82,-2.74 -7.23,3.23 23.75,0.68 -23.84,0.69 7.23,3.51 -7.63,-2.93 10.75,11.44 -11.63,-10.76 2.83,7.83 -3.27,-7.24 -0.63,23.75 -0.78,-23.85 -3.48,7.23 2.99,-7.72 -11.44,10.85 10.75,-11.63 -7.82,2.74 7.18,-3.22 -23.7,-0.59 23.85,-0.78 -7.23,-3.52 7.62,2.93 -10.75,-11.34 11.63,10.75 -2.83,-7.82 3.23,7.14 0.68,-23.66 0.73,23.85"
         style="fill:#ffffff;fill-opacity:1;fill-rule:nonzero;stroke:none"
         transform="matrix(0.13333333,0,0,-0.13333333,0,710.24)" />
      <path
         id="path156"
         d="m 397.828,2634.95 c 0,-1252.86 1015.652,-2268.52 2268.522,-2268.52 1252.87,0 2268.52,1015.66 2268.52,2268.52 0,1252.87 -1015.65,2268.52 -2268.52,2268.52 -1252.87,0 -2268.522,-1015.65 -2268.522,-2268.52 z"
         style="fill:none;stroke:#f1511b;stroke-width:103.442;stroke-linecap:butt;stroke-linejoin:miter;stroke-miterlimit:10;stroke-dasharray:none;stroke-opacity:1"
         transform="matrix(0.13333333,0,0,-0.13333333,0,710.24)" />
      <path
         id="path157"
         d="M 4489.32,997.762 4715.74,801.539"
         style="fill:none;stroke:#f1511b;stroke-width:18;stroke-linecap:butt;stroke-linejoin:miter;stroke-miterlimit:10;stroke-dasharray:none;stroke-opacity:1"
         transform="matrix(0.13333333,0,0,-0.13333333,0,710.24)" />
      <path
         id="path158"
         d="M 587.438,809.309 841.316,1025.43"
         style="fill:none;stroke:#f1511b;stroke-width:18;stroke-linecap:butt;stroke-linejoin:miter;stroke-miterlimit:10;stroke-dasharray:none;stroke-opacity:1"
         transform="matrix(0.13333333,0,0,-0.13333333,0,710.24)" />
      <path
         id="path159"
         d="M 148.051,3760.62 452.254,3625.3"
         style="fill:none;stroke:#f1511b;stroke-width:18;stroke-linecap:butt;stroke-linejoin:miter;stroke-miterlimit:10;stroke-dasharray:none;stroke-opacity:1"
         transform="matrix(0.13333333,0,0,-0.13333333,0,710.24)" />
      <path
         id="path160"
         d="m 5138.17,3760.94 -304.2,-135.32"
         style="fill:none;stroke:#f1511b;stroke-width:18;stroke-linecap:butt;stroke-linejoin:miter;stroke-miterlimit:10;stroke-dasharray:none;stroke-opacity:1"
         transform="matrix(0.13333333,0,0,-0.13333333,0,710.24)" />
    </g>
  </g>
</svg>
