<svg xmlns="http://www.w3.org/2000/svg" xmlns:xlink="http://www.w3.org/1999/xlink" width="296.107" height="295.933" xmlns:v="https://vecta.io/nano"><style><![CDATA[.B{fill:none}.C{stroke-miterlimit:10}.D{fill:#231f20}.E{stroke:#231f20}.F{stroke-width:3.249}]]></style><g class="D"><path d="M30.99 223.69l1.194-.807 4.219 6.251-.491.331c-1.725 1.164-2.695.929-5.21-.135-2.634-1.099-3.242-1.056-3.799-.681-.823.557-.75 1.723-.176 2.573.832 1.233 2.243 1.749 2.816 1.943l-1.432.967c-.597-.312-1.746-.928-2.605-2.201-1.022-1.512-1.202-3.439.391-4.512 1.115-.753 2.256-.634 5.466.713 1.575.676 2.345.928 2.985.533l-3.358-4.974m-4.848-8.259l1.246-.72 3.777 6.517-.511.299c-1.799 1.043-2.75.741-5.184-.492-2.552-1.276-3.161-1.273-3.742-.938-.858.497-.865 1.667-.352 2.552.746 1.287 2.117 1.897 2.676 2.128l-1.495.867c-.573-.351-1.677-1.043-2.447-2.372-.914-1.578-.962-3.511.698-4.472 1.163-.675 2.293-.479 5.4 1.085 1.526.782 2.276 1.087 2.941.737l-3.008-5.191m-9.692.361a1.681 1.681 0 1 0 3.002-1.515c-.419-.828-1.43-1.161-2.258-.744s-1.161 1.43-.744 2.258zm-.743.373c-.627-1.243-.132-2.748 1.112-3.373s2.748-.132 3.375 1.112.131 2.747-1.112 3.373-2.747.132-3.375-1.112m-4.267-10.942l1.322-.572 2.008 4.64 2.715-1.176c-.347-.199-1.13-.68-1.651-1.883-.761-1.761-.17-3.656 1.606-4.425 1.907-.827 4.092.076 5.078 2.351.597 1.38.506 2.621.454 3.184l-1.556.673c.144-.916.337-2.08-.19-3.299-.617-1.422-1.999-1.958-3.055-1.5-1.028.444-1.388 1.664-.887 2.823.09.207.406.939 1.331 1.585l.585 1.349-5.166 2.239-2.594-5.99m-3.717-9.979l1.312-.463 9.995 1.072.543 1.54-9.956-1.104 1.888 5.353-1.358.48-2.424-6.879m.774-2.564l-1.837.556-.462-1.532 1.837-.555 2.112-.253.25.827-1.9.957m-3.12-14.848c-.251.497-.939 1.911-.604 3.425.259 1.171 1.107 2.049 1.997 1.854.797-.176 1.103-.867 1.119-2.803.029-1.726.24-3.737 2.285-4.19 2.078-.458 3.82 1.204 4.289 3.328.366 1.655-.128 3.059-.38 3.768l-1.828.404c.346-.731 1.125-2.328.757-3.998-.259-1.172-1.292-2.14-2.306-1.916-1.063.235-1.24 1.437-1.264 2.883-.029 1.055-.102 2.136-.64 3.041-.272.403-.579.866-1.564 1.081-1.796.397-3.349-.931-3.832-3.117-.324-1.468-.035-2.531.174-3.364l1.797-.396m10.186-3.833c-1.21-.224-1.497-.288-2.244-.187-.045.204-.138.692-.863.82-.646.116-1.122-.192-1.205-.649-.095-.534.406-.916.974-1.017.867-.154 2.324.175 3.226.404l.112.629m-5.207-11.78c-.11-1.18-1.065-2.103-2.195-1.996-1.243.117-1.776 1.291-1.695 2.151.041.431.268 1.647 1.878 2.701 1.304-.654 2.138-1.519 2.013-2.856zm-7.196-2.379c-.47.816-.851 1.719-.763 2.659.052.557.363 1.639 1.766 2.373 1.134.616 2.125.556 2.797.525l.029-.034c-.583-.396-1.775-1.28-1.944-3.08-.19-2.023 1.073-3.459 2.857-3.627 2.008-.188 3.667 1.408 3.859 3.463.237 2.516-1.661 4.541-4.641 4.821-2.659.249-5.816-1.028-6.117-4.231-.104-1.115.194-2.043.422-2.707l1.736-.163M.511 149.664l1.392-.035 9.173 4.109.041 1.631-9.127-4.125.141 5.675-1.439.036-.181-7.291m.322-4.809a1.68 1.68 0 1 0 1.732-1.627 1.68 1.68 0 0 0-1.732 1.627zm-.832-.027c.043-1.391 1.198-2.473 2.59-2.431s2.475 1.196 2.432 2.588a2.51 2.51 0 0 1-2.59 2.433 2.51 2.51 0 0 1-2.432-2.591m3.28-9.273l-.003.032 3.737 3.671.297-3.345zm-1.877-1.661l6.039.537.168-1.896 1.402.124-.168 1.896 2.931.26-.131 1.483-2.931-.261-.449 5.051-1.354-.119-5.638-5.592.131-1.483m1.56-11.234l1.375.219 8.272 5.705-.256 1.611-8.223-5.712-.893 5.607-1.42-.228 1.146-7.201m1.901-1.914l-1.881-.387.323-1.568 1.88.387 1.979.784-.174.845-2.127-.061m3.47-20.363l9.656 5.757-.449 1.469-8.693-.577-.009.032 7.577 4.236-.464 1.515-11.267-.476.485-1.592 8.619.605.009-.031-7.524-4.188.467-1.531 8.413.509.009-.031-7.306-4.137.477-1.561m12.722-23.983l2.846 1.692L25 76.249c.768-1.291.61-2.372-.325-2.928-.88-.523-1.761-.041-2.235.755zm.21-3.169c1.135-1.912 2.846-2.159 4.194-1.359 1.76 1.048 1.994 3.064.865 4.963l-1.185 1.992 4.07 2.421-.785 1.319-9.391-5.583 2.232-3.753m5.993-5.725l-.017.027 2.735 3.628 1.676-2.461zm-1.167-1.724l11.322 2.76-1.008 1.48-3.284-.921-2.216 3.253 2.058 2.719-1 1.468-6.755-9.463.883-1.296m5.662-5.386l2.586 2.04.703-.892c1.239-1.567 1.772-2.837.655-3.72-1.067-.841-2.102.236-2.457.689zm.604-3.088c1.417-1.795 3.002-1.868 4.207-.917 1.393 1.099 1.011 2.692.595 3.892l.025.02c.367-.26 1.047-.681 2.431-.241l3.583 1.137-1.061 1.343-2.884-1.015c-1.212-.427-2.061-.383-2.824.583l-.96 1.219 3.727 2.94-.951 1.207-8.571-6.767 2.683-3.4m14.466-2.834c.041-.613.154-2.159-1.545-3.713-1.806-1.653-4.086-1.767-5.416-.316-1.318 1.439-1.024 3.704.804 5.376 1.912 1.752 4.175 1.717 5.342.444a3.97 3.97 0 0 0 .331-.433l-2.868-.609 1.123-1.227zm5.133-.181a4.22 4.22 0 0 1-.769 1.289c-.973 1.063-2.069.863-3.418.559a4.94 4.94 0 0 1-.339.537c-.138.221-.286.431-.373.525-1.781 1.947-5.012 2.135-7.49-.132-2.501-2.292-2.557-5.595-.742-7.577 1.858-2.029 5.169-2.164 7.565.028 1.546 1.415 2.215 3.221 1.865 5.285.582.121 1.484.319 2.101-.352.28-.309.453-.735.526-1.145l1.074.983m-6.852-11.026l4.644 4.963c1.081 1.157 2.468 1.632 3.788.399 1.331-1.247 1.006-2.715-.075-3.873l-4.644-4.961 1.121-1.051 4.775 5.104c2.229 2.383 1.186 4.499-.227 5.82-1.892 1.769-3.882 1.727-5.729-.248l-4.775-5.103 1.121-1.049m12.277-10.706l.913 1.115-4.25 3.475 1.935 2.369 4.065-3.325.871 1.065-4.064 3.323 2.28 2.789 4.25-3.476.913 1.116-5.44 4.449-6.912-8.452 5.439-4.448m10.652-5.164l-.027.017 1.143 4.395 2.487-1.631zm-.42-2.039l9.406 6.873-1.497.981-2.682-2.103-3.289 2.156.863 3.299-1.483.973-2.629-11.32 1.311-.86m12.118-4.219c-.548-.095-2.1-.341-3.453.419-1.045.587-1.638 1.655-1.191 2.449.399.712 1.149.804 3.006.255 1.66-.473 3.646-.856 4.673.969 1.043 1.855-.042 4.007-1.938 5.072-1.479.831-2.963.767-3.718.733l-.918-1.632c.802.117 2.556.397 4.047-.441 1.045-.588 1.672-1.856 1.161-2.764-.533-.947-1.734-.767-3.125-.371-1.018.279-2.073.524-3.095.272-.465-.141-.996-.301-1.49-1.181-.901-1.603-.083-3.476 1.869-4.572 1.311-.737 2.413-.771 3.269-.811l.901 1.603m7.525-6.545l.627 1.295-2.849 1.379 4.116 8.505-1.381.668-4.116-8.505-2.922 1.415-.626-1.296 7.152-3.46m3.735-.066l1.242 3.053 1.053-.428c1.852-.753 2.943-1.595 2.406-2.913-.511-1.259-1.945-.832-2.478-.615zm2.051-2.388c2.12-.863 3.535-.143 4.115 1.281.669 1.644-.451 2.841-1.405 3.679l.013.031c.448-.045 1.246-.076 2.233.991l2.556 2.76-1.585.645-2.01-2.309c-.844-.969-1.603-1.351-2.745-.887l-1.437.584 1.791 4.403-1.422.579-4.119-10.121 4.016-1.635m7.954 2.815c.766 2.375 2.728 3.559 4.57 2.963 1.919-.617 2.68-2.796 1.943-5.081-.785-2.436-2.784-3.523-4.521-2.964-1.995.645-2.72 2.829-1.992 5.083zm8.088-2.659c.927 2.879-.221 6.039-3.161 6.988-2.954.952-5.603-1.001-6.511-3.819-1.065-3.307.694-6.143 3.053-6.904 3.108-1.001 5.754 1.053 6.619 3.735m7.204-1.373l2.151 2.221.276.328.023-.037-.211-.755-.366-1.345-1.516-6.433 1.432-.337 2.504 10.623-1.527.36-4.685-4.6-1.711-1.751c-.127-.119-.758-.776-.837-.905l-.031.008.24.88.259.959 1.563 6.636-1.496.352-2.503-10.624 1.557-.365 4.876 4.787M126.696.002l-1.646 2.581-.982.151 1.141-2.505zm-3.701 9.193c.377 2.468 2.125 3.951 4.039 3.66 1.994-.304 3.094-2.333 2.732-4.707-.385-2.533-2.185-3.927-3.988-3.652-2.073.316-3.138 2.357-2.783 4.699zm8.413-1.331c.454 2.992-1.187 5.929-4.241 6.393-3.07.469-5.371-1.885-5.816-4.812-.523-3.435 1.668-5.955 4.12-6.327 3.229-.492 5.513 1.961 5.937 4.745m12.11-6.31l.713 10.892-1.485.096-.584-8.909-.032.003-3.268 6.676-4.091-6.129-.031.001.579 8.847-1.484.097-.714-10.891 1.772-.117 3.797 5.589 2.973-6.032 1.853-.123m4.35.021l.201 10.905-1.536.029-.2-10.907 1.535-.028m10.63 2.921c-.524-.503-1.525-1.443-3.06-1.508-2.207-.095-3.739 1.988-3.829 4.148-.1 2.317 1.375 4.16 3.263 4.239 1.632.071 2.905-.868 3.385-1.232l-.077 1.807c-.623.325-1.819.948-3.419.879-2.719-.116-4.893-2.452-4.752-5.761s2.465-5.615 5.441-5.488c1.487.064 2.469.684 3.125 1.112l-.077 1.805m3.04 3.123c-.291 2.479 1.001 4.369 2.925 4.595 2.003.236 3.6-1.431 3.879-3.813.297-2.544-1.068-4.363-2.879-4.576-2.083-.243-3.651 1.441-3.925 3.795zm8.461.941c-.353 3.005-2.712 5.403-5.78 5.044-3.083-.361-4.679-3.241-4.335-6.179.405-3.451 3.183-5.3 5.645-5.009 3.243.379 4.796 3.348 4.469 6.144m11.832-1.122l-.031-.008-2.411 3.852 2.896.688zm1.196-1.708l1.465 11.567-1.744-.416-.313-3.396-3.831-.908-1.804 2.895-1.728-.411 6.428-9.692 1.527.361m12.106 3.445l-.421 1.376-3.031-.923-2.761 9.047-1.469-.449 2.761-9.047-3.108-.949.421-1.376 7.608 2.321m4.512 3.708l-.028-.012-2.881 3.513 2.783 1.051zm1.403-1.539l-.02 11.651-1.677-.632.123-3.407-3.68-1.389-2.159 2.637-1.661-.627 7.609-8.788 1.465.555m11.641 7.883c-.293-.665-.863-1.916-2.259-2.559-2.007-.925-4.213.419-5.12 2.381-.972 2.109-.307 4.373 1.409 5.164 1.483.684 3.019.3 3.601.145L209.558 26c-.7.065-2.043.187-3.496-.484-2.472-1.141-3.597-4.129-2.208-7.139s4.415-4.257 7.117-3.011c1.353.624 2.028 1.569 2.471 2.215l-.757 1.644m5.757 2.329l-.028-.016-3.353 3.067 2.607 1.436zm1.607-1.325l-1.683 11.533-1.568-.865.608-3.356-3.447-1.9-2.513 2.305-1.556-.857 8.787-7.617 1.372.757m14.142 8.862l-6.032 9.085-1.239-.823 4.937-7.435-.028-.017-6.641 3.325.464-7.351-.025-.016-4.901 7.379-1.239-.823 6.033-9.084 1.479.983-.369 6.74 6.017-2.991 1.544 1.027m4.354 5.808l-.025-.021-3.812 2.473 2.333 1.845zm1.804-1.043l-3.557 11.101-1.405-1.112 1.151-3.211-3.087-2.441-2.859 1.86-1.395-1.103 9.921-6.068 1.231.973m-4.016 13.893c1.084-.581 1.348-.713 1.868-1.256-.091-.185-.324-.625.161-1.179.435-.492.996-.552 1.345-.244.409.359.256.968-.125 1.403-.579.661-1.92 1.313-2.768 1.699l-.481-.423m19.434 4.064c-.031-.723-.105-2.095-1.171-3.203-1.529-1.592-4.073-1.144-5.631.353-1.672 1.608-1.879 3.957-.569 5.319 1.131 1.177 2.7 1.376 3.297 1.447l-1.301 1.251c-.676-.193-1.971-.569-3.079-1.723-1.885-1.961-1.845-5.152.544-7.448s5.659-2.355 7.721-.209c1.031 1.073 1.315 2.2 1.492 2.961l-1.304 1.252m4.5 1.204l-3.484 2.891 3.421 4.123 3.485-2.888.98 1.18-8.396 6.968-.98-1.184 3.865-3.207-3.423-4.124-3.865 3.208-.98-1.181 8.395-6.967.981 1.181m7.029 8.832l-8.759 6.524-.917-1.232 8.757-6.524.919 1.232m2.501 3.503l-7.843 5.315 3.041 4.492-1.192.808-3.904-5.764 9.035-6.121.863 1.271m7.695 12.271l-1.24.733-2.793-4.725-2.631 1.553 2.669 4.52-1.185.701-2.669-4.52-3.101 1.833 2.793 4.725-1.24.732-3.575-6.048 9.396-5.553 3.576 6.048m13.109 31.765l-1.376.425-1.623-5.243-2.919.903 1.549 5.015-1.316.407-1.549-5.015-3.441 1.064 1.623 5.244-1.376.425-2.076-6.712 10.429-3.225 2.075 6.712m.859 3.361l-9.199 2.256 1.293 5.267-1.399.344-1.659-6.759 10.596-2.6.367 1.492m2.896 13.856l-1.417.259-.988-5.397-3.005.549.943 5.163-1.355.248-.944-5.164-3.541.648.988 5.399-1.417.259-1.263-6.911 10.735-1.961 1.265 6.909m.375 2.756l-8.528 4.079.004.032 9.229 1.991.208 1.792-11.304-2.811-.177-1.524 10.367-5.291.201 1.732m-.791 12.626l-.003-.032-4.369-1.232.152 2.971zm1.972.667l-10.68 4.649-.095-1.788 3.171-1.253-.201-3.928-3.283-.919-.091-1.773 11.097 3.447.081 1.565m.073 12.274l-1.44-.02.047-3.167-9.451-.14.023-1.535 9.452.139.047-3.245 1.44.021-.117 7.947m-.145 2.907l-10.893-.548.077-1.533 10.892.548-.076 1.533m-5.633 3.101c-2.481-.253-4.353 1.064-4.552 2.989-.207 2.005 1.481 3.578 3.868 3.824 2.545.261 4.345-1.128 4.532-2.941.215-2.087-1.492-3.628-3.848-3.872zm-.824 8.472c-3.007-.309-5.436-2.635-5.121-5.707.319-3.087 3.173-4.723 6.117-4.419 3.453.356 5.34 3.105 5.087 5.573-.335 3.245-3.281 4.84-6.083 4.552m-1.59 6.84l-2.897 1.079-.412.119.025.038.777.109 1.377.204 6.497 1.19-.265 1.446-10.729-1.963.283-1.543 6.089-2.445 2.288-.867c.159-.068 1.013-.383 1.164-.404l.005-.031-.903-.133-.98-.148-6.701-1.225.276-1.512 10.728 1.965-.287 1.573-6.336 2.548m-.096 7.209c-.528-.127-.889-.621-.779-1.09.104-.434.604-.744 1.148-.616.515.12.877.603.764 1.084-.121.515-.649.735-1.133.621zm-5.464-1.291c-.531-.125-.889-.62-.779-1.087.101-.437.603-.745 1.147-.617.515.121.877.602.764 1.084-.121.514-.651.735-1.132.62m5.175 16.05l-1.372-.444 1.56-4.812-2.816-.914c.129.379.4 1.258-.005 2.507-.592 1.827-2.289 2.859-4.132 2.26-1.98-.64-3.025-2.763-2.26-5.122.465-1.433 1.353-2.305 1.764-2.695l1.615.526c-.713.592-1.628 1.34-2.039 2.603-.477 1.477.205 2.793 1.303 3.148 1.065.347 2.143-.332 2.533-1.533.069-.213.316-.976.048-2.071l.455-1.403 5.36 1.737-2.013 6.214m-2.955 7.59l-9.648-3.87.543-1.349 6.5 2.608.923-2.301 1.157.465-.249.621c-.536 1.336.152 2.198.984 2.532l.267.108-.476 1.186m-4.438 6.963c.596-1.24.055-2.442-.839-2.871-.981-.473-2.111.032-2.568.984-.632 1.312-.036 2.699.207 3.259.617.048 2.444.198 3.2-1.372zm-4.912-5.77c-.853.442-1.631 1.027-2.045 1.892-.632 1.309-.169 3.451 2.464 4.84-.289-.724-.848-2.076-.079-3.676.825-1.716 2.603-2.459 4.317-1.635 1.919.923 2.376 3.184 1.537 4.93-1.02 2.119-3.593 3.188-6.535 1.775-2.956-1.422-4.175-4.351-3.003-6.787.403-.836 1.036-1.525 1.757-2.101l1.585.762m-4.561 15.181c1.905 1.081 4.023.883 4.819-.523.836-1.473-.148-3.464-2.027-4.53-1.849-1.048-4.035-.891-4.84.528-.891 1.572.24 3.5 2.048 4.526zm3.588-6.423c2.907 1.649 3.663 4.468 2.471 6.568-1.207 2.128-4.057 2.809-6.853 1.224-2.936-1.664-3.637-4.545-2.524-6.505 1.261-2.227 4.111-2.872 6.907-1.287m-15.353 14.827l.825-1.22 3.825 2.592c.473.301 1.419.787 2.001-.074.628-.926-.08-2.218-1.245-3.007l-2.913-1.973.824-1.217 3.827 2.592c.357.242 1.391.825 2.001-.075.592-.875.025-2.147-1.312-3.052l-2.848-1.928.825-1.218 6.159 4.17-.764 1.125-.989-.536c.227.579.571 1.469-.173 2.568-.88 1.297-2.111.947-2.451.851.157.281.312.539.379 1.01a2.44 2.44 0 0 1-.395 1.78c-.744 1.099-2.068 1.341-3.392.445l-4.184-2.833M60.268 257.109l-6.933 3.775-1.187-1.061 2.505-5.396-.025-.022-5.135 3.046-1.161-1.039 2.978-7.314 1.263 1.131-2.514 5.431.026.024 5.103-3.115 1.201 1.071-2.513 5.432.024.023 5.13-3.092 1.239 1.107m9.776 7.309l-6.573 4.373-1.275-.952 2.017-5.6-.027-.021-4.844 3.489-1.249-.932 2.32-7.551 1.358 1.015-2.024 5.634.028.02 4.808-3.555 1.291.963-2.023 5.636.027.021 4.836-3.537 1.331.996m10.401 6.422l-6.162 4.937-1.356-.836 1.516-5.755-.029-.018-4.519 3.904-1.329-.82 1.644-7.723 1.444.89-1.518 5.791.029.019 4.479-3.967 1.37.845-1.518 5.791.029.019 4.508-3.948 1.413.872m-1.677 6.335c-.261.477-.86.677-1.311.429-.419-.232-.608-.809-.339-1.3.255-.463.839-.67 1.303-.416.495.273.586.854.346 1.287m9.222-.283c-.822-1.425-1.835-1.927-2.067-2.041-.735-.367-1.522-.399-1.742.045-.242.488.366 1.039 1.093 1.615 1.803 1.41 2.324 2.365 1.806 3.412-.577 1.161-2.316 1.585-4.233.635-1.366-.679-2.052-1.643-2.345-2.057l.727-1.461c.468.984 1.242 1.849 2.255 2.352.767.38 1.715.511 2.02-.106.214-.43.018-.849-1.203-1.813-1.356-1.045-1.573-1.53-1.72-1.852-.101-.3-.264-.773.033-1.376.54-1.091 2.084-1.467 3.865-.584 1.212.6 1.847 1.397 2.202 1.843l-.689 1.389"/><path d="M92.221 273.824c.225-.514.691-.761 1.176-.547.455.199.673.682.421 1.252-.237.543-.744.756-1.197.556-.549-.243-.6-.807-.399-1.261zm.521 2.94l-3 6.81-1.44-.636 2.997-6.809 1.443.635m10.321 11.941l-1.479-.539 1.589-4.345c.176-.531.41-1.569-.636-1.951-1.127-.409-2.253.576-2.736 1.898l-1.209 3.305-1.481-.54 1.589-4.343c.15-.406.458-1.552-.634-1.951-1.062-.388-2.21.455-2.765 1.972l-1.182 3.23-1.48-.539 2.557-6.986 1.367.497-.272 1.093c.53-.352 1.346-.89 2.681-.403 1.577.574 1.561 1.864 1.558 2.22.242-.219.466-.427.929-.597a2.73 2.73 0 0 1 1.939-.01c1.335.486 1.953 1.736 1.405 3.238l-1.739 4.748m9.814-1.125c.374-1.374-.329-2.76-1.649-3.12s-2.669.483-3.044 1.856c-.388 1.42.394 2.776 1.616 3.109 1.404.384 2.711-.504 3.078-1.845zm-6.325-1.724c.591-2.161 2.792-3.268 5.02-2.66 2.362.643 3.479 2.854 2.94 4.83-.603 2.206-2.927 3.246-4.957 2.693-2.313-.631-3.589-2.719-3.003-4.863m16.173 7.692l-1.543-.312.905-4.486c.175-.864-.057-1.712-1.132-1.928-1.459-.296-2.487.983-2.734 2.207l-.699 3.468-1.544-.313 1.472-7.296 1.41.285-.13 1.248.034.007c.42-.439 1.188-1.214 2.766-.895 1.863.379 2.441 1.849 2.203 3.027l-1.008 4.99m8.988-4.137c-1.233-1.092-2.351-1.246-2.605-1.282-.815-.112-1.57.105-1.641.597-.075.539.675.868 1.549 1.184 2.157.767 2.953 1.508 2.793 2.664-.177 1.284-1.694 2.236-3.813 1.943-1.511-.209-2.469-.907-2.875-1.207l.224-1.615c.755.781 1.766 1.358 2.884 1.512.849.117 1.789-.059 1.884-.739.066-.478-.25-.811-1.716-1.336-1.617-.563-1.978-.952-2.219-1.213-.189-.252-.497-.649-.405-1.316.167-1.204 1.512-2.051 3.481-1.779 1.34.185 2.196.741 2.672 1.048l-.213 1.539m8.436 2.4c.105-1.418-.852-2.644-2.216-2.745s-2.527.984-2.631 2.404c-.109 1.467.917 2.651 2.183 2.744 1.451.108 2.563-1.014 2.664-2.403zm-6.536-.482c.164-2.235 2.112-3.742 4.416-3.572 2.441.182 3.961 2.14 3.811 4.182-.169 2.281-2.251 3.749-4.348 3.592-2.391-.176-4.043-1.984-3.879-4.201m12.159 2.131c.337.369.988 1.092 2.133 1.096 1.489.006 2.296-1.289 2.301-2.552.005-1.521-1.084-2.484-2.179-2.488-1.131-.004-2.247.952-2.253 2.536zm.029-8.625l-.017 4.737h.035c.292-.464.999-1.436 2.605-1.432 2.123.008 3.485 1.805 3.479 3.789-.009 2.288-1.743 4.011-3.712 4.004-.957-.004-1.759-.391-2.424-1.032l-.416.845-1.163-.004.039-10.914 1.575.006m13.743 5.094c-1.423-.824-2.552-.755-2.808-.739-.821.051-1.52.413-1.489.908.033.543.832.717 1.752.855 2.267.324 3.193.892 3.265 2.057.079 1.295-1.219 2.528-3.353 2.66-1.521.093-2.6-.401-3.059-.614l-.101-1.628c.896.617 2 .982 3.128.912.857-.052 1.744-.412 1.7-1.097-.029-.48-.405-.745-1.945-.971-1.696-.232-2.128-.541-2.416-.748-.235-.21-.615-.539-.656-1.21-.075-1.214 1.075-2.309 3.06-2.432 1.349-.083 2.299.292 2.828.499l.095 1.548m7.845-.4c-.276-.981-1.165-1.339-1.931-1.245-.307.036-1.427.191-1.912 1.716zm-3.903 1.669c.361 1.955 2.072 2.26 2.956 2.152 1.155-.143 2.095-.919 2.788-1.744l.217 1.778c-.472.38-1.473 1.212-3.104 1.412-2.549.313-4.296-1.406-4.539-3.375-.276-2.269 1.432-4.089 3.505-4.343.729-.092 2.101-.018 3.057 1.009.795.852.931 1.833 1 2.39l-5.881.721m12.072-4.092c-.36-.065-.591-.104-.877-.055-1.265.226-1.949 1.648-1.687 3.114l.597 3.356-1.549.276-1.307-7.324 1.413-.253.364 1.349.033-.007c.1-.506.375-1.593 1.909-1.867.068-.012.437-.079.843-.055l.26 1.465m2.338-2.011l3.511 5.073.904-6.12 1.667-.395-1.463 7.996-1.516.359-4.82-6.505 1.717-.408m12.115.786c-1.849.812-2.541 1.305-2.305 2.086.193.643.988.903 1.711.685.277-.084 1.921-.681 1.299-3.103l-.704.331zm2.763 1.038c.093.306.269.536.663.417a1.42 1.42 0 0 0 .492-.265l.351 1.164c-.332.2-.62.371-1.047.502-1.016.307-1.541-.069-1.779-.8l-.033.01c-.177.538-.559 1.59-1.952 2.013-1.261.381-2.944-.044-3.375-1.47-.591-1.96 1.823-3.027 4.289-4.04-.376-1.073-1.588-1.058-2.293-.845-1.129.342-1.793 1.229-2.251 1.853l-.456-1.519c.453-.455 1.345-1.293 2.624-1.68 2.097-.634 3.501.461 3.884 1.732l.883 2.928m2.047-9.085l.757 2.09 2.029-.732.424 1.172-2.029.733 1.365 3.776c.296.815.945.748 1.413.579a2.21 2.21 0 0 0 .879-.59l.452 1.248c-.241.19-.637.503-1.364.766-1.272.46-2.24.249-2.703-1.028l-1.524-4.212-1.256.453-.424-1.172 1.257-.455-.613-2.145 1.336-.483m11.322 1.831c-.56-1.306-1.971-1.957-3.229-1.419s-1.792 2.033-1.232 3.342c.575 1.353 2.032 1.932 3.196 1.434 1.339-.57 1.812-2.077 1.265-3.357zm-6.028 2.573c-.879-2.059.156-4.292 2.283-5.199 2.249-.96 4.499.079 5.303 1.961.899 2.103-.276 4.361-2.211 5.188-2.204.94-4.501.095-5.375-1.95m12.88-8.368c-.363.039-.599.065-.86.194-1.151.572-1.408 2.13-.747 3.461l1.515 3.051-1.412.7-3.304-6.66 1.285-.64.725 1.194.032-.016c-.044-.512-.087-1.635 1.309-2.328a3.7 3.7 0 0 1 .795-.288l.661 1.332m1.655-2.573l4.943 4.02.031-.016-1.131-6.185 1.475-.839 1.328 9.516c.221 1.604-.207 2.62-1.264 3.22-.505.288-.949.373-1.173.427l-.648-1.139c.465-.081.735-.161.975-.297.863-.49.731-1.52.492-2.913l-6.604-4.897 1.577-.897m10.099 1.608c.284.464.161 1.083-.277 1.352-.408.252-1.003.129-1.296-.348-.276-.449-.168-1.061.285-1.339.481-.296 1.029-.088 1.288.334m5.804-7.179c-.803-1.175-2.315-1.537-3.443-.761s-1.363 2.346-.559 3.522c.829 1.215 2.371 1.497 3.417.781 1.2-.821 1.371-2.394.584-3.542zm-5.408 3.706c-1.263-1.849-.683-4.245 1.224-5.551 2.02-1.384 4.429-.804 5.584.886 1.289 1.888.576 4.335-1.16 5.526-1.979 1.353-4.393.974-5.648-.861m10.954-10.677c-.352.109-.575.18-.805.358-1.017.783-.968 2.36-.059 3.537l2.079 2.696-1.247.963-4.541-5.886 1.137-.878.947 1.028.027-.021c-.145-.495-.403-1.585.831-2.536a3.64 3.64 0 0 1 .724-.436l.908 1.176m5.843-4.106c-.528-.008-1.395-.042-2.196.655-.945.817-1.196 2.2-.179 3.374.868 1.003 2.208 1.322 3.232.439s.964-2.362.021-3.452zm-1.145-1.845l.931-.808 4.285 4.949c.995 1.149 1.589 2.073 1.408 3.459-.164 1.328-1.024 2.242-1.515 2.668-1.112.964-2.357 1.174-2.968 1.28l-1.192-1.379c.7.025 2.135.033 3.297-.975.737-.639 1.008-1.658.757-2.499-.155-.544-.877-1.379-1.24-1.827h-.048c.011.456.04 1.745-1.1 2.731-1.447 1.254-3.703 1.029-5.085-.568-1.36-1.575-1.369-3.937.248-5.337.837-.729 1.621-.794 2.517-.829l-.296-.865M22.102 149.547c0 69.604 56.425 126.029 126.029 126.029s126.028-56.425 126.028-126.029S217.734 23.519 148.13 23.519 22.102 79.943 22.102 149.547"/></g><use xlink:href="#B" stroke-width="4.272" class="B C E"/><g fill="#f1511b"><path d="M44.323 215.964s9.778-1.752 13.678-4.104c4.996-3.013 19.835-17.783 28.042-17.1l10.944 17.783 27.111 27.117 11.015 4.507 23.041 6.656c5.561 1.964 24.867 17.342 24.867 17.342 6.543 4.253-4.691 4.901-5.889 4.908l-7.853 2.944s-9.587 2.184-11.452 2.291c-8.845.5-15.947-1.467-17.044-1.59-9.012-1.001-27.695-6.956-30.188-9.419-2.421-2.393-10.503-1.949-13.742-4.417-2.908-2.216-9.469-3.289-11.779-6.38-2.859-3.83-11.004-5.882-11.779-7.361-.44-.843-14.837-11.969-15.214-12.761-2.053-4.319-13.758-20.415-13.758-20.415"/><path d="M227.398 245.212c-5.117-2.241-18.095-4.076-23.767-6.495-1.828-.78-6.872-2.619-6.872-2.619s-5.449 4.632-8.245 4.885-7.493-1.757-12.712-1.27c-6.852.639-19.285 6.203-19.285 6.203s5.563 1.961 13.087 9.161c3.829 3.661 8.508 7.197 13.743 13.414 1.788 2.124 21.512-7.444 21.512-7.444l22.54-15.835"/></g><path d="M134.15 216.586l12.731-192.662s31.3-1.251 63.621 16.52c33.968 18.676 50.387 53.004 50.387 53.004l-109.07 131.644" fill="#444142"/><use xlink:href="#B" stroke-width="2.873" class="B C E"/><g fill="#fff"><path d="M211.794 62.531l.14-.067-.147.063.209-.228-.231.211.057-.155-.063.144-.016-.472-.013.476-.069-.144.06.151-.228-.211.212.228-.152-.055.141.059-.469.017.472.013-.144.068.152-.06-.212.229.228-.213-.053.156.063-.144.013.467.016-.471.068.145-.057-.153.225.213-.215-.229.155.055-.14-.063.469-.013-.472-.017m-53.459 42.739l1.011-.46-1.105.393 1.523-1.635-1.613 1.513.419-1.073-.499 1.023-.104-3.376-.087 3.348-.46-1.011.395 1.105-1.637-1.523 1.516 1.612-1.073-.412 1.02.495-3.377.103 3.351.087-1.011.46 1.105-.395-1.523 1.637 1.613-1.512-.416 1.069.497-1.021.103 3.379.088-3.351.457 1.012-.392-1.104 1.636 1.52-1.515-1.613 1.072.419-1.021-.5 3.376-.104-3.348-.085M106.89 56.899l.143.299-.121-.315.473.444-.445-.477.323.113-.299-.132.981-.028-.985-.029.298-.145-.314.121.444-.473-.48.445.117-.324-.135.3-.026-.981-.033.984-.143-.297.123.319-.472-.448.445.48-.323-.113.296.133-.979.024.985.033-.299.145.315-.121-.444.468.481-.444-.117.323.133-.295.029.977.03-.985m155.898 108.519l.192.401-.163-.424.636.597-.596-.64.433.152-.401-.18 1.319-.037-1.324-.037.401-.196-.424.163.597-.634-.647.597.157-.435-.181.4-.036-1.319-.043 1.326-.192-.402.165.43-.636-.603.597.646-.435-.152.4.18-1.317.032 1.325.043-.403.196.424-.163-.597.629.647-.597-.159.435.18-.397.037 1.316.041-1.325M207.701 206.8l.193.402-.163-.425.635.597-.597-.64.435.151-.401-.18 1.32-.037-1.325-.038.401-.197-.423.163.596-.634-.645.596.157-.433-.183.402-.035-1.32-.043 1.325-.193-.402.165.428-.635-.601.597.645-.435-.152.4.18-1.319.032 1.325.043-.401.196.423-.163-.596.629.645-.597-.157.435.18-.397.037 1.316.04-1.325m-75.176-42.391l.193.401-.163-.423.635.597-.597-.641.435.152-.402-.18 1.319-.037-1.324-.037.402-.196-.424.163.597-.635-.646.597.158-.434-.182.403-.035-1.321-.044 1.325-.193-.4.166.428-.635-.603.597.645-.434-.152.399.18-1.317.032 1.325.043-.402.197.423-.163-.597.628.646-.596-.157.433.179-.396.039 1.315.041-1.325m51.961-9.312l-.083-.303.057.328-.389-.499.353.517-.28-.159.264.175-.945-.113.927.171-.297.083.32-.061-.492.389.512-.353-.157.28.18-.259-.117.94.171-.927.083.297-.061-.319.393.493-.357-.516.279.161-.263-.179.945.113-.928-.165.299-.088-.32.061.495-.385-.516.351.161-.28-.18.261.115-.944-.167.928m55.678 57.296l-.38-.783.317.82-1.241-1.161 1.171 1.255-.847-.304.777.358-2.572.069 2.589.078-.781.379.824-.32-1.165 1.245 1.26-1.173-.305.845.353-.776.068 2.575.079-2.596.38.788-.317-.825 1.241 1.167-1.171-1.26.848.299-.78-.347 2.573-.072-2.589-.075.781-.38-.823.32 1.163-1.244-1.259 1.167.303-.847-.351.776-.069-2.573-.077 2.596M45.005 101.958l-.136-.276.111.293-.443-.413.418.445-.302-.103.275.119-.913.028.923.027-.283.136.293-.115-.413.44.448-.412-.108.297.128-.276.021.917.028-.923.135.276-.111-.292.443.417-.418-.451.301.109-.274-.125.912-.027-.923-.028.282-.135-.294.119.413-.445-.448.419.105-.304-.124.276-.022-.912-.027.917m136.484-61.187l.149.551-.105-.568.657.909-.596-.963.508.299-.456-.324 1.676.28-1.672-.376.556-.149-.568.105.905-.66-.961.6.3-.509-.323.456.28-1.671-.38 1.667-.149-.556.105.577-.656-.915.6.967-.517-.305.463.323-1.677-.276 1.669.377-.551.144.572-.096-.904.648.952-.596-.296.508.323-.455-.279 1.679.375-1.671m-35.632-7.526l.052.197-.035-.205.231.323-.213-.341.184.105-.167-.113.599.1-.591-.136.193-.052-.201.04.324-.232-.345.211.109-.185-.115.167.096-.595-.131.591-.052-.197.035.207-.237-.324.22.337-.184-.107.163.119-.591-.101.585.136-.193.049.203-.036-.324.237.341-.215-.105.179.113-.157-.096.595.132-.595M77.968 52.991l.052.197-.035-.205.232.324-.214-.341.183.104-.166-.113.599.101-.591-.136.193-.052-.201.039.323-.232-.346.209.109-.183-.114.167.097-.596-.132.591-.053-.197.035.207-.236-.324.219.336-.184-.104.163.117-.59-.1.586.136-.193.048.201-.035-.325.235.342-.213-.106.179.114-.157-.096.595.132-.595M40.36 180l-.067-.636.016.673-.616-1.13.53 1.159-.507-.423.465.456-1.857-.559 1.809.659-.635.065.675-.012-1.13.612 1.158-.528-.423.509.458-.468-.559 1.861.659-1.812.065.634-.015-.675.616 1.131-.531-1.159.509.424-.465-.456 1.857.556-1.809-.655.635-.067-.675.013 1.13-.616-1.157.531.423-.508-.457.464.557-1.856L40.36 180m20.768 16.427l-.117-1.107.028 1.173-1.07-1.965.92 2.013-.883-.733.809.794-3.232-.972 3.148 1.147-1.106.114 1.173-.023-1.966 1.065 2.015-.917-.736.885.796-.815-.973 3.236 1.146-3.149.111 1.102-.024-1.172 1.07 1.967-.924-2.016.885.74-.809-.794 3.232.967-3.147-1.141 1.105-.115-1.173.022 1.966-1.07-2.012.924.736-.885-.796.809.969-3.232-1.143 3.149m99.924-36.417l-.38-.781.317.82-1.241-1.163 1.171 1.255-.847-.304.777.359-2.572.071 2.589.076-.783.38.825-.321-1.165 1.244 1.259-1.172-.304.847.353-.777.068 2.575.077-2.596.383.787-.32-.825 1.243 1.168-1.171-1.26.847.299-.779-.347 2.573-.071-2.591-.076.783-.381-.823.321 1.163-1.244-1.257 1.168.301-.847-.352.776-.069-2.575-.076 2.596m92.418-37.255l-.136-.276.111.292-.443-.412.419.445-.301-.104.275.12-.913.028.924.027-.283.136.293-.115-.413.44.449-.412-.109.297.128-.276.021.917.028-.923.135.276-.111-.292.441.417-.417-.451.301.109-.275-.125.913-.027-.924-.028.283-.136-.293.12.412-.445-.448.417.107-.303-.124.276-.023-.912-.027.917m-12.924 52.419l.148.551-.104-.569.656.91-.596-.962.508.297-.455-.323 1.675.279-1.671-.376.556-.15-.569.105.905-.66-.961.599.301-.508-.323.456.279-1.67-.379 1.667-.151-.556.105.578-.656-.915.6.967-.516-.306.461.324-1.677-.275 1.671.375-.551.144.572-.096-.904.646.952-.593-.296.507.323-.455-.28 1.68.376-1.67M194.73 185.51l.039.145-.025-.152.171.241-.159-.255.137.079-.124-.085.445.075-.439-.1.143-.039-.149.028.241-.172-.257.156.081-.136-.085.124.072-.444-.097.44-.039-.146.025.153-.176-.24.163.249-.136-.078.121.087-.439-.075.435.102-.144.036.151-.027-.241.176.253-.16-.077.134.084-.117-.071.441.097-.441m-50.044-12.754l.052.198-.036-.205.232.323-.213-.342.183.106-.165-.115.599.102-.591-.135.193-.053-.201.039.323-.231-.344.209.108-.182-.113.165.096-.595-.131.591-.053-.197.036.207-.237-.325.22.337-.184-.105.161.119-.591-.1.587.133-.193.051.201-.036-.323.236.341-.213-.105.179.113-.159-.097.596.133-.596"/><path d="M159.102 57.026l.052.196-.035-.205.232.324-.215-.341.184.105-.167-.115.599.101-.589-.136.193-.052-.203.039.324-.231-.345.209.109-.184-.113.167.096-.595-.131.589-.053-.196.036.205-.237-.324.219.337-.184-.105.163.119-.591-.1.585.135-.192.048.201-.035-.324.236.341-.215-.104.18.113-.157-.097.595.132-.595m30.265 158.492l-.092-.905.02.961-.88-1.615.756 1.655-.724-.606.665.655-2.656-.8 2.588.942-.911.092.967-.02-1.617.884 1.653-.758-.603.727.652-.666-.8 2.656.945-2.588.092.908-.019-.964.88 1.615-.761-1.656.728.607-.667-.656 2.659.802-2.589-.942.909-.092-.965.019 1.617-.884-1.656.763.604-.731-.652.67.8-2.661-.944 2.589m11.553-139.34l.159-.112-.177.104.204-.331-.223.312.032-.199-.049.193-.132-.573.097.576-.112-.159.104.175-.332-.201.315.223-.197-.035.193.052-.576.131.576-.099-.159.113.18-.105-.207.333.225-.315-.036.196.051-.191.132.576-.097-.579.111.157-.103-.176.331.207-.315-.228.201.037-.196-.053.576-.132-.576.101m-35.142 108.748l.039.147-.025-.152.172.24-.159-.254.136.078-.124-.084.445.075-.439-.102.144-.039-.151.029.241-.172-.257.156.081-.138-.084.124.071-.443-.097.439-.039-.145.025.152-.176-.24.164.251-.137-.079.121.088-.44-.075.436.1-.144.038.151-.027-.241.176.255-.16-.079.133.084-.117-.071.441.097-.441m65.646 33.709l.04.147-.027-.153.172.24-.159-.253.136.079-.123-.085.445.076-.439-.101.143-.04-.149.031.24-.173-.256.156.08-.136-.084.123.072-.442-.097.439-.04-.147.027.153-.176-.24.163.249-.137-.079.121.089-.439-.076.435.101-.143.036.149-.027-.24.176.253-.158-.079.133.085-.118-.072.443.097-.443M174.401 109.12l.052.197-.036-.205.232.324-.213-.341.184.104-.167-.113.6.101-.591-.136.192-.053-.201.04.324-.231-.345.209.109-.184-.115.165.097-.593-.131.589-.053-.196.035.205-.237-.324.221.337-.185-.105.163.117-.591-.1.585.136-.193.048.203-.036-.324.237.343-.215-.107.18.113-.159-.096.596.132-.596m-18.096 83.522l.039.145-.027-.152.173.24-.159-.254.136.078-.124-.084.447.074-.44-.102.143-.039-.149.029.24-.172-.256.156.081-.137-.085.124.073-.441-.097.439-.041-.147.027.154-.176-.242.164.251-.137-.079.12.089-.439-.076.435.1-.143.037.149-.027-.24.176.255-.16-.08.133.087-.116-.073.443.099-.443M130.28 88.801l-.196-.403.166.424-.635-.597.6.645-.434-.157.396.179-1.315.039 1.325.039-.401.195.421-.163-.594.636.646-.599-.157.429.18-.396.038 1.32.038-1.325.196.401-.164-.424.633.597-.6-.645.435.153-.397-.18 1.317-.033-1.325-.044.399-.195-.42.163.597-.631-.643.599.153-.435-.18.396-.035-1.315-.04 1.327"/><path d="M136.581 61.823l.399-.196-.424.163.599-.635-.644.6.152-.435-.179.399-.036-1.313-.04 1.324-.196-.401.165.419-.635-.592.6.643-.435-.155.396.18-1.315.037 1.325.039-.401.195.423-.165-.596.636.645-.6-.157.433.18-.396.037 1.315.039-1.325.195.403-.163-.421.635.595-.599-.644.433.155-.399-.179 1.32-.039-1.325-.037"/><path d="M136.494 61.845l.141-.068-.147.063.208-.228-.229.212.056-.156-.063.144-.016-.472-.013.476-.068-.145.06.153-.228-.212.212.228-.153-.055.141.06-.469.016.472.013-.144.068.153-.059-.212.227.228-.211-.055.155.063-.144.013.467.016-.469.068.143-.057-.151.225.211-.213-.227.153.053-.14-.063.469-.013-.472-.016m-85.342 117.39l.141-.068-.146.063.209-.228-.23.212.056-.155-.062.143-.016-.472-.013.476-.068-.144.06.152-.228-.212.212.228-.153-.053.141.059-.469.017.472.012-.144.068.153-.058-.212.228.228-.212-.054.154.063-.142.013.465.016-.469.068.144-.056-.152.225.212-.214-.228.155.053-.141-.063.469-.012-.472-.017m42.627-15.297l-.082-.301.057.328-.389-.498.354.516-.28-.157.263.175-.945-.114.927.171-.297.083.319-.06-.491.389.512-.355-.158.28.18-.259-.118.94.171-.927.082.297-.06-.319.393.493-.358-.516.279.161-.263-.18.945.115-.928-.167.298-.087-.32.061.495-.385-.517.349.162-.279-.18.261.114-.944-.167.927m-58.375-33.095l-.38-.781.318.819-1.241-1.161 1.17 1.255-.847-.305.777.36-2.572.071 2.591.075-.782.38.823-.32-1.166 1.244 1.26-1.173-.304.848.353-.777.068 2.573.079-2.595.38.788-.318-.825 1.241 1.167-1.171-1.26.848.299-.779-.348 2.574-.069-2.591-.076.782-.381-.823.321 1.162-1.244-1.257 1.168.302-.848-.351.777-.07-2.575-.076 2.596"/><path d="M79.529 96.618c-2.73-1.996-6.143-4.463-10.922-4.463-3.833 0-6.459 2.048-6.459 4.357 0 2.207 1.733 3.415 7.352 4.673 5.619 1.208 12.181 3.204 12.181 10.083 0 7.036-6.458 11.867-14.491 11.867-5.988 0-10.188-2.624-12.183-3.887v-7.56c2.678 2.152 7.035 5.461 12.235 5.461 3.992 0 7.141-2.521 7.141-5.356 0-2.889-2.625-4.2-7.878-5.305-3.832-.891-6.721-1.836-9.031-3.937-1.26-1.313-2.467-3.255-2.467-6.091 0-6.248 5.724-10.292 13.443-10.292 3.938 0 7.719 1.103 11.079 3.099v7.351m13.812-9.872v35.812h-6.827V86.746h6.827m42.691 0v35.812h-6.827V97.354h-.104l-10.976 18.745-11.027-18.745h-.106v25.204h-6.827V86.746h7.615l10.345 17.539 10.397-17.539h7.509m11.977 17.853c0 6.563 3.887 12.76 10.239 12.76 6.04 0 10.396-5.723 10.396-12.707 0-7.509-4.725-12.707-10.132-12.707-6.776 0-10.503 6.248-10.503 12.653zm27.777.053c0 10.764-8.087 18.483-17.644 18.483-9.871 0-17.275-7.929-17.275-18.377 0-10.976 8.033-18.589 17.117-18.589 11.133 0 17.801 8.821 17.801 18.484m11.661-17.907l15.489 24.416h.105V86.746h6.827v35.812h-6.827l-15.489-24.68h-.105v24.68h-6.827V86.746h6.827m51.881 9.872c-2.731-1.996-6.143-4.463-10.921-4.463-3.832 0-6.46 2.048-6.46 4.357 0 2.207 1.733 3.415 7.353 4.673 5.617 1.208 12.18 3.204 12.18 10.083 0 7.036-6.457 11.867-14.491 11.867-5.987 0-10.187-2.624-12.183-3.887v-7.56c2.679 2.152 7.035 5.461 12.233 5.461 3.992 0 7.143-2.521 7.143-5.356 0-2.889-2.625-4.2-7.879-5.305-3.832-.891-6.721-1.836-9.029-3.937-1.26-1.313-2.468-3.255-2.468-6.091 0-6.248 5.723-10.292 13.443-10.292 3.937 0 7.719 1.103 11.079 3.099v7.351M60.23 140.988c0 2.895 1.715 5.627 4.515 5.627 2.663 0 4.583-2.523 4.583-5.604 0-3.311-2.083-5.604-4.469-5.604-2.986 0-4.63 2.757-4.63 5.581zm12.249.023c0 4.747-3.567 8.152-7.78 8.152-4.353 0-7.618-3.497-7.618-8.104 0-4.84 3.543-8.197 7.55-8.197 4.907 0 7.849 3.889 7.849 8.149"/><path d="M80.132 141.868v4.4h2.918c1.041 0 3.589-.187 3.589-2.293 0-1.435-1.319-2.107-2.801-2.107zm0-6.16v3.683h2.616c1.643 0 2.941-.579 2.941-1.992 0-1.436-1.39-1.691-2.178-1.691zm4.469-2.637c2.547 0 4.167 1.573 4.167 3.657 0 1.112-.461 2.131-1.273 2.824-.532.487-.995.649-1.622.835v.045c.742.048 1.577.117 2.456.741.949.648 1.459 1.76 1.459 2.988 0 2.94-2.734 4.747-6.369 4.747h-6.297v-15.837h7.479m19.784 4.397c-1.204-.88-2.709-1.967-4.818-1.967-1.689 0-2.847.903-2.847 1.92 0 .975.763 1.505 3.241 2.061 2.478.533 5.372 1.413 5.372 4.445 0 3.104-2.848 5.235-6.391 5.235-2.64 0-4.492-1.159-5.372-1.715v-3.333c1.181.949 3.104 2.408 5.395 2.408 1.759 0 3.149-1.112 3.149-2.361 0-1.273-1.157-1.853-3.473-2.34-1.689-.393-2.964-.811-3.982-1.736-.556-.58-1.089-1.436-1.089-2.687 0-2.755 2.525-4.537 5.928-4.537 1.737 0 3.405.485 4.887 1.364v3.243m16.288-4.352v2.64h-7.665v3.704h7.294v2.453h-7.294v4.355h7.665v2.64h-10.675v-15.792h10.675m8.136 2.64v4.005h2.431c2.224 0 3.288-1.019 3.288-2.176 0-.949-.763-1.829-2.268-1.829zm3.89-2.64c3.104 0 4.864 1.575 4.864 3.889 0 2.5-1.737 3.752-4.331 4.26v.047c1.158.349 2.316.719 3.196 3.104l1.665 4.492h-3.288l-1.109-3.497c-.65-2.061-1.53-3.148-3.729-3.148h-1.157v6.645h-3.01v-15.792h6.899m22.766 0l-5.812 15.792h-2.963l-5.696-15.792h3.311l3.867 11.993h.045l3.867-11.993h3.381m8.536 3.799h-.045l-1.713 5.277h3.471zm1.46-3.799l5.764 15.792h-3.38l-1.368-4.237h-5.024l-1.413 4.237h-3.309l5.789-15.792h2.941m20.221 0v2.64h-4.561v13.152h-3.012v-13.152h-4.445v-2.64h12.019m6.01 7.872c0 2.895 1.715 5.627 4.515 5.627 2.663 0 4.585-2.523 4.585-5.604 0-3.311-2.085-5.604-4.469-5.604-2.987 0-4.631 2.757-4.631 5.581zm12.249.023c0 4.747-3.567 8.152-7.78 8.152-4.355 0-7.619-3.497-7.619-8.104 0-4.84 3.543-8.197 7.549-8.197 4.908 0 7.849 3.889 7.849 8.149m7.653-5.255v4.005h2.431c2.224 0 3.288-1.019 3.288-2.176 0-.949-.763-1.829-2.267-1.829zm3.891-2.64c3.103 0 4.864 1.575 4.864 3.889 0 2.5-1.737 3.752-4.331 4.26v.047c1.157.349 2.316.719 3.195 3.104l1.667 4.492h-3.288l-1.111-3.497c-.649-2.061-1.529-3.148-3.728-3.148h-1.159v6.645h-3.009v-15.792h6.9m11.75 0l3.288 5.833 3.287-5.833h3.752l-5.536 8.591v7.201h-3.008v-7.201l-5.464-8.591h3.681M126.989 238.669l11.41-1.431s-.613-2.086-3.721-2.005c-1.8.048-4.09.328-4.09.328l-3.599 3.108"/></g><g class="D"><path d="M135.169 251.265l3.599-.9-3.313.247-9.283.98"/><path d="M145.393 255.52l11.008-23.362-31.379-13.638-11.008 23.361 31.379 13.638" stroke="#fff" class="C F"/></g><path d="M152.421 224.776l-19.497-8.666" stroke="#fff" stroke-linecap="round" class="B C F"/><g class="D"><path d="M127.725 265.335s-.067.057 6.59-.006l6.293.128-1.712-3.567h-9.942l-1.229 3.444"/><path d="M126.866 262.391h14.192v-12.289l-14.192-6.118v18.407"/></g><g fill="#fff"><path d="M127.727 261.653v-22.96c0-2.193 2.645-4.769 6.01-4.769s6.176 2.576 6.176 4.769v22.96c-.181-.133-12.007.295-12.186 0"/><path d="M126.008 249.508l9.447.123 1.841 10.632-8.016.164-3.272-10.919"/></g><path d="M126.008 249.508l9.447.123 1.841 10.632-8.016.164z" stroke-width=".687" class="B C E"/><path d="M137.418 260.181l-1.84-10.551 2.821-.247-.368 9.448-.613 1.349" class="D"/><path d="M125.627 250.002v-11.285c0-2.497 1.694-4.792 4.961-4.792 2.045 0 4.906 2.295 4.906 4.792v11.285c-.176-.154-9.693.333-9.868 0" fill="#fff"/><path d="M125.627 250.002v-11.285c0-2.497 1.694-4.792 4.961-4.792 2.045 0 4.906 2.295 4.906 4.792v11.285c-.176-.154-9.693.333-9.868 0z" stroke-miterlimit="2" stroke-width=".9" class="B E"/><path d="M147.357 269.017h-26.011v-2.944h26.011v2.944" class="D"/><path d="M74.852 69.662l.193.401-.163-.424.635.597-.598-.641.435.153-.402-.18 1.32-.037-1.326-.039.402-.195-.424.163.597-.636-.646.597.157-.435-.182.401-.035-1.319-.044 1.325-.193-.401.166.428-.635-.603.597.647-.434-.152.399.179-1.317.033 1.324.043-.401.196.424-.163-.597.629.646-.597-.158.435.179-.396.039 1.313.04-1.324" fill="#fff"/><g stroke="#f1511b" class="B C"><use xlink:href="#B" stroke-width="5.747"/><path d="M249.407 240.503l12.577 10.901m-229.349-.432l14.104-12.007M8.225 87.011l16.9 7.517m260.329-7.535l-16.901 7.517"/></g><defs ><path id="B" d="M22.102 149.547c0 69.604 56.425 126.029 126.029 126.029s126.028-56.425 126.028-126.029S217.734 23.519 148.13 23.519 22.102 79.943 22.102 149.547z"/></defs></svg>