<svg xmlns="http://www.w3.org/2000/svg" xmlns:xlink="http://www.w3.org/1999/xlink" width="710.64" height="710.24" xmlns:v="https://vecta.io/nano"><style><![CDATA[.B{fill:none}.C{stroke-miterlimit:10}.D{fill:#231f20}.E{stroke:#231f20}.F{stroke-width:7.799}]]></style><g class="D"><path d="M74.374 536.852l2.866-1.933 10.125 15-1.179.793c-4.141 2.795-6.469 2.232-12.503-.321-6.321-2.639-7.781-2.535-9.118-1.635-1.975 1.337-1.801 4.135-.422 6.175 1.996 2.96 5.384 4.196 6.759 4.663l-3.438 2.319c-1.434-.747-4.19-2.225-6.253-5.281-2.453-3.631-2.885-8.253.937-10.832 2.675-1.805 5.416-1.52 13.119 1.713 3.781 1.621 5.628 2.228 7.165 1.281l-8.059-11.941m-11.632-19.815l2.99-1.728 9.066 15.641-1.228.715c-4.319 2.504-6.601 1.781-12.441-1.179-6.125-3.063-7.587-3.056-8.981-2.251-2.059 1.195-2.075 4-.844 6.125 1.79 3.089 5.081 4.553 6.422 5.107l-3.588 2.081c-1.375-.844-4.024-2.503-5.872-5.693-2.193-3.788-2.309-8.425 1.676-10.735 2.79-1.619 5.503-1.147 12.959 2.607 3.662 1.875 5.463 2.607 7.059 1.765l-7.219-12.456m-23.262.866c1.003 1.991 3.428 2.787 5.419 1.784s2.787-3.431 1.784-5.419a4.04 4.04 0 0 0-5.419-1.784 4.04 4.04 0 0 0-1.784 5.419zm-1.784.896c-1.503-2.98-.316-6.593 2.669-8.096s6.597-.315 8.1 2.669a6.01 6.01 0 0 1-2.669 8.096c-2.981 1.507-6.594.316-8.099-2.669m-10.242-26.261l3.172-1.372 4.819 11.133 6.516-2.821c-.835-.477-2.713-1.632-3.963-4.519-1.828-4.228-.409-8.775 3.854-10.617 4.578-1.985 9.821.18 12.187 5.64 1.434 3.312 1.216 6.291 1.091 7.64l-3.734 1.615c.347-2.196.809-4.989-.457-7.915-1.481-3.416-4.797-4.7-7.331-3.6-2.466 1.065-3.331 3.995-2.128 6.776.216.493.975 2.252 3.193 3.801l1.403 3.241-12.396 5.372-6.225-14.375m-8.92-23.952l3.149-1.109 23.987 2.572 1.304 3.696-23.894-2.649 4.531 12.851-3.259 1.149-5.819-16.509m1.857-6.157l-4.409 1.335-1.109-3.676 4.409-1.331 5.069-.609.599 1.984-4.559 2.297m-7.487-35.635c-.603 1.193-2.253 4.584-1.45 8.221.622 2.811 2.656 4.916 4.794 4.447 1.913-.421 2.647-2.08 2.685-6.728.068-4.14.575-8.968 5.484-10.053 4.987-1.1 9.169 2.891 10.294 7.989.878 3.971-.307 7.339-.913 9.043l-4.387.968c.831-1.752 2.699-5.587 1.816-9.596-.622-2.812-3.101-5.133-5.534-4.597-2.551.563-2.976 3.448-3.035 6.919-.068 2.532-.243 5.125-1.534 7.297-.653.969-1.391 2.079-3.753 2.596-4.31.953-8.038-2.235-9.197-7.48-.778-3.525-.084-6.076.419-8.076l4.312-.949m24.446-9.201c-2.903-.537-3.594-.691-5.385-.447-.109.487-.331 1.659-2.071 1.965-1.551.279-2.694-.459-2.891-1.556-.228-1.284.975-2.2 2.337-2.444 2.081-.365 5.578.419 7.741.972l.269 1.509m-12.497-28.271c-.266-2.831-2.557-5.047-5.269-4.791-2.984.281-4.263 3.096-4.069 5.163.097 1.032.644 3.949 4.507 6.481 3.128-1.565 5.131-3.644 4.831-6.853zm-17.272-5.709c-1.129 1.959-2.041 4.124-1.832 6.381.125 1.337.872 3.931 4.238 5.696 2.722 1.48 5.1 1.335 6.712 1.261l.069-.085c-1.4-.951-4.259-3.072-4.666-7.391-.456-4.853 2.575-8.3 6.856-8.703 4.818-.453 8.8 3.377 9.262 8.308.569 6.039-3.987 10.901-11.137 11.573-6.382.596-13.96-2.469-14.682-10.153-.25-2.675.466-4.904 1.013-6.497l4.166-.391m-6.352-24.418l3.341-.084 22.016 9.863.097 3.916-21.904-9.904.338 13.623-3.453.083-.434-17.496m.77-11.545a4.04 4.04 0 0 0 3.903 4.16c2.224.072 4.088-1.681 4.156-3.907a4.031 4.031 0 1 0-8.059-.253zm-1.996-.063c.103-3.337 2.875-5.937 6.215-5.833a6.01 6.01 0 0 1 5.838 6.212 6.02 6.02 0 0 1-6.216 5.837c-3.337-.103-5.94-2.875-5.837-6.216m7.871-22.258l-.006.075 8.969 8.812.712-8.031zm-4.503-3.988l14.494 1.291.403-4.549 3.366.296-.404 4.551 7.034.625-.316 3.556-7.034-.625-1.078 12.121-3.25-.287-13.53-13.42.315-3.559m3.741-26.959l3.3.524 19.853 13.695-.615 3.865-19.734-13.712-2.144 13.456-3.409-.544 2.75-17.284m4.565-4.594l-4.516-.928.774-3.763 4.512.928 4.75 1.881-.419 2.028-5.103-.147m8.33-48.867l23.175 13.819-1.078 3.524-20.862-1.384-.022.075 18.184 10.167-1.112 3.637-27.041-1.144 1.166-3.823 20.684 1.453.021-.071-18.059-10.053 1.122-3.672 20.191 1.221.022-.072-17.534-9.931 1.144-3.747m30.534-57.562l6.831 4.059L60 182.997c1.844-3.099 1.466-5.693-.778-7.028-2.113-1.256-4.228-.1-5.366 1.809zm.503-7.607c2.726-4.587 6.831-5.181 10.066-3.259 4.226 2.512 4.785 7.352 2.075 11.908l-2.844 4.781 9.769 5.811-1.884 3.165-22.538-13.397 5.356-9.009m14.384-13.741l-.041.067 6.566 8.707 4.022-5.907zm-2.8-4.137l27.171 6.625-2.418 3.551-7.882-2.209-5.318 7.807 4.94 6.524-2.4 3.525-16.212-22.713 2.119-3.109m13.587-12.925l6.206 4.896 1.687-2.14c2.972-3.763 4.254-6.809 1.572-8.928-2.56-2.019-5.044.565-5.897 1.653zm1.451-7.412c3.4-4.307 7.203-4.481 10.096-2.2 3.344 2.637 2.429 6.461 1.429 9.34l.059.047c.882-.621 2.513-1.635 5.835-.577l8.599 2.731-2.547 3.221-6.922-2.437c-2.909-1.021-4.946-.919-6.778 1.4l-2.303 2.925 8.943 7.056-2.281 2.893-20.571-16.237 6.441-8.161m34.718-6.798c.096-1.472.369-5.181-3.709-8.913-4.335-3.968-9.806-4.24-12.997-.759-3.163 3.453-2.46 8.887 1.928 12.903 4.591 4.204 10.022 4.123 12.822 1.067.284-.309.669-.848.793-1.041l-6.884-1.463 2.697-2.944zm12.318-.437a10.13 10.13 0 0 1-1.847 3.097c-2.334 2.549-4.966 2.068-8.203 1.34-.125.249-.453.784-.813 1.287-.331.532-.687 1.035-.896 1.263-4.275 4.672-12.028 5.123-17.975-.319-6.003-5.5-6.137-13.425-1.781-18.184 4.46-4.872 12.406-5.195 18.156.068 3.71 3.395 5.316 7.729 4.476 12.685 1.396.291 3.562.763 5.044-.848.672-.74 1.087-1.761 1.262-2.745l2.578 2.356m-16.447-26.46l11.146 11.909c2.594 2.779 5.922 3.919 9.091.956 3.193-2.991 2.416-6.516-.178-9.293l-11.147-11.909 2.691-2.519 11.46 12.247c5.349 5.719 2.847 10.797-.544 13.969-4.541 4.247-9.316 4.143-13.75-.595l-11.459-12.247 2.691-2.519m29.461-25.693l2.191 2.675-10.2 8.341 4.644 5.684 9.756-7.979 2.091 2.557-9.753 7.975 5.472 6.693 10.2-8.344 2.191 2.679-13.056 10.677-16.588-20.284 13.053-10.675m25.565-12.392l-.065.04 2.744 10.549 5.968-3.915zm-1.009-4.895l22.575 16.497-3.593 2.356-6.437-5.047-7.893 5.175 2.071 7.916-3.559 2.337-6.309-27.168 3.147-2.067m29.081-10.124c-1.316-.227-5.04-.821-8.287 1.004-2.509 1.409-3.932 3.972-2.86 5.879.96 1.708 2.76 1.931 7.216.612 3.984-1.139 8.751-2.057 11.216 2.325 2.503 4.453-.101 9.615-4.651 12.172-3.549 1.993-7.112 1.84-8.921 1.759l-2.203-3.916c1.924.284 6.133.953 9.712-1.059 2.509-1.409 4.012-4.453 2.788-6.632-1.279-2.275-4.163-1.84-7.5-.889-2.444.668-4.976 1.255-7.429.652-1.116-.34-2.391-.725-3.575-2.835-2.163-3.847-.2-8.344 4.484-10.975 3.147-1.769 5.791-1.847 7.848-1.947l2.161 3.849m18.058-15.711l1.503 3.109-6.837 3.309 9.877 20.412-3.315 1.604-9.879-20.413-7.012 3.395-1.504-3.109 17.167-8.307m8.966-.153l2.981 7.328 2.528-1.028c4.444-1.809 7.063-3.828 5.775-6.993-1.228-3.023-4.669-1.996-5.947-1.475zm4.921-5.735c5.088-2.068 8.485-.34 9.876 3.076 1.605 3.947-1.083 6.821-3.372 8.831l.031.072c1.075-.105 2.991-.181 5.36 2.379l6.133 6.625-3.803 1.547-4.825-5.541c-2.024-2.328-3.847-3.24-6.587-2.128l-3.451 1.404 4.297 10.564-3.413 1.388-9.884-24.291 9.637-3.925m19.096 6.759c1.837 5.7 6.547 8.54 10.968 7.113 4.607-1.485 6.431-6.713 4.663-12.197-1.884-5.848-6.681-8.457-10.849-7.113-4.788 1.547-6.528 6.788-4.781 12.197zm19.409-6.381c2.224 6.909-.532 14.495-7.585 16.772-7.091 2.284-13.447-2.403-15.628-9.165-2.556-7.935 1.667-14.741 7.328-16.569 7.46-2.403 13.809 2.528 15.885 8.963m17.289-3.299l5.164 5.335.661.788.057-.091-.507-1.813-.879-3.228-3.637-15.44 3.437-.809 6.009 25.496-3.665.864-11.244-11.041-4.107-4.204c-.303-.283-1.819-1.861-2.009-2.171l-.075.019.575 2.112.623 2.3 3.753 15.928-3.591.844-6.007-25.497 3.737-.877 11.703 11.487M304.071.004l-3.951 6.197-2.356.359 2.737-6.012zm-8.881 22.063c.903 5.925 5.1 9.481 9.693 8.784 4.784-.728 7.425-5.6 6.556-11.296-.925-6.079-5.243-9.423-9.571-8.764-4.976.757-7.532 5.657-6.679 11.276zm20.191-3.191c1.091 7.179-2.851 14.228-10.179 15.344-7.368 1.124-12.891-4.525-13.959-11.551-1.257-8.243 4.003-14.289 9.887-15.184 7.751-1.181 13.232 4.707 14.251 11.391m29.062-15.149l1.712 26.14-3.565.232-1.4-21.385-.079.007-7.84 16.024-9.819-14.712-.076.004 1.391 21.233-3.561.232-1.713-26.137 4.253-.281 9.116 13.415 7.133-14.477 4.448-.293m10.437.047l.481 26.175-3.684.069-.481-26.176 3.684-.068m25.51 7.01c-1.257-1.207-3.659-3.463-7.344-3.619-5.297-.228-8.972 4.768-9.191 9.953-.24 5.561 3.3 9.984 7.831 10.175 3.916.168 6.973-2.084 8.125-2.959l-.187 4.336c-1.495.781-4.363 2.276-8.204 2.109-6.524-.277-11.743-5.883-11.407-13.828s5.92-13.475 13.06-13.172c3.569.153 5.929 1.641 7.5 2.669l-.184 4.335m7.297 7.497c-.699 5.951 2.404 10.488 7.02 11.029 4.807.565 8.64-3.435 9.308-9.153.717-6.107-2.561-10.472-6.908-10.981-4.997-.585-8.76 3.459-9.42 9.105zm20.307 2.26c-.847 7.213-6.509 12.967-13.871 12.107-7.4-.869-11.228-7.779-10.404-14.831.972-8.279 7.637-12.719 13.551-12.023 7.781.909 11.509 8.037 10.724 14.747m28.394-2.694l-.076-.019-5.784 9.243 6.949 1.651zm2.868-4.1l3.519 27.76-4.188-.997-.749-8.151-9.193-2.18-4.332 6.945-4.147-.984 15.428-23.261 3.663.868m29.055 8.268l-1.009 3.304-7.275-2.216-6.625 21.713-3.528-1.079 6.629-21.713-7.46-2.277 1.009-3.303 18.259 5.571m10.832 8.9l-.069-.028-6.915 8.432 6.677 2.521zm3.365-3.693l-.051 27.963-4.024-1.516.297-8.177-8.835-3.335-5.181 6.332-3.984-1.504 18.259-21.095 3.519 1.332m27.937 18.919c-.704-1.597-2.068-4.597-5.419-6.14-4.816-2.223-10.113 1.007-12.288 5.715-2.335 5.063-.736 10.497 3.383 12.395 3.557 1.64 7.243.719 8.643.347l-1.821 3.944c-1.679.156-4.904.447-8.391-1.163-5.931-2.737-8.635-9.909-5.3-17.132s10.596-10.219 17.084-7.224c3.247 1.496 4.865 3.765 5.928 5.315l-1.819 3.944m13.816 5.587l-.069-.037-8.047 7.359 6.256 3.447zm3.856-3.181L524.08 76.23l-3.765-2.079 1.459-8.052-8.271-4.56-6.032 5.531-3.735-2.056 21.088-18.284 3.293 1.819m33.944 21.269l-14.479 21.805-2.971-1.975 11.845-17.841-.064-.044-15.941 7.981 1.116-17.64-.063-.041-11.764 17.711-2.971-1.972 14.477-21.804 3.551 2.356-.888 16.179 14.444-7.179 3.707 2.464m10.448 13.937l-.063-.051-9.147 5.937 5.6 4.428zm4.328-2.5l-8.537 26.64-3.372-2.668 2.763-7.707-7.409-5.86-6.86 4.465-3.347-2.647 23.809-14.563 2.953 2.339m-9.637 33.337c2.603-1.393 3.235-1.708 4.484-3.012-.219-.447-.779-1.5.387-2.828 1.043-1.181 2.391-1.324 3.229-.587.981.859.612 2.325-.3 3.365-1.391 1.588-4.609 3.152-6.644 4.077l-1.156-1.016m46.643 9.758c-.075-1.737-.253-5.028-2.809-7.688-3.672-3.819-9.779-2.747-13.516.848-4.012 3.859-4.505 9.5-1.365 12.765 2.715 2.825 6.48 3.303 7.916 3.471l-3.125 3.004c-1.623-.465-4.728-1.369-7.388-4.135-4.525-4.709-4.428-12.365 1.303-17.875s13.583-5.653 18.532-.504c2.475 2.576 3.156 5.279 3.581 7.107l-3.128 3.007m10.795 2.887l-8.361 6.939 8.212 9.896 8.361-6.935 2.355 2.835-20.151 16.723-2.353-2.841 9.279-7.697-8.216-9.896-9.275 7.697-2.353-2.835 20.148-16.719 2.355 2.833m16.866 21.197l-21.019 15.66-2.203-2.96 21.017-15.656 2.204 2.956m6.004 8.409l-18.823 12.753 7.301 10.781-2.86 1.937-9.372-13.832 21.685-14.693 2.068 3.053m18.469 29.451l-2.973 1.764-6.708-11.344-6.312 3.731 6.407 10.847-2.844 1.681-6.407-10.847-7.444 4.4 6.704 11.341-2.975 1.756-8.581-14.516 22.553-13.328 8.58 14.515m31.464 76.234l-3.304 1.023-3.895-12.585-7.005 2.167 3.72 12.037-3.157.975-3.719-12.035-8.26 2.553 3.895 12.584-3.304 1.023-4.981-16.109 25.028-7.741 4.983 16.109m2.057 8.066l-22.075 5.416 3.103 12.64-3.356.825-3.981-16.219 25.432-6.241.877 3.579m6.947 33.256l-3.4.621-2.371-12.956-7.215 1.319 2.264 12.391-3.251.593-2.265-12.391-8.5 1.553 2.372 12.956-3.403.623-3.032-16.584 25.765-4.711 3.035 16.585m.904 6.619l-20.465 9.788.011.075 22.149 4.777.5 4.304-27.132-6.747-.424-3.66 24.88-12.697.481 4.16m-1.896 30.3l-.007-.079-10.488-2.956.367 7.128zm4.731 1.6l-25.631 11.156-.225-4.291 7.609-3.005-.484-9.429-7.879-2.205-.219-4.253 26.635 8.272.193 3.756m.175 29.459l-3.456-.051.112-7.6-22.68-.335.053-3.684 22.683.335.113-7.791 3.456.053-.281 19.072m-.345 6.974l-26.145-1.315.185-3.681 26.143 1.316-.183 3.68m-13.52 7.444c-5.956-.609-10.449 2.553-10.924 7.176-.499 4.812 3.553 8.584 9.28 9.175 6.109.628 10.432-2.705 10.879-7.06.515-5.005-3.581-8.705-9.235-9.291zm-1.979 20.332c-7.215-.74-13.047-6.323-12.289-13.693.763-7.411 7.616-11.335 14.68-10.607 8.288.852 12.817 7.453 12.208 13.375-.804 7.791-7.876 11.616-14.599 10.925m-3.815 16.412l-6.953 2.591-.988.284.06.091 1.865.264 3.307.487 15.593 2.857-.637 3.471-25.751-4.712.679-3.7 14.616-5.869 5.491-2.08c.381-.163 2.431-.92 2.793-.969l.013-.076-2.165-.319-2.353-.355-16.085-2.943.663-3.627 25.751 4.715-.692 3.779-15.205 6.112m-.234 17.302c-1.268-.303-2.133-1.491-1.868-2.612.247-1.044 1.447-1.787 2.752-1.481 1.235.291 2.107 1.447 1.835 2.603-.289 1.235-1.559 1.764-2.719 1.491zm-13.116-3.096c-1.271-.3-2.133-1.488-1.868-2.609.244-1.047 1.447-1.788 2.753-1.481 1.235.291 2.107 1.444 1.833 2.603-.292 1.232-1.561 1.763-2.719 1.488m12.421 38.518l-3.291-1.065 3.744-11.551-6.76-2.191c.309.909.96 3.016-.012 6.016-1.423 4.384-5.495 6.86-9.916 5.424-4.752-1.536-7.263-6.633-5.424-12.296 1.115-3.437 3.245-5.532 4.233-6.465l3.876 1.259c-1.713 1.423-3.911 3.217-4.895 6.248-1.148 3.547.493 6.703 3.125 7.556 2.56.831 5.144-.797 6.081-3.681.165-.513.759-2.341.115-4.968l1.091-3.367 12.867 4.168-4.835 14.913m-7.087 18.218l-23.153-9.288 1.301-3.24 15.599 6.26 2.216-5.523 2.779 1.116-.6 1.493c-1.285 3.205.365 5.275 2.361 6.076l.641.259-1.144 2.847m-10.649 16.712c1.431-2.977.131-5.859-2.013-6.891-2.352-1.133-5.064.079-6.163 2.364-1.515 3.147-.087 6.475.497 7.821 1.481.112 5.867.475 7.679-3.295zm-11.788-13.847c-2.047 1.06-3.912 2.463-4.909 4.541-1.516 3.144-.407 8.281 5.912 11.615-.693-1.736-2.033-4.981-.187-8.821 1.981-4.119 6.247-5.9 10.363-3.921 4.603 2.212 5.7 7.64 3.688 11.828-2.448 5.084-8.623 7.652-15.683 4.259-7.093-3.412-10.019-10.44-7.205-16.288.965-2.005 2.484-3.659 4.216-5.043l3.805 1.831m-10.951 36.431c4.572 2.597 9.655 2.117 11.563-1.253 2.009-3.537-.352-8.316-4.861-10.875-4.437-2.516-9.685-2.139-11.616 1.268-2.139 3.772.576 8.4 4.915 10.86zm8.609-15.413c6.979 3.957 8.791 10.723 5.932 15.763-2.896 5.107-9.737 6.741-16.449 2.937-7.044-3.993-8.728-10.908-6.056-15.612 3.027-5.343 9.864-6.895 16.573-3.088m-36.842 35.583l1.981-2.927 9.181 6.219c1.133.725 3.403 1.888 4.803-.177 1.507-2.223-.193-5.323-2.991-7.216l-6.991-4.736 1.977-2.923 9.185 6.221c.857.579 3.337 1.983 4.804-.179 1.417-2.1.057-5.152-3.151-7.324l-6.835-4.628 1.981-2.925 14.779 10.009-1.831 2.7-2.376-1.284c.544 1.388 1.369 3.524-.416 6.163-2.112 3.112-5.065 2.272-5.88 2.04.377.676.745 1.297.905 2.425.247 1.552-.107 3.035-.948 4.271-1.784 2.639-4.961 3.223-8.14 1.069l-10.04-6.799m-476.416 63.666l-16.64 9.058-2.85-2.546 6.013-12.951-.06-.056-12.325 7.313-2.785-2.493 7.147-17.55 3.031 2.712-6.033 13.034.063.056 12.247-7.475 2.881 2.57-6.031 13.036.059.056 12.312-7.423 2.972 2.658m23.465 17.541L152.332 645.1l-3.059-2.285 4.84-13.44-.064-.049-11.625 8.374-2.999-2.239 5.567-18.12 3.26 2.433-4.859 13.524.067.046 11.541-8.531 3.096 2.309-4.856 13.53.065.049 11.605-8.487 3.196 2.387m24.966 15.414l-14.789 11.851-3.255-2.007 3.639-13.812-.068-.044-10.845 9.369-3.189-1.967 3.945-18.537 3.465 2.134-3.644 13.9.069.044 10.749-9.519 3.288 2.027-3.644 13.897.069.045 10.819-9.476 3.391 2.093m-4.023 15.208c-.627 1.147-2.065 1.624-3.147 1.031-1.005-.556-1.459-1.943-.812-3.121.613-1.109 2.012-1.609 3.128-.997 1.188.656 1.407 2.047.831 3.088m22.129-.678c-1.972-3.423-4.404-4.625-4.96-4.901-1.765-.877-3.653-.956-4.181.109-.581 1.172.879 2.495 2.621 3.874 4.328 3.388 5.579 5.679 4.335 8.192-1.384 2.784-5.559 3.803-10.159 1.523-3.279-1.63-4.925-3.944-5.628-4.939l1.744-3.505c1.121 2.359 2.98 4.437 5.412 5.643 1.841.912 4.116 1.225 4.847-.253.512-1.035.044-2.038-2.888-4.35-3.253-2.509-3.775-3.672-4.128-4.447-.243-.719-.633-1.857.079-3.304 1.296-2.616 5.003-3.518 9.275-1.4 2.909 1.441 4.435 3.353 5.284 4.422l-1.652 3.335"/><path d="M221.329 657.178c.541-1.231 1.659-1.828 2.823-1.312 1.089.477 1.615 1.634 1.008 3.006-.568 1.3-1.784 1.812-2.871 1.331-1.319-.581-1.441-1.934-.96-3.025zm1.251 7.056l-7.201 16.344-3.455-1.524 7.193-16.344 3.463 1.524m24.77 28.659l-3.549-1.293 3.812-10.428c.423-1.274.984-3.767-1.528-4.681-2.703-.984-5.405 1.381-6.565 4.556l-2.903 7.931-3.553-1.294 3.812-10.425c.36-.972 1.1-3.726-1.521-4.681-2.551-.931-5.304 1.092-6.635 4.734l-2.837 7.754-3.553-1.293 6.137-16.77 3.281 1.193-.652 2.625c1.271-.844 3.231-2.134 6.433-.965 3.785 1.377 3.747 4.472 3.74 5.328.581-.525 1.12-1.025 2.229-1.434 1.531-.591 3.144-.572 4.653-.024 3.203 1.168 4.687 4.165 3.371 7.772l-4.172 11.396m23.557-2.71c.896-3.296-.791-6.621-3.96-7.487s-6.407 1.16-7.305 4.457c-.932 3.406.947 6.661 3.877 7.462 3.369.917 6.507-1.211 7.388-4.432zm-15.181-4.137c1.419-5.188 6.7-7.844 12.047-6.384 5.668 1.542 8.351 6.849 7.056 11.589-1.447 5.297-7.025 7.795-11.897 6.467-5.549-1.514-8.612-6.526-7.205-11.672m38.814 18.462l-3.703-.751 2.172-10.768c.419-2.072-.137-4.106-2.716-4.625-3.503-.712-5.968 2.356-6.561 5.293l-1.679 8.325-3.707-.752 3.535-17.511 3.384.684-.312 2.994.081.02c1.009-1.053 2.849-2.912 6.637-2.146 4.472.905 5.86 4.437 5.287 7.261l-2.419 11.976m21.573-9.925c-2.959-2.618-5.643-2.991-6.252-3.077-1.957-.271-3.769.252-3.937 1.433-.179 1.293 1.621 2.084 3.719 2.841 5.177 1.84 7.087 3.618 6.703 6.394-.425 3.081-4.065 5.369-9.153 4.662-3.625-.503-5.925-2.174-6.9-2.893l.537-3.879c1.813 1.879 4.237 3.262 6.923 3.631 2.037.281 4.293-.14 4.521-1.775.159-1.143-.6-1.944-4.119-3.205-3.881-1.351-4.747-2.285-5.325-2.911-.453-.605-1.193-1.558-.972-3.158.4-2.891 3.628-4.921 8.353-4.269 3.216.444 5.272 1.779 6.413 2.516l-.511 3.691m20.247 5.76c.252-3.405-2.044-6.345-5.32-6.589s-6.061 2.363-6.312 5.768c-.263 3.523 2.203 6.364 5.237 6.588 3.481.26 6.151-2.432 6.395-5.767zm-15.685-1.158c.393-5.361 5.069-8.978 10.597-8.571 5.859.433 9.507 5.133 9.147 10.033-.407 5.474-5.403 8.997-10.437 8.619-5.737-.423-9.7-4.759-9.307-10.081m29.179 5.116c.812.887 2.372 2.621 5.121 2.632 3.573.012 5.512-3.093 5.524-6.126.013-3.651-2.603-5.964-5.231-5.972-2.712-.009-5.391 2.284-5.405 6.087zm.072-20.7l-.041 11.368h.081c.704-1.112 2.397-3.447 6.255-3.433 5.095.019 8.363 4.331 8.348 9.093-.023 5.491-4.181 9.625-8.907 9.609-2.299-.008-4.224-.937-5.82-2.477l-.997 2.027-2.791-.008.093-26.191 3.779.012m32.985 12.225c-3.415-1.979-6.124-1.813-6.74-1.774-1.969.121-3.648.993-3.572 2.18.079 1.304 1.997 1.721 4.203 2.051 5.44.779 7.665 2.14 7.837 4.937.188 3.107-2.924 6.068-8.049 6.385-3.649.224-6.239-.964-7.341-1.473l-.24-3.905c2.151 1.481 4.8 2.356 7.505 2.186 2.056-.125 4.185-.986 4.083-2.633-.073-1.151-.975-1.788-4.672-2.328-4.069-.556-5.107-1.3-5.797-1.797-.561-.503-1.475-1.291-1.575-2.904-.179-2.91 2.58-5.543 7.344-5.837 3.24-.199 5.517.701 6.787 1.197l.228 3.716m18.827-.963c-.663-2.354-2.796-3.212-4.633-2.988-.735.088-3.423.457-4.588 4.12zm-9.365 4.009c.865 4.691 4.972 5.421 7.093 5.162 2.772-.341 5.029-2.203 6.692-4.185l.52 4.267c-1.129.912-3.533 2.909-7.448 3.388-6.119.752-10.311-3.373-10.891-8.098-.663-5.447 3.433-9.815 8.412-10.424 1.751-.219 5.043-.044 7.337 2.424 1.907 2.045 2.231 4.401 2.4 5.734l-14.116 1.732m28.97-9.821c-.863-.156-1.419-.251-2.107-.132-3.035.54-4.677 3.956-4.047 7.472l1.435 8.054-3.72.662-3.136-17.579 3.393-.607.872 3.239.081-.016c.24-1.212.899-3.826 4.58-4.481.163-.028 1.051-.188 2.023-.128l.625 3.516m5.61-4.828l8.425 12.173 2.172-14.687 4-.946-3.513 19.189-3.637.86-11.568-15.612 4.121-.977m29.075 1.883c-4.437 1.947-6.097 3.131-5.531 5.007.461 1.543 2.371 2.168 4.105 1.647.667-.203 4.609-1.639 3.116-7.448l-1.691.795zm6.632 2.487c.224.739.645 1.288 1.589 1.004a3.33 3.33 0 0 0 1.181-.639l.841 2.795c-.797.48-1.487.891-2.513 1.203-2.437.737-3.696-.166-4.268-1.919l-.079.025c-.428 1.291-1.341 3.816-4.687 4.828-3.025.916-7.065-.105-8.097-3.525-1.419-4.705 4.376-7.266 10.293-9.696-.903-2.575-3.812-2.539-5.503-2.029-2.712.823-4.305 2.95-5.404 4.448l-1.093-3.644c1.088-1.091 3.228-3.104 6.297-4.032 5.035-1.524 8.404 1.107 9.321 4.156l2.12 7.026m4.916-21.801l1.816 5.016 4.872-1.758 1.019 2.812-4.872 1.761 3.277 9.063c.711 1.953 2.271 1.795 3.391 1.388.657-.236 1.317-.596 2.109-1.415l1.085 2.996c-.579.453-1.529 1.207-3.272 1.839-3.053 1.103-5.377.596-6.487-2.469l-3.661-10.109-3.011 1.09-1.02-2.815 3.02-1.091-1.473-5.148 3.207-1.158m27.172 4.392c-1.344-3.136-4.732-4.696-7.753-3.406s-4.3 4.882-2.956 8.021c1.381 3.249 4.877 4.635 7.672 3.442 3.212-1.369 4.347-4.984 3.037-8.057zm-14.468 6.176c-2.109-4.942.375-10.301 5.477-12.475 5.4-2.307 10.797.187 12.728 4.706 2.156 5.046-.663 10.467-5.305 12.451-5.291 2.256-10.804.228-12.9-4.681m30.912-20.083c-.872.091-1.437.156-2.063.466-2.763 1.372-3.381 5.109-1.793 8.307l3.633 7.321-3.387 1.682-7.932-15.985 3.088-1.535 1.74 2.863.076-.037c-.107-1.232-.207-3.925 3.143-5.587.148-.076.957-.48 1.907-.692l1.588 3.197m3.97-6.177l11.861 9.649.072-.04-2.712-14.844 3.537-2.013 3.188 22.837c.531 3.851-.493 6.288-3.032 7.728-1.212.692-2.279.897-2.819 1.027l-1.553-2.734c1.116-.195 1.763-.388 2.337-.713 2.073-1.175 1.756-3.646 1.183-6.988L511.37 653.26l3.788-2.152m24.241 3.858c.681 1.115.385 2.599-.665 3.246-.981.603-2.409.309-3.112-.837-.664-1.079-.404-2.547.683-3.212 1.156-.711 2.473-.211 3.095.803m13.927-17.233c-1.925-2.819-5.556-3.686-8.261-1.828-2.715 1.858-3.271 5.635-1.341 8.456 1.991 2.917 5.689 3.593 8.2 1.875 2.88-1.97 3.291-5.745 1.403-8.503zm-12.979 8.897c-3.031-4.441-1.64-10.191 2.939-13.321 4.845-3.322 10.627-1.932 13.399 2.128 3.095 4.531 1.384 10.404-2.784 13.258-4.747 3.251-10.544 2.342-13.553-2.065m26.29-25.623c-.844.259-1.381.431-1.933.859-2.441 1.877-2.323 5.663-.14 8.487l4.989 6.469-2.993 2.309-10.897-14.124 2.729-2.108 2.271 2.467.067-.051c-.351-1.188-.969-3.806 1.991-6.087a8.69 8.69 0 0 1 1.739-1.048l2.179 2.827m14.023-9.853c-1.265-.023-3.347-.1-5.268 1.568-2.269 1.963-2.873 5.281-.432 8.1 2.085 2.407 5.3 3.176 7.757 1.054 2.449-2.128 2.315-5.672.052-8.284zm-2.751-4.432l2.235-1.937 10.285 11.879c2.387 2.758 3.815 4.974 3.381 8.298-.395 3.188-2.46 5.384-3.637 6.404-2.669 2.315-5.657 2.818-7.123 3.072l-2.863-3.311c1.681.063 5.125.083 7.916-2.337 1.769-1.533 2.419-3.98 1.819-5.996-.372-1.306-2.107-3.309-2.977-4.385h-.116c.028 1.094.096 4.188-2.639 6.553-3.473 3.014-8.887 2.473-12.205-1.361-3.265-3.779-3.288-9.451.593-12.81 2.013-1.749 3.893-1.905 6.044-1.991l-.713-2.078M53.044 358.914c0 167.048 135.42 302.469 302.469 302.469s302.469-135.421 302.469-302.469S522.561 56.446 355.512 56.446 53.044 191.865 53.044 358.914"/></g><use xlink:href="#B" stroke-width="10.254" class="B C E"/><g fill="#f1511b"><path d="M106.374 518.311s23.468-4.203 32.829-9.849c11.989-7.231 47.601-42.676 67.298-41.036l26.264 42.679 65.068 65.08L324.269 586l55.299 15.975c13.348 4.71 59.677 41.617 59.677 41.617 15.705 10.208-11.255 11.762-14.133 11.779l-18.847 7.068s-23.009 5.243-27.483 5.496c-21.228 1.201-38.275-3.521-40.908-3.814-21.628-2.403-66.467-16.695-72.449-22.608-5.812-5.74-25.207-4.676-32.981-10.6-6.979-5.316-22.727-7.891-28.268-15.312-6.864-9.191-26.412-14.116-28.269-17.668-1.057-2.022-35.611-28.722-36.513-30.625-4.927-10.364-33.019-48.997-33.019-48.997"/><path d="M545.756 588.51c-12.283-5.381-43.427-9.783-57.041-15.589-4.383-1.869-16.489-6.281-16.489-6.281s-13.08 11.113-19.792 11.724-17.984-4.22-30.511-3.05c-16.444 1.533-46.284 14.884-46.284 14.884s13.351 4.711 31.411 21.987c9.188 8.789 20.416 17.274 32.98 32.195 4.292 5.097 51.631-17.864 51.631-17.864l54.096-38.004"/></g><path d="M321.962 519.802l30.551-462.387s75.121-3.003 152.693 39.648c81.526 44.825 120.926 127.209 120.926 127.209L364.364 540.219" fill="#444142"/><use xlink:href="#B" stroke-width="6.896" class="B C E"/><g fill="#fff"><path d="M508.304 150.076l.339-.163-.352.151.501-.548-.553.509.136-.372-.149.345-.04-1.133-.032 1.14-.163-.345.143.365-.547-.509.508.548-.364-.131.337.143-1.127.04 1.133.032-.344.164.364-.144-.508.548.547-.509-.129.372.149-.345.032 1.12.04-1.127.163.345-.137-.365.541.509-.513-.548.371.131-.34-.151 1.128-.032-1.133-.04m-128.302 102.57l2.424-1.103-2.653.945 3.657-3.924-3.872 3.631 1.004-2.575-1.2 2.451-.247-8.1-.209 8.035-1.101-2.424.945 2.652-3.929-3.656 3.636 3.872-2.575-.992 2.451 1.188-8.107.247 8.041.208-2.424 1.103 2.653-.945-3.657 3.929 3.872-3.629-.997 2.567 1.192-2.449.248 8.107.208-8.041 1.101 2.431-.945-2.653 3.931 3.649-3.636-3.871 2.575 1.004-2.451-1.2 8.1-.248-8.035-.207M256.535 136.557l.344.717-.291-.756 1.133 1.067-1.067-1.144.776.271-.717-.32 2.355-.067-2.364-.068.717-.349-.756.291 1.065-1.133-1.153 1.065.281-.775-.324.716-.063-2.353-.077 2.364-.345-.716.296.764-1.133-1.075 1.065 1.152-.775-.271.712.32-2.349.057 2.364.077-.717.349.756-.291-1.065 1.124 1.152-1.065-.281.776.321-.709.067 2.347.073-2.365m374.158 260.448l.463.963-.391-1.016 1.525 1.435-1.435-1.54 1.044.365-.965-.429 3.168-.091-3.18-.092.964-.469-1.017.391 1.433-1.524-1.551 1.433.377-1.043-.436.964-.084-3.168-.104 3.181-.463-.964.397 1.029-1.525-1.447 1.433 1.551-1.043-.364.959.429-3.161.077 3.18.105-.964.469 1.017-.392-1.435 1.512 1.552-1.432-.379 1.041.431-.952.091 3.155.097-3.179m-132.207 99.316l.463.964-.392-1.016 1.525 1.433-1.433-1.539 1.041.365-.963-.431 3.167-.089-3.18-.093.965-.468-1.017.391 1.433-1.525-1.551 1.433.377-1.041-.436.964-.085-3.167-.104 3.179-.463-.963.399 1.028-1.527-1.447 1.433 1.551-1.041-.364.957.429-3.16.079 3.179.104-.964.469 1.016-.391-1.433 1.512 1.551-1.433-.377 1.043.431-.953.092 3.157.097-3.181m-180.43-101.74l.463.965-.391-1.017 1.525 1.433-1.435-1.539 1.044.365-.965-.429 3.167-.091-3.179-.092.964-.469-1.016.392 1.432-1.527-1.551 1.435.377-1.043-.436.964-.084-3.167-.104 3.181-.464-.965.399 1.029-1.525-1.447 1.433 1.551-1.043-.365.957.431-3.16.079 3.18.104-.964.469 1.016-.391-1.433 1.512 1.552-1.435-.379 1.044.431-.952.091 3.155.097-3.181m124.713-22.348l-.197-.724.136.784-.933-1.195.849 1.24-.672-.38.631.42-2.267-.272 2.224.408-.713.2.765-.147-1.176.935 1.228-.851-.377.672.431-.62-.283 2.256.411-2.224.197.715-.145-.767.943 1.185-.859-1.239.669.388-.628-.431 2.267.273-2.225-.399.715-.209-.768.148 1.188-.925-1.24.84.389-.671-.429.629.273-2.268-.403 2.227M576.4 509.734l-.913-1.876.761 1.968-2.977-2.789 2.809 3.012-2.033-.731 1.863.859-6.171.171 6.217.183-1.877.912 1.976-.768-2.797 2.985 3.024-2.817-.729 2.035.848-1.865.163 6.179.188-6.231.913 1.891-.763-1.981 2.979 2.803-2.811-3.024 2.035.716-1.871-.833 6.177-.169-6.217-.184 1.877-.911-1.975.768 2.791-2.984-3.019 2.801.724-2.032-.841 1.863-.169-6.177-.181 6.229M108.012 244.7l-.326-.665.268.704-1.062-.991 1.003 1.069-.723-.248.658.287-2.19.067 2.216.064-.678.327.703-.275-.99 1.056 1.074-.991-.26.716.307-.664.052 2.203.066-2.216.325.665-.267-.704 1.061 1.004-1.004-1.081.724.26-.658-.3 2.19-.064-2.216-.067.678-.325-.704.287.99-1.069-1.074 1.004.254-.729-.299.664-.052-2.189-.065 2.203M435.568 97.844l.356 1.323-.251-1.364 1.575 2.183-1.429-2.309 1.22.715-1.092-.777 4.02.671-4.011-.901 1.333-.357-1.365.252 2.173-1.585-2.307 1.44.721-1.22-.776 1.093.671-4.009-.911 3.999-.359-1.333.253 1.385-1.575-2.195 1.437 2.32-1.24-.733 1.112.776-4.028-.661 4.008.903-1.321.347 1.375-.232-2.172 1.555 2.288-1.427-.713 1.217.775-1.092-.669 4.031.901-4.011M350.05 79.784l.125.472-.084-.493.556.777-.513-.819.44.251-.399-.273 1.437.241-1.417-.325.463-.125-.483.095.777-.556-.829.504.261-.443-.273.4.232-1.427-.313 1.416-.128-.473.084.496-.568-.777.527.808-.441-.252.389.283-1.417-.24 1.405.324-.463.116.484-.084-.777.567.82-.515-.253.431.273-.377-.232 1.427.317-1.427M187.122 127.18l.125.472-.084-.493.556.777-.513-.819.44.251-.399-.273 1.437.241-1.417-.325.463-.125-.483.095.777-.556-.829.503.261-.44-.273.399.232-1.427-.315 1.416-.127-.473.084.495-.568-.776.527.807-.441-.252.389.284-1.417-.241 1.407.325-.464.116.484-.084-.777.568.82-.516-.253.431.275-.377-.233 1.427.317-1.427M96.865 432.002l-.161-1.528.037 1.619-1.476-2.712 1.27 2.779-1.217-1.012 1.116 1.093-4.457-1.34 4.342 1.581-1.525.156 1.619-.029-2.713 1.468 2.78-1.265-1.016 1.221 1.097-1.124-1.341 4.465 1.581-4.347.154 1.521-.034-1.617 1.477 2.712-1.274-2.78 1.221 1.02-1.117-1.095 4.458 1.333-4.341-1.572 1.524-.159-1.618.029 2.713-1.475-2.776 1.275 1.015-1.223-1.097 1.116 1.337-4.457L96.866 432m49.842 39.426l-.28-2.657.064 2.815-2.568-4.719 2.209 4.836-2.117-1.76 1.941 1.903-7.755-2.333 7.553 2.751-2.653.273 2.816-.052-4.719 2.555 4.836-2.203-1.767 2.125 1.911-1.955-2.333 7.768 2.749-7.56.268 2.644-.059-2.813 2.568 4.719-2.217-4.836 2.125 1.773-1.943-1.904 7.756 2.321-7.553-2.737 2.652-.275-2.816.052 4.72-2.568-4.829 2.216 1.767-2.125-1.911 1.941 2.327-7.753-2.743 7.559m239.813-87.4l-.912-1.877.763 1.968-2.977-2.789 2.808 3.012-2.033-.731 1.863.86-6.171.169 6.216.183-1.876.911 1.976-.768-2.797 2.987 3.024-2.817-.728 2.035.845-1.865.163 6.179.189-6.231.913 1.891-.764-1.981 2.98 2.801-2.811-3.023 2.035.716-1.872-.833 6.18-.169-6.217-.183 1.876-.912-1.973.768 2.789-2.984-3.019 2.801.724-2.032-.841 1.863-.169-6.179-.183 6.232m221.8-89.409l-.327-.667.268.705-1.063-.991 1.004 1.068-.724-.247.659.287-2.189.065 2.216.065-.679.325.703-.275-.989 1.057 1.076-.991-.261.716.307-.664.051 2.203.067-2.216.325.664-.267-.703 1.063 1.003-1.004-1.081.723.261-.657-.3 2.189-.065-2.216-.065.679-.327-.705.287.992-1.068-1.076 1.004.253-.731-.299.665-.052-2.191-.065 2.204m-31.019 125.797l.356 1.321-.251-1.363 1.575 2.184-1.428-2.311 1.219.715-1.092-.777 4.02.671-4.011-.901 1.333-.357-1.365.251 2.175-1.584-2.309 1.439.723-1.219-.775 1.092.669-4.009-.911 4-.359-1.333.253 1.387-1.575-2.196 1.439 2.32-1.24-.733 1.112.776-4.029-.663 4.009.904-1.323.347 1.375-.232-2.172 1.555 2.288-1.428-.713 1.219.775-1.091-.671 4.029.903-4.011m-109.952 24.806l.095.351-.064-.367.413.579-.381-.609.327.187-.295-.203 1.068.18-1.055-.243.344-.093-.357.069.576-.412-.616.373.195-.328-.203.297.172-1.061-.233 1.053-.096-.352.064.368-.421-.577.391.6-.328-.188.288.212-1.053-.18 1.047.241-.344.087.357-.063-.576.421.609-.383-.188.321.204-.281-.173 1.061.235-1.061m-120.108-30.607l.125.472-.084-.493.556.777-.513-.819.44.251-.399-.273 1.439.243-1.419-.325.463-.127-.483.095.777-.556-.829.504.261-.441-.273.399.233-1.425-.315 1.415-.128-.472.084.495-.567-.777.525.808-.441-.252.389.284-1.417-.241 1.405.324-.461.116.483-.084-.777.567.82-.513-.252.431.273-.379-.232 1.427.316-1.427"/><path d="M381.846 136.86l.125.473-.084-.493.556.777-.513-.82.44.252-.399-.273 1.437.241-1.416-.324.463-.128-.484.096.777-.556-.829.503.261-.44-.273.397.232-1.425-.313 1.416-.128-.473.085.495-.568-.777.525.808-.441-.251.389.283-1.417-.241 1.407.325-.463.116.483-.084-.777.567.82-.515-.252.431.273-.379-.233 1.428.317-1.428m72.633 380.379l-.223-2.172.048 2.308-2.112-3.876 1.817 3.972-1.739-1.453 1.599 1.571-6.377-1.919 6.212 2.257-2.185.223 2.321-.048-3.883 2.121 3.969-1.823-1.448 1.745 1.565-1.597-1.92 6.376 2.268-6.212.223 2.18-.048-2.317 2.112 3.876-1.827-3.972 1.749 1.455-1.599-1.572 6.377 1.921-6.212-2.26 2.179-.223-2.315.048 3.88-2.12-3.972 1.831 1.448-1.755-1.564 1.609 1.923-6.388-2.268 6.213m27.727-334.412l.377-.268-.423.248.489-.795-.535.749.077-.475-.117.463-.32-1.376.236 1.381-.267-.379.247.417-.795-.481.756.533-.475-.084.461.124-1.383.313 1.383-.235-.379.273.431-.255-.496.801.541-.755-.084.469.117-.457.319 1.383-.235-1.388.268.377-.248-.424.796.496-.757-.548.483.092-.469-.131 1.381-.312-1.381.24m-84.34 260.995l.093.352-.063-.368.413.579-.381-.609.327.187-.296-.203 1.068.18-1.053-.243.344-.093-.359.071.577-.413-.617.373.196-.327-.204.296.173-1.06-.235 1.052-.095-.352.063.369-.421-.579.392.6-.328-.185.288.211-1.053-.18 1.045.241-.344.085.359-.063-.576.423.609-.383-.189.32.204-.281-.173 1.061.236-1.061m157.55 80.898l.095.351-.064-.367.413.579-.381-.609.327.187-.295-.203 1.068.18-1.055-.243.344-.093-.357.069.576-.412-.616.373.195-.328-.204.297.173-1.06-.233 1.052-.096-.352.063.369-.42-.579.391.6-.328-.187.288.212-1.053-.18 1.047.241-.344.085.357-.063-.576.423.609-.384-.188.321.203-.281-.172 1.061.235-1.061M418.563 261.89l.124.472-.084-.493.556.777-.512-.819.44.252-.4-.275 1.439.241-1.417-.324.463-.127-.484.095.777-.556-.829.504.263-.441-.273.399.232-1.427-.315 1.416-.128-.472.085.495-.568-.777.527.808-.443-.252.389.284-1.416-.243 1.405.325-.463.116.483-.084-.777.568.821-.515-.253.429.273-.377-.232 1.427.317-1.427m-43.432 200.446l.095.351-.063-.367.412.579-.38-.611.327.188-.296-.204 1.068.18-1.053-.241.344-.093-.359.069.577-.413-.617.375.196-.328-.204.297.172-1.061-.232 1.053-.096-.352.063.367-.421-.577.391.601-.328-.188.289.212-1.055-.18 1.047.24-.344.088.359-.063-.577.421.609-.383-.188.321.203-.281-.172 1.061.235-1.061m-62.46-249.216l-.471-.965.397 1.019-1.525-1.436 1.44 1.552-1.041-.379.952.431-3.155.091 3.18.093-.965.468 1.011-.391-1.427 1.525 1.551-1.435-.377 1.029.431-.952.091 3.168.091-3.18.469.964-.391-1.017 1.519 1.435-1.44-1.549 1.043.364-.952-.429 3.16-.08-3.18-.104.959-.469-1.011.391 1.433-1.512-1.544 1.435.365-1.043-.431.952-.084-3.155-.097 3.18"/><path d="M327.794 148.375l.959-.469-1.017.391 1.435-1.525-1.545 1.44.364-1.043-.429.959-.084-3.155-.099 3.181-.469-.965.399 1.004-1.525-1.421 1.44 1.545-1.043-.372.951.431-3.153.091 3.18.092-.965.468 1.017-.397-1.433 1.525 1.551-1.44-.377 1.043.429-.952.092 3.155.091-3.18.469.964-.392-1.009 1.525 1.427-1.44-1.544 1.043.371-.957-.429 3.168-.092-3.181-.091"/><path d="M327.586 148.427l.339-.164-.353.151.503-.548-.553.509.136-.372-.149.345-.039-1.133-.033 1.14-.163-.345.143.365-.547-.509.508.548-.364-.129.337.143-1.127.039 1.133.033-.344.163.364-.144-.508.548.547-.508-.129.371.149-.345.033 1.121.039-1.128.163.347-.136-.365.54.508-.515-.548.371.131-.337-.149 1.127-.033-1.133-.039M122.763 430.163l.339-.163-.353.151.503-.548-.554.509.137-.372-.151.345-.038-1.133-.033 1.14-.164-.345.143.365-.547-.509.508.548-.365-.131.339.143-1.128.04 1.134.032-.345.163.365-.143-.508.548.547-.509-.13.372.151-.345.033 1.121.038-1.128.163.345-.136-.365.541.509-.515-.548.371.131-.339-.151 1.128-.032-1.134-.04m102.311-36.709l-.197-.724.136.785-.933-1.196.849 1.24-.672-.379.631.42-2.267-.272 2.224.408-.713.2.767-.148-1.177.936 1.229-.851-.379.672.431-.62-.283 2.256.411-2.224.197.715-.145-.768.943 1.187-.859-1.239.671.388-.629-.431 2.267.273-2.225-.399.716-.209-.769.147 1.188-.924-1.24.84.389-.672-.429.629.273-2.267-.403 2.225M84.97 314.02l-.912-1.877.762 1.968-2.978-2.788 2.809 3.011-2.034-.731 1.864.86-6.171.171 6.217.181-1.877.913 1.975-.769-2.796 2.985 3.024-2.816-.729 2.033.846-1.864.163 6.177.189-6.229.913 1.889-.763-1.981 2.979 2.803-2.809-3.024 2.033.716-1.87-.833 6.179-.169-6.218-.183 1.877-.912-1.974.768 2.789-2.984-3.018 2.803.723-2.033-.841 1.864-.169-6.179-.182 6.231"/><path d="M190.869 231.883c-6.552-4.791-14.741-10.711-26.212-10.711-9.197 0-15.501 4.913-15.501 10.457 0 5.296 4.16 8.195 17.645 11.217 13.487 2.899 29.236 7.689 29.236 24.197 0 16.885-15.501 28.48-34.78 28.48-14.369 0-24.451-6.299-29.24-9.325v-18.147c6.428 5.167 16.885 13.108 29.364 13.108 9.579 0 17.139-6.051 17.139-12.856 0-6.933-6.299-10.08-18.905-12.731-9.197-2.14-16.131-4.408-21.676-9.451-3.023-3.152-5.921-7.812-5.921-14.617 0-14.997 13.739-24.701 32.263-24.701 9.451 0 18.524 2.647 26.589 7.436v17.643m33.149-23.693v85.95h-16.384v-85.95h16.384m102.456 0v85.95h-16.384v-60.491h-.248l-26.341 44.989-26.465-44.989h-.253v60.491H240.4v-85.95h18.276l24.827 42.093 24.952-42.093h18.021m28.742 42.848c0 15.753 9.327 30.624 24.573 30.624 14.495 0 24.952-13.735 24.952-30.496 0-18.021-11.341-30.497-24.32-30.497-16.26 0-25.205 14.996-25.205 30.369zm66.665.128c0 25.835-19.408 44.359-42.344 44.359-23.691 0-41.46-19.029-41.46-44.105 0-26.341 19.279-44.615 41.083-44.615 26.719 0 42.721 21.172 42.721 44.361m27.983-42.976l37.177 58.601h.252v-58.601h16.384v85.95h-16.384l-37.175-59.235h-.255v59.235h-16.384v-85.95h16.384m124.518 23.694c-6.552-4.791-14.743-10.711-26.212-10.711-9.199 0-15.501 4.913-15.501 10.457 0 5.296 4.159 8.195 17.644 11.217 13.485 2.899 29.236 7.689 29.236 24.197 0 16.885-15.501 28.48-34.78 28.48-14.368 0-24.448-6.299-29.237-9.325v-18.147c6.427 5.167 16.884 13.108 29.363 13.108 9.579 0 17.137-6.051 17.137-12.856 0-6.933-6.297-10.08-18.905-12.731-9.197-2.14-16.131-4.408-21.672-9.451-3.024-3.152-5.923-7.812-5.923-14.617 0-14.997 13.737-24.701 32.26-24.701 9.451 0 18.524 2.647 26.591 7.436v17.643M144.553 338.37c0 6.948 4.113 13.505 10.835 13.505 6.392 0 11.001-6.056 11.001-13.449 0-7.945-5.001-13.448-10.725-13.448-7.168 0-11.111 6.615-11.111 13.392zm29.396.056c0 11.392-8.559 19.564-18.671 19.564-10.449 0-18.285-8.393-18.285-19.449 0-11.617 8.503-19.673 18.119-19.673 11.779 0 18.837 9.336 18.837 19.559"/><path d="M192.317 340.482v10.56h7.001c2.5 0 8.613-.447 8.613-5.503 0-3.441-3.165-5.057-6.721-5.057zm0-14.783v8.839h6.28c3.943 0 7.057-1.389 7.057-4.78 0-3.447-3.336-4.059-5.227-4.059zm10.724-6.331c6.115 0 10.003 3.777 10.003 8.779 0 2.668-1.109 5.112-3.055 6.777-1.28 1.168-2.388 1.56-3.893 2.001v.111c1.781.115 3.783.28 5.895 1.78 2.277 1.556 3.501 4.224 3.501 7.169 0 7.057-6.561 11.392-15.284 11.392h-15.115v-38.009h17.948m47.482 10.556c-2.889-2.112-6.501-4.72-11.563-4.72-4.053 0-6.832 2.167-6.832 4.609 0 2.337 1.831 3.612 7.78 4.947 5.945 1.279 12.892 3.391 12.892 10.669 0 7.449-6.837 12.561-15.34 12.561-6.335 0-10.78-2.78-12.892-4.113v-8.001c2.835 2.277 7.449 5.779 12.948 5.779 4.224 0 7.56-2.669 7.56-5.668 0-3.056-2.78-4.445-8.337-5.613-4.053-.944-7.113-1.947-9.557-4.169-1.333-1.389-2.613-3.445-2.613-6.445 0-6.612 6.06-10.891 14.227-10.891 4.169 0 8.172 1.164 11.728 3.276v7.78m39.09-10.445v6.335h-18.395v8.889h17.507v5.889h-17.507v10.449h18.395v6.336h-25.619V319.48h25.619m19.527 6.334v9.612h5.835c5.337 0 7.891-2.443 7.891-5.223 0-2.277-1.831-4.389-5.443-4.389zm9.336-6.335c7.449 0 11.673 3.777 11.673 9.335 0 6-4.169 9.004-10.395 10.224v.111c2.78.837 5.559 1.725 7.671 7.449l3.999 10.78h-7.891l-2.664-8.393c-1.56-4.945-3.672-7.555-8.949-7.555h-2.78v15.948h-7.223V319.48h16.559m54.637 0l-13.945 37.899h-7.113l-13.669-37.899h7.945l9.28 28.784h.111l9.281-28.784h8.111m20.488 9.114h-.111l-4.113 12.667h8.332zm3.501-9.115l13.835 37.899h-8.112l-3.28-10.169h-12.06l-3.391 10.169h-7.945l13.895-37.899h7.059m48.53.001v6.335H434.69v31.564h-7.229v-31.564h-10.669v-6.335h28.844m14.43 18.89c0 6.948 4.113 13.505 10.835 13.505 6.391 0 11.001-6.056 11.001-13.449 0-7.945-5.001-13.448-10.725-13.448-7.168 0-11.111 6.615-11.111 13.392zm29.395.056c0 11.392-8.559 19.564-18.671 19.564-10.448 0-18.284-8.393-18.284-19.449 0-11.617 8.503-19.673 18.119-19.673 11.777 0 18.836 9.336 18.836 19.559m18.367-12.613v9.612h5.835c5.337 0 7.891-2.443 7.891-5.223 0-2.277-1.832-4.389-5.444-4.389zm9.336-6.335c7.449 0 11.672 3.777 11.672 9.335 0 6-4.168 9.004-10.393 10.224v.111c2.779.837 5.559 1.725 7.669 7.449l3.999 10.78h-7.891l-2.664-8.393c-1.56-4.945-3.672-7.555-8.949-7.555h-2.779v15.948h-7.224V319.48h16.56m28.199 0l7.891 14.001 7.891-14.001h9.005l-13.284 20.617v17.281h-7.224v-17.281L536.53 319.48h8.833M304.774 572.806l27.385-3.435s-1.473-5.007-8.932-4.809c-4.319.113-9.816.784-9.816.784l-8.637 7.46"/></g><g class="D"><path d="M324.405 603.038l8.637-2.159-7.949.588-22.281 2.356"/><path d="M348.943 613.245l26.419-56.068-75.309-32.729-26.42 56.065 75.31 32.732" stroke="#fff" class="C F"/></g><path d="M365.81 539.46l-46.793-20.796" stroke="#fff" stroke-linecap="round" class="B C F"/><g class="D"><path d="M306.541 636.803s-.163.137 15.813-.013c16.701-.157 16.395.251 15.105.308l-4.111-8.561H309.49l-2.949 8.267"/><path d="M304.479 629.735h34.06v-29.491l-34.06-14.681v44.172"/></g><g fill="#fff"><path d="M306.543 627.969v-55.108c0-5.263 6.351-11.443 14.425-11.443s14.821 6.18 14.821 11.443v55.108c-.433-.324-28.815.704-29.247 0"/><path d="M302.418 598.817l22.675.295 4.416 25.519-19.239.393-7.852-26.207"/></g><path d="M302.418 598.817l22.675.295 4.416 25.519-19.239.393z" stroke-width="1.649" class="B C E"/><path d="M329.803 624.436l-4.417-25.324 6.773-.591-.884 22.674-1.472 3.24" class="D"/><path d="M301.503 600.003v-27.084c0-5.995 4.067-11.5 11.908-11.5 4.908 0 11.775 5.505 11.775 11.5v27.084c-.421-.369-23.264.801-23.683 0" fill="#fff"/><path d="M301.503 600.003v-27.084c0-5.995 4.067-11.5 11.908-11.5 4.908 0 11.775 5.505 11.775 11.5v27.084c-.421-.369-23.264.801-23.683 0z" stroke-miterlimit="2" stroke-width="2.159" class="B E"/><path d="M353.655 645.642h-62.427v-7.068h62.427v7.068" class="D"/><path d="M179.645 167.187l.463.964-.391-1.016 1.524 1.433-1.433-1.539 1.043.365-.964-.431 3.167-.091-3.179-.092.964-.468-1.017.391 1.433-1.525-1.551 1.435.377-1.044-.436.965-.084-3.167-.104 3.18-.464-.964.399 1.029-1.525-1.447 1.433 1.551-1.043-.365.957.429-3.16.079 3.18.104-.964.469 1.016-.391-1.433 1.512 1.551-1.433-.377 1.043.431-.952.091 3.155.097-3.18" fill="#fff"/><g stroke="#f1511b" class="B C"><use xlink:href="#B" stroke-width="13.792"/><path d="M598.575 577.205l30.189 26.163m-550.439-1.036l33.85-28.816M19.74 208.825l40.56 18.043m624.788-18.085l-40.56 18.043" stroke-width="2.4"/></g><defs ><path id="B" d="M53.044 358.914c0 167.048 135.42 302.469 302.469 302.469s302.469-135.421 302.469-302.469S522.561 56.446 355.512 56.446 53.044 191.865 53.044 358.914z"/></defs></svg>