<?xml version="1.0" encoding="UTF-8" standalone="no"?>
<!-- Created with Inkscape (http://www.inkscape.org/) -->

<svg
   version="1.1"
   id="svg1"
   width="257.79999"
   height="257.79999"
   viewBox="0 0 257.79999 257.79999"
   sodipodi:docname="SO_Logo_final_no_text.eps"
   xmlns:inkscape="http://www.inkscape.org/namespaces/inkscape"
   xmlns:sodipodi="http://sodipodi.sourceforge.net/DTD/sodipodi-0.dtd"
   xmlns="http://www.w3.org/2000/svg"
   xmlns:svg="http://www.w3.org/2000/svg">
  <defs
     id="defs1" />
  <sodipodi:namedview
     id="namedview1"
     pagecolor="#ffffff"
     bordercolor="#000000"
     borderopacity="0.25"
     inkscape:showpageshadow="2"
     inkscape:pageopacity="0.0"
     inkscape:pagecheckerboard="0"
     inkscape:deskcolor="#d1d1d1">
    <inkscape:page
       x="0"
       y="0"
       inkscape:label="1"
       id="page1"
       width="257.79999"
       height="257.79999"
       margin="0"
       bleed="0" />
  </sodipodi:namedview>
  <g
     id="g1"
     inkscape:groupmode="layer"
     inkscape:label="1">
    <g
       id="group-R5">
      <path
         id="path2"
         d="m 27.0742,963.082 c 0,-522.031 423.1878,-945.2109 945.2148,-945.2109 522.031,0 945.211,423.1799 945.211,945.2109 0,522.028 -423.18,945.218 -945.211,945.218 -522.027,0 -945.2148,-423.19 -945.2148,-945.218"
         style="fill:#231f20;fill-opacity:1;fill-rule:nonzero;stroke:none"
         transform="matrix(0.13333333,0,0,-0.13333333,0,257.8)" />
      <path
         id="path3"
         d="m 27.0742,963.082 c 0,-522.031 423.1878,-945.2109 945.2148,-945.2109 522.031,0 945.211,423.1799 945.211,945.2109 0,522.028 -423.18,945.218 -945.211,945.218 -522.027,0 -945.2148,-423.19 -945.2148,-945.218 z"
         style="fill:none;stroke:#231f20;stroke-width:32.0428;stroke-linecap:butt;stroke-linejoin:miter;stroke-miterlimit:10;stroke-dasharray:none;stroke-opacity:1"
         transform="matrix(0.13333333,0,0,-0.13333333,0,257.8)" />
      <path
         id="path4"
         d="m 189.332,469.238 c 0,0 73.336,13.141 102.59,30.782 37.469,22.589 148.758,133.359 210.312,128.242 l 82.071,-133.371 203.34,-203.379 82.605,-33.793 c 0,0 142.63,-39.278 172.81,-49.918 41.72,-14.731 186.49,-130.0627 186.49,-130.0627 49.09,-31.8985 -35.17,-36.7578 -44.17,-36.8086 l -58.89,-22.0899 c 0,0 -71.9,-16.37886 -85.88,-17.16792 C 974.27,-2.07813 920.996,12.6719 912.77,13.5898 845.184,21.1016 705.063,65.7617 686.363,84.2305 c -18.16,17.9415 -78.769,14.6211 -103.066,33.1285 -21.805,16.61 -71.02,24.661 -88.34,47.852 -21.445,28.719 -82.531,44.109 -88.34,55.219 -3.304,6.308 -111.277,89.75 -114.105,95.699 -15.391,32.391 -103.18,153.109 -103.18,153.109"
         style="fill:#f1511b;fill-opacity:1;fill-rule:nonzero;stroke:none"
         transform="matrix(0.13333333,0,0,-0.13333333,0,257.8)" />
      <path
         id="path5"
         d="m 1562.4,249.871 c -38.37,16.82 -135.71,30.57 -178.25,48.719 -13.7,5.84 -51.53,19.629 -51.53,19.629 0,0 -40.88,-34.739 -61.86,-36.641 -20.96,-1.906 -56.2,13.192 -95.34,9.543 -51.38,-4.801 -144.63,-46.519 -144.63,-46.519 0,0 41.71,-14.723 98.16,-68.711 28.71,-27.469 63.8,-53.981 103.05,-100.6019 13.42,-15.9297 161.35,55.8199 161.35,55.8199 l 169.05,118.762"
         style="fill:#f1511b;fill-opacity:1;fill-rule:nonzero;stroke:none"
         transform="matrix(0.13333333,0,0,-0.13333333,0,257.8)" />
      <path
         id="path6"
         d="m 863.043,464.59 95.477,1444.96 c 0,0 234.75,9.38 477.17,-123.9 254.76,-140.08 377.89,-397.53 377.89,-397.53 L 995.559,400.789"
         style="fill:#444142;fill-opacity:1;fill-rule:nonzero;stroke:none"
         transform="matrix(0.13333333,0,0,-0.13333333,0,257.8)" />
      <path
         id="path7"
         d="m 21.5508,966.762 c 0,-522.032 423.1872,-945.2112 945.2152,-945.2112 522.024,0 945.214,423.1792 945.214,945.2112 0,522.028 -423.19,945.218 -945.214,945.218 -522.028,0 -945.2152,-423.19 -945.2152,-945.218 z"
         style="fill:none;stroke:#231f20;stroke-width:21.5505;stroke-linecap:butt;stroke-linejoin:miter;stroke-miterlimit:10;stroke-dasharray:none;stroke-opacity:1"
         transform="matrix(0.13333333,0,0,-0.13333333,0,257.8)" />
      <path
         id="path8"
         d="m 1445.36,1619.98 1.07,0.51 -1.11,-0.47 1.58,1.71 -1.74,-1.59 0.43,1.16 -0.47,-1.07 -0.12,3.54 -0.1,-3.57 -0.51,1.08 0.45,-1.14 -1.71,1.59 1.58,-1.71 -1.13,0.41 1.05,-0.45 -3.52,-0.12 3.54,-0.1 -1.07,-0.52 1.13,0.45 -1.58,-1.71 1.71,1.59 -0.41,-1.16 0.47,1.08 0.1,-3.5 0.12,3.52 0.51,-1.08 -0.43,1.14 1.7,-1.59 -1.61,1.71 1.16,-0.4 -1.07,0.47 3.53,0.1 -3.55,0.12"
         style="fill:#ffffff;fill-opacity:1;fill-rule:nonzero;stroke:none"
         transform="matrix(0.13333333,0,0,-0.13333333,0,257.8)" />
      <path
         id="path9"
         d="m 1044.43,1299.45 7.56,3.44 -8.29,-2.95 11.44,12.26 -12.1,-11.34 3.13,8.04 -3.75,-7.66 -0.77,25.32 -0.65,-25.11 -3.44,7.57 2.95,-8.29 -12.28,11.43 11.36,-12.1 -8.04,3.1 7.66,-3.71 -25.34,-0.77 25.14,-0.65 -7.58,-3.45 8.29,2.96 -11.43,-12.29 12.1,11.35 -3.12,-8.03 3.73,7.66 0.77,-25.33 0.65,25.13 3.45,-7.6 -2.96,8.29 12.29,-11.4 -11.37,12.09 8.05,-3.13 -7.66,3.75 25.31,0.77 -25.1,0.65"
         style="fill:#ffffff;fill-opacity:1;fill-rule:nonzero;stroke:none"
         transform="matrix(0.13333333,0,0,-0.13333333,0,257.8)" />
      <path
         id="path10"
         d="m 658.586,1662.23 1.074,-2.25 -0.906,2.37 3.543,-3.33 -3.336,3.57 2.422,-0.85 -2.235,1 7.36,0.22 -7.391,0.2 2.238,1.09 -2.359,-0.91 3.332,3.55 -3.605,-3.33 0.879,2.42 -1.016,-2.24 -0.195,7.36 -0.243,-7.39 -1.074,2.24 0.922,-2.39 -3.547,3.36 3.336,-3.6 -2.422,0.85 2.223,-1.01 -7.344,-0.18 7.387,-0.24 -2.234,-1.09 2.355,0.91 -3.328,-3.51 3.601,3.33 -0.878,-2.42 1.003,2.21 0.207,-7.33 0.231,7.39"
         style="fill:#ffffff;fill-opacity:1;fill-rule:nonzero;stroke:none"
         transform="matrix(0.13333333,0,0,-0.13333333,0,257.8)" />
      <path
         id="path11"
         d="m 1827.83,848.332 1.45,-3.012 -1.22,3.168 4.76,-4.476 -4.48,4.808 3.26,-1.14 -3.01,1.34 9.9,0.281 -9.94,0.301 3.01,1.457 -3.18,-1.219 4.48,4.762 -4.84,-4.481 1.18,3.258 -1.37,-3.008 -0.26,9.899 -0.33,-9.938 -1.45,3.008 1.25,-3.219 -4.76,4.52 4.47,-4.84 -3.25,1.14 2.99,-1.339 -9.88,-0.25 9.94,-0.332 -3.01,-1.469 3.17,1.219 -4.47,-4.711 4.84,4.472 -1.18,-3.25 1.34,2.969 0.29,-9.859 0.3,9.941"
         style="fill:#ffffff;fill-opacity:1;fill-rule:nonzero;stroke:none"
         transform="matrix(0.13333333,0,0,-0.13333333,0,257.8)" />
      <path
         id="path12"
         d="m 1414.68,537.961 1.45,-3 -1.23,3.168 4.77,-4.481 -4.48,4.813 3.25,-1.141 -3.01,1.352 9.89,0.277 -9.93,0.281 3.01,1.469 -3.17,-1.219 4.48,4.758 -4.85,-4.476 1.18,3.258 -1.36,-3.008 -0.27,9.898 -0.33,-9.941 -1.44,3 1.24,-3.207 -4.77,4.519 4.49,-4.84 -3.26,1.141 2.99,-1.352 -9.87,-0.242 9.93,-0.316 -3.01,-1.481 3.18,1.219 -4.49,-4.711 4.85,4.473 -1.17,-3.25 1.33,2.969 0.29,-9.86 0.31,9.93"
         style="fill:#ffffff;fill-opacity:1;fill-rule:nonzero;stroke:none"
         transform="matrix(0.13333333,0,0,-0.13333333,0,257.8)" />
      <path
         id="path13"
         d="m 850.832,855.898 1.445,-3.007 -1.218,3.179 4.765,-4.48 -4.484,4.801 3.262,-1.129 -3.012,1.34 9.898,0.277 -9.937,0.293 3.012,1.469 -3.18,-1.231 4.48,4.762 -4.843,-4.473 1.179,3.25 -1.367,-3.008 -0.262,9.899 -0.328,-9.942 -1.445,3.012 1.242,-3.211 -4.762,4.52 4.477,-4.848 -3.258,1.141 2.992,-1.34 -9.875,-0.25 9.934,-0.32 -3.012,-1.473 3.18,1.223 -4.477,-4.723 4.84,4.48 -1.18,-3.257 1.344,2.98 0.289,-9.871 0.301,9.937"
         style="fill:#ffffff;fill-opacity:1;fill-rule:nonzero;stroke:none"
         transform="matrix(0.13333333,0,0,-0.13333333,0,257.8)" />
      <path
         id="path14"
         d="m 1240.56,925.75 -0.62,2.262 0.42,-2.461 -2.92,3.738 2.66,-3.859 -2.1,1.179 1.97,-1.32 -7.08,0.859 6.95,-1.277 -2.23,-0.633 2.39,0.461 -3.67,-2.918 3.84,2.66 -1.18,-2.101 1.34,1.93 -0.88,-7.051 1.28,6.961 0.62,-2.231 -0.46,2.391 2.95,-3.699 -2.69,3.871 2.1,-1.211 -1.97,1.328 7.09,-0.848 -6.95,1.25 2.23,0.66 -2.4,-0.461 3.71,2.879 -3.87,-2.629 1.22,2.098 -1.35,-1.957 0.85,7.09 -1.25,-6.961"
         style="fill:#ffffff;fill-opacity:1;fill-rule:nonzero;stroke:none"
         transform="matrix(0.13333333,0,0,-0.13333333,0,257.8)" />
      <path
         id="path15"
         d="m 1658.17,496.039 -2.86,5.871 2.39,-6.148 -9.31,8.718 8.77,-9.421 -6.35,2.293 5.82,-2.692 -19.28,-0.531 19.43,-0.57 -5.87,-2.848 6.17,2.398 -8.74,-9.328 9.46,8.801 -2.28,-6.352 2.65,5.829 0.5,-19.309 0.59,19.461 2.85,-5.902 -2.38,6.203 9.31,-8.762 -8.78,9.449 6.35,-2.25 -5.85,2.61 19.32,0.531 -19.43,0.57 5.87,2.86 -6.18,-2.411 8.72,9.332 -9.43,-8.761 2.26,6.359 -2.63,-5.828 -0.53,19.301 -0.56,-19.473"
         style="fill:#ffffff;fill-opacity:1;fill-rule:nonzero;stroke:none"
         transform="matrix(0.13333333,0,0,-0.13333333,0,257.8)" />
      <path
         id="path16"
         d="m 194.449,1324.28 -1.019,2.08 0.836,-2.2 -3.321,3.1 3.133,-3.34 -2.258,0.77 2.059,-0.9 -6.84,-0.2 6.922,-0.21 -2.117,-1.01 2.195,0.85 -3.094,-3.3 3.36,3.1 -0.813,-2.24 0.957,2.08 0.164,-6.89 0.203,6.92 1.016,-2.07 -0.836,2.2 3.32,-3.14 -3.136,3.38 2.265,-0.81 -2.058,0.93 6.843,0.21 -6.925,0.2 2.113,1.02 -2.195,-0.89 3.093,3.34 -3.359,-3.14 0.793,2.28 -0.934,-2.08 -0.164,6.84 -0.203,-6.88"
         style="fill:#ffffff;fill-opacity:1;fill-rule:nonzero;stroke:none"
         transform="matrix(0.13333333,0,0,-0.13333333,0,257.8)" />
      <path
         id="path17"
         d="m 1218.07,1783.2 1.11,-4.13 -0.79,4.27 4.92,-6.82 -4.46,7.21 3.81,-2.23 -3.41,2.43 12.56,-2.1 -12.53,2.82 4.16,1.11 -4.26,-0.78 6.79,4.95 -7.21,-4.5 2.26,3.81 -2.42,-3.42 2.09,12.54 -2.86,-12.5 -1.11,4.16 0.79,-4.32 -4.92,6.85 4.49,-7.25 -3.87,2.3 3.47,-2.43 -12.59,2.07 12.53,-2.82 -4.13,-1.08 4.3,0.72 -6.79,-4.86 7.15,4.46 -2.24,-3.8 2.43,3.41 -2.09,-12.59 2.82,12.52"
         style="fill:#ffffff;fill-opacity:1;fill-rule:nonzero;stroke:none"
         transform="matrix(0.13333333,0,0,-0.13333333,0,257.8)" />
      <path
         id="path18"
         d="m 950.816,1839.64 0.399,-1.47 -0.27,1.54 1.739,-2.43 -1.602,2.56 1.375,-0.79 -1.242,0.86 4.488,-0.75 -4.426,1.01 1.446,0.4 -1.508,-0.3 2.426,1.74 -2.594,-1.58 0.82,1.38 -0.855,-1.24 0.722,4.45 -0.98,-4.42 -0.399,1.47 0.262,-1.54 -1.773,2.43 1.648,-2.53 -1.383,0.79 1.219,-0.89 -4.426,0.76 4.387,-1.02 -1.445,-0.36 1.511,0.26 -2.429,-1.77 2.566,1.61 -0.793,-1.35 0.856,1.18 -0.723,-4.45 0.984,4.45"
         style="fill:#ffffff;fill-opacity:1;fill-rule:nonzero;stroke:none"
         transform="matrix(0.13333333,0,0,-0.13333333,0,257.8)" />
      <path
         id="path19"
         d="m 441.668,1691.54 0.395,-1.49 -0.262,1.55 1.738,-2.43 -1.609,2.56 1.379,-0.79 -1.246,0.86 4.492,-0.76 -4.43,1.01 1.445,0.4 -1.507,-0.29 2.425,1.73 -2.59,-1.57 0.821,1.38 -0.856,-1.25 0.727,4.46 -0.985,-4.43 -0.398,1.48 0.266,-1.54 -1.778,2.42 1.645,-2.52 -1.383,0.79 1.223,-0.89 -4.43,0.75 4.391,-1.01 -1.446,-0.36 1.512,0.26 -2.43,-1.77 2.563,1.61 -0.789,-1.35 0.851,1.19 -0.722,-4.47 0.988,4.47"
         style="fill:#ffffff;fill-opacity:1;fill-rule:nonzero;stroke:none"
         transform="matrix(0.13333333,0,0,-0.13333333,0,257.8)" />
      <path
         id="path20"
         d="m 159.617,738.961 -0.504,4.777 0.117,-5.058 -4.613,8.468 3.969,-8.679 -3.805,3.16 3.489,-3.418 -13.93,4.187 13.566,-4.937 -4.765,-0.492 5.058,0.101 -8.476,-4.59 8.687,3.95 -3.172,-3.821 3.43,3.52 -4.191,-13.957 4.937,13.59 0.484,-4.762 -0.105,5.059 4.613,-8.477 -3.984,8.688 3.82,-3.188 -3.492,3.418 13.934,-4.172 -13.567,4.922 4.766,0.488 -5.059,-0.09 8.477,4.614 -8.68,-3.981 3.176,3.821 -3.434,-3.493 4.18,13.922 -4.926,-13.57"
         style="fill:#ffffff;fill-opacity:1;fill-rule:nonzero;stroke:none"
         transform="matrix(0.13333333,0,0,-0.13333333,0,257.8)" />
      <path
         id="path21"
         d="m 315.371,615.762 -0.875,8.308 0.203,-8.8 -8.023,14.75 6.906,-15.122 -6.621,5.512 6.07,-5.949 -24.238,7.277 23.605,-8.59 -8.289,-0.847 8.797,0.16 -14.746,-7.981 15.113,6.879 -5.515,-6.64 5.965,6.109 -7.293,-24.277 8.597,23.629 0.836,-8.27 -0.187,8.801 8.027,-14.75 -6.93,15.109 6.641,-5.539 -6.066,5.949 24.23,-7.261 -23.598,8.562 8.286,0.86 -8.797,-0.161 14.746,8.02 -15.094,-6.922 5.524,6.641 -5.973,-6.071 7.269,24.231 -8.57,-23.617"
         style="fill:#ffffff;fill-opacity:1;fill-rule:nonzero;stroke:none"
         transform="matrix(0.13333333,0,0,-0.13333333,0,257.8)" />
      <path
         id="path22"
         d="m 1064.79,888.879 -2.85,5.871 2.38,-6.148 -9.31,8.707 8.78,-9.399 -6.35,2.281 5.82,-2.691 -19.28,-0.531 19.43,-0.571 -5.87,-2.847 6.17,2.398 -8.74,-9.32 9.46,8.801 -2.29,-6.36 2.65,5.821 0.52,-19.309 0.58,19.469 2.85,-5.903 -2.38,6.192 9.31,-8.758 -8.78,9.449 6.35,-2.242 -5.85,2.609 19.31,0.532 -19.42,0.57 5.86,2.852 -6.16,-2.411 8.71,9.329 -9.43,-8.75 2.26,6.351 -2.63,-5.82 -0.53,19.301 -0.57,-19.473"
         style="fill:#ffffff;fill-opacity:1;fill-rule:nonzero;stroke:none"
         transform="matrix(0.13333333,0,0,-0.13333333,0,257.8)" />
      <path
         id="path23"
         d="m 1757.92,1168.28 -1.02,2.08 0.84,-2.2 -3.32,3.09 3.13,-3.33 -2.26,0.77 2.06,-0.9 -6.84,-0.2 6.92,-0.2 -2.12,-1.02 2.2,0.85 -3.09,-3.3 3.36,3.1 -0.81,-2.24 0.95,2.08 0.16,-6.89 0.2,6.93 1.02,-2.08 -0.83,2.2 3.32,-3.14 -3.14,3.39 2.26,-0.82 -2.05,0.94 6.84,0.2 -6.93,0.2 2.12,1.02 -2.2,-0.89 3.1,3.33 -3.36,-3.13 0.79,2.28 -0.94,-2.08 -0.16,6.85 -0.2,-6.89"
         style="fill:#ffffff;fill-opacity:1;fill-rule:nonzero;stroke:none"
         transform="matrix(0.13333333,0,0,-0.13333333,0,257.8)" />
      <path
         id="path24"
         d="m 1660.99,775.172 1.11,-4.133 -0.78,4.262 4.92,-6.821 -4.46,7.219 3.81,-2.238 -3.42,2.43 12.57,-2.102 -12.54,2.832 4.17,1.109 -4.27,-0.789 6.8,4.957 -7.22,-4.5 2.26,3.813 -2.42,-3.41 2.1,12.531 -2.86,-12.5 -1.11,4.156 0.79,-4.328 -4.92,6.86 4.49,-7.25 -3.87,2.3 3.47,-2.429 -12.59,2.058 12.52,-2.82 -4.13,-1.078 4.3,0.719 -6.79,-4.848 7.15,4.457 -2.23,-3.809 2.43,3.41 -2.09,-12.589 2.81,12.531"
         style="fill:#ffffff;fill-opacity:1;fill-rule:nonzero;stroke:none"
         transform="matrix(0.13333333,0,0,-0.13333333,0,257.8)" />
      <path
         id="path25"
         d="m 1317.4,697.648 0.29,-1.097 -0.21,1.148 1.3,-1.808 -1.19,1.91 1.02,-0.59 -0.92,0.641 3.34,-0.571 -3.3,0.758 1.07,0.301 -1.11,-0.231 1.79,1.289 -1.92,-1.16 0.61,1.024 -0.64,-0.922 0.55,3.308 -0.73,-3.296 -0.31,1.109 0.21,-1.152 -1.32,1.8 1.22,-1.871 -1.02,0.582 0.89,-0.66 -3.29,0.559 3.27,-0.758 -1.07,-0.262 1.11,0.199 -1.79,-1.316 1.9,1.188 -0.59,-1 0.64,0.878 -0.55,-3.316 0.75,3.316"
         style="fill:#ffffff;fill-opacity:1;fill-rule:nonzero;stroke:none"
         transform="matrix(0.13333333,0,0,-0.13333333,0,257.8)" />
      <path
         id="path26"
         d="m 942.059,793.301 0.39,-1.481 -0.265,1.539 1.738,-2.429 -1.602,2.558 1.375,-0.777 -1.246,0.848 4.492,-0.75 -4.429,1.011 1.445,0.391 -1.508,-0.289 2.426,1.738 -2.594,-1.57 0.821,1.371 -0.856,-1.25 0.731,4.469 -0.981,-4.43 -0.402,1.48 0.265,-1.539 -1.773,2.418 1.644,-2.519 -1.382,0.781 1.218,-0.883 -4.429,0.75 4.394,-1.008 -1.445,-0.371 1.508,0.27 -2.426,-1.777 2.562,1.609 -0.789,-1.352 0.852,1.192 -0.727,-4.469 0.993,4.469"
         style="fill:#ffffff;fill-opacity:1;fill-rule:nonzero;stroke:none"
         transform="matrix(0.13333333,0,0,-0.13333333,0,257.8)" />
      <path
         id="path27"
         d="m 1050.19,1661.28 0.39,-1.48 -0.27,1.54 1.74,-2.42 -1.6,2.56 1.37,-0.79 -1.24,0.85 4.49,-0.75 -4.43,1.01 1.44,0.4 -1.5,-0.29 2.42,1.73 -2.59,-1.57 0.82,1.37 -0.86,-1.24 0.74,4.46 -0.99,-4.43 -0.4,1.48 0.26,-1.55 -1.76,2.43 1.64,-2.52 -1.38,0.78 1.21,-0.88 -4.42,0.75 4.39,-1.01 -1.44,-0.37 1.5,0.27 -2.43,-1.77 2.57,1.6 -0.8,-1.34 0.86,1.18 -0.73,-4.46 1,4.46"
         style="fill:#ffffff;fill-opacity:1;fill-rule:nonzero;stroke:none"
         transform="matrix(0.13333333,0,0,-0.13333333,0,257.8)" />
      <path
         id="path28"
         d="m 1277.16,472.59 -0.69,6.781 0.14,-7.211 -6.6,12.121 5.69,-12.422 -5.44,4.539 5,-4.898 -19.94,6 19.42,-7.059 -6.83,-0.703 7.26,0.16 -12.13,-6.628 12.39,5.691 -4.52,-5.461 4.89,5 -5.99,-19.93 7.08,19.41 0.7,-6.8 -0.16,7.23 6.61,-12.121 -5.71,12.43 5.46,-4.539 -4.99,4.898 19.92,-5.996 -19.41,7.059 6.82,0.699 -7.24,-0.16 12.13,6.629 -12.41,-5.719 4.52,5.488 -4.9,-5.027 6.02,19.961 -7.09,-19.422"
         style="fill:#ffffff;fill-opacity:1;fill-rule:nonzero;stroke:none"
         transform="matrix(0.13333333,0,0,-0.13333333,0,257.8)" />
      <path
         id="path29"
         d="m 1363.8,1517.64 1.18,0.83 -1.32,-0.77 1.53,2.48 -1.67,-2.34 0.24,1.49 -0.36,-1.45 -1,4.3 0.73,-4.32 -0.83,1.18 0.77,-1.31 -2.48,1.51 2.36,-1.67 -1.48,0.27 1.44,-0.39 -4.32,-0.97 4.32,0.73 -1.19,-0.86 1.35,0.79 -1.54,-2.5 1.69,2.36 -0.27,-1.46 0.36,1.42 1,-4.32 -0.73,4.34 0.84,-1.18 -0.78,1.33 2.49,-1.55 -2.37,1.71 1.51,-0.29 -1.47,0.41 4.32,0.98 -4.32,-0.75"
         style="fill:#ffffff;fill-opacity:1;fill-rule:nonzero;stroke:none"
         transform="matrix(0.13333333,0,0,-0.13333333,0,257.8)" />
      <path
         id="path30"
         d="m 1100.24,702.039 0.28,-1.109 -0.2,1.16 1.3,-1.809 -1.19,1.899 1.02,-0.578 -0.93,0.628 3.35,-0.558 -3.3,0.758 1.07,0.289 -1.12,-0.219 1.81,1.289 -1.93,-1.168 0.61,1.027 -0.64,-0.929 0.54,3.312 -0.72,-3.293 -0.3,1.102 0.19,-1.149 -1.32,1.809 1.23,-1.879 -1.03,0.59 0.91,-0.672 -3.3,0.57 3.27,-0.757 -1.08,-0.262 1.13,0.191 -1.81,-1.32 1.91,1.187 -0.59,-0.988 0.63,0.879 -0.54,-3.32 0.75,3.32"
         style="fill:#ffffff;fill-opacity:1;fill-rule:nonzero;stroke:none"
         transform="matrix(0.13333333,0,0,-0.13333333,0,257.8)" />
      <path
         id="path31"
         d="m 1592.58,449.219 0.29,-1.09 -0.19,1.141 1.29,-1.801 -1.19,1.902 1.02,-0.59 -0.93,0.641 3.34,-0.563 -3.29,0.75 1.08,0.301 -1.13,-0.219 1.81,1.289 -1.93,-1.171 0.61,1.031 -0.63,-0.93 0.53,3.32 -0.73,-3.289 -0.29,1.09 0.19,-1.14 -1.31,1.8 1.22,-1.882 -1.03,0.589 0.9,-0.66 -3.29,0.563 3.27,-0.75 -1.07,-0.281 1.12,0.199 -1.81,-1.321 1.91,1.204 -0.59,-1 0.64,0.867 -0.54,-3.309 0.73,3.309"
         style="fill:#ffffff;fill-opacity:1;fill-rule:nonzero;stroke:none"
         transform="matrix(0.13333333,0,0,-0.13333333,0,257.8)" />
      <path
         id="path32"
         d="m 1164.92,1270.56 0.39,-1.48 -0.26,1.55 1.74,-2.43 -1.6,2.56 1.37,-0.79 -1.25,0.85 4.5,-0.75 -4.43,1.02 1.45,0.39 -1.52,-0.3 2.44,1.74 -2.6,-1.57 0.82,1.38 -0.86,-1.25 0.73,4.46 -0.98,-4.42 -0.4,1.47 0.26,-1.54 -1.77,2.43 1.64,-2.53 -1.37,0.78 1.21,-0.88 -4.43,0.75 4.4,-1.01 -1.45,-0.36 1.51,0.26 -2.43,-1.77 2.56,1.6 -0.79,-1.34 0.86,1.18 -0.73,-4.46 0.99,4.46"
         style="fill:#ffffff;fill-opacity:1;fill-rule:nonzero;stroke:none"
         transform="matrix(0.13333333,0,0,-0.13333333,0,257.8)" />
      <path
         id="path33"
         d="m 1029.2,644.18 0.29,-1.11 -0.19,1.149 1.29,-1.797 -1.19,1.887 1.02,-0.571 -0.93,0.633 3.34,-0.57 -3.29,0.758 1.08,0.3 -1.13,-0.23 1.81,1.293 -1.93,-1.16 0.61,1.019 -0.63,-0.922 0.54,3.313 -0.74,-3.293 -0.29,1.09 0.2,-1.137 -1.32,1.809 1.22,-1.879 -1.03,0.578 0.91,-0.66 -3.3,0.558 3.27,-0.75 -1.07,-0.269 1.12,0.203 -1.81,-1.32 1.91,1.187 -0.59,-0.988 0.64,0.879 -0.54,-3.328 0.73,3.328"
         style="fill:#ffffff;fill-opacity:1;fill-rule:nonzero;stroke:none"
         transform="matrix(0.13333333,0,0,-0.13333333,0,257.8)" />
      <path
         id="path34"
         d="m 834.016,1422.97 -1.469,3.02 1.238,-3.18 -4.765,4.48 4.503,-4.85 -3.257,1.19 2.972,-1.35 -9.855,-0.29 9.933,-0.28 -3.011,-1.46 3.16,1.21 -4.457,-4.76 4.844,4.48 -1.184,-3.22 1.348,2.98 0.285,-9.9 0.281,9.94 1.465,-3.02 -1.219,3.18 4.746,-4.48 -4.504,4.84 3.262,-1.14 -2.973,1.35 9.879,0.24 -9.941,0.33 2.992,1.47 -3.156,-1.23 4.48,4.73 -4.824,-4.48 1.141,3.26 -1.348,-2.98 -0.262,9.86 -0.304,-9.94"
         style="fill:#ffffff;fill-opacity:1;fill-rule:nonzero;stroke:none"
         transform="matrix(0.13333333,0,0,-0.13333333,0,257.8)" />
      <path
         id="path35"
         d="m 881.273,1625.3 2.993,1.46 -3.18,-1.22 4.484,4.77 -4.832,-4.5 1.145,3.26 -1.344,-3 -0.269,9.86 -0.301,-9.94 -1.473,3.01 1.246,-3.13 -4.765,4.44 4.503,-4.83 -3.261,1.16 2.972,-1.34 -9.859,-0.28 9.941,-0.29 -3.015,-1.47 3.18,1.24 -4.481,-4.76 4.844,4.5 -1.18,-3.26 1.348,2.98 0.281,-9.86 0.289,9.94 1.465,-3.02 -1.227,3.16 4.766,-4.46 -4.496,4.83 3.258,-1.17 -2.992,1.35 9.894,0.29 -9.934,0.28"
         style="fill:#ffffff;fill-opacity:1;fill-rule:nonzero;stroke:none"
         transform="matrix(0.13333333,0,0,-0.13333333,0,257.8)" />
      <path
         id="path36"
         d="m 880.617,1625.14 1.059,0.5 -1.098,-0.46 1.567,1.71 -1.727,-1.59 0.426,1.16 -0.473,-1.08 -0.121,3.54 -0.102,-3.56 -0.507,1.08 0.449,-1.14 -1.707,1.59 1.586,-1.71 -1.145,0.4 1.063,-0.44 -3.528,-0.12 3.547,-0.11 -1.082,-0.5 1.145,0.44 -1.586,-1.71 1.707,1.59 -0.41,-1.16 0.468,1.07 0.102,-3.5 0.121,3.53 0.512,-1.08 -0.426,1.14 1.688,-1.59 -1.606,1.71 1.156,-0.4 -1.058,0.46 3.527,0.11 -3.547,0.12"
         style="fill:#ffffff;fill-opacity:1;fill-rule:nonzero;stroke:none"
         transform="matrix(0.13333333,0,0,-0.13333333,0,257.8)" />
      <path
         id="path37"
         d="m 240.551,744.699 1.054,0.512 -1.101,-0.473 1.57,1.723 -1.73,-1.59 0.426,1.16 -0.469,-1.082 -0.121,3.539 -0.098,-3.558 -0.516,1.082 0.45,-1.141 -1.707,1.59 1.586,-1.723 -1.141,0.41 1.059,-0.449 -3.52,-0.109 3.539,-0.11 -1.078,-0.511 1.141,0.453 -1.586,-1.711 1.707,1.578 -0.403,-1.148 0.469,1.07 0.098,-3.5 0.121,3.519 0.508,-1.07 -0.426,1.129 1.691,-1.578 -1.609,1.711 1.156,-0.41 -1.051,0.468 3.52,0.11 -3.539,0.109"
         style="fill:#ffffff;fill-opacity:1;fill-rule:nonzero;stroke:none"
         transform="matrix(0.13333333,0,0,-0.13333333,0,257.8)" />
      <path
         id="path38"
         d="m 560.27,859.422 -0.614,2.269 0.426,-2.472 -2.922,3.742 2.656,-3.859 -2.097,1.179 1.972,-1.32 -7.086,0.859 6.95,-1.281 -2.235,-0.617 2.399,0.449 -3.676,-2.922 3.836,2.66 -1.18,-2.097 1.348,1.929 -0.883,-7.05 1.277,6.961 0.622,-2.231 -0.454,2.391 2.95,-3.703 -2.688,3.871 2.094,-1.211 -1.969,1.34 7.086,-0.848 -6.957,1.25 2.238,0.648 -2.398,-0.461 3.711,2.883 -3.879,-2.621 1.223,2.102 -1.348,-1.973 0.855,7.09 -1.257,-6.957"
         style="fill:#ffffff;fill-opacity:1;fill-rule:nonzero;stroke:none"
         transform="matrix(0.13333333,0,0,-0.13333333,0,257.8)" />
      <path
         id="path39"
         d="m 122.445,1107.66 -2.851,5.86 2.383,-6.14 -9.309,8.71 8.781,-9.41 -6.359,2.28 5.824,-2.69 -19.285,-0.53 19.43,-0.57 -5.868,-2.85 6.172,2.4 -8.738,-9.33 9.453,8.81 -2.281,-6.36 2.648,5.82 0.508,-19.3 0.59,19.46 2.852,-5.9 -2.383,6.19 9.304,-8.76 -8.777,9.45 6.356,-2.24 -5.848,2.61 19.312,0.53 -19.429,0.57 5.863,2.85 -6.172,-2.4 8.715,9.33 -9.426,-8.76 2.258,6.35 -2.625,-5.82 -0.527,19.31 -0.571,-19.47"
         style="fill:#ffffff;fill-opacity:1;fill-rule:nonzero;stroke:none"
         transform="matrix(0.13333333,0,0,-0.13333333,0,257.8)" />
      <path
         id="path40"
         d="m 453.383,1364.34 c -20.481,14.96 -46.07,33.47 -81.914,33.47 -28.746,0 -48.446,-15.36 -48.446,-32.68 0,-16.56 13,-25.61 55.145,-35.06 42.141,-9.06 91.355,-24.02 91.355,-75.61 0,-52.77 -48.437,-89 -108.679,-89 -44.91,0 -76.406,19.68 -91.379,29.14 v 56.71 c 20.09,-16.15 52.769,-40.97 91.762,-40.97 29.937,0 53.562,18.91 53.562,40.18 0,21.66 -19.684,31.5 -59.082,39.78 -28.742,6.69 -50.41,13.78 -67.734,29.54 -9.45,9.84 -18.508,24.41 -18.508,45.67 0,46.87 42.933,77.2 100.82,77.2 29.535,0 57.891,-8.27 83.098,-23.24 v -55.13"
         style="fill:#ffffff;fill-opacity:1;fill-rule:nonzero;stroke:none"
         transform="matrix(0.13333333,0,0,-0.13333333,0,257.8)" />
      <path
         id="path41"
         d="m 556.977,1438.38 v -268.6 h -51.204 v 268.6 h 51.204"
         style="fill:#ffffff;fill-opacity:1;fill-rule:nonzero;stroke:none"
         transform="matrix(0.13333333,0,0,-0.13333333,0,257.8)" />
      <path
         id="path42"
         d="m 877.152,1438.38 v -268.6 h -51.203 v 189.03 h -0.777 l -82.313,-140.59 -82.707,140.59 h -0.789 V 1169.78 H 608.16 v 268.6 h 57.11 l 77.589,-131.54 77.973,131.54 h 56.32"
         style="fill:#ffffff;fill-opacity:1;fill-rule:nonzero;stroke:none"
         transform="matrix(0.13333333,0,0,-0.13333333,0,257.8)" />
      <path
         id="path43"
         d="m 966.969,1304.48 c 0,-49.23 29.148,-95.71 76.791,-95.71 45.3,0 77.98,42.93 77.98,95.31 0,56.31 -35.44,95.3 -76.01,95.3 -50.804,0 -78.761,-46.86 -78.761,-94.9 z m 208.331,-0.4 c 0,-80.74 -60.65,-138.62 -132.33,-138.62 -74.029,0 -129.56,59.46 -129.56,137.83 0,82.31 60.246,139.42 128.39,139.42 83.5,0 133.5,-66.17 133.5,-138.63"
         style="fill:#ffffff;fill-opacity:1;fill-rule:nonzero;stroke:none"
         transform="matrix(0.13333333,0,0,-0.13333333,0,257.8)" />
      <path
         id="path44"
         d="m 1262.75,1438.38 116.18,-183.13 h 0.78 v 183.13 h 51.2 v -268.6 h -51.2 l -116.17,185.11 h -0.79 v -185.11 h -51.2 v 268.6 h 51.2"
         style="fill:#ffffff;fill-opacity:1;fill-rule:nonzero;stroke:none"
         transform="matrix(0.13333333,0,0,-0.13333333,0,257.8)" />
      <path
         id="path45"
         d="m 1651.86,1364.34 c -20.47,14.96 -46.07,33.47 -81.92,33.47 -28.74,0 -48.43,-15.36 -48.43,-32.68 0,-16.56 12.99,-25.61 55.13,-35.06 42.15,-9.06 91.37,-24.02 91.37,-75.61 0,-52.77 -48.45,-89 -108.69,-89 -44.9,0 -76.4,19.68 -91.37,29.14 v 56.71 c 20.09,-16.15 52.77,-40.97 91.76,-40.97 29.93,0 53.55,18.91 53.55,40.18 0,21.66 -19.67,31.5 -59.07,39.78 -28.75,6.69 -50.41,13.78 -67.73,29.54 -9.45,9.84 -18.51,24.41 -18.51,45.67 0,46.87 42.93,77.2 100.81,77.2 29.54,0 57.89,-8.27 83.1,-23.24 v -55.13"
         style="fill:#ffffff;fill-opacity:1;fill-rule:nonzero;stroke:none"
         transform="matrix(0.13333333,0,0,-0.13333333,0,257.8)" />
      <path
         id="path46"
         d="m 308.641,1031.56 c 0,-21.72 12.855,-42.205 33.863,-42.205 19.969,0 34.375,18.925 34.375,42.025 0,24.83 -15.625,42.03 -33.516,42.03 -22.398,0 -34.722,-20.68 -34.722,-41.85 z m 91.863,-0.18 c 0,-35.599 -26.746,-61.13 -58.348,-61.13 -32.652,0 -57.14,26.227 -57.14,60.78 0,36.3 26.574,61.47 56.621,61.47 36.808,0 58.867,-29.16 58.867,-61.12"
         style="fill:#ffffff;fill-opacity:1;fill-rule:nonzero;stroke:none"
         transform="matrix(0.13333333,0,0,-0.13333333,0,257.8)" />
      <path
         id="path47"
         d="m 457.902,1024.96 v -33.003 h 21.879 c 7.809,0 26.922,1.398 26.922,17.203 0,10.75 -9.894,15.8 -21.008,15.8 z m 0,46.19 v -27.61 h 19.625 c 12.325,0 22.055,4.34 22.055,14.93 0,10.78 -10.426,12.68 -16.332,12.68 z m 33.516,19.79 c 19.105,0 31.254,-11.8 31.254,-27.43 0,-8.34 -3.461,-15.98 -9.543,-21.19 -3.996,-3.65 -7.461,-4.87 -12.164,-6.25 v -0.34 c 5.566,-0.36 11.816,-0.88 18.418,-5.57 7.117,-4.86 10.941,-13.2 10.941,-22.4 0,-22.057 -20.504,-35.6 -47.761,-35.6 h -47.235 v 118.78 h 56.09"
         style="fill:#ffffff;fill-opacity:1;fill-rule:nonzero;stroke:none"
         transform="matrix(0.13333333,0,0,-0.13333333,0,257.8)" />
      <path
         id="path48"
         d="m 639.801,1057.96 c -9.031,6.59 -20.317,14.75 -36.133,14.75 -12.672,0 -21.352,-6.77 -21.352,-14.41 0,-7.3 5.723,-11.29 24.313,-15.46 18.578,-3.99 40.285,-10.59 40.285,-33.34 0,-23.277 -21.359,-39.25 -47.934,-39.25 -19.796,0 -33.691,8.68 -40.285,12.852 v 25.008 c 8.856,-7.12 23.274,-18.059 40.457,-18.059 13.2,0 23.625,8.332 23.625,17.709 0,9.55 -8.683,13.89 -26.054,17.54 -12.668,2.95 -22.227,6.08 -29.864,13.03 -4.171,4.34 -8.164,10.77 -8.164,20.14 0,20.67 18.934,34.03 44.457,34.03 13.028,0 25.532,-3.63 36.649,-10.23 v -24.31"
         style="fill:#ffffff;fill-opacity:1;fill-rule:nonzero;stroke:none"
         transform="matrix(0.13333333,0,0,-0.13333333,0,257.8)" />
      <path
         id="path49"
         d="m 761.961,1090.6 v -19.8 h -57.484 v -27.78 h 54.707 v -18.41 h -54.707 v -32.653 h 57.484 V 972.16 h -80.059 v 118.44 h 80.059"
         style="fill:#ffffff;fill-opacity:1;fill-rule:nonzero;stroke:none"
         transform="matrix(0.13333333,0,0,-0.13333333,0,257.8)" />
      <path
         id="path50"
         d="m 822.98,1070.8 v -30.04 h 18.235 c 16.672,0 24.656,7.63 24.656,16.32 0,7.12 -5.723,13.72 -17.012,13.72 z m 29.176,19.8 c 23.278,0 36.473,-11.81 36.473,-29.18 0,-18.75 -13.027,-28.14 -32.481,-31.95 v -0.34 c 8.688,-2.62 17.372,-5.4 23.973,-23.28 l 12.492,-33.69 h -24.656 l -8.324,26.223 C 854.758,1013.84 848.156,1022 831.664,1022 h -8.684 v -49.84 h -22.574 v 118.44 h 51.75"
         style="fill:#ffffff;fill-opacity:1;fill-rule:nonzero;stroke:none"
         transform="matrix(0.13333333,0,0,-0.13333333,0,257.8)" />
      <path
         id="path51"
         d="M 1022.89,1090.6 979.32,972.16 h -22.234 l -42.719,118.44 h 24.836 l 28.996,-89.96 h 0.348 l 29.004,89.96 h 25.339"
         style="fill:#ffffff;fill-opacity:1;fill-rule:nonzero;stroke:none"
         transform="matrix(0.13333333,0,0,-0.13333333,0,257.8)" />
      <path
         id="path52"
         d="m 1086.93,1062.11 h -0.36 l -12.85,-39.58 h 26.04 z m 10.93,28.49 43.24,-118.44 h -25.35 l -10.25,31.78 h -37.69 l -10.59,-31.78 h -24.83 l 43.41,118.44 h 22.06"
         style="fill:#ffffff;fill-opacity:1;fill-rule:nonzero;stroke:none"
         transform="matrix(0.13333333,0,0,-0.13333333,0,257.8)" />
      <path
         id="path53"
         d="m 1249.52,1090.6 v -19.8 h -34.2 v -98.64 h -22.59 v 98.64 h -33.34 v 19.8 h 90.13"
         style="fill:#ffffff;fill-opacity:1;fill-rule:nonzero;stroke:none"
         transform="matrix(0.13333333,0,0,-0.13333333,0,257.8)" />
      <path
         id="path54"
         d="m 1294.61,1031.56 c 0,-21.72 12.86,-42.205 33.87,-42.205 19.97,0 34.37,18.925 34.37,42.025 0,24.83 -15.62,42.03 -33.51,42.03 -22.4,0 -34.73,-20.68 -34.73,-41.85 z m 91.87,-0.18 c 0,-35.599 -26.74,-61.13 -58.35,-61.13 -32.65,0 -57.14,26.227 -57.14,60.78 0,36.3 26.57,61.47 56.62,61.47 36.82,0 58.87,-29.16 58.87,-61.12"
         style="fill:#ffffff;fill-opacity:1;fill-rule:nonzero;stroke:none"
         transform="matrix(0.13333333,0,0,-0.13333333,0,257.8)" />
      <path
         id="path55"
         d="m 1443.88,1070.8 v -30.04 h 18.23 c 16.68,0 24.66,7.63 24.66,16.32 0,7.12 -5.72,13.72 -17.01,13.72 z m 29.17,19.8 c 23.28,0 36.47,-11.81 36.47,-29.18 0,-18.75 -13.01,-28.14 -32.48,-31.95 v -0.34 c 8.69,-2.62 17.38,-5.4 23.98,-23.28 l 12.49,-33.69 h -24.66 l -8.32,26.223 c -4.87,15.457 -11.47,23.617 -27.97,23.617 h -8.68 v -49.84 h -22.58 v 118.44 h 51.75"
         style="fill:#ffffff;fill-opacity:1;fill-rule:nonzero;stroke:none"
         transform="matrix(0.13333333,0,0,-0.13333333,0,257.8)" />
      <path
         id="path56"
         d="m 1561.17,1090.6 24.66,-43.76 24.66,43.76 h 28.15 l -41.52,-64.43 v -54.01 h -22.58 v 54.01 l -40.97,64.43 h 27.6"
         style="fill:#ffffff;fill-opacity:1;fill-rule:nonzero;stroke:none"
         transform="matrix(0.13333333,0,0,-0.13333333,0,257.8)" />
      <path
         id="path57"
         d="m 809.332,298.949 85.578,10.731 c 0,0 -4.601,15.648 -27.91,15.031 -13.496,-0.352 -30.676,-2.449 -30.676,-2.449 l -26.992,-23.313"
         style="fill:#ffffff;fill-opacity:1;fill-rule:nonzero;stroke:none"
         transform="matrix(0.13333333,0,0,-0.13333333,0,257.8)" />
      <path
         id="path58"
         d="m 870.68,204.469 26.992,6.75 -24.848,-1.84 -69.629,-7.359"
         style="fill:#231f20;fill-opacity:1;fill-rule:nonzero;stroke:none"
         transform="matrix(0.13333333,0,0,-0.13333333,0,257.8)" />
      <path
         id="path59"
         d="M 947.359,172.57 1029.92,347.781 794.578,450.059 712.02,274.859 947.359,172.57"
         style="fill:#231f20;fill-opacity:1;fill-rule:nonzero;stroke:#ffffff;stroke-width:24.3713;stroke-linecap:butt;stroke-linejoin:miter;stroke-miterlimit:10;stroke-dasharray:none;stroke-opacity:1"
         transform="matrix(0.13333333,0,0,-0.13333333,0,257.8)" />
      <path
         id="path60"
         d="M 1000.07,403.148 853.84,468.141"
         style="fill:none;stroke:#ffffff;stroke-width:24.3713;stroke-linecap:round;stroke-linejoin:miter;stroke-miterlimit:10;stroke-dasharray:none;stroke-opacity:1"
         transform="matrix(0.13333333,0,0,-0.13333333,0,257.8)" />
      <path
         id="path61"
         d="m 814.852,98.9492 c 0,0 -0.504,-0.4179 49.418,0.0508 52.191,0.4883 51.23,-0.7891 47.207,-0.9687 L 898.629,124.789 H 824.07 l -9.218,-25.8398"
         style="fill:#231f20;fill-opacity:1;fill-rule:nonzero;stroke:none"
         transform="matrix(0.13333333,0,0,-0.13333333,0,257.8)" />
      <path
         id="path62"
         d="m 808.41,121.039 h 106.442 v 92.16 L 808.41,259.09 V 121.039"
         style="fill:#231f20;fill-opacity:1;fill-rule:nonzero;stroke:none"
         transform="matrix(0.13333333,0,0,-0.13333333,0,257.8)" />
      <path
         id="path63"
         d="M 814.859,126.559 V 298.77 c 0,16.449 19.844,35.761 45.086,35.761 25.235,0 46.317,-19.312 46.317,-35.761 V 126.559 c -1.356,1.011 -90.055,-2.2 -91.403,0"
         style="fill:#ffffff;fill-opacity:1;fill-rule:nonzero;stroke:none"
         transform="matrix(0.13333333,0,0,-0.13333333,0,257.8)" />
      <path
         id="path64"
         d="m 801.969,217.66 70.855,-0.922 13.805,-79.75 -60.117,-1.218 -24.543,81.89"
         style="fill:#ffffff;fill-opacity:1;fill-rule:nonzero;stroke:none"
         transform="matrix(0.13333333,0,0,-0.13333333,0,257.8)" />
      <path
         id="path65"
         d="m 801.969,217.66 70.855,-0.922 13.805,-79.75 -60.117,-1.218 z"
         style="fill:none;stroke:#231f20;stroke-width:5.15294;stroke-linecap:butt;stroke-linejoin:miter;stroke-miterlimit:10;stroke-dasharray:none;stroke-opacity:1"
         transform="matrix(0.13333333,0,0,-0.13333333,0,257.8)" />
      <path
         id="path66"
         d="m 887.551,137.602 -13.805,79.136 21.164,1.844 -2.758,-70.852 -4.601,-10.128"
         style="fill:#231f20;fill-opacity:1;fill-rule:nonzero;stroke:none"
         transform="matrix(0.13333333,0,0,-0.13333333,0,257.8)" />
      <path
         id="path67"
         d="m 799.113,213.961 v 84.629 c 0,18.742 12.707,35.941 37.211,35.941 15.34,0 36.797,-17.199 36.797,-35.941 v -84.629 c -1.316,1.148 -72.699,-2.512 -74.008,0"
         style="fill:#ffffff;fill-opacity:1;fill-rule:nonzero;stroke:none"
         transform="matrix(0.13333333,0,0,-0.13333333,0,257.8)" />
      <path
         id="path68"
         d="m 799.113,213.961 v 84.629 c 0,18.742 12.707,35.941 37.211,35.941 15.34,0 36.797,-17.199 36.797,-35.941 v -84.629 c -1.316,1.148 -72.699,-2.512 -74.008,0 z"
         style="fill:none;stroke:#231f20;stroke-width:6.74693;stroke-linecap:butt;stroke-linejoin:miter;stroke-miterlimit:2;stroke-dasharray:none;stroke-opacity:1"
         transform="matrix(0.13333333,0,0,-0.13333333,0,257.8)" />
      <path
         id="path69"
         d="M 962.086,71.332 H 767 V 93.4219 H 962.086 V 71.332"
         style="fill:#231f20;fill-opacity:1;fill-rule:nonzero;stroke:none"
         transform="matrix(0.13333333,0,0,-0.13333333,0,257.8)" />
      <path
         id="path70"
         d="m 418.305,1566.51 1.441,-3.01 -1.219,3.18 4.766,-4.49 -4.48,4.81 3.261,-1.14 -3.015,1.34 9.894,0.28 -9.937,0.29 3.011,1.47 -3.172,-1.22 4.477,4.77 -4.844,-4.49 1.176,3.26 -1.359,-3.01 -0.266,9.9 -0.328,-9.94 -1.445,3.01 1.246,-3.22 -4.77,4.52 4.481,-4.84 -3.254,1.14 2.992,-1.35 -9.879,-0.24 9.938,-0.33 -3.012,-1.46 3.176,1.22 -4.481,-4.72 4.848,4.47 -1.18,-3.25 1.34,2.97 0.289,-9.86 0.305,9.94"
         style="fill:#ffffff;fill-opacity:1;fill-rule:nonzero;stroke:none"
         transform="matrix(0.13333333,0,0,-0.13333333,0,257.8)" />
      <path
         id="path71"
         d="m 21.5508,966.762 c 0,-522.032 423.1872,-945.2112 945.2152,-945.2112 522.024,0 945.214,423.1792 945.214,945.2112 0,522.028 -423.19,945.218 -945.214,945.218 -522.028,0 -945.2152,-423.19 -945.2152,-945.218 z"
         style="fill:none;stroke:#f1511b;stroke-width:43.101;stroke-linecap:butt;stroke-linejoin:miter;stroke-miterlimit:10;stroke-dasharray:none;stroke-opacity:1"
         transform="matrix(0.13333333,0,0,-0.13333333,0,257.8)" />
    </g>
  </g>
</svg>
