<svg xmlns="http://www.w3.org/2000/svg" xmlns:xlink="http://www.w3.org/1999/xlink" width="257.8" height="257.8" xmlns:v="https://vecta.io/nano"><style><![CDATA[.B{fill:none}.C{stroke-miterlimit:10}.D{fill:#231f20}.E{stroke:#231f20}.F{stroke-width:3.249}]]></style><path d="M3.61 129.389c0 69.604 56.425 126.028 126.028 126.028s126.028-56.424 126.028-126.028S199.242 3.361 129.638 3.361 3.61 59.786 3.61 129.389" class="D"/><path d="M3.61 129.389c0 69.604 56.425 126.028 126.028 126.028s126.028-56.424 126.028-126.028S199.242 3.361 129.638 3.361 3.61 59.786 3.61 129.389z" stroke-width="4.272" class="B C E"/><g fill="#f1511b"><path d="M25.244 195.235s9.778-1.752 13.679-4.104c4.996-3.012 19.834-17.781 28.042-17.099l10.943 17.783 27.112 27.117 11.014 4.506 23.041 6.656c5.563 1.964 24.865 17.342 24.865 17.342 6.545 4.253-4.689 4.901-5.889 4.908l-7.852 2.945s-9.587 2.184-11.451 2.289c-8.845.5-15.948-1.467-17.045-1.589-9.011-1.002-27.694-6.956-30.188-9.419-2.421-2.392-10.503-1.949-13.742-4.417-2.907-2.215-9.469-3.288-11.779-6.38-2.859-3.829-11.004-5.881-11.779-7.363-.441-.841-14.837-11.967-15.214-12.76-2.052-4.319-13.757-20.414-13.757-20.414"/><path d="M208.319 224.484c-5.116-2.243-18.095-4.076-23.767-6.496-1.827-.779-6.871-2.617-6.871-2.617s-5.451 4.632-8.248 4.885-7.493-1.759-12.712-1.272c-6.851.64-19.284 6.203-19.284 6.203s5.561 1.963 13.088 9.161c3.828 3.663 8.507 7.197 13.74 13.414 1.789 2.124 21.513-7.443 21.513-7.443l22.54-15.835"/></g><path d="M115.072 195.855l12.73-192.661s31.3-1.251 63.623 16.52c33.968 18.677 50.385 53.004 50.385 53.004L132.741 204.362" fill="#444142"/><use xlink:href="#B" stroke-width="2.873" class="B C E"/><g fill="#fff"><path d="M192.714 41.803l.143-.068-.148.063.211-.228-.232.212.057-.155-.063.143-.016-.472-.013.476-.068-.144.06.152-.228-.212.211.228-.151-.055.14.06-.469.016.472.013-.143.069.151-.06-.211.228.228-.212-.055.155.063-.144.013.467.016-.469.068.144-.057-.152.227.212-.215-.228.155.053-.143-.063.471-.013-.473-.016M139.257 84.54l1.008-.459-1.105.393 1.525-1.635-1.613 1.512.417-1.072-.5 1.021-.103-3.376-.087 3.348-.459-1.009.393 1.105-1.637-1.524 1.515 1.613-1.072-.413 1.021.495-3.379.103 3.352.087-1.011.46 1.105-.395-1.524 1.639 1.613-1.513-.416 1.071.497-1.021.103 3.377.087-3.351.46 1.013-.395-1.105 1.639 1.52-1.516-1.612 1.073.417-1.021-.5 3.375-.103-3.347-.087M87.811 36.17l.143.3-.121-.316.472.444-.445-.476.323.113-.298-.133.981-.029-.985-.027.298-.145-.315.121.444-.473-.481.444.117-.323-.135.299-.026-.981-.032.985-.143-.299.123.319-.473-.448.445.48-.323-.113.296.135-.979.024.985.032-.298.145.314-.121-.444.468.48-.444-.117.323.134-.295.028.977.031-.985m155.9 108.518l.193.402-.163-.422.635.597-.597-.641.435.152-.401-.179 1.32-.037-1.325-.04.401-.194-.424.163.597-.635-.645.597.157-.434-.183.401-.035-1.32-.044 1.325-.193-.401.167.429-.635-.603.596.645-.433-.152.399.179-1.317.033 1.325.044-.401.196.423-.163-.596.628.645-.596-.157.433.179-.396.039 1.315.04-1.325m-55.088 41.382l.193.4-.164-.422.636.597-.597-.642.433.152-.401-.18 1.319-.037-1.324-.037.401-.196-.423.163.597-.634-.647.597.157-.434-.181.401-.036-1.32-.044 1.325-.192-.4.165.428-.636-.603.599.645-.435-.152.399.18-1.316.032 1.324.042-.401.197.424-.163-.599.628.647-.596-.156.433.177-.396.039 1.315.041-1.324m-75.179-42.39l.193.401-.162-.424.635.597-.598-.64.435.151-.402-.179 1.32-.037-1.325-.039.402-.196-.424.164.597-.635-.646.596.157-.433-.182.401-.035-1.32-.044 1.326-.193-.402.166.428-.635-.603.597.646-.434-.152.399.179-1.317.033 1.325.043-.402.196.424-.163-.597.63.645-.597-.157.434.179-.397.039 1.316.04-1.325m51.964-9.313l-.083-.302.056.328-.389-.498.355.515-.28-.157.263.176-.944-.115.927.17-.297.084.319-.061-.489.389.512-.355-.157.28.179-.257-.117.94.171-.928.083.297-.061-.319.393.493-.359-.516.28.161-.263-.177.945.113-.927-.167.297-.088-.32.061.495-.384-.516.351.163-.28-.18.261.113-.945-.167.928m55.679 57.297l-.381-.783.319.82-1.241-1.162 1.169 1.256-.847-.306.776.359-2.571.071 2.591.076-.783.38.823-.32-1.165 1.244 1.261-1.173-.304.847.353-.777.067 2.575.079-2.595.38.787-.317-.827 1.241 1.168-1.171-1.26.847.3-.78-.348 2.576-.071-2.591-.076.783-.381-.824.321 1.163-1.244-1.257 1.168.301-.848-.351.777-.071-2.573-.075 2.596M25.926 81.23l-.136-.277.111.293-.443-.413.418.445-.301-.103.275.12-.912.027.923.028-.282.135.293-.113-.413.44.448-.413-.108.299.128-.277.022.919.027-.923.135.276L26 81.4l.443.419-.418-.451.302.108-.274-.124.912-.028-.923-.027.282-.136-.293.119.412-.445-.448.419.106-.304-.125.277-.022-.912-.027.917m136.482-61.191l.148.551-.105-.569.656.909-.595-.961.508.297-.455-.324 1.675.28-1.671-.376.555-.148-.568.104.905-.66-.961.6.301-.508-.323.456.279-1.672-.381 1.667-.148-.555.105.576-.656-.913.599.967-.516-.307.463.324-1.679-.276 1.671.376-.551.144.573-.096-.905.648.953-.595-.299.507.324-.455-.279 1.679.376-1.669m-35.633-7.527l.053.196-.036-.205.232.324-.214-.341.183.105-.166-.115.598.1-.59-.135.193-.053-.201.04.323-.232-.346.211.109-.184-.114.165.096-.593-.131.589-.053-.196.035.205-.236-.324.22.337-.184-.105.163.119-.59-.101.585.136-.193.048.201-.035-.324.236.342-.215-.106.18.114-.157-.096.593.131-.593M58.889 32.262l.053.199-.035-.207.232.324-.215-.341.184.105-.166-.115.599.101-.591-.135.193-.053-.201.039.323-.231-.345.209.109-.184-.114.167.097-.595-.131.591-.053-.197.035.205-.237-.323.219.336-.184-.105.163.119-.591-.1.585.135-.193.048.202-.035-.324.236.342-.215-.105.18.113-.159-.096.596.132-.596M21.282 159.272l-.067-.637.016.674-.615-1.129.529 1.157-.507-.421.465.456-1.857-.558 1.809.658-.635.066.674-.013-1.13.612 1.158-.527-.423.509.457-.469-.559 1.861.658-1.812.065.635-.014-.675.615 1.13-.531-1.158.509.425-.466-.456 1.858.556-1.809-.656.635-.065-.675.012 1.13-.615-1.157.531.423-.509-.458.466.557-1.856-.657 1.809m20.769 16.426l-.117-1.108.027 1.173-1.07-1.967.921 2.016-.883-.735.809.793-3.232-.97 3.147 1.145-1.105.113 1.173-.021-1.966 1.064 2.015-.917-.735.885.795-.815-.972 3.237 1.146-3.151.111 1.103-.025-1.173 1.07 1.967-.924-2.015.885.739-.809-.793 3.231.968-3.146-1.142 1.105-.115-1.173.021 1.966-1.069-2.013.923.737-.885-.796.809.969-3.231-1.143 3.149m99.925-36.414l-.38-.783.317.82-1.241-1.161 1.171 1.253-.847-.304.776.359-2.571.071 2.591.076-.783.38.823-.32-1.165 1.243 1.261-1.173-.305.848.353-.776.069 2.575.077-2.596.38.787-.317-.826 1.241 1.168-1.171-1.26.847.299-.78-.348 2.575-.071-2.589-.076.781-.38-.821.321 1.161-1.244-1.257 1.167.301-.847-.351.776-.071-2.573-.076 2.596m92.418-37.254l-.136-.277.112.293-.443-.412.417.444-.301-.103.275.12-.912.027.923.027-.283.136.293-.113-.412.44.448-.413-.108.299.127-.277.021.919.027-.924.136.277-.111-.293.443.419-.419-.452.301.109-.273-.125.912-.027-.924-.027.283-.136-.293.119.413-.444-.448.417.105-.304-.125.277-.021-.913-.027.919m-12.924 52.412l.148.551-.104-.568.656.909-.595-.963.508.298-.456-.324 1.676.28-1.672-.378.556-.148-.569.105.907-.661-.963.6.301-.508-.323.455.28-1.671-.381 1.667-.148-.554.105.577-.656-.915.599.967-.516-.307.463.324-1.679-.274 1.669.376-.551.144.573-.096-.905.646.953-.594-.297.508.324-.455-.279 1.679.375-1.671m-45.811 10.337l.039.146-.028-.153.173.241-.159-.255.136.079-.123-.085.445.076-.44-.101.143-.04-.148.031.239-.172-.256.155.081-.137-.085.123.073-.441-.097.439-.041-.148.028.154-.176-.24.163.249-.136-.078.119.088-.439-.075.436.101-.143.035.148-.027-.239.175.253-.158-.079.133.085-.117-.073.442.1-.442m-50.044-12.751l.052.197-.035-.205.232.324-.214-.341.183.104-.166-.113.599.1-.591-.135.193-.052-.201.039.323-.232-.346.209.109-.183-.114.167.097-.596-.131.591-.054-.197.035.205-.236-.322.219.336-.184-.104.162.118-.591-.1.586.134-.193.049.201-.036-.323.237.342-.215-.105.18.114-.159-.097.596.132-.596"/><path d="M140.025 36.297l.052.197-.036-.205.232.323-.213-.341.183.105-.165-.113.599.1-.591-.135.192-.053-.2.039.323-.231-.345.209.109-.183-.115.165.099-.595-.132.591-.053-.197.035.207-.235-.324.219.336-.184-.104.161.117-.589-.1.585.135-.192.049.2-.036-.324.236.343-.213-.107.179.115-.157-.097.595.133-.595m30.261 158.49l-.092-.904.019.961-.88-1.616.759 1.656-.725-.605.667.653-2.659-.8 2.589.941-.911.094.968-.021-1.617.884 1.652-.759-.603.728.652-.667-.799 2.657.944-2.588.093.907-.021-.964.881 1.616-.761-1.657.728.605-.665-.653 2.656.799-2.588-.941.909-.093-.965.021 1.617-.884-1.655.763.603-.732-.653.67.803-2.661-.945 2.59M181.84 55.449l.157-.111-.176.103.204-.331-.223.312.032-.199-.048.193-.133-.573.097.576-.111-.157.103.175-.331-.201.315.223-.197-.036.192.052-.576.129.576-.097-.159.115.18-.105-.205.333.225-.315-.036.195.048-.189.133.576-.097-.579.112.157-.104-.177.332.207-.316-.228.201.039-.196-.055.576-.131-.576.1m-35.141 108.745l.037.148-.027-.155.173.241-.159-.253.136.077-.124-.084.447.074-.44-.101.143-.039-.149.029.241-.172-.257.156.081-.137-.085.124.072-.442-.096.439-.04-.147.025.153-.176-.241.164.251-.137-.079.121.09-.44-.076.436.101-.144.035.151-.025-.241.176.255-.158-.079.132.084-.117-.072.443.1-.443m65.645 33.709l.039.145-.025-.152.172.24-.159-.254.136.079-.124-.085.445.075-.439-.1.144-.04-.151.029.241-.172-.257.156.081-.137-.084.124.071-.443-.097.439-.039-.145.025.152-.175-.24.163.251-.137-.079.12.088-.439-.075.436.1-.143.037.149-.027-.241.176.255-.161-.079.133.085-.116-.072.441.097-.441m-57.019-109.51l.052.197-.035-.207.232.324-.213-.341.183.105-.167-.113.6.1-.591-.136.193-.052-.203.04.325-.232-.347.209.109-.184-.115.167.097-.595-.131.589-.053-.196.035.205-.236-.324.219.337-.183-.104.161.117-.591-.1.587.135-.193.048.201-.035-.324.236.341-.213-.105.179.115-.157-.097.595.132-.595m-18.094 83.519l.039.148-.025-.153.172.24-.159-.252.136.076-.124-.084.445.076-.439-.101.144-.04-.151.031.241-.172-.257.155.081-.136-.084.123.072-.442-.099.439-.039-.145.027.152-.176-.241.163.251-.137-.077.121.088-.44-.074.436.1-.143.036.149-.027-.241.176.255-.158-.079.132.085-.117-.072.444.097-.444M111.202 68.071l-.196-.403.165.424-.635-.597.6.647-.434-.159.396.18-1.314.039 1.324.037-.401.195.421-.161-.594.635.646-.597-.158.429.18-.397.038 1.32.037-1.325.195.403-.163-.424.633.597-.601-.645.435.152-.396-.18 1.317-.032-1.325-.044.399-.196-.421.164.597-.631-.643.597.152-.435-.18.397-.035-1.315-.041 1.325"/><path d="M117.503 41.094l.399-.195-.424.163.598-.636-.644.6.153-.435-.179.4-.036-1.315-.04 1.325-.196-.401.166.417-.635-.592.6.644-.435-.155.396.179-1.315.037 1.325.039-.402.196.424-.165-.597.635.646-.6-.157.435.18-.397.037 1.315.039-1.325.195.403-.164-.421.635.595-.599-.644.434.156-.399-.18 1.319-.039-1.325-.037"/><path d="M117.415 41.115l.141-.067-.146.061.209-.228-.23.212.057-.155-.063.144-.016-.472-.014.475-.068-.144.06.152-.228-.212.211.228-.153-.053.142.059-.47.016.473.015-.144.067.153-.059-.211.228.228-.212-.055.155.062-.143.014.467.016-.471.068.144-.057-.152.225.212-.214-.228.154.053-.141-.061.47-.015-.473-.016M32.073 158.507l.141-.068-.147.063.209-.23-.231.212.057-.155-.063.144-.016-.472-.013.474-.069-.144.06.152-.228-.212.211.23-.152-.055.141.06-.469.015.472.015-.144.068.152-.06-.211.228.228-.21-.054.153.063-.143.013.467.016-.469.068.143-.057-.151.225.21-.215-.228.154.055-.14-.062.469-.015-.472-.015m42.631-15.296l-.082-.303.057.33-.39-.499.354.515-.28-.157.263.176-.945-.115.927.171-.298.082.32-.06-.49.39.511-.355-.157.28.18-.257-.118.94.17-.928.083.297-.061-.319.393.494-.358-.516.279.161-.263-.179.945.113-.928-.167.298-.086-.32.061.495-.384-.517.349.163-.28-.18.263.114-.945-.168.928m-58.373-33.099l-.38-.781.318.819-1.241-1.161 1.171 1.255-.848-.304.777.359-2.571.071 2.591.076-.782.38.823-.32-1.165 1.244 1.26-1.175-.304.848.353-.776.068 2.573.079-2.595.38.787-.318-.825 1.241 1.168-1.17-1.26.847.299-.78-.348 2.575-.071-2.591-.076.782-.38-.823.32 1.162-1.244-1.257 1.168.301-.847-.35.776-.07-2.575-.076 2.596"/><path d="M60.451 75.888c-2.731-1.995-6.143-4.463-10.922-4.463-3.833 0-6.459 2.048-6.459 4.357 0 2.208 1.733 3.415 7.353 4.675 5.619 1.208 12.181 3.203 12.181 10.081 0 7.036-6.458 11.867-14.49 11.867-5.988 0-10.187-2.624-12.184-3.885v-7.561c2.679 2.153 7.036 5.463 12.235 5.463 3.992 0 7.142-2.521 7.142-5.357 0-2.888-2.625-4.2-7.878-5.304-3.832-.892-6.721-1.837-9.031-3.939-1.26-1.312-2.468-3.255-2.468-6.089 0-6.249 5.724-10.293 13.443-10.293 3.938 0 7.719 1.103 11.08 3.099v7.351m13.81-9.874v35.813h-6.827V66.016h6.827m42.69 0v35.813h-6.827V76.626h-.104L99.048 95.371 88.02 76.626h-.105v25.204h-6.827V66.016h7.615l10.345 17.539 10.396-17.539h7.509m11.976 17.854c0 6.564 3.886 12.761 10.239 12.761 6.04 0 10.397-5.724 10.397-12.708 0-7.508-4.725-12.707-10.135-12.707-6.774 0-10.501 6.248-10.501 12.653zm27.777.053c0 10.765-8.087 18.483-17.644 18.483-9.871 0-17.275-7.928-17.275-18.377 0-10.975 8.033-18.589 17.119-18.589 11.133 0 17.8 8.823 17.8 18.484m11.66-17.908l15.491 24.417h.104V66.016h6.827v35.813h-6.827l-15.489-24.681h-.105v24.681h-6.827V66.016h6.827m51.88 9.872c-2.729-1.995-6.143-4.463-10.923-4.463-3.832 0-6.457 2.048-6.457 4.357 0 2.208 1.732 3.415 7.351 4.675 5.62 1.208 12.183 3.203 12.183 10.081 0 7.036-6.46 11.867-14.492 11.867-5.987 0-10.187-2.624-12.183-3.885v-7.561c2.679 2.153 7.036 5.463 12.235 5.463 3.991 0 7.14-2.521 7.14-5.357 0-2.888-2.623-4.2-7.876-5.304-3.833-.892-6.721-1.837-9.031-3.939-1.26-1.312-2.468-3.255-2.468-6.089 0-6.249 5.724-10.293 13.441-10.293 3.939 0 7.719 1.103 11.08 3.099v7.351M41.152 120.259c0 2.896 1.714 5.627 4.515 5.627 2.663 0 4.583-2.523 4.583-5.603 0-3.311-2.083-5.604-4.469-5.604-2.986 0-4.63 2.757-4.63 5.58zm12.248.024c0 4.747-3.566 8.151-7.78 8.151-4.354 0-7.619-3.497-7.619-8.104 0-4.84 3.543-8.196 7.549-8.196 4.908 0 7.849 3.888 7.849 8.149"/><path d="M61.053 121.139v4.4h2.917c1.041 0 3.59-.186 3.59-2.294 0-1.433-1.319-2.107-2.801-2.107zm0-6.159v3.681h2.617c1.643 0 2.941-.579 2.941-1.991 0-1.437-1.39-1.691-2.178-1.691zm4.469-2.639c2.547 0 4.167 1.573 4.167 3.657 0 1.112-.461 2.131-1.272 2.825-.533.487-.995.649-1.622.833v.045c.742.048 1.575.117 2.456.743.949.648 1.459 1.76 1.459 2.987 0 2.941-2.734 4.747-6.368 4.747h-6.298v-15.837h7.479m19.784 4.398c-1.204-.879-2.709-1.967-4.818-1.967-1.69 0-2.847.903-2.847 1.921 0 .973.763 1.505 3.242 2.061 2.477.532 5.371 1.412 5.371 4.445 0 3.104-2.848 5.233-6.391 5.233-2.639 0-4.492-1.157-5.371-1.714v-3.334c1.181.949 3.103 2.408 5.394 2.408 1.76 0 3.15-1.111 3.15-2.361 0-1.273-1.158-1.852-3.474-2.339-1.689-.393-2.964-.811-3.982-1.737a3.75 3.75 0 0 1-1.089-2.685c0-2.756 2.525-4.537 5.928-4.537 1.737 0 3.404.484 4.887 1.364v3.241m16.288-4.351v2.64H93.93v3.704h7.294v2.455H93.93v4.354h7.665v2.64H90.92v-15.792h10.675m8.135 2.639v4.005h2.431c2.223 0 3.287-1.017 3.287-2.176 0-.949-.763-1.829-2.268-1.829zm3.89-2.64c3.104 0 4.863 1.575 4.863 3.891 0 2.5-1.737 3.752-4.331 4.26v.045c1.158.349 2.316.72 3.196 3.104l1.666 4.492h-3.287l-1.11-3.496c-.65-2.061-1.53-3.149-3.729-3.149h-1.158v6.645h-3.01v-15.792h6.9m22.765 0l-5.809 15.792h-2.965l-5.696-15.792h3.311l3.866 11.995h.046l3.867-11.995h3.379m8.54 3.799h-.048l-1.713 5.277h3.472zm1.457-3.799l5.765 15.792h-3.38l-1.367-4.237h-5.025l-1.412 4.237h-3.311l5.788-15.792h2.941m20.222 0v2.64h-4.56v13.152h-3.012v-13.152h-4.445v-2.64h12.017m6.012 7.872c0 2.896 1.715 5.627 4.516 5.627 2.663 0 4.583-2.523 4.583-5.603 0-3.311-2.083-5.604-4.468-5.604-2.987 0-4.631 2.757-4.631 5.58zm12.249.024c0 4.747-3.565 8.151-7.78 8.151-4.353 0-7.619-3.497-7.619-8.104 0-4.84 3.543-8.196 7.549-8.196 4.909 0 7.849 3.888 7.849 8.149m7.655-5.256v4.005h2.431c2.224 0 3.288-1.017 3.288-2.176 0-.949-.763-1.829-2.268-1.829zm3.889-2.64c3.104 0 4.863 1.575 4.863 3.891 0 2.5-1.735 3.752-4.331 4.26v.045c1.159.349 2.317.72 3.197 3.104l1.665 4.492h-3.288l-1.109-3.496c-.649-2.061-1.529-3.149-3.729-3.149h-1.157v6.645h-3.011v-15.792h6.9m11.749 0l3.288 5.835 3.288-5.835h3.753l-5.536 8.591v7.201h-3.011v-7.201l-5.463-8.591h3.68M107.911 217.94l11.41-1.431s-.613-2.086-3.721-2.004c-1.799.047-4.09.327-4.09.327l-3.599 3.108"/></g><g class="D"><path d="M116.09 230.538l3.599-.9-3.313.245-9.284.981"/><path d="M126.314 234.791l11.008-23.361-31.379-13.637-11.008 23.36 31.378 13.638" stroke="#fff" class="C F"/></g><path d="M133.342 204.047l-19.497-8.666" stroke="#fff" stroke-linecap="round" class="B C F"/><g class="D"><path d="M108.647 244.607s-.067.056 6.589-.007l6.294.129-1.713-3.568h-9.941l-1.229 3.445"/><path d="M107.788 241.662h14.192v-12.288l-14.192-6.119v18.407"/></g><g fill="#fff"><path d="M108.648 240.926v-22.961c0-2.193 2.646-4.768 6.011-4.768s6.176 2.575 6.176 4.768v22.961c-.181-.135-12.007.293-12.187 0"/><path d="M106.929 228.779l9.447.123 1.841 10.633-8.016.162-3.272-10.919"/></g><path d="M106.929 228.779l9.447.123 1.841 10.633-8.016.162z" stroke-width=".687" class="B C E"/><path d="M118.34 239.453l-1.841-10.551 2.822-.246-.368 9.447-.613 1.35" class="D"/><path d="M106.548 229.272v-11.284c0-2.499 1.694-4.792 4.961-4.792 2.045 0 4.906 2.293 4.906 4.792v11.284c-.175-.153-9.693.335-9.868 0" fill="#fff"/><path d="M106.548 229.272v-11.284c0-2.499 1.694-4.792 4.961-4.792 2.045 0 4.906 2.293 4.906 4.792v11.284c-.175-.153-9.693.335-9.868 0z" stroke-miterlimit="2" stroke-width=".9" class="B E"/><path d="M128.278 248.289h-26.011v-2.945h26.011v2.945" class="D"/><path d="M55.774 48.933l.192.401-.163-.424.635.599-.597-.641.435.152-.402-.179 1.319-.037-1.325-.039.401-.196-.423.163.597-.636-.646.599.157-.435-.181.401-.035-1.32-.044 1.325-.193-.401.166.429-.636-.603.597.645-.434-.152.399.18-1.317.032 1.325.044-.402.195.423-.163-.597.629.646-.596-.157.433.179-.396.039 1.315.041-1.325" fill="#fff"/><use xlink:href="#B" stroke="#f1511b" stroke-width="5.747" class="B C"/><defs ><path id="B" d="M2.873 128.899c0 69.604 56.425 126.028 126.028 126.028S254.93 198.503 254.93 128.899 198.505 2.87 128.902 2.87 2.873 59.295 2.873 128.899z"/></defs></svg>